<?xml version="1.0" standalone="no"?><!DOCTYPE svg PUBLIC "-//W3C//DTD SVG 1.1//EN" "http://www.w3.org/Graphics/SVG/1.1/DTD/svg11.dtd"><svg class="icon" width="200px" height="200.00px" viewBox="0 0 1024 1024" version="1.1" xmlns="http://www.w3.org/2000/svg"><path d="M80.97369062 393.37383017l118.62616982 79.97872988 57.43438992 38.64743995c11.80893999-36.50035994 24.15464997-72.4639499 35.96358995-108.96430985 18.78694997-56.89761992 37.57389995-114.33200984 56.89761992-171.22962975l51.52991992-156.20006979L426.11680012 2.06850072H70.77506062C32.66439067 2.06850072 2.06850072 32.66439067 2.06850072 70.77506062V340.23360024l78.9051899 53.14022993z m142.78081979 393.98917945c-13.95601998 42.94159994-28.44880997 85.34642989-42.40482994 128.2880298L152.3641005 1002.6077793l-6.44123997 19.32371998H914.57749944l-76.2213399-51.52991993-118.62616983-79.97872989-140.63373981-95.00828986-151.36913978-101.98629986L286.55660032 598.41996987c-3.75739 10.73539998-7.51477999 22.00756997-10.73539999 32.74296996-17.17663997 52.06668993-34.89004995 104.13337985-52.06668992 156.20006979z m-134.72926981 233.49494965c0-0.53676999 0.53676999-1.07354 0.53677-2.14707998 4.83092999-15.56632998 10.19862998-31.13265995 15.56632997-46.16221995 10.73539998-32.74296996 21.47079998-65.4859399 32.20619997-97.69213985 15.02955998-45.62544994 30.05911996-90.71412987 45.08867993-136.33957981l53.14022991-161.03099978 3.75739-10.73539997-98.22890986-66.55947992-111.64815983-75.68456988L2.06850072 406.25631016v546.96862922c0 37.57389995 30.59588996 68.70655991 68.7065599 68.7065599h18.25017998v-1.07354001zM953.22493938 2.06850072H484.08796005c-13.41924998 41.33128995-27.37526996 82.12580988-40.79451996 123.45709983l-53.14022992 161.03099977-57.97115991 173.37670975-27.91203997 84.27288988 35.96358995 24.15464997 151.36913978 101.98629986 149.75882979 100.91275985 136.33957981 92.32443987 112.18492985 75.6845699 75.68456989 50.99314992 27.91203996 18.78694998c17.71340998-12.88247998 28.44880997-33.81650995 28.44880996-55.82407992V70.77506062c0-38.11066995-30.59588996-68.70655991-68.7065599-68.7065599z m-331.72385954 529.79198925c-71.3904099 0-129.36156981-57.97115992-129.36156981-129.36156981s57.97115992-129.36156981 129.36156981-129.36156982 129.36156981 57.97115992 129.36156982 129.36156982-57.97115992 129.36156981-129.36156982 129.36156981zM550.64743995 402.49892016c0 39.18420994 31.66942995 71.3904099 71.39040989 71.39040989 39.18420994 0 71.3904099-31.66942995 71.3904099-71.39040989 0-39.18420994-31.66942995-71.3904099-71.3904099-71.39040991s-71.3904099 32.20619995-71.39040989 71.39040991z" /></svg>