<?xml version="1.0" standalone="no"?><!DOCTYPE svg PUBLIC "-//W3C//DTD SVG 1.1//EN" "http://www.w3.org/Graphics/SVG/1.1/DTD/svg11.dtd"><svg class="icon" width="200px" height="200.00px" viewBox="0 0 1024 1024" version="1.1" xmlns="http://www.w3.org/2000/svg"><path d="M1022.46826928 512c0-281.2674796-228.12724968-509.39472929-509.93149929-509.39472929s-509.93149928 228.12724968-509.93149928 509.39472929c0 259.79667964 194.84750973 474.50467933 446.59263939 505.63733929 13.95601998 3.22061999 31.66942995 4.83092999 52.06668992 4.83092999 5.90446999 0 11.27216999-0.53676999 16.63986997-1.07353999 279.12039961-2.68385 504.56379928-229.73755968 504.56379929-509.39472929z m-73.0007199 7.51477999c-1.61030999-25.22818996-4.83092999-50.45637993-10.19862998-74.61102989 0.53676999-8.58831999 0.53676999-16.63986998 0.53677-24.69141997 6.44123999 29.52234996 9.66185998 60.11823991 9.66185998 91.78766987v7.51477999zM75.60599061 512c0-31.13265995 3.22061999-61.19177991 9.12508999-90.17735987 18.78694997 20.39725998 63.33885992 19.86048997 74.0742599-10.19862998 19.32371997 11.80893999 45.62544994 13.41924998 45.62544994 37.03712993 0 76.2213399 2.68385 158.34714978 71.9271799 159.42068978 2.14708001 0 38.64743995 13.95601998 56.36084992 59.04469992 5.90446999 15.56632998 30.05911996 0 56.36084991 0 12.88247998 0 0 22.00756997 0 69.7800999 0 47.23575993 102.52306986 120.77324983 102.52306985 120.77324984-0.53676999 31.66942995 1.07354 56.89761992 3.22062001 77.29487988-23.08110997-0.53676999-42.40482995 2.68385-57.97115992 8.05154998-205.5829097-36.50035994-361.24620949-215.24476969-361.2462095-431.02630938z m544.28477924 423.51152941c-2.14708001-11.27216999-12.34570998-17.17663997-30.05911996-12.34570999 14.49278997-61.19177991 21.47079998-96.08182986 51.52991992-121.84678983 43.47836993-37.57389995 5.36769999-79.97872988-27.91203996-74.61102989-26.30172996 3.75739-9.66185998-32.20619995-32.74296994-34.35327995-23.08110997-2.14708001-53.67699992-48.30929993-87.49350988-64.41239991-17.71340998-8.58831999-35.42681995-31.13265995-62.80208992-32.20619997-24.15464997-1.07354-60.11823991 20.39725998-60.11823991 3.75739 0-53.67699992-5.36769999-91.78766987-6.44123999-106.81722984-1.07354-12.34570998-8.05154999-4.29415999 24.69141997-3.22061999 17.71340998 0.53676999 9.12508999-35.96358995 26.83849996-37.57389995 17.17663997-1.61030999 59.04469992 16.10309998 69.2433299 9.12508998 9.66185998-6.44123999 71.9271799 163.71484977 71.92717989 27.91203996 0-16.10309998-8.58831999-44.01513994 0-59.04469991 32.74296996-60.11823991 63.87562991-108.96430985 61.19177991-116.47908984-1.61030999-4.29415999-33.81650995-7.51477999-59.58146991 1.07353999-8.58831999 2.68385 2.68385 16.63986998-9.66185999 19.32371998-46.69898994 10.73539998-88.03027988-12.34570998-73.53748989-34.35327994 15.02955998-22.54433996 68.1697899-9.66185998 73.0007199-54.75053994 2.68385-25.76495997 4.83092999-55.82407992 6.44124-77.83164988 62.8020899 9.66185998 55.82407992-81.58903989-37.57389996-91.25089988 188.94303973 2.14708001 348.9004995 123.99386983 407.94519942 293.61318959-3.22061999-2.68385-6.44123999-4.29415999-10.19862997-4.83092999-28.44880997-70.3168699-96.61859986-19.32371997-73.5374899 42.94159994-124.53063983 95.54505986-92.86120986 162.64130977-51.52991994 200.75197971 21.47079998 19.86048997 41.86805994 50.45637993 55.28730993 71.9271799-14.49278997 42.40482995 53.67699992 25.22818996 87.49350987-46.69898993-42.40482995 148.14851979-161.56776977 264.09083963-312.40013955 302.20150958z" /></svg>