<?xml version="1.0" standalone="no"?><!DOCTYPE svg PUBLIC "-//W3C//DTD SVG 1.1//EN" "http://www.w3.org/Graphics/SVG/1.1/DTD/svg11.dtd"><svg t="1647215906132" class="icon" viewBox="0 0 1024 1024" version="1.1" xmlns="http://www.w3.org/2000/svg" p-id="30188" xmlns:xlink="http://www.w3.org/1999/xlink" width="200" height="200"><defs><style type="text/css"></style></defs><path d="M512 11.01075342C235.76138433 11.01075342 11.01075342 235.74964248 11.01075342 512S235.76138433 1012.98924658 512 1012.98924658 1012.98924658 788.25035752 1012.98924658 512 788.23861567 11.01075342 512 11.01075342z m0 901.77359873c-220.9932409 0-400.78435215-179.79111124-400.78435215-400.78435215S291.0067591 111.21564785 512 111.21564785 912.78435215 291.0067591 912.78435215 512 732.9932409 912.78435215 512 912.78435215z" p-id="30189"></path><path d="M461.89755279 712.39804699h100.19315258V812.59119957h-100.19315258zM512 211.40880043c-110.67861903 0-200.39804699 89.71942796-200.39804699 200.39804699h100.19315257c0-57.0536187 47.93020612-103.12861351 105.64136807-100.05225044 50.52515358 2.68888221 91.91515275 44.07888138 94.60403496 94.60403494C615.12861351 464.05805203 569.0536187 512 512 512v0.19961134c-28.00429731 2.04308081-50.10244721 25.35064062-50.10244721 53.87157906V662.29559978h100.19315258v-56.40781729c86.43171172-22.25079387 150.29559978-100.7097937 150.29559978-194.08093507C712.39804699 301.12822839 622.67861903 211.40880043 512 211.40880043z" p-id="30190"></path></svg>