<?xml version="1.0" standalone="no"?><!DOCTYPE svg PUBLIC "-//W3C//DTD SVG 1.1//EN" "http://www.w3.org/Graphics/SVG/1.1/DTD/svg11.dtd"><svg t="1626853388495" class="icon" viewBox="0 0 1024 1024" version="1.1" xmlns="http://www.w3.org/2000/svg" p-id="23939" xmlns:xlink="http://www.w3.org/1999/xlink" width="200" height="200"><defs><style type="text/css">@font-face { font-family: feedback-iconfont; src: url("//at.alicdn.com/t/font_1031158_1uhr8ri0pk5.eot?#iefix") format("embedded-opentype"), url("//at.alicdn.com/t/font_1031158_1uhr8ri0pk5.woff2") format("woff2"), url("//at.alicdn.com/t/font_1031158_1uhr8ri0pk5.woff") format("woff"), url("//at.alicdn.com/t/font_1031158_1uhr8ri0pk5.ttf") format("truetype"), url("//at.alicdn.com/t/font_1031158_1uhr8ri0pk5.svg#iconfont") format("svg"); }
</style></defs><path d="M216.68992948 165.81457541c-42.17605689 0-76.35186725-35.49623941-76.35186726-79.38108682 0-43.80717511 34.17581037-79.30341452 76.35186726-79.30341451 42.09838459 0 76.27419497 35.49623941 76.27419497 79.30341451 0 43.88484741-34.17581037 79.38108682-76.27419497 79.38108682z m431.85796741 297.87325629H541.82616178V7.13007408H1016.86992592v1011.29329777H541.74848948v-280.8630234H648.70324148v169.869312h261.44494934V118.20145778H648.62556918v345.48637392z m-534.07470934 197.2876326H7.59610785V410.24929185c0-110.91603911 93.43977245-198.29737245 206.06460207-198.29737244S419.56996741 299.33325275 419.56996741 410.24929185v139.65478874H648.70324148v111.07138371H312.8482323V410.24929185c0-46.83639467-43.26346903-87.22598875-99.18752238-87.22598874-55.92405333 0-99.18752237 40.38959408-99.18752237 87.22598874v250.72617245z m99.18752237-290.41671585c29.51547259 0 53.36086755 24.85513482 53.36086756 55.53569185v592.40660385H160.22217008V426.0944403c0-30.60288475 23.92306725-55.53569185 53.43853984-55.53569185z" p-id="23940"></path></svg>