<?xml version="1.0" standalone="no"?><!DOCTYPE svg PUBLIC "-//W3C//DTD SVG 1.1//EN" "http://www.w3.org/Graphics/SVG/1.1/DTD/svg11.dtd"><svg t="1686856405242" class="icon" viewBox="0 0 1024 1024" version="1.1" xmlns="http://www.w3.org/2000/svg" p-id="28876" xmlns:xlink="http://www.w3.org/1999/xlink" width="200" height="200"><path d="M962.88679937 61.11320063a50.09853366 50.09853366 0 0 1 50.09853365 50.09853367v801.5765314a50.09853366 50.09853366 0 0 1-50.09853365 50.09853367H61.11320063a50.09853366 50.09853366 0 0 1-50.09853365-50.09853367V111.2117343a50.09853366 50.09853366 0 0 1 50.09853365-50.09853367h901.77359874zM381.69371498 311.60586655h-100.19706613l-160.31530723 400.7882669h107.91224065l20.0394137-50.09853367h164.82417404l20.0394137 50.09853367h107.96233958L381.69371498 311.60586655zM862.68973322 311.60586655h-100.19706729v100.19706732h-50.09853248a150.29559978 150.29559978 0 0 0-8.81734264 300.34070611L712.39413345 712.39413345h150.29559977V311.60586655z m-100.19706729 200.39413345v100.19706613h-50.09853248l-5.86152841-0.35068895a50.09853366 50.09853366 0 0 1 0-99.49568706L712.39413345 512h50.09853248z m-430.8974846-55.8598642L373.92844272 562.09853366H289.16172443l42.4334569-105.95839786z" p-id="28877"></path></svg>