<?xml version="1.0" standalone="no"?><!DOCTYPE svg PUBLIC "-//W3C//DTD SVG 1.1//EN" "http://www.w3.org/Graphics/SVG/1.1/DTD/svg11.dtd"><svg class="icon" width="200px" height="191.04px" viewBox="0 0 1072 1024" version="1.1" xmlns="http://www.w3.org/2000/svg"><path d="M442.20285977 1007.16896048c120.76013148-170.61523164 203.29801951-378.34481563 252.59917414-707.38847666 2.21578225-15.5104756 0 51.51693683 0 66.47346686 0 208.28352955-53.17877351 367.26590449-89.18523473 465.31426814-4.43156445 12.18680227 1.66183667 26.03544119 13.84863893 30.46700567 2.21578225 1.10789112 4.98551001 1.10789112 7.20129224 1.66183665 77.55237802 2.76972779 247.6136641-16.06442116 262.57019417-262.0162486 13.29469337-218.25454959-98.04836364-486.91814486-154.55081049-614.32562304-4.43156445-9.97102003-16.61836672-1.10789112-22.71176784 23.81965896-22.71176785 89.18523471-168.95339498 177.26257834-247.61366411 289.15958091-162.85999383 232.1031885-105.24965589 398.84080125 19.3880945 517.93909608 8.86312892 8.30918336 10.52496559 22.1578223 3.87761891 32.68278787-21.04993118 33.790679-34.89857011 93.06285362-84.75367027 120.76013148-80.3221058 46.53142681 1.10789112 89.73918028 39.33013455 35.45251568z m-117.43645813-409.91971241C289.86783153 509.17190448 262.72449922 404.47619415 250.53769697 273.74504262c-1.10789112-11.07891114-17.72625783-11.63285671-19.38809451-0.55394555-19.94204006 165.07577607 29.35911454 264.23203083 52.07088239 337.90678997 2.76972779 8.86312892-2.21578225 18.83414895-11.07891117 21.60387672-1.66183667 0.55394555-3.87761891 0.55394555-5.53945556 0.55394553-57.05639241-0.55394555-181.14019723-21.04993118-182.80203391-202.74407395-2.21578225-161.19815718 90.29312583-354.52515666 136.82455265-446.48011918 4.43156445-9.41707448 12.18680227 0 16.06442116 18.28020339 13.84863893 66.47346689 117.99040371 137.3784982 171.72312277 222.68611403 7.7552378 12.18680227 14.95653004 24.37360451 21.04993118 36.00646123-6.09340113 7.20129224-11.63285671 15.5104756-17.17231228 22.71176784-87.52339805 123.52985927-106.91149256 226.56373294-87.52339805 313.53318542z" /></svg>