<?xml version="1.0" standalone="no"?><!DOCTYPE svg PUBLIC "-//W3C//DTD SVG 1.1//EN" "http://www.w3.org/Graphics/SVG/1.1/DTD/svg11.dtd"><svg class="icon" width="200px" height="200.00px" viewBox="0 0 1024 1024" version="1.1" xmlns="http://www.w3.org/2000/svg"><path d="M834.32847125 691.0970582V447.36555344c0-166.85673651-118.61206913-305.52259048-273.00887478-330.16505114v-98.3617919h-98.62763457v98.38490865c-154.30433862 24.72336932-272.81238236 163.34298977-272.81238236 330.11881763 0 13.17655027-0.04623351 38.83614814-0.04623351 38.92861518v203.51990969c0 35.24149277-7.99839718 118.79700317-82.04136296 133.61484304L68.15830687 831.35796825v92.37455238h170.89061024l175.90694603 0.3583097c8.28735662 46.09480917 48.56830194 81.07045926 97.04413686 81.07045927 48.33713439 0 88.5256127-34.77915767 96.97478659-80.67747444l175.88382928 0.35830971H955.84169313v-92.37455238l-39.6336762-7.92904692c-73.90426525-14.80628148-81.89110405-98.18841622-81.87954568-133.44146737zM256.47895027 825.12800282c20.70105397-37.16018342 31.99358871-83.20875908 31.9935887-135.48730017V486.36351887s0.04623351-25.77518166 0.04623352-39.00952381c0-129.81213686 100.30359929-235.4210314 223.59681129-235.42103139s223.59681129 105.60889453 223.59681128 235.42103139V692.7845813c0.23116754 51.38854603 11.44279365 96.70894392 31.83177143 133.38367549l-511.06521622-1.04025397zM254.60649313 200.67510405l-62.81978131-76.0310067C75.60190194 220.62486349 8.97941446 362.03005291 8.97941446 512.57791887h98.62763457c0-121.0393284 53.58463774-234.72752875 146.9994441-311.90281482zM916.39295097 512.57791887h98.62763457c0-150.66344973-66.71495449-292.13798941-183.02690653-388.13031393l-62.78510617 76.06568184C862.73896297 277.7116896 916.39295097 391.44612346 916.39295097 512.57791887z" /></svg>