<?xml version="1.0" standalone="no"?><!DOCTYPE svg PUBLIC "-//W3C//DTD SVG 1.1//EN" "http://www.w3.org/Graphics/SVG/1.1/DTD/svg11.dtd"><svg t="1686856414951" class="icon" viewBox="0 0 1024 1024" version="1.1" xmlns="http://www.w3.org/2000/svg" p-id="29015" xmlns:xlink="http://www.w3.org/1999/xlink" width="200" height="200"><path d="M231.44821374 4.33486335A227.11335037 227.11335037 0 0 1 458.5615641 231.44821374V458.5615641H231.44821374a227.11335037 227.11335037 0 0 1 0-454.22670075zM351.68469357 351.68469357V231.44821374A120.23647984 120.23647984 0 1 0 231.44821374 351.68469357H351.68469357z m-120.23647983 213.75374233H458.5615641v227.11335036A227.11335037 227.11335037 0 1 1 231.44821374 565.4384359z m0 106.87687053A120.23647984 120.23647984 0 1 0 351.68469357 792.55178626V672.31530643H231.44821374z m561.10357252-667.98044308a227.11335037 227.11335037 0 1 1 0 454.22670075H565.4384359V231.44821374a227.11335037 227.11335037 0 0 1 227.11335036-227.11335039z m0 347.34983022A120.23647984 120.23647984 0 1 0 672.31530643 231.44821374V351.68469357h120.23647983zM565.4384359 565.4384359h227.11335036A227.11335037 227.11335037 0 1 1 565.4384359 792.55178626V565.4384359z m106.87687053 106.87687053v120.23647983A120.23647984 120.23647984 0 1 0 792.55178626 672.31530643H672.31530643z" p-id="29016"></path></svg>