<?xml version="1.0" standalone="no"?><!DOCTYPE svg PUBLIC "-//W3C//DTD SVG 1.1//EN" "http://www.w3.org/Graphics/SVG/1.1/DTD/svg11.dtd"><svg class="icon" width="200px" height="200.00px" viewBox="0 0 1024 1024" version="1.1" xmlns="http://www.w3.org/2000/svg"><path d="M885.54295167 204.49581791c-125.26802122-123.50822078-301.66938732-164.92548659-460.37360842-107.99223748C241.43134516 162.40933199 127.16827085 334.2748755 130.56394177 524.03585047l-64.44338239-49.8196919c-16.23477478-12.54167363-39.5831078-9.54257777-52.14956764 6.69219701-12.54167363 16.25956098-9.56736396 39.607894 6.692197 52.14956764l131.04313923 101.27525427c6.76655562 5.22982785 14.77240561 7.75799219 22.72868531 7.75799218 0.66922012 0 1.33843918-0.19828752 2.00765932-0.22307373 0.71879148 0.04957135 1.43758294 0.22307374 2.15637443 0.22307373 8.72464253 0 17.44928505-3.04866722 24.5132709-9.24514647l115.37843975-101.27525429c15.44162573-13.53311019 16.95356625-37.03015939 3.42045605-52.47178511-13.55789639-15.41683953-37.03015939-16.95356625-52.47178512-3.42045607l-64.17073733 56.33838759c-6.66741186-161.90160557 89.15494082-309.60087976 245.05835466-365.54269336 131.51407182-47.16759867 278.29626808-12.34338612 383.06633596 90.96431262 104.00170505 102.5393359 140.68486075 247.73523303 95.69842273 378.92708844-41.34290825 120.58348246-144.62582183 209.31706309-276.28860876 237.37472003-131.48928563 27.93372802-261.68970446-10.8562318-348.29169583-103.8529889-14.00404279-15.02026555-37.52587714-15.91255833-52.54614269-1.8589442-15.02026555 13.97925658-15.86298594 37.52587714-1.8589442 52.54614269 82.41317141 88.4857207 196.92410457 136.4712546 318.69731112 136.4712546 32.79176704 0 66.12882422-3.47002846 99.46588248-10.58358673C825.68496321 912.92687686 949.49061526 806.0252197 999.38466473 660.48231993 1053.69060679 502.00117149 1010.06739415 327.2852472 885.54295167 204.49581791zM539.75463292 271.81436621c-20.54752468 0-37.1788745 16.63134982-37.1788745 37.17887449l0 247.338658c0 20.52273848 16.63134982 37.1788745 37.1788745 37.1788745l247.33865797 0c20.52273848 0 37.1788745-16.65613603 37.17887449-37.1788745s-16.65613603-37.1788745-37.17887449-37.1788745l-210.15978454 0 0-210.15978454C576.95829362 288.47050224 560.30215759 271.81436621 539.75463292 271.81436621z" /></svg>