<?xml version="1.0" standalone="no"?><!DOCTYPE svg PUBLIC "-//W3C//DTD SVG 1.1//EN" "http://www.w3.org/Graphics/SVG/1.1/DTD/svg11.dtd"><svg class="icon" width="200px" height="200.00px" viewBox="0 0 1024 1024" version="1.1" xmlns="http://www.w3.org/2000/svg"><path d="M692.23506748 388.5917222c24.84045298 35.95627212 38.22480663 78.60472106 38.22480662 123.29485108 0 58.18791039-22.68534519 112.85959228-63.74581996 153.92006706s-95.73215666 63.74581997-153.92006707 63.74581994-112.85959228-22.68534519-153.92006704-63.74581994c-41.06047478-41.06047478-63.74581997-95.73215666-63.74581997-153.92006706s22.68534519-112.85959228 63.74581997-153.92006706c36.86368593-36.86368593 84.61633752-58.86847076 135.99864436-63.06525961l-5.78476302-72.36625112c-149.26957131 12.02323295-266.55280587 137.0194849-266.55280588 289.35157779 0 160.2719637 129.98702789 290.2589916 290.25899158 290.25899158s290.2589916-129.98702789 290.25899161-290.25899158c0-61.02357853-18.82883651-117.51008805-50.92859993-164.24189912l-59.88931127 40.94704804zM512.11342672 5.32281536v470.60748581c-20.07653048 0-36.29655229 16.2200218-36.2965523 36.29655228s16.2200218 36.29655229 36.2965523 36.2965523 36.29655229-16.2200218 36.2965523-36.2965523c0-8.7338579-3.06252158-16.67372871-8.16672426-22.91219864l365.68776431-296.27060805 0.45370691-0.45370691c0.11342672 0 0.11342672-0.11342672 0.22685346-0.11342673C813.71509091 77.57563977 671.70483008 4.07512138 512.4537069 4.07512138h-0.34028018v1.24769398zM930.99832551 225.03038344l-0.4537069 0.45370692c-0.11342672 0-0.11342672 0.11342672-0.22685347 0.11342671l-59.09532418 40.60676788c16.2200218 23.81961243 30.17150908 49.11377233 41.40075496 75.88247965 22.68534519 53.53741463 34.14144449 110.36420431 34.14144449 169.0058216s-11.45609931 115.58183371-34.14144449 169.00582159c-21.8913581 51.72258701-53.19713444 98.22754462-93.12334198 138.04032543-39.92620751 39.92620751-86.43116515 71.23198387-138.04032543 93.12334197-53.53741463 22.68534519-110.36420431 34.14144449-169.00582161 34.14144452S396.87187321 933.94742037 343.4478853 911.26207519c-51.72258701-21.8913581-98.22754462-53.19713444-138.04032543-93.12334197-39.92620751-39.92620751-71.23198387-86.43116515-93.12334196-138.04032543-22.68534519-53.53741463-34.14144449-110.36420431-34.14144451-169.00582159s11.45609931-115.58183371 34.14144451-169.0058216c21.8913581-51.72258701 53.19713444-98.22754462 93.12334196-138.04032545 39.92620751-39.92620751 86.43116515-71.23198387 138.04032543-93.12334195 42.87530239-18.14827614 87.90571257-29.15066855 134.29724347-32.7803238l-5.67133628-71.11855715-0.11342674-1.24769398C210.85204272 26.30675965 5.4362421 244.65320702 5.4362421 511.0925862c0 279.93715955 226.96687855 507.01746481 507.0174648 507.01746482s507.01746481-226.96687855 507.01746482-507.01746482c-0.11342672-106.16741546-32.66689707-204.62181354-88.47284621-286.06220276z" /></svg>