<?xml version="1.0" standalone="no"?><!DOCTYPE svg PUBLIC "-//W3C//DTD SVG 1.1//EN" "http://www.w3.org/Graphics/SVG/1.1/DTD/svg11.dtd"><svg class="icon" width="200px" height="200.00px" viewBox="0 0 1024 1024" version="1.1" xmlns="http://www.w3.org/2000/svg"><path d="M929.63507209 450.50796437L806.92575997 551.9222687l-111.17764738-91.91750112c-8.15471048 15.36889926-18.33606318 29.50373074-29.97692706 42.29999205 72.94033327 51.5760486 121.02318335 138.85669563 121.02318335 237.5915112 0 6.08932016-0.6763302 12.01542869-1.46303372 17.9368405 7.53591531 0.72799431 14.84638721 1.171836 21.59325062 1.171836 75.91923903 0 209.08818555-44.13876478 209.08818555-130.08084162 0-73.47928389-34.07952725-138.2954355-86.37769924-178.41731552z m-212.63187398-54.87080994c24.85513481 19.22139819 56.01329135 30.78711427 89.92256186 30.78711426 81.14905622 0 146.88929092-65.37858591 146.88929092-145.9511176 0-80.63124092-65.74140888-145.95346598-146.88929092-145.95346598-63.15350652 0-116.85952557 39.73087665-137.610886 95.32615834 31.32489071 36.09677602 50.3889482 82.9772613 50.3889482 134.21631898-0.00117419 10.78723185-1.06850778 21.23512439-2.70062406 31.574992z m-358.45030875 106.66877939c-11.69722473-12.7962613-21.81986821-26.93109278-29.97340451-42.29999206l-111.23870497 91.9186753-122.70696375-101.41782687C42.392005 490.62984441 8.2549427 555.44482181 8.2549427 628.9252799c0 85.94207684 133.16659815 130.08084161 209.08583718 130.08084162 6.74921178 0 14.05968369-0.44619006 21.59559899-1.17183602-0.73151686-5.92141179-1.46303373-11.84752033-1.46303372-17.93684048 0-98.7336414 48.08402428-186.01428842 121.07954421-237.59033702zM217.34077988 426.42544286c33.91279307 0 65.06742705-11.56571607 89.97774853-30.78711426-1.63094209-10.33986759-2.6971015-20.78776015-2.6971015-31.5738178 0-51.24140605 19.06405749-98.11954297 50.33023898-134.21631897-20.75136044-55.59645589-74.45503111-95.32615835-137.61088601-95.32615836-81.09269538 0-146.88694256 65.32105087-146.88694256 145.9522918 0 80.5725317 65.79424717 145.95111761 146.88694256 145.95111759z m424.8105128 119.18558483l-130.01743565 107.45313456-129.96342319-107.45313456c-57.75225841 43.13953387-95.54338246 113.99099316-95.54338246 194.28759152 0 92.75586875 143.6297551 140.36199998 225.50797983 140.36199998 81.93575976 0 225.56434067-47.60613123 225.56434067-140.36199998 0-80.29659837-37.84983327-151.14805764-95.5480792-194.28759152z m-130.01743565-24.13770816c87.50491624 0 158.47496813-70.46045587 158.47496812-157.40880873 0-86.88964362-70.9700519-157.35127368-158.47379394-157.35127369-87.44855539 0-158.4174331 70.46280425-158.41743311 157.35244787 0 86.94600448 70.96887771 157.40763453 158.41743311 157.40763455z" /></svg>