<?xml version="1.0" standalone="no"?><!DOCTYPE svg PUBLIC "-//W3C//DTD SVG 1.1//EN" "http://www.w3.org/Graphics/SVG/1.1/DTD/svg11.dtd"><svg class="icon" width="200px" height="200.00px" viewBox="0 0 1024 1024" version="1.1" xmlns="http://www.w3.org/2000/svg"><path d="M684.9691962 307.27667482l-302.24779027 302.30123036a53.4384359 53.4384359 0 1 0 75.56194695 75.56194694l302.30123035-302.24779026A160.31530643 160.31530643 0 1 0 533.84530107 156.1527797l-302.30122909 302.3012291a267.19217699 267.19217699 0 1 0 377.86317728 377.80973969L911.70847836 534.01595699l75.56194817 75.56194819-302.30123033 302.30122909a374.06904878 374.06904878 0 1 1-529.04051126-529.04051127l302.35466794-302.24779147a267.19217699 267.19217699 0 0 1 377.80973969 377.80973966L533.84530107 760.80867675A160.31530643 160.31530643 0 1 1 307.10601891 534.01595699l302.30123035-302.3012291 75.56194694 75.56194693z" /></svg>