<?xml version="1.0" standalone="no"?><!DOCTYPE svg PUBLIC "-//W3C//DTD SVG 1.1//EN" "http://www.w3.org/Graphics/SVG/1.1/DTD/svg11.dtd"><svg class="icon" width="200px" height="200.00px" viewBox="0 0 1024 1024" version="1.1" xmlns="http://www.w3.org/2000/svg"><path d="M511.99999998 8.52010487C236.90537536 8.52010487 8.77812569 236.64735454 8.77812569 511.74197916 8.77812569 786.83660376 236.90537536 1014.96385344 511.99999998 1014.96385344c275.09462462 0 503.22187429-228.12724968 503.22187429-503.22187428C1015.22187427 236.64735454 787.09462459 8.52010487 511.99999998 8.52010487zM511.99999998 947.86760354C270.45350032 947.86760354 75.8743756 753.28847881 75.8743756 511.74197916S270.45350032 75.61635477 511.99999998 75.61635477 948.12562436 270.19547949 948.12562436 511.74197916 753.54649964 947.86760354 511.99999998 947.86760354zM344.25937522 478.19385421L458.32300006 377.54947934 411.35562512 323.87247942 210.06687541 511.74197916 404.64600012 713.03072887 451.61337507 666.06335393 337.54975023 545.2901041 813.93312455 545.2901041 813.93312455 478.19385421Z" /></svg>