<?xml version="1.0" standalone="no"?><!DOCTYPE svg PUBLIC "-//W3C//DTD SVG 1.1//EN" "http://www.w3.org/Graphics/SVG/1.1/DTD/svg11.dtd"><svg class="icon" width="200px" height="200.00px" viewBox="0 0 1024 1024" version="1.1" xmlns="http://www.w3.org/2000/svg"><path d="M791.39784025 117.71000008l-41.64654323-72.11803734 74.45700165-42.96762412 108.28534247 187.55021308-186.12084622 107.44071619-43.3141374-75.02008483 48.23029131-27.85099073A411.78749968 411.78749968 0 0 0 512 118.66291132c-227.24761905 0-411.48430019 182.7856579-411.48430019 408.30071162C100.51569981 752.45701925 284.75238095 935.24267716 512 935.24267716s411.48430019-182.7856579 411.48430019-408.30071162a404.12089702 404.12089702 0 0 0-38.592896-172.88837689l75.12837079-43.40076597A489.14654781 489.14654781 0 0 1 1010.11257397 526.96362294C1010.11257397 799.92931284 787.1097407 1021.22123817 512 1021.22123817S13.88742603 799.92931284 13.88742603 526.96362294C13.88742603 253.97627462 236.8902593 32.68434928 512 32.68434928c103.5424447 0 199.72148521 31.35943517 279.39784025 85.0256508z m-104.84186819 523.23477333l-45.91298539 72.89769245L447.02879492 593.75402192V312.06053214h86.62827378v234.04793905l152.89890336 94.83630222z" /></svg>