<?xml version="1.0" standalone="no"?><!DOCTYPE svg PUBLIC "-//W3C//DTD SVG 1.1//EN" "http://www.w3.org/Graphics/SVG/1.1/DTD/svg11.dtd"><svg class="icon" width="200px" height="200.00px" viewBox="0 0 1024 1024" version="1.1" xmlns="http://www.w3.org/2000/svg"><path d="M280.8324515 651.39403175l-92.35143563 161.70170017H257.71569665l-69.23468078 138.46936156 230.82079718-207.8196261h-69.23468078l69.23468078-92.35143563zM992.36616579 433.28744973c-14.56355556-34.09721341-35.36863492-64.72691357-61.95290301-91.0800141-26.4686843-26.23751675-57.21396825-46.81142857-91.54234921-61.25940036-33.51929453-13.98563668-68.88792945-21.61416579-105.29681833-22.4232522-3.583097-13.29213404-8.0908642-26.35310053-13.63888537-39.18289947-15.2570582-35.83097002-37.10239154-67.96325926-64.95808112-95.47219754-27.74010582-27.50893827-60.10356262-49.12310405-96.0501164-64.14899471-37.21797531-15.60380952-76.74762611-23.57908995-117.43311465-23.57908994s-80.21513933 7.97528043-117.43311463 23.57908994c-35.94655379 15.14147443-68.31001059 36.64005643-96.0501164 64.14899471-27.8556896 27.50893827-49.58543916 59.64122751-64.95808113 95.47219754-15.83497707 37.21797531-23.92584127 76.63204233-23.92584127 117.20194708 0 7.05061023 0.23116754 14.10122046 0.69350264 21.1518307-24.85051146 13.63888536-47.38934744 31.32320282-66.69183774 52.70620105-41.84132627 46.58026103-64.95808113 106.45265608-64.95808112 168.63672663 0 34.09721341 6.81944268 67.26975662 20.22716049 98.59295944 12.82979894 30.0517813 31.20761905 56.98280071 54.55554144 80.21513933 8.43761552 8.32203175 17.33756614 15.95056084 26.69985185 23.00117108l36.52447266-84.14498766c-30.86086773-29.93619754-50.16335802-71.66194003-50.16335802-117.66428219 0-84.02940389 64.26457849-153.72641976 146.44464198-163.43545679-9.82462081-24.38817637-15.37264198-50.97244444-15.37264198-78.82813403 0-117.43311464 96.0501164-212.67414462 214.52348501-212.67414462s214.523485 95.24102998 214.52348501 212.67414462c0 7.85969665-0.4623351 15.60380952-1.27142152 23.11675485 22.42325221-8.55319929 46.69584479-13.52330159 72.23985892-13.52330159 110.61367195 0 200.42226455 88.99950617 200.42226454 198.68850794 0 66.92300529-33.28812698 125.98631394-84.49173898 162.0484515L824.19177425 814.82948854c43.80625044-15.60380952 83.451485-41.61015873 115.46819048-76.40087478 48.66076897-52.9373686 75.47620459-121.59413051 75.47620459-193.25607055 0-38.83614814-7.6285291-76.40087478-22.77000353-111.88509348zM598.10991182 926.25224691H472.23918166c-7.51294532 0-13.63888536-6.12594003-13.63888536-13.63888536s6.12594003-13.63888536 13.63888536-13.63888536h125.87073016c7.51294532 0 13.63888536 6.12594003 13.63888536 13.63888536s-6.12594003 13.63888536-13.63888536 13.63888536zM535.23233862 989.12982011c-7.51294532 0-13.63888536-6.12594003-13.63888536-13.63888536V849.73578836c0-7.51294532 6.12594003-13.63888536 13.63888536-13.63888536s13.63888536 6.12594003 13.63888536 13.63888536v125.87073016c-0.11558378 7.51294532-6.12594003 13.52330159-13.63888536 13.52330159zM490.73258554 973.17925926c-3.46751322 0-6.93502646-1.27142151-9.59345327-3.92984832-5.31685362-5.31685362-5.31685362-13.87005291 0-19.18690653l88.99950618-88.99950617c5.31685362-5.31685362 13.87005291-5.31685362 19.18690652 0 5.31685362 5.31685362 5.31685362 13.87005291 0 19.18690652l-88.99950616 88.99950618c-2.65842681 2.54284303-6.12594003 3.92984833-9.59345327 3.92984832zM579.73209171 973.17925926c-3.46751322 0-6.93502646-1.27142151-9.59345326-3.92984832l-88.99950618-88.99950618c-5.31685362-5.31685362-5.31685362-13.87005291 0-19.18690652 5.31685362-5.31685362 13.87005291-5.31685362 19.18690654 0l88.99950616 88.99950617c5.31685362 5.31685362 5.31685362 13.87005291 0 19.18690653-2.65842681 2.54284303-6.12594003 3.92984833-9.59345326 3.92984832zM752.06749912 741.54937566H626.19676897c-7.51294532 0-13.63888536-6.12594003-13.63888537-13.63888536s6.12594003-13.63888536 13.63888537-13.63888536h125.87073015c7.51294532 0 13.63888536 6.12594003 13.63888536 13.63888536s-6.12594003 13.63888536-13.63888536 13.63888536zM689.18992592 804.42694886c-7.51294532 0-13.63888536-6.12594003-13.63888536-13.63888537V665.03291711c0-7.51294532 6.12594003-13.63888536 13.63888536-13.63888536s13.63888536 6.12594003 13.63888537 13.63888536v125.87073016c-0.11558378 7.51294532-6.12594003 13.52330159-13.63888537 13.52330159zM644.69017284 788.47638801c-3.46751322 0-6.93502646-1.27142151-9.59345327-3.92984833-5.31685362-5.31685362-5.31685362-13.87005291 0-19.18690652l88.99950618-88.99950618c5.31685362-5.31685362 13.87005291-5.31685362 19.18690652 0 5.31685362 5.31685362 5.31685362 13.87005291 0 19.18690653l-88.99950616 88.99950617c-2.65842681 2.54284303-6.12594003 3.92984833-9.59345327 3.92984833zM733.68967901 788.47638801c-3.46751322 0-6.93502646-1.27142151-9.59345326-3.92984833l-88.99950618-88.99950617c-5.31685362-5.31685362-5.31685362-13.87005291 0-19.18690653s13.87005291-5.31685362 19.18690654 0l88.99950616 88.99950618c5.31685362 5.31685362 5.31685362 13.87005291 0 19.18690652-2.65842681 2.54284303-6.12594003 3.92984833-9.59345326 3.92984833zM590.48138271 565.3997037H464.61065256c-7.51294532 0-13.63888536-6.12594003-13.63888537-13.63888536s6.12594003-13.63888536 13.63888537-13.63888536h125.87073015c7.51294532 0 13.63888536 6.12594003 13.63888537 13.63888536s-6.12594003 13.63888536-13.63888537 13.63888536zM527.48822575 628.2772769c-7.51294532 0-13.63888536-6.12594003-13.63888536-13.63888536V488.88324516c0-7.51294532 6.12594003-13.63888536 13.63888536-13.63888537s13.63888536 6.12594003 13.63888536 13.63888537v125.87073015c0 7.51294532-6.12594003 13.52330159-13.63888536 13.52330159zM482.98847267 612.32671605c-3.46751322 0-6.93502646-1.27142151-9.59345327-3.92984832-5.31685362-5.31685362-5.31685362-13.87005291 0-19.18690654l88.99950617-88.99950616c5.31685362-5.31685362 13.87005291-5.31685362 19.18690653 0 5.31685362 5.31685362 5.31685362 13.87005291 0 19.18690652l-88.99950618 88.99950618c-2.65842681 2.54284303-6.12594003 3.92984833-9.59345325 3.92984832zM571.98797884 612.32671605c-3.46751322 0-6.93502646-1.27142151-9.59345327-3.92984832l-88.99950617-88.99950618c-5.31685362-5.31685362-5.31685362-13.87005291 0-19.18690652 5.31685362-5.31685362 13.87005291-5.31685362 19.18690652 0l88.99950618 88.99950616c5.31685362 5.31685362 5.31685362 13.87005291 0 19.18690654-2.54284303 2.54284303-6.12594003 3.92984833-9.59345326 3.92984832zM616.1409806 395.14480424c-12.48304762 0-24.96609524-5.31685362-33.6348783-15.60380953-15.60380952-18.49340389-13.29213404-46.2335097 5.20126984-61.83731923 43.34391535-36.40888889 98.24620811-56.52046561 154.88225749-56.52046561 24.27259259 0 43.92183421 19.64924162 43.92183421 43.92183422s-19.64924162 43.92183421-43.92183421 43.92183421c-35.94655379 0-70.73726984 12.71421516-98.13062434 35.83097003-8.20644797 6.93502646-18.26223633 10.28695591-28.31802469 10.28695591z" /></svg>