<?xml version="1.0" standalone="no"?><!DOCTYPE svg PUBLIC "-//W3C//DTD SVG 1.1//EN" "http://www.w3.org/Graphics/SVG/1.1/DTD/svg11.dtd"><svg class="icon" width="200px" height="200.00px" viewBox="0 0 1024 1024" version="1.1" xmlns="http://www.w3.org/2000/svg"><path d="M996.12444445 443.61955555c-14.67733333-34.36088889-35.61244445-65.08088889-62.23644445-91.47733333-26.624-26.39644445-57.57155555-46.99022222-92.04622222-61.55377777-34.24711111-14.336-70.42844445-21.95911111-107.74755556-22.528-3.64088889-13.99466667-8.41955555-27.76177778-14.10844444-41.18755556-15.36-35.95377778-37.31911111-68.26666667-65.30844445-96.02844444-27.87555555-27.648-60.416-49.37955555-96.59733333-64.512-37.43288889-15.70133333-77.14133333-23.66577778-118.10133333-23.66577778s-80.66844445 7.96444445-118.10133334 23.66577778c-36.18133333 15.13244445-68.72177778 36.864-96.59733333 64.512-27.98933333 27.76177778-49.94844445 59.96088889-65.30844445 96.02844444-15.92888889 37.31911111-24.00711111 77.02755555-24.0071111 117.87377778 0 7.62311111 0.34133333 15.24622222 0.91022222 22.86933333-25.48622222 13.76711111-48.69688889 31.85777778-68.38044445 53.70311111-42.09777778 46.64888889-65.30844445 106.60977778-65.30844444 169.07377778 0 34.24711111 6.82666667 67.47022222 20.25244444 98.87288889 12.97066667 30.15111111 31.40266667 57.23022222 54.84088889 80.44088889 23.43822222 23.21066667 50.63111111 41.41511111 80.896 54.15822222 27.98933333 11.83288889 57.57155555 18.432 87.83644444 19.68355556l45.39733334-86.24355556h-34.24711111c-92.61511111 0-168.39111111-75.20711111-168.39111111-167.02577778 0-85.10577778 65.19466667-155.87555555 148.48-165.66044444-10.01244445-24.68977778-15.58755555-51.65511111-15.58755556-79.98577778 0-119.12533333 97.39377778-215.60888889 217.42933334-215.60888889s217.42933333 96.48355555 217.42933333 215.60888889c0 7.96444445-0.45511111 15.81511111-1.36533333 23.43822222 22.75555555-8.76088889 47.33155555-13.65333333 73.1591111-13.65333333 112.18488889 0 203.20711111 90.22577778 203.20711112 201.38666667 0 104.56177778-80.32711111 190.464-183.18222222 200.47644444-5.91644445 0.68266667-11.94666667 1.024-18.09066667 1.024h-64.39822223l-45.5111111 86.47111111h109.90933333c8.64711111 0 17.74933333-0.45511111 26.85155555-1.47911111 70.99733333-6.94044445 136.64711111-39.70844445 185.00266667-92.27377778 48.92444445-53.13422222 75.88977778-122.08355555 75.88977778-194.21866666 0-38.79822222-7.62311111-76.57244445-22.86933333-112.1848889zM423.59466667 687.78666667L329.95555555 851.74044445h70.2008889L329.95555555 992.14222222l234.0408889-210.71644444H493.79555555l70.2008889-93.63911111zM599.60888889 400.95288889c-12.288 0-24.576-5.23377778-33.10933334-15.36-15.36-18.20444445-13.08444445-45.51111111 5.12-60.87111111 43.57688889-36.75022222 98.98666667-57.00266667 156.10311112-57.00266667 23.89333333 0 43.23555555 19.34222222 43.23555555 43.23555556s-19.34222222 43.23555555-43.23555555 43.23555555c-36.75022222 0-72.36266667 12.97066667-100.352 36.63644445-7.96444445 6.71288889-17.86311111 10.12622222-27.76177778 10.12622222z" /></svg>