<?xml version="1.0" standalone="no"?><!DOCTYPE svg PUBLIC "-//W3C//DTD SVG 1.1//EN" "http://www.w3.org/Graphics/SVG/1.1/DTD/svg11.dtd"><svg t="1647216770306" class="icon" viewBox="0 0 1024 1024" version="1.1" xmlns="http://www.w3.org/2000/svg" p-id="25831" xmlns:xlink="http://www.w3.org/1999/xlink" width="200" height="200"><defs><style type="text/css"></style></defs><path d="M251.0012977 373.90920167l30.72625217-30.72625216 189.47927888 189.48072652 0.28084301-0.28229067c-3.20074175 21.87245909 3.37301141 44.90303368 20.2033251 61.73334737 28.28262845 28.28262845 74.13965977 28.28262845 102.42228821 0 28.28262845-28.27973316 28.28262845-74.13821213 0-102.4208406-16.83031368-16.82886603-39.86378356-23.40261922-61.73479499-20.20332508l0.28084301-0.27939538-189.47783124-189.48217417 30.72625217-30.72625215-51.21042029-51.20897267-107.76554365-107.76843893v122.90645633h-122.90645633l107.76554366 107.764096 51.21042029 51.21331559z" p-id="25832"></path><path d="M192.46724443 417.79309368c-33.15250417 113.17828604-5.19125278 240.61876458 83.91705 329.72996267 129.89134052 129.89134052 341.24597377 129.89134052 471.13876192 0s129.89278815-341.24742142 0-471.13876192c-89.10830276-89.11119806-216.54878133-117.07244945-329.72851502-83.91994528l74.30758655 74.31192945c69.49706423-5.57632619 140.91949547 18.01448679 193.96842411 71.0619678 96.01067122 96.01067122 96.01067122 252.22163439 0 348.23085796s-252.22308203 96.01067122-348.23375323 0c-53.04892867-53.04748103-76.63684636-124.46991228-71.06196781-193.96842414l-74.30758652-74.30758654z" p-id="25833"></path><path d="M870.42951268 153.47783808c-158.30570459-158.30570459-396.07695268-189.68918729-586.04843064-94.4255006l65.46826985 65.47116516c152.53539407-63.58633217 335.21219195-33.5057294 459.12620881 90.40828744 163.77924803 163.77924803 163.77924803 430.2659702 0 594.04521826s-430.2659702 163.77924803-594.04521828 0c-123.91401684-123.91401684-153.99606724-306.59226236-90.40828742-459.12620878l-65.46826989-65.47116518c-95.266582 189.97292561-63.88165163 427.74127839 94.42550062 586.0498783 197.66136498 197.65991733 519.28886196 197.65991733 716.95022695 0 197.66136498-197.65991733 197.66136498-519.29175726 0-716.9516746z" p-id="25834"></path></svg>