<?xml version="1.0" standalone="no"?><!DOCTYPE svg PUBLIC "-//W3C//DTD SVG 1.1//EN" "http://www.w3.org/Graphics/SVG/1.1/DTD/svg11.dtd"><svg class="icon" width="200px" height="200.00px" viewBox="0 0 1024 1024" version="1.1" xmlns="http://www.w3.org/2000/svg"><path d="M505.6 1013.33333334C308.842667 1013.33333334 149.333333 853.82400034 149.333333 657.06666634c0-67.2 36.288-159.317333 100.629334-274.069333a2317.653333 2317.653333 0 0 1 62.784-104.896 3431.210667 3431.210667 0 0 1 109.162666-161.621333 3361.28 3361.28 0 0 1 49.834667-67.776L505.6 4.52266634l33.856 44.181334 3.712 4.885333 10.133333 13.525333c10.88 14.613333 22.976 31.168 35.989334 49.365334 37.205333 51.946667 74.389333 106.666667 109.162666 161.621333a2317.653333 2317.653333 0 0 1 62.784 104.896C825.578667 497.74933334 861.866667 589.86666634 861.866667 657.06666634c0 196.757333-159.509333 356.266667-356.266667 356.266667z m-14.293333-847.189333a3347.328 3347.328 0 0 0-106.453334 157.589333 2233.365333 2233.365333 0 0 0-60.458666 100.992C266.944 527.18933334 234.666667 609.13066634 234.666667 657.06666634 234.666667 806.69866634 355.968 928.00000034 505.6 928.00000034c149.632 0 270.933333-121.301333 270.933333-270.933334 0-47.936-32.277333-129.877333-89.728-232.341333-18.112-32.298667-38.4-66.090667-60.458666-100.992a3347.328 3347.328 0 0 0-120.746667-177.429333c-4.629333 6.357333-9.386667 12.992-14.293333 19.84zM320 650.66666634h85.333333a106.666667 106.666667 0 0 0 106.666667 106.666667v85.333333a192 192 0 0 1-192-192z" /></svg>