<?xml version="1.0" standalone="no"?><!DOCTYPE svg PUBLIC "-//W3C//DTD SVG 1.1//EN" "http://www.w3.org/Graphics/SVG/1.1/DTD/svg11.dtd"><svg class="icon" width="200px" height="200.00px" viewBox="0 0 1024 1024" version="1.1" xmlns="http://www.w3.org/2000/svg"><path d="M781.653333 302.698667a343.36 343.36 0 0 0-60.352-60.352l122.56-122.56 60.352 60.352-122.56 122.56zM554.666667 173.312V0h-85.333334v173.312a344.704 344.704 0 0 1 85.333334 0zM302.698667 242.346667a343.36 343.36 0 0 0-60.352 60.352L119.786667 180.138667l60.352-60.352 122.56 122.56zM173.312 469.333333H0v85.333334h173.312a344.704 344.704 0 0 1 0-85.333334z m69.034667 251.968a343.36 343.36 0 0 0 60.352 60.352l-122.56 122.56-60.352-60.352 122.56-122.56zM469.333333 850.688V1024h85.333334v-173.312a344.704 344.704 0 0 1-85.333334 0z m251.968-69.034667a343.36 343.36 0 0 0 60.352-60.352l122.56 122.56-60.352 60.352-122.56-122.56zM850.688 554.666667H1024v-85.333334h-173.312a344.704 344.704 0 0 1 0 85.333334zM512 768c-141.376 0-256-114.624-256-256s114.624-256 256-256 256 114.624 256 256-114.624 256-256 256z m0-85.333333a170.666667 170.666667 0 1 0 0-341.333334 170.666667 170.666667 0 0 0 0 341.333334z" /></svg>