<?xml version="1.0" standalone="no"?><!DOCTYPE svg PUBLIC "-//W3C//DTD SVG 1.1//EN" "http://www.w3.org/Graphics/SVG/1.1/DTD/svg11.dtd"><svg class="icon" width="200px" height="200.00px" viewBox="0 0 1024 1024" version="1.1" xmlns="http://www.w3.org/2000/svg"><path d="M810.666169 725.333831H213.333831v213.332978h597.332338V725.333831z m85.333191-21.333298v319.999467H128.00064V554.688782c0-78.485203 59.583901-154.879742 135.658441-173.909043l90.773182-22.698629-7.893321-190.015683A160.362399 160.362399 0 0 1 507.477341 0.001707h9.002652c92.501179 0 164.842392 75.519874 160.981065 168.06372l-7.914654 190.015683 90.773182 22.698629C836.330126 399.766374 895.99936 476.246246 895.99936 554.667449V704.000533z m-85.333191-63.999893v-85.311858c0-39.295935-33.023945-81.621197-71.018548-91.135848l-158.250403-39.551934 10.815982-259.498234C594.047863 120.428173 560.447919 85.334898 516.479993 85.334898h-8.959986c-43.79726 0-77.567871 35.221275-75.733207 79.167868l10.815982 259.498234-158.250403 39.551934C246.293776 473.067585 213.333831 515.328848 213.333831 554.688782V640.00064h597.332338z" /></svg>