<?xml version="1.0" standalone="no"?><!DOCTYPE svg PUBLIC "-//W3C//DTD SVG 1.1//EN" "http://www.w3.org/Graphics/SVG/1.1/DTD/svg11.dtd"><svg class="icon" width="200px" height="200.00px" viewBox="0 0 1024 1024" version="1.1" xmlns="http://www.w3.org/2000/svg"><path d="M761.12489644 233.0513668l143.16411414-143.11322-71.96376019-71.96375897-144.84360662 144.84360663a334.6263932 334.6263932 0 0 0-36.79617987-23.10576204 294.06407638 294.06407638 0 0 0-277.3709278 0c-12.72343741 6.71797475-24.83614866 14.6065053-36.74528571 23.05486788L191.72564376 17.97438783 119.76188358 89.9381468l143.16411295 143.11322A431.22272784 431.22272784 0 0 0 194.21943662 359.31875578H3.06251884v101.78749574h117.41187681c-3.30809324 25.1924053-5.44563064 50.74106724-5.44563065 76.34062211 0 25.80313028 2.13753742 51.5553664 5.44563065 76.90045416H3.06251884v101.78749574h140.11048924c0.66161913 1.98485617 1.06876871 4.07149944 1.73038665 6.00546267 9.56802424 28.24603018 21.42626833 55.62686705 35.37115571 81.42999613 2.23932453 4.1223936 4.83490566 7.88853056 7.17601847 11.90913705l-118.58243381 118.58243382 71.96376019 71.96375897 107.38580884-107.43670178a380.53255476 380.53255476 0 0 0 105.24827022 82.39697773c24.37810493 12.87611866 49.97766101 22.8512925 76.13704791 29.51837429a331.57276831 331.57276831 0 0 0 164.74306252 0.05089413 346.68821149 346.68821149 0 0 0 76.13704673-29.51837427c23.66559286-12.51986202 46.51688534-27.99156184 67.84136658-46.00794866 13.130587-11.09483668 25.44687363-23.5129116 37.3560107-36.43992322l107.43670179 107.43670178 71.96376017-71.96375897-118.58243262-118.58243382c2.39200576-4.07149944 4.98758692-7.88853056 7.22691143-12.01092415 13.89399322-25.70134319 25.80313028-53.08217884 35.32026157-81.37910316 0.66161913-1.98485617 1.06876871-4.0206065 1.73038783-6.00546268H1020.93748116v-101.78749576h-117.46277095c3.30809324-25.3959807 5.44563064-51.09732267 5.44563065-76.90045293 0-25.59955489-2.13753742-51.14821682-5.39473651-76.34062213H1020.93748116V359.31875578h-191.15691778a432.29149655 432.29149655 0 0 0-68.65566694-126.26738898zM343.08364974 295.59978278c22.6477183-28.39871143 48.85799816-50.53749185 77.76564746-65.85650922a192.02211111 192.02211111 0 0 1 182.25051146 0 249.07400347 249.07400347 0 0 1 77.86743456 65.90740338c15.21723027 18.98336842 27.48262396 40.71499806 38.32299229 63.66807884H304.70976449c10.89126249-22.95308079 23.10576202-44.73560456 38.37388525-63.718973zM807.18373924 537.44687363c0 26.56653649-2.13753742 53.13307299-6.41261225 79.03799158-4.0206065 24.93793695-10.12785626 49.51961728-18.06728098 73.08342182a421.40023407 421.40023407 0 0 1-28.44960556 65.55114793 386.2835479 386.2835479 0 0 1-37.30511655 56.49206037c-13.58863075 16.94761811-28.50049853 32.36842377-44.22666788 45.70258496-15.77706231 13.28326825-32.52110502 24.63257447-49.82497855 33.79344914s-35.37115452 16.13331775-53.79469213 20.8664363c-2.03575033 0.50893787-4.17328774 0.71251207-6.20903686 1.170557V613.78749575h-101.78749696v299.30613285c-2.03575033-0.45804374-4.17328774-0.66161913-6.20903686-1.17055582-18.37264345-4.73311857-36.49081737-11.70556166-53.79469213-20.86643751s-34.04791746-20.51018088-49.7740856-33.79344793a328.87540007 328.87540007 0 0 1-44.32845378-45.75348031 376.71552366 376.71552366 0 0 1-37.20333063-56.39027207 424.30117771 424.30117771 0 0 1-28.50049853-65.60204207 461.86076378 461.86076378 0 0 1-18.11817392-73.18520894A489.08891941 489.08891941 0 0 1 222.87261758 461.10625152H801.07648947c4.0206065 24.98882992 6.10724977 50.63927894 6.10724977 76.34062211z" /></svg>