<?xml version="1.0" standalone="no"?><!DOCTYPE svg PUBLIC "-//W3C//DTD SVG 1.1//EN" "http://www.w3.org/Graphics/SVG/1.1/DTD/svg11.dtd"><svg t="1673746908242" class="icon" viewBox="0 0 1024 1024" version="1.1" xmlns="http://www.w3.org/2000/svg" p-id="26811" xmlns:xlink="http://www.w3.org/1999/xlink" width="200" height="200"><path d="M40.75826827 1.48812399v1021.02375202h431.97158743v-157.08057722h78.5402886v157.08057722h431.97158743V1.48812399z m78.54028863 78.54028861h785.4028862v863.9431748h-274.89101018v-157.08057722h-235.62086584v157.08057722H119.2985569z m78.54028861 78.54028861v78.54028861h157.08057725V158.56870121z m235.62086587 0v78.54028861h157.08057724V158.56870121z m235.62086586 0v78.54028861h157.08057725V158.56870121zM197.83884551 315.64927846v78.54028862h157.08057725v-78.54028862z m235.62086587 0v78.54028862h157.08057724v-78.54028862z m235.62086586 0v78.54028862h157.08057725v-78.54028862zM197.83884551 472.7298557v78.5402886h157.08057725v-78.5402886z m235.62086587 0v78.5402886h157.08057724v-78.5402886z m235.62086586 0v78.5402886h157.08057725v-78.5402886zM197.83884551 629.81043292v78.54028862h157.08057725v-78.54028862z m235.62086587 0v78.54028862h157.08057724v-78.54028862z m235.62086586 0v78.54028862h157.08057725v-78.54028862zM197.83884551 786.89101018v78.54028861h157.08057725v-78.54028861z m471.24173173 0v78.54028861h157.08057725v-78.54028861z" p-id="26812"></path></svg>