<?xml version="1.0" standalone="no"?><!DOCTYPE svg PUBLIC "-//W3C//DTD SVG 1.1//EN" "http://www.w3.org/Graphics/SVG/1.1/DTD/svg11.dtd"><svg t="1713004312001" class="icon" viewBox="0 0 1024 1024" version="1.1" xmlns="http://www.w3.org/2000/svg" p-id="33581" xmlns:xlink="http://www.w3.org/1999/xlink" width="200" height="200"><path d="M279.272727 186.181818V46.545455h93.090909v139.636363h139.636364v93.090909h-139.636364v139.636364h-93.090909v-139.636364H139.636364V186.181818h139.636363zM93.090909 930.909091h930.909091v93.090909H0V0h93.090909v930.909091zM605.090909 186.181818h372.363636v93.090909H605.090909V186.181818z m0 465.454546h372.363636v93.090909H605.090909v-93.090909z m186.181818-46.545455a46.545455 46.545455 0 1 1 0-93.090909 46.545455 46.545455 0 0 1 0 93.090909z m0 279.272727a46.545455 46.545455 0 1 1 0-93.090909 46.545455 46.545455 0 0 1 0 93.090909zM325.818182 632.366545l98.746182-98.746181 65.815272 65.815272L391.633455 698.181818l98.746181 98.746182-65.815272 65.815273L325.818182 763.997091l-98.746182 98.746182-65.815273-65.815273L260.002909 698.181818l-98.746182-98.746182 65.815273-65.815272L325.818182 632.366545z" p-id="33582"></path></svg>