<?xml version="1.0" standalone="no"?><!DOCTYPE svg PUBLIC "-//W3C//DTD SVG 1.1//EN" "http://www.w3.org/Graphics/SVG/1.1/DTD/svg11.dtd"><svg t="1711252785740" class="icon" viewBox="0 0 1024 1024" version="1.1" xmlns="http://www.w3.org/2000/svg" p-id="17508" xmlns:xlink="http://www.w3.org/1999/xlink" width="200" height="200"><path d="M149.03447709 3.84826793H76.4413725v1016.30346414h871.117255V3.84826793H149.03447709z m725.93104582 943.71035957H149.03447709V76.4413725h725.93104582v871.117255z" p-id="17509"></path><path d="M294.22068626 185.33102938h435.55862748v72.59310456H294.22068626zM294.22068626 403.11034313h72.59310457v72.59310458h-72.59310457zM475.70344771 403.11034313h72.59310458v72.59310458h-72.59310458zM657.18620917 403.11034313h72.59310457v72.59310458h-72.59310457zM294.22068626 584.59310458h72.59310457v72.59310459h-72.59310457zM475.70344771 584.59310458h72.59310458v72.59310459h-72.59310458zM657.18620917 584.59310458h72.59310457v72.59310459h-72.59310457zM294.22068626 766.07586606h72.59310457v72.59310456h-72.59310457zM475.70344771 766.07586606h72.59310458v72.59310456h-72.59310458zM657.18620917 766.07586606h72.59310457v72.59310456h-72.59310457z" p-id="17510"></path></svg>