<?xml version="1.0" standalone="no"?><!DOCTYPE svg PUBLIC "-//W3C//DTD SVG 1.1//EN" "http://www.w3.org/Graphics/SVG/1.1/DTD/svg11.dtd"><svg class="icon" width="200px" height="200.00px" viewBox="0 0 1024 1024" version="1.1" xmlns="http://www.w3.org/2000/svg"><path d="M893.8550366 87.12652393H851.89878086c-23.50081415 0-42.4873476 18.98653345-42.48734761 42.4873476s18.98653345 42.4873476 42.48734761 42.48734761h41.95625574c23.6335871 0 43.01843944 19.25207938 43.01843947 43.01843946V427.02530478H87.12652393V215.1196586c0-23.6335871 19.25207938-43.01843944 43.01843947-43.01843946H172.10121914c23.50081415 0 42.4873476-18.98653345 42.48734761-42.48734761s-18.98653345-42.4873476-42.48734761-42.4873476h-41.95625574c-70.50244244 0-127.99313468 57.35791927-127.9931347 127.99313467v678.86815098c0 70.50244244 57.35791927 127.99313468 127.9931347 127.99313465h763.84284618c70.50244244 0 127.99313468-57.35791927 127.99313465-127.99313465V215.1196586c-0.13277294-70.63521538-57.49069224-127.99313468-128.12590763-127.99313467z m0 849.74695214H130.1449634c-23.6335871 0-43.01843944-19.25207938-43.01843947-43.01843947V512h849.74695214v381.8550366c0 23.76636007-19.25207938 43.01843944-43.01843947 43.01843947zM427.02530478 172.10121914h169.94939044c23.50081415 0 42.4873476-18.98653345 42.48734759-42.48734761s-18.98653345-42.4873476-42.48734759-42.4873476H427.02530478c-23.50081415 0-42.4873476 18.98653345-42.48734759 42.4873476s18.98653345 42.4873476 42.48734759 42.48734761zM299.56326198 299.56326198c23.50081415 0 42.4873476-18.98653345 42.48734758-42.4873476V44.63917634c0-23.50081415-18.98653345-42.4873476-42.48734758-42.48734764s-42.4873476 18.98653345-42.4873476 42.48734764v212.43673804c0 23.50081415 18.98653345 42.4873476 42.4873476 42.4873476zM724.43673802 299.56326198c23.50081415 0 42.4873476-18.98653345 42.4873476-42.4873476V44.63917634c0-23.50081415-18.98653345-42.4873476-42.4873476-42.48734764s-42.4873476 18.98653345-42.48734758 42.48734764v212.43673804c0 23.50081415 18.98653345 42.4873476 42.48734758 42.4873476zM299.56326198 596.97469522h-84.97469523c-23.50081415 0-42.4873476 18.98653345-42.48734761 42.48734759s18.98653345 42.4873476 42.48734761 42.48734763h84.97469523c23.50081415 0 42.4873476-18.98653345 42.48734758-42.48734763s-18.98653345-42.4873476-42.48734758-42.48734759zM299.56326198 766.92408562h-84.97469523c-23.50081415 0-42.4873476 18.98653345-42.48734761 42.48734763s18.98653345 42.4873476 42.48734761 42.48734761h84.97469523c23.50081415 0 42.4873476-18.98653345 42.48734758-42.48734761s-18.98653345-42.4873476-42.48734758-42.48734763zM554.4873476 596.97469522h-84.9746952c-23.50081415 0-42.4873476 18.98653345-42.48734762 42.48734759s18.98653345 42.4873476 42.48734762 42.48734763h84.9746952c23.50081415 0 42.4873476-18.98653345 42.48734762-42.48734763s-18.98653345-42.4873476-42.48734762-42.48734759zM554.4873476 766.92408562h-84.9746952c-23.50081415 0-42.4873476 18.98653345-42.48734762 42.48734763s18.98653345 42.4873476 42.48734762 42.48734761h84.9746952c23.50081415 0 42.4873476-18.98653345 42.48734762-42.48734761s-18.98653345-42.4873476-42.48734762-42.48734763zM809.41143325 596.97469522h-84.97469523c-23.50081415 0-42.4873476 18.98653345-42.48734758 42.48734759s18.98653345 42.4873476 42.48734758 42.48734763h84.97469523c23.50081415 0 42.4873476-18.98653345 42.48734761-42.48734763s-18.98653345-42.4873476-42.48734761-42.48734759zM809.41143325 766.92408562h-84.97469523c-23.50081415 0-42.4873476 18.98653345-42.48734758 42.48734763s18.98653345 42.4873476 42.48734758 42.48734761h84.97469523c23.50081415 0 42.4873476-18.98653345 42.48734761-42.48734761s-18.98653345-42.4873476-42.48734761-42.48734763z" /></svg>