<?xml version="1.0" standalone="no"?><!DOCTYPE svg PUBLIC "-//W3C//DTD SVG 1.1//EN" "http://www.w3.org/Graphics/SVG/1.1/DTD/svg11.dtd"><svg t="1646958767654" class="icon" viewBox="0 0 1024 1024" version="1.1" xmlns="http://www.w3.org/2000/svg" p-id="13788" xmlns:xlink="http://www.w3.org/1999/xlink" width="200" height="200"><defs><style type="text/css"></style></defs><path d="M827.84711111 268.97066667l-59.16444444-171.008H255.31733333l-59.16444444 171.008H2.27555555v657.29422222h1019.4488889V268.97066667H827.84711111zM939.80444445 844.34488889H84.19555555V350.89066667h170.21155556l59.16444444-171.008h396.74311112l59.16444444 171.008H939.80444445v493.45422222z" p-id="13789"></path><path d="M509.72444445 366.25066667c-101.60355555 0-184.32 82.71644445-184.32 184.32s82.71644445 184.32 184.32 184.32 184.32-82.71644445 184.32-184.32-82.71644445-184.32-184.32-184.32z m0 286.72c-56.43377778 0-102.4-45.96622222-102.4-102.4s45.96622222-102.4 102.4-102.4 102.4 45.96622222 102.4 102.4-45.96622222 102.4-102.4 102.4zM2.27555555 97.73511111h154.73777778v81.92H2.27555555z" p-id="13790"></path><path d="M827.84711111 268.97066667l-59.16444444-171.008H255.31733333l-59.16444444 171.008H2.27555555v657.29422222h1019.4488889V268.97066667H827.84711111zM939.80444445 844.34488889H84.19555555V350.89066667h170.21155556l59.16444444-171.008h396.74311112l59.16444444 171.008H939.80444445v493.45422222z" p-id="13791"></path><path d="M509.72444445 366.25066667c-101.60355555 0-184.32 82.71644445-184.32 184.32s82.71644445 184.32 184.32 184.32 184.32-82.71644445 184.32-184.32-82.71644445-184.32-184.32-184.32z m0 286.72c-56.43377778 0-102.4-45.96622222-102.4-102.4s45.96622222-102.4 102.4-102.4 102.4 45.96622222 102.4 102.4-45.96622222 102.4-102.4 102.4zM2.27555555 97.73511111h154.73777778v81.92H2.27555555z" p-id="13792"></path></svg>