<?xml version="1.0" standalone="no"?><!DOCTYPE svg PUBLIC "-//W3C//DTD SVG 1.1//EN" "http://www.w3.org/Graphics/SVG/1.1/DTD/svg11.dtd"><svg t="1700888490258" class="icon" viewBox="0 0 1024 1024" version="1.1" xmlns="http://www.w3.org/2000/svg" p-id="17865" xmlns:xlink="http://www.w3.org/1999/xlink" width="200" height="200"><path d="M512 4.87619C234.057143 4.87619 4.87619 234.057143 4.87619 512s229.180952 507.12381 507.12381 507.12381 507.12381-229.180952 507.12381-507.12381S789.942857 4.87619 512 4.87619z m0 916.72381c-224.304762 0-409.6-185.295238-409.6-409.6s185.295238-409.6 409.6-409.6c224.304762 0 409.6 185.295238 409.6 409.6s-185.295238 409.6-409.6 409.6z" p-id="17866"></path><path d="M512 370.590476c-112.152381 0-204.8 92.647619-204.8 204.8S399.847619 780.190476 512 780.190476c112.152381 0 204.8-92.647619 204.8-204.8s-92.647619-204.8-204.8-204.8z m0 312.076191c-58.514286 0-107.27619-48.761905-107.27619-107.276191s48.761905-107.27619 107.27619-107.27619c58.514286 0 107.27619 48.761905 107.27619 107.27619s-48.761905 107.27619-107.27619 107.276191z" p-id="17867"></path><path d="M512 243.809524m-68.266667 0a68.266667 68.266667 0 1 0 136.533334 0 68.266667 68.266667 0 1 0-136.533334 0Z" p-id="17868"></path></svg>