<?xml version="1.0" standalone="no"?><!DOCTYPE svg PUBLIC "-//W3C//DTD SVG 1.1//EN" "http://www.w3.org/Graphics/SVG/1.1/DTD/svg11.dtd"><svg t="1653320702401" class="icon" viewBox="0 0 1024 1024" version="1.1" xmlns="http://www.w3.org/2000/svg" p-id="25529" xmlns:xlink="http://www.w3.org/1999/xlink" width="200" height="200"><defs><style type="text/css">@font-face { font-family: feedback-iconfont; src: url("//at.alicdn.com/t/font_1031158_u69w8yhxdu.woff2?t=1630033759944") format("woff2"), url("//at.alicdn.com/t/font_1031158_u69w8yhxdu.woff?t=1630033759944") format("woff"), url("//at.alicdn.com/t/font_1031158_u69w8yhxdu.ttf?t=1630033759944") format("truetype"); }
</style></defs><path d="M899.54333299 469.333333L749.356667 136.533333H283.43666699L136.66333299 467.626667l-122.88-119.466667 47.78666701-47.786667 51.2 51.2L239.063333 68.266667h554.666667l126.293333 281.6 47.78666699-49.493334 49.493333 47.786667zM266.37 938.666667H99.116667V733.866667H312.45l-46.08 204.8z m-98.986667-68.266667h44.373334l15.36-68.266667H167.383333v68.266667zM935.38333299 938.666667h-167.253333L722.05 733.866667h213.333333v204.8z m-112.64-68.266667h44.37333401v-68.266667H807.383333l15.35999999 68.266667z" p-id="25530"></path><path d="M976.34333299 802.133333h-921.6V583.68L90.58333299 375.466667h849.92l35.84 213.333333V802.133333z m-853.333333-68.266666h785.06666701v-141.653334L882.47666699 443.733333H146.903333l-25.6 148.48V733.866667z" p-id="25531"></path><path d="M694.74333299 682.666667h-358.4l-61.43999999-81.92 54.613334-40.96 40.96 54.613333h290.133333l40.96-54.613333 54.613333 40.96z" p-id="25532"></path><path d="M107.65 546.133333h102.39999999v68.266667H107.65zM824.45 546.133333h102.4v68.266667h-102.4z" p-id="25533"></path></svg>