<?xml version="1.0" standalone="no"?><!DOCTYPE svg PUBLIC "-//W3C//DTD SVG 1.1//EN" "http://www.w3.org/Graphics/SVG/1.1/DTD/svg11.dtd"><svg class="icon" width="200px" height="200.00px" viewBox="0 0 1024 1024" version="1.1" xmlns="http://www.w3.org/2000/svg"><path d="M512 65.79674074c-72.39058015 0-132.0429037 49.51608889-149.28615348 116.50844444H7.13007408v776.72296296h1009.73985184V182.30518518h-355.58377244c-17.28208592-66.99235555-76.89557333-116.50844445-149.28615348-116.50844444z m0 77.67229629c31.45728 0 55.45801955 14.95191703 67.96325925 38.83614815h-135.9265185c12.5052397-23.88423111 36.50597925-38.83614815 67.96325925-38.83614815zM84.80237037 259.97748148h854.39525926v349.52533333H84.80237037V259.97748148z m427.19762963 233.01688888a38.83614815 38.83614815 0 1 0 0 77.6722963 38.83614815 38.83614815 0 0 0 0-77.6722963zM84.80237037 687.17511111h854.39525926v194.18074073H84.80237037v-194.18074073z" /></svg>