<?xml version="1.0" standalone="no"?><!DOCTYPE svg PUBLIC "-//W3C//DTD SVG 1.1//EN" "http://www.w3.org/Graphics/SVG/1.1/DTD/svg11.dtd"><svg class="icon" width="200px" height="200.00px" viewBox="0 0 1024 1024" version="1.1" xmlns="http://www.w3.org/2000/svg"><path d="M765.63286193 765.63286193m-253.68359904 0a253.68359786 253.68359786 0 1 0 507.36719687 0 253.68359786 253.68359786 0 1 0-507.36719687 0ZM841.63646717 182.36353283m-177.57851838 0a177.5785184 177.5785184 0 1 0 355.15703794 0 177.5785184 177.5785184 0 1 0-355.15703794 0ZM183.63195004 840.36804996m-177.57851839 0a177.5785184 177.5785184 0 1 0 355.15703796 0 177.5785184 177.5785184 0 1 0-355.15703796 0ZM258.36713807 258.36713807m-253.68359783 0a253.68359786 253.68359786 0 1 0 507.36719687 0 253.68359786 253.68359786 0 1 0-507.36719687 0Z" /></svg>