<?xml version="1.0" standalone="no"?><!DOCTYPE svg PUBLIC "-//W3C//DTD SVG 1.1//EN" "http://www.w3.org/Graphics/SVG/1.1/DTD/svg11.dtd"><svg class="icon" width="200px" height="200.00px" viewBox="0 0 1024 1024" version="1.1" xmlns="http://www.w3.org/2000/svg"><path d="M469.91534358 554.00000033v230.99999934A231.00000033 231.00000033 0 1 1 238.91534424 554.00000033H469.91534358z m315 0A231.00000033 231.00000033 0 1 1 553.91534424 784.99999967V554.00000033h230.99999934z m-398.99999966 83.99999967H238.91534424a146.99999967 146.99999967 0 1 0 146.49599968 159.09599967L385.91534392 784.99999967V638z m398.99999966 0H637.91534392v146.99999967a146.99999967 146.99999967 0 1 0 159.09599966-146.49599967L784.91534358 638zM238.91534424 8A231.00000033 231.00000033 0 0 1 469.91534358 239.00000033V469.99999967H238.91534424a231.00000033 231.00000033 0 1 1 0-461.99999967z m545.99999934 0a231.00000033 231.00000033 0 1 1 0 461.99999967H553.91534424V239.00000033A231.00000033 231.00000033 0 0 1 784.91534358 8z m-545.99999934 83.99999967a146.99999967 146.99999967 0 0 0-12.096 293.49600033l12.096 0.504H385.91534392V239.00000033a146.99999967 146.99999967 0 0 0-122.472-144.98400066l-12.43199968-1.512L238.91534424 91.99999967z m545.99999934 0a146.99999967 146.99999967 0 0 0-146.49599966 134.90400066L637.91534392 239.00000033V386h146.99999966a146.99999967 146.99999967 0 0 0 146.49600066-134.90399967L931.91534424 239.00000033A146.99999967 146.99999967 0 0 0 784.91534358 91.99999967z" /></svg>