<?xml version="1.0" standalone="no"?><!DOCTYPE svg PUBLIC "-//W3C//DTD SVG 1.1//EN" "http://www.w3.org/Graphics/SVG/1.1/DTD/svg11.dtd"><svg class="icon" width="200px" height="200.00px" viewBox="0 0 1024 1024" version="1.1" xmlns="http://www.w3.org/2000/svg"><path d="M95.68 465.472a419.072 419.072 0 0 1 369.792-369.792V0h93.056v95.68a419.072 419.072 0 0 1 369.792 369.792H1024v93.056h-95.68a419.072 419.072 0 0 1-369.792 369.792V1024H465.472v-95.68a419.072 419.072 0 0 1-369.792-369.792H0V465.472h95.68z m93.824 0h89.792v93.056H189.44a326.08 326.08 0 0 0 276.032 276.032v-89.856h93.056v89.856a326.08 326.08 0 0 0 276.032-276.032h-89.856V465.472h89.856A326.08 326.08 0 0 0 558.528 189.44v89.856H465.472V189.44A326.08 326.08 0 0 0 189.44 465.472zM512 605.12a93.12 93.12 0 1 1 0-186.24 93.12 93.12 0 0 1 0 186.24z" /></svg>