<?xml version="1.0" standalone="no"?><!DOCTYPE svg PUBLIC "-//W3C//DTD SVG 1.1//EN" "http://www.w3.org/Graphics/SVG/1.1/DTD/svg11.dtd"><svg class="icon" width="200px" height="200.00px" viewBox="0 0 1024 1024" version="1.1" xmlns="http://www.w3.org/2000/svg"><path d="M512 9.04618667c-276.21888 0-500.12928 223.9104-500.12928 500.12927999S235.78112 1009.30474667 512 1009.30474667 1012.12928 785.39434667 1012.12928 509.17546666 788.21888 9.04618667 512 9.04618667z m0 891.50207999c-216.13312 0-391.37280001-175.23967999-391.37280001-391.3728s175.23967999-391.37280001 391.37280001-391.37279999 391.37280001 175.23967999 391.37280001 391.37279999-175.23967999 391.37280001-391.37280001 391.3728zM512 183.03146667c-180.13184 0-326.14399999 146.01216001-326.14399999 326.14399999s146.01216001 326.14399999 326.14399999 326.14400002 326.14399999-146.01216001 326.14399999-326.14400002-146.01216001-326.14399999-326.14399999-326.14399999z m-82.91584 339.69152c-60.08575999 0-108.75648001-48.67072-108.75648-108.75648s48.67072-108.75648001 108.75648-108.75648c60.08575999 0 108.75648001 48.67072 108.75647999 108.75648s-48.67072 108.75648001-108.75647999 108.75648z" /></svg>