<?xml version="1.0" standalone="no"?><!DOCTYPE svg PUBLIC "-//W3C//DTD SVG 1.1//EN" "http://www.w3.org/Graphics/SVG/1.1/DTD/svg11.dtd"><svg class="icon" width="200px" height="197.68px" viewBox="0 0 1036 1024" version="1.1" xmlns="http://www.w3.org/2000/svg"><path d="M874.383302 841.998735a161.922834 161.922834 0 1 1 161.922833-161.922834 161.922834 161.922834 0 0 1-161.922833 161.922834z m0-259.076534a97.1537 97.1537 0 1 0 97.1537 97.1537 97.1537 97.1537 0 0 0-97.1537-97.1537zM777.229602 1024V809.614168h64.769133v109.783681l32.384567-16.192283 32.384566 16.192283V809.614168h64.769134v214.385832l-97.1537-48.57685-97.1537 48.57685zM712.460468 906.767868H0V0h1036.306135v518.153068h-64.769133V64.769133H64.769133v777.229602h647.691335v64.769133zM453.383934 582.922201h-64.769133v-26.231499L291.461101 307.005693l-97.153701 249.685009V582.922201H129.538267v-38.537634L265.553447 194.3074h51.491461L453.383934 544.384567V582.922201zM194.3074 420.999367h194.307401v64.769134H194.3074zM582.922201 194.3074h323.845667v64.769134H582.922201zM582.922201 323.845667h323.845667v64.769134H582.922201zM129.214421 648.01518h323.845668v64.769134h-323.845668z" /></svg>