<?xml version="1.0" standalone="no"?><!DOCTYPE svg PUBLIC "-//W3C//DTD SVG 1.1//EN" "http://www.w3.org/Graphics/SVG/1.1/DTD/svg11.dtd"><svg class="icon" width="200px" height="185.17px" viewBox="0 0 1106 1024" version="1.1" xmlns="http://www.w3.org/2000/svg"><path d="M1097.58568316 380.93998528L742.13449058 2.66666667h-107.82429525l72.29284158 81.99566156 201.43600903 214.28199549H389.41648606l500.99349235 629.72668139 60.13015214 81.99566156h109.87418629L559.4208245 380.93998528h538.16485866zM748.4208245 241.82067923L635.26681095 84.66232823l-59.31019533-81.99566156h-100.71800353l113.15401257 157.158351H209.29934923L8 1010.66666667h82.67895858l20.90889379-81.99566156 162.6247291-686.85032588h474.20824303zM732.158351 911.45191598l-40.99783078-16.39913231a177.65726639 177.65726639 0 0 0-126.54663722 0l-40.99783078 16.39913231a97.16485866 97.16485866 0 0 1-65.04989203 0l-40.99783078-16.39913231a177.65726639 177.65726639 0 0 0-126.54663722 0l-53.02386141 21.455532a40.99783078 40.99783078 0 1 0 30.74837358 75.98264625l53.02386042-21.455532a97.16485866 97.16485866 0 0 1 65.04989203 0l40.99783078 16.39913231a177.65726639 177.65726639 0 0 0 126.54663722 0l40.99783078-16.39913231a97.16485866 97.16485866 0 0 1 65.04989203 0l40.99783079 16.39913231a40.99783078 40.99783078 0 1 0 30.74837259-75.98264625zM471.54880742 754.8402022l-40.99783176-14.48590008a194.60303691 194.60303691 0 0 0-122.99349235 0l-53.02386042 18.99566157a40.99783078 40.99783078 0 1 0 27.33188653 77.21258146l53.02386141-18.99566156a114.24728897 114.24728897 0 0 1 68.32971829 0l40.99783079 14.48590008a194.3297183 194.3297183 0 0 0 122.99349234 0l40.99783078-14.48590008a83.22559678 83.22559678 0 0 1 13.66594327-3.55314487 40.99783078 40.99783078 0 0 0-13.66594327-80.76572733 166.31453377 166.31453377 0 0 0-27.33188751 7.10629073l-40.99783079 14.48590008a113.97396937 113.97396937 0 0 1-68.32971731 0zM518.55965253 597.135213a105.91106302 105.91106302 0 0 1-58.21691892 0l-35.53145367-11.61605222a187.08676777 187.08676777 0 0 0-109.32754908 0l-46.32754908 15.16919808a40.99783078 40.99783078 0 0 0 25.55531508 77.89587848l46.32754908-15.16919709a105.91106302 105.91106302 0 0 1 58.21691892 0l35.53145367 11.61605123a186.81344916 186.81344916 0 0 0 109.32754908 0 40.99783078 40.99783078 0 0 0-25.55531508-77.89587848zM403.49240773 438.06362976h-107.82429525a40.99783078 40.99783078 0 0 0 0 81.99566157h107.82429525a40.99783078 40.99783078 0 1 0 0-81.99566157z" /></svg>