<?xml version="1.0" standalone="no"?><!DOCTYPE svg PUBLIC "-//W3C//DTD SVG 1.1//EN" "http://www.w3.org/Graphics/SVG/1.1/DTD/svg11.dtd"><svg t="1646026355991" class="icon" viewBox="0 0 1024 1024" version="1.1" xmlns="http://www.w3.org/2000/svg" p-id="13600" xmlns:xlink="http://www.w3.org/1999/xlink" width="200" height="200"><defs><style type="text/css"></style></defs><path d="M512 7.90954287C232.81143914 7.90954287 7.90954287 232.81143914 7.90954287 512s224.90189625 504.09045713 504.09045713 504.09045713 504.09045713-224.90189625 504.09045713-504.09045713c0-54.28666461-7.28992354-108.34067209-26.67801804-158.74971781L926.43990815 415.05952747c7.7552378 31.02095121 12.13694716 62.04190242 12.13694715 96.94047253 0 236.53475295-190.00332614 426.53807911-426.53807911 426.53807911S85.46192089 748.53475295 85.46192089 512 275.46524705 85.46192089 512 85.46192089c116.32856703 0 220.79162022 46.29876968 294.46637935 119.97352879L860.98570109 150.91612794C771.80046637 61.73089322 647.71666154 7.90954287 512 7.90954287z m437.43418822 166.00086515L512 611.38337243l-166.00086515-166.03964134-55.76015979 55.76015981 193.88094504 193.88094504 27.8800799 26.63924185 27.8800799-26.63924185 465.31426812-465.31426812L949.39541204 173.87163183z" p-id="13601"></path></svg>