<?xml version="1.0" standalone="no"?><!DOCTYPE svg PUBLIC "-//W3C//DTD SVG 1.1//EN" "http://www.w3.org/Graphics/SVG/1.1/DTD/svg11.dtd"><svg t="1681134940990" class="icon" viewBox="0 0 1024 1024" version="1.1" xmlns="http://www.w3.org/2000/svg" p-id="17248" xmlns:xlink="http://www.w3.org/1999/xlink" width="200" height="200"><path d="M229.180952 575.390476h273.066667v97.52381H229.180952z" p-id="17249"></path><path d="M1019.12381 458.361905V229.180952h-360.838096V78.019048h-585.142857v770.438095H4.87619v97.523809H731.428571v-97.523809h-68.266666v-390.095238h355.961905z m-97.52381-97.52381h-409.6v-14.628571-14.628572h409.6v29.257143z m-555.885714 39.009524c-29.257143 0-53.638095-24.380952-53.638096-53.638095S336.457143 292.571429 365.714286 292.571429s53.638095 24.380952 53.638095 53.638095-24.380952 53.638095-53.638095 53.638095z m195.047619 448.609524h-390.095238V175.542857h390.095238v53.638095H458.361905C433.980952 209.67619 399.847619 195.047619 365.714286 195.047619 282.819048 195.047619 214.552381 263.314286 214.552381 346.209524c0 82.895238 68.266667 151.161905 151.161905 151.161905 39.009524 0 68.266667-14.628571 97.523809-34.133334h102.4v385.219048z" p-id="17250"></path></svg>