<?xml version="1.0" standalone="no"?><!DOCTYPE svg PUBLIC "-//W3C//DTD SVG 1.1//EN" "http://www.w3.org/Graphics/SVG/1.1/DTD/svg11.dtd"><svg class="icon" width="200px" height="200.00px" viewBox="0 0 1024 1024" version="1.1" xmlns="http://www.w3.org/2000/svg"><path d="M554.666667 525.568V1002.666667h-85.333334V533.76l-119.168 119.189333-60.330666-60.352 226.261333-226.261333L742.4 592.597333l-60.330667 60.352L554.666667 525.568zM661.333333 832v-85.333333h117.226667A160.042667 160.042667 0 0 0 938.666667 586.666667a160.064 160.064 0 0 0-135.424-158.122667l-39.146667-6.037333 3.114667-39.466667c0.533333-6.741333 0.789333-13.546667 0.789333-20.373333 0-141.376-114.624-256-256-256-136.576 0-248.938667 107.221333-255.68 243.050666l-1.578667 31.850667-30.997333 7.509333A181.397333 181.397333 0 0 0 85.333333 565.333333c0 100.181333 81.109333 181.333333 181.162667 181.333334H362.666667v85.333333h-96.170667C119.296 832 0 712.618667 0 565.333333c0-113.194667 71.04-212.074667 173.952-250.133333C197.098667 148.608 340.16 21.333333 512 21.333333c185.237333 0 336 147.562667 341.205333 331.541334A245.482667 245.482667 0 0 1 1024 586.666667C1024 722.176 914.133333 832 778.56 832H661.333333z" /></svg>