<?xml version="1.0" standalone="no"?><!DOCTYPE svg PUBLIC "-//W3C//DTD SVG 1.1//EN" "http://www.w3.org/Graphics/SVG/1.1/DTD/svg11.dtd"><svg class="icon" width="200px" height="200.00px" viewBox="0 0 1024 1024" version="1.1" xmlns="http://www.w3.org/2000/svg"><path d="M391.36142222 532.93511111m-46.43271111 0a46.43271111 46.43271111 0 1 0 92.86542222 0 46.43271111 46.43271111 0 1 0-92.86542222 0ZM632.64995555 532.93511111m-46.4327111 0a46.43271111 46.43271111 0 1 0 92.86542222 0 46.43271111 46.43271111 0 1 0-92.86542222 0ZM512.01137778 1020.96213333c-80.19057778 0-159.75537778-19.10328889-230.84373333-55.31875555H35.5328V690.91555555c-21.57226667-57.344-32.49493333-117.48693333-32.49493333-178.92693333 0-280.64426667 228.32924445-508.95075555 508.97351111-508.95075555s508.95075555 228.30648889 508.95075555 508.95075555-228.30648889 508.97351111-508.95075555 508.97351111zM119.296 881.88017778h182.6816l9.28426667 4.99484444c61.31484445 32.92728889 130.71928889 50.32391111 200.73813333 50.32391111 234.45048889 0 425.18755555-190.74844445 425.18755555-425.21031111 0-234.45048889-190.74844445-425.18755555-425.18755555-425.18755555-234.46186667 0-425.21031111 190.74844445-425.21031111 425.18755555 0 53.57795555 9.95555555 105.99537778 29.57084444 155.77315556l2.92408889 7.40693333v206.71146667z" /></svg>