<?xml version="1.0" standalone="no"?><!DOCTYPE svg PUBLIC "-//W3C//DTD SVG 1.1//EN" "http://www.w3.org/Graphics/SVG/1.1/DTD/svg11.dtd"><svg class="icon" width="200px" height="200.00px" viewBox="0 0 1024 1024" version="1.1" xmlns="http://www.w3.org/2000/svg"><path d="M903.313623 276.58173807h-139.58307379v-21.55654282c0-137.17800538-111.56847531-248.7910202-248.7910202-248.79102019S266.14850882 117.84718864 266.14850882 255.02519525v21.55654282H117.79138627l-112.23655074 730.91826598h1009.99533821l-112.23655074-730.91826598z m-548.08848682-21.55654282c0-88.05224567 71.61760888-159.71439284 159.71439283-159.71439282s159.71439284 71.66214716 159.71439283 159.71439282v21.55654282h-319.42878566v-21.55654282z m-161.0060042 110.63317017h71.92937684v136.82170036h89.07662736v-136.82170036h319.42878566v136.82170036h89.07662737v-136.82170036h63.15532808l84.89002526 552.76501125H109.32910671l84.89002527-552.76501125zM513.42522623 772.07047801c-112.10293591 0-186.52645772-44.36015994-186.52645773-73.7554476h-89.07662736c0 92.81784543 118.51645207 162.83207497 275.60308509 162.83207497 157.13117006 0 275.60308509-70.01422953 275.60308508-162.83207497h-89.07662736c0 29.35074815-74.42352181 73.7554476-186.52645772 73.7554476z" /></svg>