<?xml version="1.0" standalone="no"?><!DOCTYPE svg PUBLIC "-//W3C//DTD SVG 1.1//EN" "http://www.w3.org/Graphics/SVG/1.1/DTD/svg11.dtd"><svg class="icon" width="200px" height="200.00px" viewBox="0 0 1024 1024" version="1.1" xmlns="http://www.w3.org/2000/svg"><path d="M789.40105857 302.50440952h231.16754814v92.46701904h-231.16754814V302.50440952z m-92.46702012 231.16754814h323.63456826v92.46701904h-323.63456826v-92.46701904z m138.7005291 231.16754814h184.93403916v92.46702012h-184.93403916v-92.46702012zM3.43139294 996.00705502a369.86807724 369.86807724 0 1 1 739.73615557 0h-92.46701904a277.4010582 277.4010582 0 1 0-554.80211641 0H3.43139294z m369.86807833-416.1015873c-153.26408465 0-277.4010582-124.13697354-277.40105821-277.4010582s124.13697354-277.4010582 277.40105821-277.40105821 277.4010582 124.13697354 277.4010582 277.40105821-124.13697354 277.4010582-277.4010582 277.4010582z m0-92.46702013c102.17605608 0 184.93403916-82.757982 184.93403807-184.93403807s-82.757982-184.93403916-184.93403807-184.93403916-184.93403916 82.757982-184.93403916 184.93403916 82.757982 184.93403916 184.93403916 184.93403807z" /></svg>