<?xml version="1.0" standalone="no"?><!DOCTYPE svg PUBLIC "-//W3C//DTD SVG 1.1//EN" "http://www.w3.org/Graphics/SVG/1.1/DTD/svg11.dtd"><svg class="icon" width="200px" height="200.00px" viewBox="0 0 1024 1024" version="1.1" xmlns="http://www.w3.org/2000/svg"><path d="M73.78233341 869.75708681H389.55951844v75.65190136H-0.82436353V67.05047939h390.38388197v73.56149252H73.78233341v729.1451149zM633.55205802 869.63166191h97.59074484v75.77732626h-97.59074484zM779.94340041 869.71527853h97.59074484v75.69370964H779.94340041zM926.3242915 869.01499076h97.59074486v76.38354613h-97.59074486zM926.3242915 67.05047939h97.59074486v72.41176787h-97.59074486zM926.84689371 208.13218311h97.59074486v72.41176788h-97.59074486zM926.3242915 339.1381153h97.59074486v72.41176895h-97.59074486zM926.84689371 470.94885552h97.59074486v72.41176788h-97.59074486zM926.84689371 599.37313369h97.59074486v72.4117679h-97.59074486zM927.36949593 728.72764268h97.4548676v72.41176788h-97.4548676zM779.94340041 67.05047939h97.59074484v72.75668558H779.94340041zM633.55205802 67.05047939h97.59074484v72.89256179h-97.59074484zM480.87903576-30.54026546h76.69710681v1073.53999849h-76.69710681z" /></svg>