<?xml version="1.0" standalone="no"?><!DOCTYPE svg PUBLIC "-//W3C//DTD SVG 1.1//EN" "http://www.w3.org/Graphics/SVG/1.1/DTD/svg11.dtd"><svg t="1619235308054" class="icon" viewBox="0 0 1024 1024" version="1.1" xmlns="http://www.w3.org/2000/svg" p-id="21872" xmlns:xlink="http://www.w3.org/1999/xlink" width="200" height="200"><defs><style type="text/css"></style></defs><path d="M1024 384V128H0v768h1024v-256c-70.4 0-128-57.6-128-128s57.6-128 128-128zM192 832H64V192h128v640z m768-140.8V832H256V192h704v140.8c-76.8 25.6-128 96-128 179.2s51.2 153.6 128 179.2z" p-id="21873"></path><path d="M723.2 320l-44.8-44.8-134.4 134.4-134.4-134.4-44.8 44.8 128 128H320v64h192v64H384v64h128v128h64v-128h128V576H576V512h192V448H595.2z" p-id="21874"></path></svg>