<?xml version="1.0" standalone="no"?><!DOCTYPE svg PUBLIC "-//W3C//DTD SVG 1.1//EN" "http://www.w3.org/Graphics/SVG/1.1/DTD/svg11.dtd"><svg class="icon" width="200px" height="200.00px" viewBox="0 0 1024 1024" version="1.1" xmlns="http://www.w3.org/2000/svg"><path d="M905.54090179 343.26973893v-112.32942209C905.54090179 106.7876327 804.84921264 6.01161214 680.66279597 6.01161214v112.4980849a112.49808491 112.49808491 0 0 1 112.44748605 112.4306198v112.32942209c0 67.56631607 30.4099021 127.49220745 77.58488613 168.73026107-47.17498403 41.22118733-77.58488614 101.06274734-77.58488613 168.66279597v112.43061975a112.49808491 112.49808491 0 0 1-112.49808491 112.44748607V1017.98838786c124.11895154 0 224.92870469-100.64109034 224.92870468-224.89497214V680.66279597A112.48121863 112.48121863 0 0 1 1017.98838786 568.21530991v-112.49808493a112.43061979 112.43061979 0 0 1-112.44748607-112.44748605zM230.9571831 343.33720403v-112.44748605a112.49808491 112.49808491 0 0 1 112.4980849-112.44748608V6.01161214c-124.18641668 0-224.94557096 100.64109034-224.94557096 224.87810584L118.45909821 343.33720403A112.43061979 112.43061979 0 0 1 6.01161214 455.76782385v112.44748606l0.05059883 0.05059881a112.44748605 112.44748605 0 0 1 112.44748607 112.44748607v112.32942211C118.50969704 917.17863473 219.15078736 1017.98838786 343.38780289 1017.98838786v-112.4980849a112.43061979 112.43061979 0 0 1-112.43061979-112.44748606v-112.32942211c0-67.58318233-30.4267684-127.49220745-77.58488613-168.71339479 47.15811774-41.23805361 77.58488614-101.11334617 77.58488613-168.66279597z" /></svg>