<?xml version="1.0" standalone="no"?><!DOCTYPE svg PUBLIC "-//W3C//DTD SVG 1.1//EN" "http://www.w3.org/Graphics/SVG/1.1/DTD/svg11.dtd"><svg class="icon" width="200px" height="200.00px" viewBox="0 0 1024 1024" version="1.1" xmlns="http://www.w3.org/2000/svg"><path d="M123.73032684 702.18797504c2.23886294-7.50134573 4.82394292-15.00269254 7.73215599-22.41171437C178.66326089 559.63931792 302.42393047 488.91893548 512 488.91893548c172.87717636 0 260.90835749-57.49493228 293.91428063-153.48908187 1.70799918-5.03167251 3.27751085-10.10950643 4.66237475-15.23350283a161.56745386 161.56745386 0 1 1 94.79393349 0.13848639c-3.00053808 15.11809715-7.01664335 30.19003286-12.16372156 45.10040043C846.90625188 500.25173762 722.86860845 581.24319466 512 581.24319466c-168.83798928 0-257.00765787 47.43158835-291.51384953 124.91472318a161.56745386 161.56745386 0 1 1-96.75582363-3.9699428zM858.2159733 235.02722135a69.24319466 69.24319466 0 1 0 0-138.48638933 69.24319466 69.24319466 0 0 0 0 138.48638933zM165.7840267 927.45916798a69.24319466 69.24319466 0 1 0 0-138.48638933 69.24319466 69.24319466 0 0 0 0 138.48638933z" /></svg>