<?xml version="1.0" standalone="no"?><!DOCTYPE svg PUBLIC "-//W3C//DTD SVG 1.1//EN" "http://www.w3.org/Graphics/SVG/1.1/DTD/svg11.dtd"><svg class="icon" width="200px" height="187.37px" viewBox="0 0 1093 1024" version="1.1" xmlns="http://www.w3.org/2000/svg"><path d="M681.86839443 680.68315273H374.79015048A19.09469812 19.09469812 0 0 0 355.70117793 699.76639975v38.17221957A19.09469812 19.09469812 0 0 0 374.79015048 757.02186633H681.86839443a19.09469812 19.09469812 0 0 0 19.08324701-19.08324701V699.76639975a19.09469812 19.09469812 0 0 0-19.08324701-19.08324702zM413.26582402 426.31429133c0-46.9494826-38.67034213-85.04154452-86.3412436-85.04154451-47.67662704 0-86.30689033 38.05198309-86.30689034 85.04154451S279.28803222 511.39591468 326.92458042 511.39591468c47.67090148-0.04007882 86.34124362-38.13214074 86.3412436-85.08162335zM1008.22455396 298.97813365h-39.08830704c-1.717664 0-3.35517034 0.38361162-5.03848106 0.49812255-74.66112843-179.43863228-250.96788668-305.85870251-457.43109919-305.85870249-274.0647419 0-496.21595225 222.15121035-496.21595225 496.21022671 0 221.80767755 145.85257557 408.80403142 346.70475236 472.2430884 6.64163412 35.38387835 37.59393936 62.14508343 74.89015029 62.14508342H624.61292784c42.1400234 0 76.3387136-34.20441574 76.3387136-76.34443914v-38.16649403c0-42.1400234-34.19869018-76.34443914-76.3387136-76.34443914H432.04561707c-32.75012689 0-60.50185154 20.76655772-71.30595809 49.77790265-159.89161599-59.31666339-273.94450543-212.80139266-273.94450542-393.31070216C86.79515356 257.94314074 274.78202701 69.9562673 506.66666667 69.9562673c180.39479857 0 333.83944902 113.89829968 393.19046569 273.64105146-4.42584757 9.65899721-7.09967786 20.34859282-7.09967786 31.71952849v229.02186634c0 42.1400234 34.20441574 76.34443914 76.34443914 76.34443914h39.0825815c42.1400234 0 76.34443914-34.20441574 76.34443914-76.34443914v-229.02186634C1084.56326755 333.17682384 1050.36457736 298.97813365 1008.22455396 298.97813365z m-278.49058947 42.29461317c-47.67662704 0-86.34124362 38.05198309-86.34124361 85.04154451s38.66461658 85.08162333 86.34124361 85.08162335 86.30116478-38.09206193 86.30116479-85.08162335-38.62453776-85.04154452-86.30116479-85.04154451z" /></svg>