<?xml version="1.0" standalone="no"?><!DOCTYPE svg PUBLIC "-//W3C//DTD SVG 1.1//EN" "http://www.w3.org/Graphics/SVG/1.1/DTD/svg11.dtd"><svg class="icon" width="200px" height="200.00px" viewBox="0 0 1024 1024" version="1.1" xmlns="http://www.w3.org/2000/svg"><path d="M533.0217986 574.42336508L306.20309029 731.63174603a151.70370337 151.70370337 0 1 1-45.94455061-73.61963987l198.2984127-137.42188394-206.01362997-148.88634921a151.70370337 151.70370337 0 1 1 50.66903772-70.3471746L1022.15788394 820.98522717l-94.44639188 38.70611708-394.68969346-285.26797917zM159.83068749 836.74074108a65.01587302 65.01587302 0 1 0 0-130.03174604 65.01587302 65.01587302 0 0 0 0 130.03174604z m503.72131251-353.42628572L593.26984127 424.97354463l279.6766141-203.49968254 49.36871923-36.36554463 100.1677887 33.89494146-358.9309633 264.31119644zM159.83068749 186.58201092a65.01587302 65.01587302 0 1 0 0 130.03174603 65.01587302 65.01587302 0 0 0 0-130.03174603z" /></svg>