<?xml version="1.0" standalone="no"?><!DOCTYPE svg PUBLIC "-//W3C//DTD SVG 1.1//EN" "http://www.w3.org/Graphics/SVG/1.1/DTD/svg11.dtd"><svg class="icon" width="200px" height="200.00px" viewBox="0 0 1024 1024" version="1.1" xmlns="http://www.w3.org/2000/svg"><path d="M997.26222222 443.16444445c-14.67733333-34.36088889-35.61244445-65.08088889-62.23644444-91.47733334-26.624-26.39644445-57.57155555-47.104-92.04622223-61.55377778-34.24711111-14.336-70.54222222-21.95911111-107.86133333-22.528-3.64088889-13.99466667-8.41955555-27.76177778-14.10844444-41.30133333-15.36-36.06755555-37.31911111-68.38044445-65.30844445-96.02844445-27.87555555-27.648-60.416-49.37955555-96.59733333-64.512C521.67111111 50.06222222 481.96266667 42.09777778 441.00266667 42.09777778s-80.66844445 7.96444445-118.10133334 23.66577777c-36.18133333 15.13244445-68.72177778 36.864-96.59733333 64.512-27.98933333 27.76177778-49.94844445 60.07466667-65.30844445 96.02844445-15.92888889 37.43288889-24.00711111 77.02755555-24.0071111 117.87377778 0 7.62311111 0.34133333 15.36 0.91022222 22.86933333-25.48622222 13.76711111-48.69688889 31.85777778-68.49422222 53.70311111-42.09777778 46.64888889-65.30844445 106.72355555-65.30844445 169.07377778 0 34.24711111 6.82666667 67.47022222 20.25244445 98.87288889 12.97066667 30.15111111 31.40266667 57.23022222 54.84088888 80.44088889 18.20444445 17.97688889 38.68444445 32.99555555 61.09866667 44.82844444l40.27733333-76.57244444c-53.47555555-28.10311111-89.99822222-83.85422222-89.99822222-147.68355556 0-85.21955555 65.19466667-155.87555555 148.59377778-165.77422222-10.01244445-24.80355555-15.58755555-51.65511111-15.58755556-79.98577778C223.45955555 225.16622222 320.85333333 128.56888889 441.00266667 128.56888889s217.54311111 96.59733333 217.54311111 215.72266666c0 7.96444445-0.45511111 15.81511111-1.36533333 23.43822223 22.75555555-8.76088889 47.33155555-13.65333333 73.27288888-13.65333333 112.29866667 0 203.20711111 90.22577778 203.20711112 201.50044444 0 86.58488889-55.06844445 160.31288889-132.32355556 188.87111111l-40.96 97.50755555c70.656-7.168 135.85066667-39.936 183.97866666-92.16 48.92444445-53.13422222 75.88977778-122.19733333 75.88977778-194.33244444 0-38.79822222-7.73688889-76.57244445-22.98311111-112.29866666zM324.83555555 667.19288889l-93.6391111 163.95377778h70.20088888L231.19644445 971.66222222 465.35111111 760.832h-70.20088889l70.20088889-93.63911111zM582.42844445 670.37866667l-93.63911112 163.84h70.31466667l-70.31466667 140.51555555 234.15466667-210.71644444h-70.20088889l70.20088889-93.63911111zM618.26844445 401.52177778c-12.288 0-24.576-5.23377778-33.10933334-15.36-15.36-18.20444445-13.08444445-45.51111111 5.12-60.87111111 43.57688889-36.75022222 98.98666667-57.00266667 156.10311111-57.00266667 23.89333333 0 43.23555555 19.34222222 43.23555556 43.23555555s-19.34222222 43.23555555-43.23555556 43.23555556c-36.75022222 0-72.36266667 12.97066667-100.352 36.63644444-8.07822222 6.82666667-17.97688889 10.12622222-27.76177777 10.12622223z" /></svg>