<?xml version="1.0" standalone="no"?><!DOCTYPE svg PUBLIC "-//W3C//DTD SVG 1.1//EN" "http://www.w3.org/Graphics/SVG/1.1/DTD/svg11.dtd"><svg class="icon" width="200px" height="200.00px" viewBox="0 0 1024 1024" version="1.1" xmlns="http://www.w3.org/2000/svg"><path d="M511.8381558 80.18549317c-450.29110973 0-670.34136335 553.70903476-343.20142619 864.06098525l64.69756274-68.84056298c-78.01014167-74.10276232-126.98001162-178.60061633-126.9800116-294.52608232 0-224.0361733 181.89930843-406.32818317 405.56241535-406.32818317 223.62383676 0 405.58205043 182.2723748 405.58205043 406.32818317 0 107.50202006-41.1747463 213.23688362-126.86220119 294.66352783l64.69756275 68.86019804c326.0600082-309.27202151 108.18924756-864.21806582-343.49595229-864.21806582zM365.41942275 865.43129879h294.52608232v-98.17536077H365.41942275v98.17536077z m168.39037881-370.67089213C476.27904013 480.58388456 424.32463921 524.46827081 424.32463921 580.29078097c0 48.98950502 40.17335761 88.3578247 88.35782471 88.35782468 48.43972301 0 88.3578247-39.60394053 88.3578247-88.35782468 0-4.39825617-0.66759246-8.60016161-1.29591477-12.82170213l161.95007514-147.22377104-66.03274767-72.63013187-161.85189976 147.14523073z" /></svg>