<?xml version="1.0" standalone="no"?><!DOCTYPE svg PUBLIC "-//W3C//DTD SVG 1.1//EN" "http://www.w3.org/Graphics/SVG/1.1/DTD/svg11.dtd"><svg t="1640135387489" class="icon" viewBox="0 0 1024 1024" version="1.1" xmlns="http://www.w3.org/2000/svg" p-id="14925" xmlns:xlink="http://www.w3.org/1999/xlink" width="200" height="200"><defs><style type="text/css"></style></defs><path d="M452.1489518 6.737455v90.5546357c-203.04467991 29.02775768-359.10628643 203.64318946-359.10628642 414.7079093 0 231.3841501 187.57318314 418.95733462 418.95733462 418.95733462 211.06471985 0 385.68015162-156.0616065 414.7079093-359.10628642h90.5546357c-29.62626864 252.75097413-244.55138106 448.88285803-505.262545 448.88285803-280.97074408 0-508.73390623-227.76316216-508.73390623-508.73390623 0-260.71116395 196.13188391-475.63627637 448.88285803-505.262545zM512 3.26609377c277.70886104 0 503.49693862 222.55612101 508.64412966 499.06796155L1020.73390623 512H512V3.26609377z m89.77657161 99.41259123V422.22342839h319.54474339a419.55584418 419.55584418 0 0 0-309.84887365-317.30032911L601.77657161 102.678685z" p-id="14926"></path></svg>