<?xml version="1.0" standalone="no"?><!DOCTYPE svg PUBLIC "-//W3C//DTD SVG 1.1//EN" "http://www.w3.org/Graphics/SVG/1.1/DTD/svg11.dtd"><svg class="icon" width="200px" height="200.00px" viewBox="0 0 1024 1024" version="1.1" xmlns="http://www.w3.org/2000/svg"><path d="M994.45607759 434.91303658C979.93745668 400.80580013 959.08134251 370.04015105 932.57909796 343.76836081c-26.50224455-26.27179022-57.26789362-46.89745011-91.60558434-61.30084387-33.64632783-14.05771233-69.13629007-21.66270422-105.77852382-22.35406714-3.57204166-13.36634941-8.18112766-26.61747167-13.71203086-39.52291249-15.32521096-35.83564368-37.10314235-67.98401857-64.98811268-95.6385346-27.76974317-27.53928889-60.14857236-49.20199311-96.09944319-64.29674977-37.33359664-15.67089241-76.85650914-23.62156578-117.53169314-23.62156579s-80.31332363 7.95067336-117.53169314 23.62156579c-36.06609799 15.09475668-68.32970003 36.75746091-96.09944321 64.29674977-27.76974317 27.53928889-49.6629017 59.68766377-64.98811266 95.6385346-15.90134672 37.21836949-23.96724723 76.62605486-23.96724724 117.30123883 0 7.14408331 0.2304543 14.2881666 0.80659005 21.43224994-24.88906443 13.59680372-47.58881301 31.45701199-67.06220136 52.88926193-41.94268264 46.4365415-65.10333981 106.35465957-65.10333984 168.57732063 0 34.10723644 6.79840185 67.29265566 20.16475128 98.63444049 12.90544082 30.07428618 31.22655768 57.03743931 54.61766916 80.19809649 8.41158197 8.2963548 17.28407253 15.90134672 26.61747168 22.9302029L146.72993409 698.66798321c-30.9961034-30.07428618-50.23903747-71.78651454-50.23903745-117.87737457 0-84.23104676 64.41197693-154.05869973 146.79938927-163.8530075-9.90953491-24.42815582-15.44043812-51.04562749-15.44043811-79.045825 0-117.76214742 96.21467034-213.17022773 215.01386213-213.17022771s215.01386213 95.4080803 215.01386213 213.17022771c0 7.83544623-0.4609086 15.55566526-1.3827258 23.1606572 22.46929428-8.64203626 46.78222294-13.59680372 72.36265029-13.59680372 110.96374558 0 200.84092268 89.18581421 200.84092267 199.11251543 0 67.06220138-33.41587353 126.28895655-84.69195535 162.35505451l-18.55157118 107.39170392c43.6710899-15.67089241 83.30922953-41.59700119 115.22715015-76.39560052 48.74108451-52.88926192 75.58901049-121.67987054 75.58901049-193.46638506 0-38.370641-7.60499189-76.04991909-22.81497574-111.53988132zM352.06471562 798.56992238H225.89098624c-7.48976475 0-13.59680372-6.10703896-13.59680372-13.59680373s6.10703896-13.59680372 13.59680372-13.59680371h126.17372938c7.48976475 0 13.59680372 6.10703896 13.59680372 13.59680371s-6.10703896 13.59680372-13.59680372 13.59680373zM288.92023735 861.71440065c-7.48976475 0-13.59680372-6.10703896-13.59680372-13.59680372V721.94386753c0-7.48976475 6.10703896-13.59680372 13.59680372-13.59680372s13.59680372 6.10703896 13.59680371 13.59680372v126.1737294c0.11522714 7.48976475-5.99181181 13.59680372-13.59680371 13.59680372zM244.32733025 845.58259962c-3.45681452 0-7.02885616-1.38272579-9.67908061-4.03295026-5.30044889-5.30044889-5.30044889-13.94248516 0-19.24293407l89.18581421-89.18581419c5.30044889-5.30044889 13.94248516-5.30044889 19.24293406 0s5.30044889 13.94248516 0 19.24293406L253.89118369 841.54964936c-2.53499729 2.76545159-5.99181181 4.03295026-9.56385344 4.03295026zM333.6283716 845.58259962c-3.45681452 0-7.02885616-1.38272579-9.67908062-4.03295026l-89.1858142-89.1858142c-5.30044889-5.30044889-5.30044889-13.94248516 0-19.24293406s13.94248516-5.30044889 19.24293408 0l89.18581419 89.18581419c5.30044889 5.30044889 5.30044889 13.94248516 0 19.24293407-2.65022447 2.76545159-6.10703896 4.03295026-9.56385345 4.03295026zM560.39540307 928.89182917H434.22167366c-7.48976475 0-13.59680372-6.10703896-13.59680372-13.59680371s6.10703896-13.59680372 13.59680372-13.59680372H560.39540307c7.48976475 0 13.59680372 6.10703896 13.59680369 13.59680372s-6.10703896 13.59680372-13.59680369 13.59680371zM497.25092478 991.9210803c-7.48976475 0-13.59680372-6.10703896-13.59680372-13.59680374V852.15054719c0-7.48976475 6.10703896-13.59680372 13.59680372-13.59680372s13.59680372 6.10703896 13.5968037 13.59680372v126.17372937c0 7.48976475-6.10703896 13.59680372-13.5968037 13.59680374zM452.65801767 975.90450643c-3.45681452 0-7.02885616-1.38272579-9.67908059-4.03295025-5.30044889-5.30044889-5.30044889-13.94248516 0-19.24293408l89.18581419-89.18581421c5.30044889-5.30044889 13.94248516-5.30044889 19.24293408 0s5.30044889 13.94248516 0 19.24293408l-89.1858142 89.18581421c-2.65022447 2.65022447-6.10703896 4.03295026-9.56385348 4.03295025zM541.84383187 975.90450643c-3.45681452 0-7.02885616-1.38272579-9.6790806-4.03295025l-89.18581419-89.18581421c-5.30044889-5.30044889-5.30044889-13.94248516 0-19.24293408s13.94248516-5.30044889 19.24293407 0l89.1858142 89.18581421c5.30044889 5.30044889 5.30044889 13.94248516 0 19.24293408-2.53499729 2.65022447-5.99181181 4.03295026-9.56385348 4.03295025zM560.39540307 651.19439736H434.22167366c-7.48976475 0-13.59680372-6.10703896-13.59680372-13.59680372s6.10703896-13.59680372 13.59680372-13.59680371H560.39540307c7.48976475 0 13.59680372 6.10703896 13.59680369 13.59680371s-6.10703896 13.59680372-13.59680369 13.59680372zM497.25092478 714.22364848c-7.48976475 0-13.59680372-6.10703896-13.59680372-13.59680372V574.45311536c0-7.48976475 6.10703896-13.59680372 13.59680372-13.59680372s13.59680372 6.10703896 13.5968037 13.59680372v126.1737294c0 7.48976475-6.10703896 13.59680372-13.5968037 13.59680372zM452.65801767 698.20707461c-3.45681452 0-7.02885616-1.38272579-9.67908059-4.03295026-5.30044889-5.30044889-5.30044889-13.94248516 0-19.24293406l89.18581419-89.18581421c5.30044889-5.30044889 13.94248516-5.30044889 19.24293408 0s5.30044889 13.94248516 0 19.24293408l-89.1858142 89.18581419c-2.65022447 2.65022447-6.10703896 4.03295026-9.56385348 4.03295026zM541.84383187 698.20707461c-3.45681452 0-7.02885616-1.38272579-9.6790806-4.03295026l-89.18581419-89.18581419c-5.30044889-5.30044889-5.30044889-13.94248516 0-19.24293408s13.94248516-5.30044889 19.24293407 0l89.1858142 89.18581421c5.30044889 5.30044889 5.30044889 13.94248516 0 19.24293406-2.53499729 2.65022447-5.99181181 4.03295026-9.56385348 4.03295026zM745.45020615 790.04311326H619.27647677c-7.48976475 0-13.59680372-6.10703896-13.59680371-13.59680372s6.10703896-13.59680372 13.59680371-13.59680371h126.17372938c7.48976475 0 13.59680372 6.10703896 13.59680373 13.59680371s-5.99181181 13.59680372-13.59680373 13.59680372zM682.42095504 853.07236438c-7.48976475 0-13.59680372-6.10703896-13.59680372-13.59680371V713.30183127c0-7.48976475 6.10703896-13.59680372 13.59680372-13.59680371s13.59680372 6.10703896 13.59680372 13.59680371v126.1737294c0 7.48976475-6.10703896 13.59680372-13.59680372 13.59680371zM637.82804794 837.05579052c-3.45681452 0-7.02885616-1.38272579-9.67908061-4.03295026-5.30044889-5.30044889-5.30044889-13.94248516 0-19.24293407l89.18581421-89.1858142c5.30044889-5.30044889 13.94248516-5.30044889 19.24293405 0s5.30044889 13.94248516 0 19.24293407l-89.18581417 89.1858142c-2.65022447 2.65022447-6.10703896 4.03295026-9.56385348 4.03295026zM727.01386213 837.05579052c-3.45681452 0-7.02885616-1.38272579-9.67908059-4.03295026l-89.18581421-89.1858142c-5.30044889-5.30044889-5.30044889-13.94248516 0-19.24293407s13.94248516-5.30044889 19.24293409 0l89.18581417 89.1858142c5.30044889 5.30044889 5.30044889 13.94248516 0 19.24293407-2.53499729 2.65022447-6.10703896 4.03295026-9.56385346 4.03295026zM617.89375098 394.81398832c-12.44453222 0-24.88906443-5.30044889-33.5311007-15.55566527-15.55566526-18.43634402-13.25112226-46.09086005 5.18522176-61.64652532 43.32540848-36.5270066 98.28875905-56.57653071 154.98051691-56.57653071 24.19770152 0 43.78631703 19.58861552 43.78631707 43.78631704s-19.58861552 43.78631703-43.78631707 43.78631707c-36.06609799 0-70.97992449 12.79021368-98.51921335 35.95087081-8.06590051 6.79840185-18.09066258 10.25521636-28.11542462 10.25521638z" /></svg>