<?xml version="1.0" standalone="no"?><!DOCTYPE svg PUBLIC "-//W3C//DTD SVG 1.1//EN" "http://www.w3.org/Graphics/SVG/1.1/DTD/svg11.dtd"><svg class="icon" width="200px" height="200.00px" viewBox="0 0 1024 1024" version="1.1" xmlns="http://www.w3.org/2000/svg"><path d="M374.32888889 985.42933333c-6.82666667 0-13.76711111-1.59288889-20.25244444-5.12-21.04888889-11.264-29.01333333-37.43288889-17.86311112-58.48177778l21.95911112-41.18755555c11.264-21.04888889 37.43288889-29.01333333 58.48177777-17.86311111 21.04888889 11.264 29.01333333 37.43288889 17.86311111 58.48177778l-21.95911111 41.18755555c-7.85066667 14.56355555-22.75555555 22.98311111-38.22933333 22.98311111zM467.74044445 821.93066667c-6.82666667 0-13.76711111-1.59288889-20.25244445-5.12-21.04888889-11.264-29.01333333-37.43288889-17.86311111-58.48177778l21.95911111-41.18755556c11.264-21.04888889 37.43288889-29.01333333 58.48177778-17.86311111 21.04888889 11.264 29.01333333 37.43288889 17.86311111 58.48177778l-21.95911111 41.18755555a43.39484445 43.39484445 0 0 1-38.22933333 22.98311112zM582.99733333 985.42933333c-6.82666667 0-13.76711111-1.59288889-20.25244444-5.12-21.04888889-11.264-29.01333333-37.43288889-17.86311111-58.48177778l21.95911111-41.18755555c11.264-21.04888889 37.43288889-29.01333333 58.48177778-17.86311111 21.04888889 11.264 29.01333333 37.43288889 17.86311111 58.48177778L621.22666667 962.44622222c-7.73688889 14.56355555-22.75555555 22.98311111-38.22933334 22.98311111zM676.40888889 821.93066667c-6.82666667 0-13.76711111-1.59288889-20.25244444-5.12-21.04888889-11.264-29.01333333-37.43288889-17.86311112-58.48177778l21.95911112-41.18755556c11.264-21.04888889 37.43288889-29.01333333 58.48177777-17.86311111 21.04888889 11.264 29.01333333 37.43288889 17.86311111 58.48177778l-21.95911111 41.18755555c-7.85066667 14.67733333-22.75555555 22.98311111-38.22933333 22.98311112zM164.18133333 985.42933333c-6.82666667 0-13.76711111-1.59288889-20.25244444-5.12-21.04888889-11.264-29.01333333-37.43288889-17.86311111-58.48177778l21.95911111-41.18755555c11.264-21.04888889 37.43288889-29.01333333 58.48177778-17.86311111 21.04888889 11.264 29.01333333 37.43288889 17.86311111 58.48177778l-21.95911111 41.18755555c-7.73688889 14.56355555-22.75555555 22.98311111-38.22933334 22.98311111zM257.59288889 821.93066667c-6.82666667 0-13.76711111-1.59288889-20.25244444-5.12-21.04888889-11.264-29.01333333-37.43288889-17.86311112-58.48177778l21.95911112-41.18755556c11.264-21.04888889 37.43288889-29.01333333 58.48177777-17.86311111 21.04888889 11.264 29.01333333 37.43288889 17.86311111 58.48177778L295.82222222 799.06133333c-7.85066667 14.56355555-22.75555555 22.86933333-38.22933333 22.86933334zM995.55555555 441.11644445c-14.56355555-34.24711111-35.49866667-64.96711111-62.12266666-91.36355556-26.51022222-26.28266667-57.45777778-46.99022222-91.81866667-61.44-34.13333333-14.336-70.20088889-21.84533333-107.40622222-22.528-3.64088889-13.88088889-8.41955555-27.53422222-14.10844445-40.96-15.36-35.95377778-37.20533333-68.15288889-65.08088888-95.80088889-27.87555555-27.648-60.30222222-49.26577778-96.36977778-64.39822222C521.216 48.92444445 481.62133333 40.96 440.77511111 40.96c-40.84622222 0-80.44088889 7.96444445-117.87377778 23.66577778-36.06755555 15.13244445-68.49422222 36.864-96.36977778 64.39822222-27.87555555 27.648-49.83466667 59.84711111-65.08088888 95.80088889-15.92888889 37.31911111-24.00711111 76.91377778-24.00711112 117.64622222 0 7.62311111 0.34133333 15.13244445 0.91022223 22.64177778-25.37244445 13.76711111-48.46933333 31.744-68.15288889 53.58933333-42.09777778 46.53511111-65.19466667 106.496-65.19466667 168.73244445 0 34.13333333 6.82666667 67.35644445 20.25244445 98.75911111 12.85688889 30.03733333 31.28888889 57.11644445 54.72711111 80.32711111 8.30577778 8.192 17.06666667 15.81511111 26.28266667 22.75555556l35.95377777-82.83022223c-31.17511111-30.26488889-50.74488889-72.47644445-50.74488889-118.89777777 0-84.87822222 64.96711111-155.42044445 148.02488889-165.20533334-9.89866667-24.68977778-15.58755555-51.54133333-15.58755555-79.75822222 0-118.784 97.05244445-215.04 216.86044444-215.04S657.63555555 223.80088889 657.63555555 342.58488889c0 7.96444445-0.45511111 15.70133333-1.36533333 23.43822222 22.64177778-8.64711111 47.21777778-13.65333333 73.04533333-13.65333333 111.84355555 0 202.63822222 89.88444445 202.63822223 200.93155555 0 67.584-33.67822222 127.43111111-85.33333333 163.84L828.30222222 823.40977778c43.46311111-15.70133333 82.71644445-41.64266667 114.46044445-76.23111111 48.81066667-53.02044445 75.66222222-121.856 75.66222222-193.87733334 0-38.912-7.73688889-76.68622222-22.86933334-112.18488888zM609.05244445 399.58755555c-12.288 0-24.576-5.23377778-33.10933334-15.36-15.36-18.20444445-13.08444445-45.51111111 5.12-60.8711111 43.46311111-36.63644445 98.75911111-56.88888889 155.76177778-56.8888889 23.89333333 0 43.23555555 19.34222222 43.23555556 43.23555556s-19.34222222 43.23555555-43.23555556 43.23555556c-36.52266667 0-72.13511111 12.97066667-100.01066667 36.52266666-8.07822222 6.71288889-17.97688889 10.12622222-27.76177777 10.12622222z" /></svg>