<?xml version="1.0" standalone="no"?><!DOCTYPE svg PUBLIC "-//W3C//DTD SVG 1.1//EN" "http://www.w3.org/Graphics/SVG/1.1/DTD/svg11.dtd"><svg t="1711252726487" class="icon" viewBox="0 0 1024 1024" version="1.1" xmlns="http://www.w3.org/2000/svg" p-id="17805" xmlns:xlink="http://www.w3.org/1999/xlink" width="200" height="200"><path d="M912.13368889 518.5536l-85.92497778 85.99779555c-1.56558222 5.31569778-3.38602667 10.48576-5.17006222 15.65582223A319.81568 319.81568 0 0 1 805.20078222 657.63555555c-0.65536 1.34712889-1.23790222 2.73066667-1.92967111 4.00497778V803.27111111H661.64053333l-4.04138666 1.96608c-12.05134222 6.00746667-24.53959111 11.28675555-37.42833778 15.80145778-5.17006222 1.78403555-10.34012445 3.60448-15.65582222 5.17006222l-85.96138667 85.92497778c-2.22094222 0.07281778-4.36906667 0.36408889-6.59000889 0.36408889s-4.36906667-0.29127111-6.5536-0.36408889l-85.96138666-85.92497778c-5.31569778-1.56558222-10.48576-3.38602667-15.69223112-5.17006222A329.24558222 329.24558222 0 0 1 366.36444445 805.23719111c-1.31072-0.72817778-2.69425778-1.27431111-4.04138667-1.96608H220.72888889V661.64053333L218.79921778 657.63555555a325.93237333 325.93237333 0 0 1-15.80145778-37.39192888c-1.82044445-5.20647111-3.64088889-10.37653333-5.20647111-15.69223112L111.86631111 518.5536C111.82990222 516.36906667 111.50222222 514.18453333 111.50222222 512s0.32768-4.36906667 0.36408889-6.5536l85.92497778-85.96138667c1.56558222-5.31569778 3.38602667-10.48576 5.20647111-15.69223111 4.51470222-12.85233778 9.79399111-25.34058667 15.80145778-37.42833777L220.72888889 362.32305778V220.72888889H362.32305778c1.34712889-0.65536 2.73066667-1.27431111 4.00497777-1.92967111 12.12416-6.00746667 24.61240889-11.28675555 37.46474667-15.80145778 5.20647111-1.82044445 10.37653333-3.64088889 15.65582223-5.20647111l85.99779555-85.92497778c2.18453333-0.03640889 4.33265778-0.36408889 6.5536-0.36408889 2.18453333 0 4.36906667 0.32768 6.5536 0.36408889l85.99779555 85.92497778c5.31569778 1.56558222 10.48576 3.38602667 15.65582223 5.20647111 12.88874667 4.51470222 25.37699555 9.79399111 37.42833777 15.80145778l4.00497778 1.92967111H803.27111111V362.32305778c0.69176889 1.34712889 1.27431111 2.73066667 1.92967111 4.00497777 6.04387555 12.12416 11.28675555 24.61240889 15.83786667 37.46474667 1.78403555 5.20647111 3.60448 10.37653333 5.17006222 15.65582223l85.92497778 85.99779555c0.07281778 2.18453333 0.36408889 4.33265778 0.36408889 6.5536 0 2.18453333-0.29127111 4.36906667-0.36408889 6.5536z m58.10858666-58.03576889l-80.5728711-80.57287111a396.34716445 396.34716445 0 0 0-13.58051556-33.78744889V147.91111111h-198.20999111a400.97109333 400.97109333 0 0 0-33.78744889-13.54410666l-80.60928-80.60928L512 2.27555555l-51.48216889 51.4821689-80.57287111 80.60928c-11.50520889 4.00497778-22.79196445 8.51968-33.78744889 13.54410666H147.91111111v198.2464c-5.02442667 10.99548445-9.50272 22.20942222-13.54410666 33.78744889l-80.60928 80.57287111L2.27555555 512l51.4821689 51.48216889 80.60928 80.60928c4.00497778 11.50520889 8.51968 22.79196445 13.54410666 33.78744889V876.08888889h198.2464c10.99548445 5.06083555 22.28224 9.53912889 33.78744889 13.58051556L512 1021.72444445l132.09144889-132.05504c11.50520889-4.04138667 22.79196445-8.51968 33.78744889-13.58051556H876.08888889v-198.20999111c5.02442667-10.99548445 9.53912889-22.28224 13.58051556-33.78744889l80.5728711-80.60928L1021.72444445 512l-51.4821689-51.48216889z" p-id="17806"></path><path d="M631.89447111 340.62336l-291.27111111 291.27111111 51.48216889 51.48216889 291.27111111-291.27111111zM439.18222222 366.36444445a72.81777778 72.81777778 0 1 0-145.67196444 0.03640888A72.81777778 72.81777778 0 0 0 439.18222222 366.36444445M657.63555555 584.81777778a72.81777778 72.81777778 0 1 0 0.0364089 145.67196444A72.81777778 72.81777778 0 0 0 657.63555555 584.81777778" p-id="17807"></path></svg>