<?xml version="1.0" standalone="no"?><!DOCTYPE svg PUBLIC "-//W3C//DTD SVG 1.1//EN" "http://www.w3.org/Graphics/SVG/1.1/DTD/svg11.dtd"><svg class="icon" width="200px" height="200.00px" viewBox="0 0 1024 1024" version="1.1" xmlns="http://www.w3.org/2000/svg"><path d="M75.81551791 17.23545541l905.2209 905.27013885-69.62480198 69.62480198-184.50080028-184.50080027L528.42596791 1006.55760014l-417.5518508-418.14272605a295.43763056 295.43763056 0 0 1 1.6741458-395.04935206L6.14147708 86.90949623l69.67404083-69.67404082z m106.94842224 503.72116009L528.42596791 867.16027851l128.8600469-129.15548453-474.9159911-474.91599112a197.00765959 197.00765959 0 0 0 0.39391644 257.86781264z m751.54409213-338.07912934a295.43763056 295.43763056 0 0 1 11.62054759 405.53738793l-80.50675433 80.55599432-69.62480198-69.62480199 78.2909721-78.38945092a196.90918077 196.90918077 0 0 0-9.50324417-268.50356734 196.85994078 196.85994078 0 0 0-270.32543196-7.53365958l-65.7348728 58.98904728-65.78411163-58.9398073a194.64415855 194.64415855 0 0 0-56.87174388-35.60023447l-110.78911147-110.78911147a294.94523411 294.94523411 0 0 1 233.39572814 73.07157359 295.33915174 295.33915174 0 0 1 405.83282439 11.22662995z" /></svg>