<?xml version="1.0" standalone="no"?><!DOCTYPE svg PUBLIC "-//W3C//DTD SVG 1.1//EN" "http://www.w3.org/Graphics/SVG/1.1/DTD/svg11.dtd"><svg class="icon" width="200px" height="200.00px" viewBox="0 0 1024 1024" version="1.1" xmlns="http://www.w3.org/2000/svg"><path d="M512 7.78644386c-278.4897524 0-504.21355614 225.76161977-504.21355614 504.21355614s225.72380374 504.21355614 504.21355614 504.21355614c278.4519364 0 504.21355614-225.76161977 504.21355614-504.21355614S790.4519364 7.78644386 512 7.78644386z m0 924.38731782c-232.07689456 0-420.17376168-188.13468312-420.17376168-420.17376168S279.92310544 91.82623832 512 91.82623832c232.03907854 0 420.17376168 188.13468312 420.17376168 420.17376168S744.03907854 932.17376168 512 932.17376168zM512 512m-63.02669452 0a63.02669452 63.02669452 0 1 0 126.05338904 0 63.02669452 63.02669452 0 1 0-126.05338904 0ZM322.91991643 512m-63.02669451 0a63.02669452 63.02669452 0 1 0 126.05338904 0 63.02669452 63.02669452 0 1 0-126.05338904 0ZM701.08008357 512m-63.02669453 0a63.02669452 63.02669452 0 1 0 126.05338904 0 63.02669452 63.02669452 0 1 0-126.05338904 0ZM512 322.91991643m-63.02669452 0a63.02669452 63.02669452 0 1 0 126.05338904 0 63.02669452 63.02669452 0 1 0-126.05338904 0ZM322.91991643 322.91991643m-63.02669451 0a63.02669452 63.02669452 0 1 0 126.05338904 0 63.02669452 63.02669452 0 1 0-126.05338904 0ZM701.08008357 322.91991643m-63.02669453 0a63.02669452 63.02669452 0 1 0 126.05338904 0 63.02669452 63.02669452 0 1 0-126.05338904 0ZM512 701.08008357m-63.02669452 0a63.02669452 63.02669452 0 1 0 126.05338904 0 63.02669452 63.02669452 0 1 0-126.05338904 0ZM322.91991643 701.08008357m-63.02669451 0a63.02669452 63.02669452 0 1 0 126.05338904 0 63.02669452 63.02669452 0 1 0-126.05338904 0ZM701.08008357 701.08008357m-63.02669453 0a63.02669452 63.02669452 0 1 0 126.05338904 0 63.02669452 63.02669452 0 1 0-126.05338904 0Z" /></svg>