<?xml version="1.0" standalone="no"?><!DOCTYPE svg PUBLIC "-//W3C//DTD SVG 1.1//EN" "http://www.w3.org/Graphics/SVG/1.1/DTD/svg11.dtd"><svg class="icon" width="200px" height="200.00px" viewBox="0 0 1024 1024" version="1.1" xmlns="http://www.w3.org/2000/svg"><path d="M926.83821004 189.23309828C985.18749988 251.20797556 1016.51483797 320.71727623 1016.51483797 433.39372212c0 198.27428842-139.18855078 375.98470188-341.59827478 463.84853669l-50.58826811-78.06342045c188.92707189-102.19623389 225.86273987-234.81340732 240.59168659-318.42850741-30.42094089 15.74864308-70.24574849 21.24367379-109.27745802 17.61808636-102.19623389-9.46051561-182.75224493-93.35886558-182.75224496-197.65114108a198.27428842 198.27428842 0 0 1 198.27428971-198.27428839c60.78523152 0 118.90792306 27.7584009 155.67364164 66.79011044z m-566.49796852 0C418.68953265 251.20797556 450.01686944 320.71727623 450.01686944 433.39372212c0 198.27428842-139.18855078 375.98470188-341.59827478 463.84853669l-50.58826808-78.06342045c188.92707189-102.19623389 225.86273987-234.81340732 240.59168658-318.42850741-30.42094089 15.74864308-70.24574849 21.24367379-109.27745804 17.61808636C86.94832257 508.90790169 6.44896039 425.00955171 6.44896039 320.71727623a198.27428842 198.27428842 0 0 1 198.27428976-198.27428839c60.78523152 0 118.90792306 27.7584009 155.67364158 66.79011044z" /></svg>