<?xml version="1.0" standalone="no"?><!DOCTYPE svg PUBLIC "-//W3C//DTD SVG 1.1//EN" "http://www.w3.org/Graphics/SVG/1.1/DTD/svg11.dtd"><svg class="icon" width="200px" height="200.00px" viewBox="0 0 1024 1024" version="1.1" xmlns="http://www.w3.org/2000/svg"><path d="M94.55693186 836.63564241C35.84590497 774.27655123 4.32435272 704.33632686 4.32435272 590.96134215c0-199.50349201 140.0514517-378.31562314 343.716017-466.72417079l50.90189064 78.54737547c-190.09832735 102.82980055-227.2629784 236.26913561-242.0832374 320.40260844 30.60953586-15.84627695 70.68123778-21.37537419 109.95492484-17.72730989 102.82980055 9.5191662 183.8852195 93.9376449 183.8852195 198.87648148a199.50349201 199.50349201 0 0 1-199.50349335 199.50349203 220.65086311 220.65086311 0 0 1-156.63874209-67.20417648z m570.0099789 0C605.85588253 774.27655123 574.33433162 704.33632686 574.33433162 590.96134215c0-199.50349201 140.0514517-378.31562314 343.716017-466.72417079l50.90189062 78.54737547c-190.09832735 102.82980055-227.2629784 236.26913561-242.08323739 320.40260844 30.60953586-15.84627695 70.68123778-21.37537419 109.95492485-17.72730989 102.82980055 9.5191662 183.8852195 93.9376449 183.88521816 198.87648148a199.50349201 199.50349201 0 0 1-199.50349203 199.50349203 220.65086311 220.65086311 0 0 1-156.63874207-67.20417648z" /></svg>