<?xml version="1.0" standalone="no"?><!DOCTYPE svg PUBLIC "-//W3C//DTD SVG 1.1//EN" "http://www.w3.org/Graphics/SVG/1.1/DTD/svg11.dtd"><svg t="1638965171864" class="icon" viewBox="0 0 1024 1024" version="1.1" xmlns="http://www.w3.org/2000/svg" p-id="14675" xmlns:xlink="http://www.w3.org/1999/xlink" width="200" height="200"><defs><style type="text/css"></style></defs><path d="M148.81497606 1020.45903484v-145.2740109h145.27400927v145.2740109H148.81497606m290.54801848 0v-145.2740109h145.27401092v145.2740109h-145.27401092m290.54802013 0v-145.2740109h145.27400927v145.2740109h-145.27400927m-581.09603861-290.54802017v-145.27400921h145.27400927v145.27400921H148.81497606m290.54801848 0v-145.27400921h145.27401092v145.27400921h-145.27401092m290.54802013 0v-145.27400921h145.27400927v145.27400921h-145.27400927m-581.09603861-290.54802013V294.08898533h145.27400927v145.27400921H148.81497606m290.54801848 0V294.08898533h145.27401092v145.27400921h-145.27401092m290.54802013 0V294.08898533h145.27400927v145.27400921h-145.27400927M148.81497606 148.81497606V3.54096516h145.27400927v145.2740109H148.81497606m290.54801848 0V3.54096516h145.27401092v145.2740109h-145.27401092m290.54802013 0V3.54096516h145.27400927v145.2740109h-145.27400927z" p-id="14676"></path></svg>