<?xml version="1.0" standalone="no"?><!DOCTYPE svg PUBLIC "-//W3C//DTD SVG 1.1//EN" "http://www.w3.org/Graphics/SVG/1.1/DTD/svg11.dtd"><svg class="icon" width="200px" height="200.00px" viewBox="0 0 1024 1024" version="1.1" xmlns="http://www.w3.org/2000/svg"><path d="M706.56 943.67288889H314.82311111c-30.03733333 0-59.392-5.91644445-87.04-17.74933334-48.46933333-18.77333333-89.88444445-51.2-119.808-93.75288888-30.83377778-43.91822222-47.21777778-95.68711111-47.21777778-149.504 0-69.74577778 27.19288889-135.28177778 76.45866667-184.54755556s114.91555555-76.45866667 184.54755555-76.45866666c37.54666667 0 74.06933333 7.96444445 107.74755556 23.32444444 24.34844445-37.09155555 56.32-68.94933333 93.86666667-93.41155556 52.11022222-33.90577778 112.64-51.88266667 175.104-51.88266666 86.016 0 166.912 33.45066667 227.78311111 94.32177778s94.32177778 141.65333333 94.32177778 227.66933333c0 76.68622222-27.42044445 150.98311111-77.36888889 209.12355555-49.03822222 57.23022222-116.736 95.57333333-190.80533333 108.08888889-15.24622222 3.18577778-30.60622222 4.77866667-45.85244445 4.77866667zM321.87733333 508.01777778c-96.256 0-174.53511111 78.27911111-174.53511111 174.53511111 0 71.68 45.056 137.10222222 112.18488889 162.92977778l1.59288889 0.68266666c17.06666667 7.28177778 35.15733333 11.03644445 53.70311111 11.03644445H706.56c9.44355555 0 19.11466667-1.024 28.78577778-3.072l2.048-0.34133333c114.00533333-18.88711111 196.83555555-116.50844445 196.83555555-232.10666667 0-129.93422222-105.69955555-235.63377778-235.63377778-235.63377778-90.90844445 0-174.64888889 53.36177778-213.21955555 136.07822222l-21.73155555 46.53511111-42.09777778-29.35466666c-29.58222222-20.48-63.94311111-31.28888889-99.66933334-31.28888889zM155.19288889 488.10666667c-1.70666667-12.06044445-2.61688889-24.34844445-2.61688889-36.63644445 0-67.92533333 26.39644445-131.75466667 74.52444445-179.76888889s111.84355555-74.52444445 179.76888888-74.52444444c87.04 0 167.02577778 43.69066667 214.12977778 116.96355556 4.43733333 6.82666667 8.53333333 13.99466667 12.17422222 21.16266666l-76.91377778 39.48088889c-2.50311111-4.77866667-5.12-9.44355555-8.07822222-13.99466667-31.06133333-48.35555555-83.968-77.25511111-141.312-77.25511111-92.50133333 0-167.82222222 75.32088889-167.82222222 167.82222223 0 8.07822222 0.56888889 16.27022222 1.70666667 24.23466666l-85.56088889 12.51555556zM384 161.90577778c-23.89333333 0-43.23555555-19.34222222-43.23555555-43.23555556V90.79466667c0-23.89333333 19.34222222-43.23555555 43.23555555-43.23555556s43.23555555 19.34222222 43.23555555 43.23555556v27.87555555c0 23.77955555-19.456 43.23555555-43.23555555 43.23555556zM179.08622222 234.26844445c-11.03644445 0-22.18666667-4.20977778-30.60622222-12.62933334l-19.68355555-19.68355556c-16.83911111-16.83911111-16.83911111-44.25955555 0-61.09866666 16.83911111-16.83911111 44.25955555-16.83911111 61.09866666 0l19.68355556 19.68355556c16.83911111 16.83911111 16.83911111 44.25955555 0 61.09866666-8.41955555 8.41955555-19.456 12.62933333-30.49244445 12.62933334zM73.38666667 438.04444445H45.51111111c-23.89333333 0-43.23555555-19.34222222-43.23555556-43.23555556s19.34222222-43.23555555 43.23555556-43.23555556h27.87555556c23.89333333 0 43.23555555 19.34222222 43.23555555 43.23555556s-19.34222222 43.23555555-43.23555555 43.23555556zM601.77066667 222.89066667c-11.03644445 0-22.18666667-4.20977778-30.60622222-12.62933334-16.83911111-16.83911111-16.83911111-44.25955555 0-61.09866666l19.68355555-19.68355556c16.83911111-16.83911111 44.25955555-16.83911111 61.09866667 0s16.83911111 44.25955555 0 61.09866667l-19.68355556 19.68355555c-8.41955555 8.41955555-19.456 12.62933333-30.49244444 12.62933334zM439.75111111 588.23111111c-18.88711111 0-36.18133333-12.51555555-41.64266666-31.51644444-4.89244445-17.52177778-15.92888889-32.65422222-30.83377778-42.89422222-19.79733333-13.42577778-24.91733333-40.27733333-11.49155556-60.07466667 13.42577778-19.79733333 40.27733333-24.91733333 60.07466667-11.49155556 31.85777778 21.61777778 55.18222222 53.93066667 65.536 91.02222223 6.48533333 22.98311111-6.94044445 46.87644445-29.92355556 53.36177777-3.86844445 1.024-7.85066667 1.59288889-11.71911111 1.59288889z" /></svg>