<?xml version="1.0" standalone="no"?><!DOCTYPE svg PUBLIC "-//W3C//DTD SVG 1.1//EN" "http://www.w3.org/Graphics/SVG/1.1/DTD/svg11.dtd"><svg class="icon" width="200px" height="200.00px" viewBox="0 0 1024 1024" version="1.1" xmlns="http://www.w3.org/2000/svg"><path d="M512 1024C228.430769 1024 0 795.569231 0 512S228.430769 0 512 0s512 228.430769 512 512-228.430769 512-512 512z m0-929.476923C279.630769 94.523077 94.523077 279.630769 94.523077 512c0 232.369231 189.046154 417.476923 417.476923 417.476923 232.369231 0 417.476923-189.046154 417.476923-417.476923 0-232.369231-185.107692-417.476923-417.476923-417.476923zM358.4 795.569231c-3.938462 0-11.815385 0-15.753846-3.938462-11.815385-7.876923-15.753846-23.630769-7.876923-35.446154 59.076923-90.584615 63.015385-165.415385 3.938461-224.492307-55.138462-55.138462-98.461538-149.661538-3.938461-287.507693 11.815385-15.753846 27.569231-15.753846 39.384615-7.876923 11.815385 7.876923 15.753846 23.630769 7.876923 35.446154-63.015385 90.584615-63.015385 161.476923-3.938461 220.553846 55.138462 55.138462 98.461538 149.661538 3.938461 287.507693-7.876923 7.876923-15.753846 15.753846-23.630769 15.753846zM512 795.569231c-3.938462 0-11.815385 0-15.753846-3.938462-11.815385-7.876923-15.753846-23.630769-7.876923-35.446154 59.076923-90.584615 63.015385-165.415385 3.938461-224.492307-55.138462-55.138462-98.461538-149.661538-3.938461-287.507693 7.876923-11.815385 23.630769-15.753846 35.446154-7.876923 11.815385 7.876923 15.753846 23.630769 7.876923 35.446154-59.076923 90.584615-59.076923 161.476923 0 220.553846 55.138462 55.138462 98.461538 149.661538 3.938461 287.507693-7.876923 7.876923-15.753846 15.753846-23.630769 15.753846zM665.6 795.569231c-3.938462 0-11.815385 0-15.753846-3.938462-11.815385-7.876923-15.753846-23.630769-7.876923-35.446154 59.076923-90.584615 63.015385-165.415385 3.938461-224.492307-55.138462-55.138462-98.461538-149.661538-3.938461-287.507693 11.815385-15.753846 27.569231-15.753846 39.384615-7.876923 11.815385 7.876923 15.753846 23.630769 7.876923 35.446154-59.076923 90.584615-63.015385 165.415385-3.938461 224.492308 55.138462 55.138462 98.461538 149.661538 3.938461 287.507692-7.876923 3.938462-15.753846 11.815385-23.630769 11.815385z" /></svg>