<?xml version="1.0" standalone="no"?><!DOCTYPE svg PUBLIC "-//W3C//DTD SVG 1.1//EN" "http://www.w3.org/Graphics/SVG/1.1/DTD/svg11.dtd"><svg class="icon" width="200px" height="200.00px" viewBox="0 0 1024 1024" version="1.1" xmlns="http://www.w3.org/2000/svg"><path d="M512 7.00678471c-278.92037763 0-504.99321529 226.11071215-504.99321529 504.99321529s226.07283766 504.99321529 504.99321529 504.99321529c278.88250314 0 504.99321529-226.11071215 504.99321529-504.99321529S790.88250314 7.00678471 512 7.00678471z m0 925.81668642c-232.43575217 0-420.82347113-188.42559345-420.82347113-420.82347113S279.56424783 91.17652887 512 91.17652887c232.39787767 0 420.82347113 188.42559345 420.82347113 420.82347113S744.39787767 932.82347113 512 932.82347113zM596.16974415 512a84.16974415 84.16974415 0 1 1-168.3394883 0 84.16974415 84.16974415 0 0 1 168.3394883 0zM343.67313651 512a84.16974415 84.16974415 0 1 1-168.33948831 0 84.16974415 84.16974415 0 0 1 168.33948831 0zM848.6663518 512a84.16974415 84.16974415 0 1 1-168.33948831 0 84.16974415 84.16974415 0 0 1 168.33948831 0z" /></svg>