<?xml version="1.0" standalone="no"?><!DOCTYPE svg PUBLIC "-//W3C//DTD SVG 1.1//EN" "http://www.w3.org/Graphics/SVG/1.1/DTD/svg11.dtd"><svg class="icon" width="200px" height="200.00px" viewBox="0 0 1024 1024" version="1.1" xmlns="http://www.w3.org/2000/svg"><path d="M512 1021.72444485C230.47918933 1021.72444485 2.27555515 793.52081067 2.27555515 512S230.47918933 2.27555515 512 2.27555515s509.72444485 228.20363417 509.72444485 509.72444485-228.20363417 509.72444485-509.72444485 509.72444485z m0-101.94488969a407.77955516 407.77955516 0 1 0 0-815.55911032 407.77955516 407.77955516 0 0 0 0 815.55911032z m-254.86222183-356.80711032h101.9448885a152.91733333 152.91733333 0 0 0 305.83466666 0h101.9448885a254.86222183 254.86222183 0 0 1-509.72444366 0z m50.97244366-101.94488968a76.45866667 76.45866667 0 1 1 0-152.91733333 76.45866667 76.45866667 0 0 1 0 152.91733333z m407.77955634 0a76.45866667 76.45866667 0 1 1 0-152.91733333 76.45866667 76.45866667 0 0 1 0 152.91733333z" /></svg>