<?xml version="1.0" standalone="no"?><!DOCTYPE svg PUBLIC "-//W3C//DTD SVG 1.1//EN" "http://www.w3.org/Graphics/SVG/1.1/DTD/svg11.dtd"><svg class="icon" width="200px" height="200.00px" viewBox="0 0 1024 1024" version="1.1" xmlns="http://www.w3.org/2000/svg"><path d="M986.52591331 81.0993152L59.12415346 81.0993152c-22.50582357 0-40.7503269-18.24450333-40.7503269-40.7503269s18.24450333-40.7503269 40.7503269-40.75032689l927.4029238 0c22.50582357 0 40.7503269 18.24450333 40.7503269 40.75032689S1009.03173689 81.0993152 986.52591331 81.0993152zM253.24008221 315.24254379L60.07305443 315.24254379c-22.50582357 0-40.7503269-18.24450333-40.75032689-40.7503269s18.24450333-40.7503269 40.75032689-40.7503269l193.16702778 0c22.50582357 0 40.7503269 18.24450333 40.75032689 40.7503269S275.74590464 315.24254379 253.24008221 315.24254379zM229.95185209 549.38460729L60.07305443 549.38460729c-22.50582357 0-40.7503269-18.24566727-40.75032689-40.7503269 0-22.50582357 18.24450333-40.7503269 40.75032689-40.7503269L229.95185209 467.88395349c22.50582357 0 40.7503269 18.24450333 40.7503269 40.7503269C270.70217899 531.13894002 252.45767566 549.38460729 229.95185209 549.38460729zM283.21369315 783.52667079L60.07305443 783.52667079c-22.50582357 0-40.7503269-18.24450333-40.75032689-40.7503269s18.24450333-40.7503269 40.75032689-40.7503269l223.14063986 0c22.50582357 0 40.7503269 18.24450333 40.7503269 40.7503269S305.71951673 783.52667079 283.21369315 783.52667079zM629.46922041 1017.66873429L60.07305443 1017.66873429c-22.50582357 0-40.7503269-18.24450333-40.75032689-40.7503269s18.24450333-40.7503269 40.75032689-40.75032689l569.39733106 0c22.50582357 0 40.7503269 18.24450333 40.7503269 40.75032689S651.97504398 1017.66873429 629.46922041 1017.66873429zM698.43041621 788.97906461c-30.55343047 5.96934087-62.18499869 7.10452793-93.9725824 3.14708992-78.72497437-9.80336413-148.92032341-49.67581241-197.6542208-112.27297224-48.73506247-62.59715869-70.17672021-140.42795463-60.372191-219.15176504 9.80220018-78.72497437 49.67581241-148.92032341 112.27413618-197.6542208 62.59948771-48.73389853 140.43028366-70.17672021 219.15292899-60.3733561 78.72497437 9.80220018 148.91915833 49.67464846 197.6542208 112.27413618l0 0c48.73389853 62.59832377 70.17439118 140.42795463 60.37219101 219.15176505-9.80336413 78.72497437-49.67581241 148.92032341-112.27413618 197.65305685C786.28812117 760.80661731 743.54102841 780.16535097 698.43041621 788.97906461zM599.49328043 285.9849728c-32.09029973 6.26972899-63.20724992 19.94786702-90.72303446 41.36856803-45.42031417 35.36196949-74.35304619 86.29522091-81.46456007 143.41553608-7.11267897 57.12147911 8.44346823 113.59444651 43.80543659 159.01476067 35.36196949 45.42031417 86.29522091 74.35304619 143.41670002 81.46456007 57.12264419 7.11151389 113.59444651-8.44230315 159.01359672-43.80543658 45.42031417-35.36080555 74.35304619-86.29405696 81.46456008-143.41553608 7.11267897-57.12147911-8.44346823-113.59444651-43.80427264-159.01476067l0 0C759.62460046 298.76427549 676.75473579 270.88988843 599.49328043 285.9849728zM985.77843541 968.30495289c-14.60142421 2.85252267-30.23907157-2.42173383-40.00284899-14.96235577L772.33288078 732.22550187c-13.82483968-17.75899193-10.63699911-43.36300487 7.12082887-57.18784456 17.76015701-13.82600363 43.36416882-10.63583517 57.18784456 7.12082888l173.44270563 221.11709525c13.82483968 17.75899193 10.63699911 43.36300487-7.12082887 57.18784455C997.74738887 964.52448711 991.85139826 967.11853625 985.77843541 968.30495289z" /></svg>