<?xml version="1.0" standalone="no"?><!DOCTYPE svg PUBLIC "-//W3C//DTD SVG 1.1//EN" "http://www.w3.org/Graphics/SVG/1.1/DTD/svg11.dtd"><svg t="1685248208115" class="icon" viewBox="0 0 1024 1024" version="1.1" xmlns="http://www.w3.org/2000/svg" p-id="28437" xmlns:xlink="http://www.w3.org/1999/xlink" width="200" height="200"><path d="M401.59926583 716.62699838l79.28060112 79.13542555 283.09802466-283.01358644-283.09802466-283.08617423-79.28060112 79.2198652 147.21529803 147.13085982L-0.42410622 456.01338973l0 113.38645875 549.23867008 0L401.59926583 716.62699838zM905.54468243 3.15639463L112.87939671 3.15639463c-62.30100056 0-113.30202054 50.9180627-113.30202054 113.13314269l0 226.59070828 113.30202054 0 0-226.59070828 792.66528572 0 0 792.83416358L112.87939671 909.1237009l0-226.50627007-113.30202054 0 0 226.50627007c0 62.28766921 51.00250092 113.21906326 113.30202054 113.21906329l792.66528572 0c62.21508144 0 113.21758233-50.93139406 113.21758235-113.21906329l0-792.83416358C1018.76078241 54.07445589 967.75976242 3.15639463 905.54468243 3.15639463" p-id="28438"></path></svg>