<?xml version="1.0" standalone="no"?><!DOCTYPE svg PUBLIC "-//W3C//DTD SVG 1.1//EN" "http://www.w3.org/Graphics/SVG/1.1/DTD/svg11.dtd"><svg t="1645849535948" class="icon" viewBox="0 0 1024 1024" version="1.1" xmlns="http://www.w3.org/2000/svg" p-id="13476" xmlns:xlink="http://www.w3.org/1999/xlink" width="200" height="200"><defs><style type="text/css"></style></defs><path d="M12.06333406 74.32625065l0 872.25124877 1006.44374858 0L1018.50708264 74.32625065 12.06333406 74.32625065zM951.41083275 879.4812495L79.15958398 879.4812495 79.15958398 141.42250054l872.25124877 0L951.41083275 879.4812495zM817.21833293 409.80750017l-134.19249981 0L683.02583312 275.61500036 347.5445836 275.61500036l0 134.19249981L213.35208379 409.80750017l0 335.48124952 603.86624914 0L817.21833293 409.80750017zM750.12208302 678.19249979L280.44833369 678.19249979 280.44833369 476.90375008l69.17623365 0L414.6408335 476.90375008 414.6408335 409.80750017 414.6408335 342.71125027l201.28874971 0 0 67.0962499 0 67.09624991 70.24977365 0L750.12208302 476.90375008 750.12208302 678.19249979zM347.5445836 543.99999998l67.0962499 0 0 67.0962499L347.5445836 611.09624988 347.5445836 543.99999998zM481.73708341 543.99999998l67.0962499 0 0 67.0962499L481.73708341 611.09624988 481.73708341 543.99999998zM615.92958321 543.99999998l67.09624991 0 0 67.0962499L615.92958321 611.09624988 615.92958321 543.99999998z" p-id="13477"></path></svg>