<?xml version="1.0" standalone="no"?><!DOCTYPE svg PUBLIC "-//W3C//DTD SVG 1.1//EN" "http://www.w3.org/Graphics/SVG/1.1/DTD/svg11.dtd"><svg class="icon" width="200px" height="200.00px" viewBox="0 0 1024 1024" version="1.1" xmlns="http://www.w3.org/2000/svg"><path d="M1005.617152 131.82080948H662.0980717v63.57720177h101.26161541V295.97392592h-101.26161541v32.04467675h101.26161541v100.70698666h-101.26161541v32.94154904h101.26161541v95.23715793h-101.26161541v38.15408829h101.26161541v95.45197038h-101.26161541v38.15408828h101.26161541v96.0053855h-101.26161541v70.02885688h343.5190803c5.4273517-1.62383645 9.95540385-8.03180089 13.58779733-19.14136652 3.63117985-11.1945197 5.51109215-20.29431467 5.51109215-27.17316741V143.44131318c0-5.46861511-1.8799123-8.75876503-5.51109215-9.91292681a46.99902103 46.99902103 0 0 0-13.58779733-1.70879052zM961.05509925 824.5860883H796.25875911v-95.92043141h164.79512652v96.00538548-0.08495407z m0-134.07573333H796.25875911v-95.49323379h164.79512652v95.49323379z m0-133.64732208H796.25875911v-94.8099603h164.79512652v94.89491438-0.08495408z m0-128.17992059H796.25875911v-100.5771283h164.79512652v100.62081897-0.04369067z m0-133.26260148H796.25875911v-99.98002252h164.79512652v100.62081895-0.64079643zM-0.71604148 115.96837925v794.75264475l605.00529303 104.63671941V8.64104297l-605.00650666 107.66957985v-0.34102993z m358.60206933 601.20299142c-2.30710992-6.2380563-13.15938608-32.72916385-32.3869203-79.59954015a5206.63495111 5206.63495111 0 0 0-34.13818785-81.86417304h-1.06799407l-64.90127171 154.4562157-86.73446874-5.8533357 102.88545185-192.26927407-94.21164088-192.26806044 88.44325926-4.65791052 58.44840296 150.44031525h1.15416178l66.01295644-157.27669095 91.39116563-5.767168-108.82374163 208.0768 112.15636859 212.26382222-98.22754133-5.767168v0.08495406z" /></svg>