<?xml version="1.0" standalone="no"?><!DOCTYPE svg PUBLIC "-//W3C//DTD SVG 1.1//EN" "http://www.w3.org/Graphics/SVG/1.1/DTD/svg11.dtd"><svg class="icon" width="200px" height="200.00px" viewBox="0 0 1024 1024" version="1.1" xmlns="http://www.w3.org/2000/svg"><path d="M514.68396825 70.80025397a439.35126349 439.35126349 0 0 1 380.81617271 221.44926476h-91.46433017v60.28271746h192.8994946V159.63794286h-60.28271746v77.83700318A501.92253968 501.92253968 0 0 0 12.76142857 509.26730159h63.45549207a438.9871746 438.9871746 0 0 1 438.46704761-438.46704762z m438.46704762 438.46704762a438.49305397 438.49305397 0 0 1-819.50687491 217.01258159h91.68798475v-60.28271746H32.43263111v192.8994946h60.28271747v-78.33112381A501.71969016 501.71969016 0 0 0 1016.60650793 509.26730159h-63.45549206zM651.58139047 326.74954159l-69.08326603 147.60163556H644.1955873V534.75352381h-87.38133333l-6.90728635 13.87178667v17.33583238H644.1955873v60.42835302h-94.2678146v65.3799619H469.49533587v-65.3799619H374.76980952V565.96114286h94.72552635v-17.33063111l-5.43012571-13.87698794H374.76980952V474.35117715h71.52786286L377.70852698 326.74954159H460.5907619l53.31301588 143.63826794h0.98824127l55.26869333-143.63306667h81.42067809z" /></svg>