<?xml version="1.0" standalone="no"?><!DOCTYPE svg PUBLIC "-//W3C//DTD SVG 1.1//EN" "http://www.w3.org/Graphics/SVG/1.1/DTD/svg11.dtd"><svg class="icon" width="200px" height="200.00px" viewBox="0 0 1024 1024" version="1.1" xmlns="http://www.w3.org/2000/svg"><path d="M512 277.333333c-129.6 0-234.666667 105.066667-234.666667 234.666667s105.066667 234.666667 234.666667 234.666667V277.333333z m300.032-5.013333a386.304 386.304 0 0 0-60.352-60.352l92.181333-92.16 60.352 60.330667-92.181333 92.16zM554.666667 130.346667V0h-85.333334v130.346667a388.224 388.224 0 0 1 85.333334 0zM272.32 211.968a386.304 386.304 0 0 0-60.352 60.352l-92.16-92.181333 60.330667-60.352 92.16 92.181333zM130.346667 469.333333H0v85.333334h130.346667a388.224 388.224 0 0 1 0-85.333334z m81.621333 282.346667a386.304 386.304 0 0 0 60.352 60.352l-92.181333 92.16-60.352-60.330667 92.181333-92.16zM469.333333 893.653333V1024h85.333334v-130.346667a388.224 388.224 0 0 1-85.333334 0z m282.346667-81.621333a386.304 386.304 0 0 0 60.352-60.352l92.16 92.181333-60.330667 60.352-92.16-92.181333zM893.653333 554.666667H1024v-85.333334h-130.346667a388.224 388.224 0 0 1 0 85.333334zM512 832c-176.725333 0-320-143.274667-320-320 0-176.725333 143.274667-320 320-320 176.725333 0 320 143.274667 320 320 0 176.725333-143.274667 320-320 320z" /></svg>