<?xml version="1.0" standalone="no"?><!DOCTYPE svg PUBLIC "-//W3C//DTD SVG 1.1//EN" "http://www.w3.org/Graphics/SVG/1.1/DTD/svg11.dtd"><svg class="icon" width="200px" height="200.00px" viewBox="0 0 1024 1024" version="1.1" xmlns="http://www.w3.org/2000/svg"><path d="M504.58510222 170.60522667l-173.47697777-103.04056889L22.20600889 230.46599111 151.63164445 363.05578667l352.95232-192.45056z m0 386.42688L151.63278222 364.69191111 24.38599111 515.27111111l332.12757334 196.8128 148.07153777-155.05180444z m3.70801778 0l153.41454222 154.06990222L999.06901333 519.30453333 861.24430222 364.69077333 508.29312 557.03324445z m157.88487111 213.38567111L506.43854222 616.23978667 360.54812445 770.96277333 156.75733333 644.26211555v120.15843556l352.84423112 204.88078222 356.11420444-201.93621333-0.54499556-123.10300445-198.99278222 126.15566223z m332.99911111-539.95178667l-317.40586667-162.90133333-173.58734222 103.04056889 352.95232 192.34133333 138.04088889-132.48056889z m0 0" /></svg>