<?xml version="1.0" standalone="no"?><!DOCTYPE svg PUBLIC "-//W3C//DTD SVG 1.1//EN" "http://www.w3.org/Graphics/SVG/1.1/DTD/svg11.dtd"><svg class="icon" width="200px" height="200.00px" viewBox="0 0 1024 1024" version="1.1" xmlns="http://www.w3.org/2000/svg"><path d="M1012.89148847 482.20027398l-0.11640517-0.11640519-0.11640518-0.11640517c-42.37148543-89.28277288-93.12414381-161.45398432-152.14156994-216.51363433L801.49968205 324.58766061c50.86906355 46.79488225 94.87022151 109.07165342 132.81831009 187.29593421C837.35247742 712.44971954 699.87796013 807.66915656 512 807.66915656c-59.71585722 0-114.42629169-9.66162992-164.36411379-29.21770011l-63.67363334 63.67363332C352.05928303 874.95135047 427.95546022 891.48088599 512 891.48088599c223.73075548 0 390.42297289-116.98720566 500.7750833-349.56475478 8.96319884-18.85763912 8.96319884-40.74181291 0.11640517-59.71585723zM938.39217343 95.50226684l-49.35579622-49.3557962c-3.60856056-3.60856056-9.54522474-3.60856056-13.1537853 0L739.92134195 181.99131541C671.94071697 149.04864953 596.04453978 132.51911401 512 132.51911401c-223.73075548 0-390.42297289 116.98720566-500.7750833 349.56475478v0.11640519c-8.96319884 18.85763912-8.96319884 40.97462326 0 59.94866757 42.37148543 89.28277288 93.12414381 161.45398432 152.14156994 216.63003952L46.14647064 875.76618672c-3.60856056 3.60856056-3.60856056 9.54522474 0 13.15378531l49.3557962 49.35579622c3.60856056 3.60856056 9.54522474 3.60856056 13.15378531 0l829.73612128-829.73612127c3.60856056-3.49215539 3.60856056-9.42881957 0-13.03738014zM380.3457417 541.56691565c-2.21169843-9.54522474-3.37575019-19.43966502-3.37575021-29.56691565 0-72.05480628 58.31899505-130.37380132 130.37380133-130.37380132 10.12725063 0 20.13809609 1.16405181 29.56691565 3.3757502L380.3457417 541.56691565z m214.76755664-214.76755662C568.45651217 314.2275996 538.77319134 307.12688364 507.34379282 307.12688364c-113.14583472 0-204.87311636 91.72728164-204.87311638 204.87311636 0 31.42939853 7.10071597 61.11271936 19.67247539 87.76950553L222.50031795 699.41233939c-50.86906355-46.79488225-94.87022151-109.07165342-132.81831009-187.29593421C186.76392777 311.55028046 324.23844506 216.33084344 512 216.33084344c59.71585722 0 114.42629169 9.66162992 164.36411379 29.21770011l-81.25081545 81.25081548zM507.34379282 642.37380132c-7.4499315 0-14.78345784-0.58202589-21.88417379-1.86248287l-59.48304686 59.48304685c24.91070847 10.82568171 52.49873606 16.76234589 81.36722065 16.76234587 113.14583472 0 204.87311636-91.72728164 204.87311635-204.87311635 0-28.86848458-5.93666416-56.45651217-16.76234588-81.36722064l-59.48304686 59.48304686c1.16405181 7.10071597 1.86248287 14.4342423 1.86248288 21.88417378C637.71759414 584.05480628 579.39859908 642.37380132 507.34379282 642.37380132z" /></svg>