<?xml version="1.0" standalone="no"?><!DOCTYPE svg PUBLIC "-//W3C//DTD SVG 1.1//EN" "http://www.w3.org/Graphics/SVG/1.1/DTD/svg11.dtd"><svg class="icon" width="200px" height="200.00px" viewBox="0 0 1024 1024" version="1.1" xmlns="http://www.w3.org/2000/svg"><path d="M387.35345682 830.04095366l-90.55397814-24.29153814 36.90625565-137.82399903a515.28074321 515.28074321 0 0 1-151.79866827-87.78718166l-100.9646375 101.01153274-66.35622935-66.35623044 101.01153273-100.9646375a513.82700323 513.82700323 0 0 1-111.18771815-237.75695032l92.2890884-16.83525509C132.29230244 456.28890396 304.67781549 605.78972362 512 605.78972362c207.27529038 0 379.70769756-149.50081967 415.30089781-346.5530294l92.2890884 16.78835987a513.82700323 513.82700323 0 0 1-111.14082291 237.80384554l100.96463749 100.9646375-66.35622935 66.35623044-100.9646375-101.01153274a515.28074321 515.28074321 0 0 1-151.79866827 87.78718166l36.90625565 137.87089427-90.55397814 24.2446429-36.9531509-137.87089425a519.21991163 519.21991163 0 0 1-175.38678456 0l-36.9531509 137.87089425z" /></svg>