<?xml version="1.0" standalone="no"?><!DOCTYPE svg PUBLIC "-//W3C//DTD SVG 1.1//EN" "http://www.w3.org/Graphics/SVG/1.1/DTD/svg11.dtd"><svg class="icon" width="200px" height="200.00px" viewBox="0 0 1024 1024" version="1.1" xmlns="http://www.w3.org/2000/svg"><path d="M512 134q68.58632812 0 133.39265625 20.83232813t113.69334375 54.13767187 92.02232813 73.66767187 72.53367187 80.72465625 50.86265625 73.66767188 31.66734375 53.97032812L1016 512q-2.31032812 4.914-6.21632813 13.27232813T991.26265625 559.41734375t-31.16334375 50.86167187-43.63832813 59.05265626-55.944 63.3346875-68.418 59.22-81.06032812 50.6953125-93.366 34.14501562T512 890q-68.58632812 0-133.39265625-20.83232813t-113.69334375-53.96934375-92.02232813-73.16465625-72.53367187-80.21967187-50.86265625-73.332-31.66734375-54.13767188L8 513.68032813q2.31032812-4.914 6.21632813-13.27232813t18.52199999-34.272 31.16334375-51.03 43.63832813-59.38734375 55.944-63.67232813 68.418-59.38832812 81.06032812-51.03 93.36600001-34.272T512 134.08367187z m0 83.99967188q-45.94767187 0-90.216 12.13832812t-79.884 31.33265625-69.552 46.40934375-58.716 53.63367188-48.08967188 56.78465625-37.08632812 51.99567187-25.91367187 43.30265625q12.13734375 21.33534375 25.91367187 42.84t37.08632812 51.53301563 48.08967188 56.11232812 58.716 53.00367188T341.9 763.0353125t79.884 30.996T512 806.00032812t90.216-12.13832812 79.884-31.16432813 69.552-46.116 58.716-53.33934375 48.08967188-56.448 37.08632812-51.82832812T921.45767188 512q-12.13734375-21.33632813-25.91367188-42.966t-37.08632812-51.82734375-48.08967188-56.44898438-58.716-53.33934375-69.552-46.116-79.884-31.16432812T512 218.00065625z m0 126q69.552 0 118.77567188 49.22465625T680.00032813 512 630.7746875 630.77567188 512 680.00032813 393.22432812 630.7746875 343.99967187 512t49.22465626-118.77567188T512 343.99967187z m0 84.00065625q-34.776 0-59.38734375 24.61134375T427.99934375 512t24.61134375 59.38734375T512 596.00065625t59.38734375-24.61134375T596.00065625 512t-24.61134375-59.38734375T512 427.99934375z" /></svg>