<?xml version="1.0" standalone="no"?><!DOCTYPE svg PUBLIC "-//W3C//DTD SVG 1.1//EN" "http://www.w3.org/Graphics/SVG/1.1/DTD/svg11.dtd"><svg class="icon" width="200px" height="200.00px" viewBox="0 0 1024 1024" version="1.1" xmlns="http://www.w3.org/2000/svg"><path d="M512 872C212 872 44 543.9996875 36.0003125 528.0003125c-4.0003125-12-4.0003125-24 0-36C44 480.0003125 212 152 512 152s468 328.0003125 475.9996875 343.9996875c4.0003125 12 4.0003125 24 0 36C980 543.9996875 812 872 512 872zM116 512c36 64.0003125 180 280.0003125 396 280.0003125S867.9996875 576.0003125 908 512C872 447.9996875 728 231.9996875 512 231.9996875S156.0003125 447.9996875 116 512zM512 672.0003125c-88.0003125 0-160.0003125-72-160.0003125-160.0003125S423.9996875 351.9996875 512 351.9996875 672.0003125 423.9996875 672.0003125 512 600.0003125 672.0003125 512 672.0003125z m0-240c-43.9996875 0-79.9996875 36-79.9996875 79.9996875s36 79.9996875 79.9996875 79.9996875 79.9996875-36 79.9996875-79.9996875-36-79.9996875-79.9996875-79.9996875z" /></svg>