<?xml version="1.0" standalone="no"?><!DOCTYPE svg PUBLIC "-//W3C//DTD SVG 1.1//EN" "http://www.w3.org/Graphics/SVG/1.1/DTD/svg11.dtd"><svg class="icon" width="200px" height="200.00px" viewBox="0 0 1024 1024" version="1.1" xmlns="http://www.w3.org/2000/svg"><path d="M612.232804 143.757319c-159.650088 0-289.320635 129.309347-289.320635 289.320635s129.309347 289.320635 289.320635 289.320635 289.320635-129.309347 289.320635-289.320635-129.670547-289.320635-289.320635-289.320635z m0 699.643034c-97.52381 0-192.158025-34.675132-266.20388-97.885009l-57.791887 59.236684 97.52381 97.16261-86.687831 86.687831-99.329806-96.801411L86.687831 1004.134039 0 917.446208l112.69418-112.33298-102.941799-103.302999 86.687831-86.68783 102.941799 102.580599 65.377072-65.377072c-42.260317-65.738272-64.654674-141.951323-64.654674-219.97037-0.361199-227.555556 183.850441-412.128395 411.044797-412.489595 227.555556-0.361199 412.128395 183.489242 412.489595 411.044797 0.361199 227.555556-183.489242 412.128395-411.044797 412.489595h-0.3612z" /></svg>