<?xml version="1.0" standalone="no"?><!DOCTYPE svg PUBLIC "-//W3C//DTD SVG 1.1//EN" "http://www.w3.org/Graphics/SVG/1.1/DTD/svg11.dtd"><svg t="1640162130768" class="icon" viewBox="0 0 1024 1024" version="1.1" xmlns="http://www.w3.org/2000/svg" p-id="24367" xmlns:xlink="http://www.w3.org/1999/xlink" width="200" height="200"><defs><style type="text/css"></style></defs><path d="M978.24009482 9.83646815H694.35998815c-42.42849185 45.17129482-108.54703408 74.22558815-182.8333037 74.22558815s-140.41694815-29.05429333-182.84544-74.22558815H46.00263111v1005.38292148h280.62757926c67.05303703 0 180.224 0.24272592 180.224 0.24272592s125.30725925-0.24272592 189.58108445-0.24272592h281.81693629V9.83646815h-0.01213629zM511.52668445 161.73435259c80.34228148 0 156.25481482-26.71198815 213.40463407-74.22558814h175.63648v850.03832888H696.42315852c-62.87815111 0-185.57610667 0.24272592-189.64176593 0.24272592-5.75260445-0.0121363-115.22199703-0.24272592-180.16331851-0.24272592H123.67492741V87.50876445h174.44712296c57.14981925 47.5136 133.06235259 74.22558815 213.40463408 74.22558814z" p-id="24368"></path><path d="M435.54133333 201.25013333H201.25013333V278.98311111H435.54133333v-77.73297778zM820.51678815 790.16391111h-230.7109926v77.73297778h230.7109926V790.16391111zM589.80579555 348.48768H201.25013333v77.72084148h388.55566222v-77.72084148zM822.67704889 348.48768H665.6940563v77.72084148h156.98299259v-77.72084148zM822.87122963 495.71309037h-621.6210963v77.72084148h621.6210963v-77.72084148zM822.87122963 642.93850075h-621.6210963v77.72084147h621.6210963v-77.72084147z" p-id="24369"></path></svg>