<?xml version="1.0" standalone="no"?><!DOCTYPE svg PUBLIC "-//W3C//DTD SVG 1.1//EN" "http://www.w3.org/Graphics/SVG/1.1/DTD/svg11.dtd"><svg t="1711252772340" class="icon" viewBox="0 0 1024 1024" version="1.1" xmlns="http://www.w3.org/2000/svg" p-id="17068" xmlns:xlink="http://www.w3.org/1999/xlink" width="200" height="200"><path d="M667.34459259 240.14696297a77.6722963 77.6722963 0 1 1 0.03883616-155.38342875A77.6722963 77.6722963 0 0 1 667.34459259 240.14696297z m149.82985956-116.50844445c-17.35975822-66.79817482-77.6722963-116.50844445-149.82985956-116.50844444s-132.47010133 49.71026963-149.82985956 116.50844444H45.96622222v77.6722963h471.54851081c17.35975822 66.79817482 77.6722963 116.50844445 149.82985956 116.50844443s132.47010133-49.71026963 149.82985956-116.50844443H978.03377778V123.63851852h-160.85932563zM667.34459259 939.19762963a77.6722963 77.6722963 0 1 1 0.03883616-155.38342874A77.6722963 77.6722963 0 0 1 667.34459259 939.19762963m0-233.01688888c-72.15756325 0-132.47010133 49.71026963-149.82985956 116.50844443H45.96622222v77.6722963h471.54851081c17.35975822 66.79817482 77.6722963 116.50844445 149.82985956 116.50844444s132.47010133-49.71026963 149.82985956-116.50844444H978.03377778v-77.6722963h-160.85932563c-17.35975822-66.79817482-77.6722963-116.50844445-149.82985956-116.50844443M356.65540741 589.6722963a77.6722963 77.6722963 0 1 1 0.03883614-155.38342875A77.6722963 77.6722963 0 0 1 356.65540741 589.6722963m0-233.01688889c-72.15756325 0-132.47010133 49.71026963-149.82985956 116.50844444H45.96622222v77.6722963h160.85932563c17.35975822 66.79817482 77.6722963 116.50844445 149.82985956 116.50844444s132.47010133-49.71026963 149.82985956-116.50844444H978.03377778v-77.6722963H506.48526697c-17.35975822-66.79817482-77.6722963-116.50844445-149.82985956-116.50844444" p-id="17069"></path></svg>