<?xml version="1.0" standalone="no"?><!DOCTYPE svg PUBLIC "-//W3C//DTD SVG 1.1//EN" "http://www.w3.org/Graphics/SVG/1.1/DTD/svg11.dtd"><svg class="icon" width="200px" height="200.00px" viewBox="0 0 1024 1024" version="1.1" xmlns="http://www.w3.org/2000/svg"><path d="M221.02771882 4.33486335m6.679804 0l568.58495436 0q6.67980402 0 6.679804 6.67980403l0 80.15765322q0 6.67980402-6.679804 6.67980401l-568.58495436 0q-6.67980402 0-6.679804-6.67980401l0-80.15765322q0-6.67980402 6.679804-6.67980403ZM107.87183127 144.61075649m6.67980527 0l794.89672692 0q6.67980402 0 6.67980527 6.67980403l0 80.15765322q0 6.67980402-6.67980527 6.67980401l-794.89672692 0q-6.67980402 0-6.67980527-6.67980401l0-80.15765322q0-6.67980402 6.67980527-6.67980403ZM4.33486335 291.56645364v721.41887898a6.67980402 6.67980402 0 0 0 6.67980403 6.67980403h1001.97066524a6.67980402 6.67980402 0 0 0 6.67980403-6.67980403V291.56645364a6.67980402 6.67980402 0 0 0-6.67980403-6.67980401H11.01466738a6.67980402 6.67980402 0 0 0-6.67980403 6.67980401z m915.13320678 634.58142175H104.53192987a6.67980402 6.67980402 0 0 1-6.67980526-6.67980526V385.08371617a6.67980402 6.67980402 0 0 1 6.67980526-6.67980528h814.93614026a6.67980402 6.67980402 0 0 1 6.67980526 6.67980528v534.38435396a6.67980402 6.67980402 0 0 1-6.67980526 6.67980526zM351.68469357 766.43375134h106.87687053a6.67980402 6.67980402 0 0 1 6.67980528 6.67980402v101.59982547a6.67980402 6.67980402 0 0 0 6.679804 6.679804h80.15765324a6.67980402 6.67980402 0 0 0 6.679804-6.679804v-101.66662309a6.67980402 6.67980402 0 0 1 6.67980528-6.67980527h106.87687053a6.67980402 6.67980402 0 0 0 6.67980403-6.67980403v-80.15765322a6.67980402 6.67980402 0 0 0-6.67980403-6.679804h-106.87687053a6.67980402 6.67980402 0 0 1-6.67980528-6.67980527v-6.67980403a6.67980402 6.67980402 0 0 1 6.67980528-6.67980402h106.87687053a6.67980402 6.67980402 0 0 0 6.67980403-6.67980527v-80.15765321a6.67980402 6.67980402 0 0 0-6.67980403-6.67980401h-75.54858816a6.67980402 6.67980402 0 0 1-4.74266156-11.4224656l56.64474202-56.64474202a6.67980402 6.67980402 0 0 0 0-9.41852425L592.15765322 425.16254276a6.67980402 6.67980402 0 0 0-9.41852426 0l-65.86287214 65.8628709a6.67980402 6.67980402 0 0 1-9.48532187 0L441.46126516 425.16254276A6.67980402 6.67980402 0 0 0 431.84234678 425.16254276l-56.64474202 56.71153966a6.67980402 6.67980402 0 0 0 0 9.41852425l56.64474202 56.64474077a6.67980402 6.67980402 0 0 1-4.74266156 11.42246558H351.68469357a6.67980402 6.67980402 0 0 0-6.67980403 6.67980528v80.15765321a6.67980402 6.67980402 0 0 0 6.67980403 6.67980404h106.87687053a6.67980402 6.67980402 0 0 1 6.67980528 6.67980399v6.67980528a6.67980402 6.67980402 0 0 1-6.67980528 6.67980403H351.68469357a6.67980402 6.67980402 0 0 0-6.67980403 6.67980401v80.15765321a6.67980402 6.67980402 0 0 0 6.67980403 6.67980527z" /></svg>