<?xml version="1.0" standalone="no"?><!DOCTYPE svg PUBLIC "-//W3C//DTD SVG 1.1//EN" "http://www.w3.org/Graphics/SVG/1.1/DTD/svg11.dtd"><svg class="icon" width="200px" height="200.00px" viewBox="0 0 1024 1024" version="1.1" xmlns="http://www.w3.org/2000/svg"><path d="M172.18332445 610.0992V1011.05777778H75.09333333V55.05706666l31.50506667-11.82037333c12.76814222-4.78208 34.63736889-11.50520889 63.91011555-18.08270222 116.31502222-26.16661333 240.51712-26.16661333 358.53084445 18.08270222 97.74648889 36.65123555 203.67132445 36.65123555 303.14040889 14.27228445a527.15178667 527.15178667 0 0 0 38.66624-10.17059556c6.43185778-1.96608 10.68032-3.39740445 12.47573333-4.10168889L948.90666667 18.64931555v589.14360889l-31.50506667 11.82151111c-12.76814222 4.78094222-34.63736889 11.50407111-63.91011555 18.08270223-116.31502222 26.16547555-240.51712 26.16547555-358.53084445-18.08384-97.74648889-36.65123555-203.67132445-36.65123555-303.14040889-14.27228445a638.71772445 638.71772445 0 0 0-19.63690666 4.75818667z m0-99.85820445c115.82919111-25.80138667 239.40096-25.58293333 356.85603555 18.44792889 97.74648889 36.65123555 203.67132445 36.65123555 303.14040889 14.27228444a638.71772445 638.71772445 0 0 0 19.63690666-4.75818666V152.60899555c-115.82919111 25.80138667-239.40096 25.58293333-356.85603555-18.44679111-97.74648889-36.65237333-203.67132445-36.65237333-303.14040889-14.27228444a638.72113778 638.72113778 0 0 0-19.63690666 4.75704888v385.59402667z" /></svg>