<?xml version="1.0" standalone="no"?><!DOCTYPE svg PUBLIC "-//W3C//DTD SVG 1.1//EN" "http://www.w3.org/Graphics/SVG/1.1/DTD/svg11.dtd"><svg t="1713004497873" class="icon" viewBox="0 0 1024 1024" version="1.1" xmlns="http://www.w3.org/2000/svg" p-id="17188" xmlns:xlink="http://www.w3.org/1999/xlink" width="200" height="200"><path d="M933.47437994-0.58892399h88.33700559v1021.32846586h-88.33700559zM13.56988347 25.03971344h88.33700559v502.21223548H13.56988347zM-5.51527208 701.74479947h88.3370056v313.54184081H-5.51527208zM230.05007618 467.27003154h88.33700558v313.54184084H230.05007618zM463.97955394 232.79526362h88.33700558v313.54184083H463.97955394zM698.45432186 1.0469465h88.33700558v313.54184081h-88.33700558z" p-id="17189"></path><path d="M-5.70612362 1020.41236778v-88.3370056h948.80487485v88.3370056zM57.70021593 789.9073122v-88.33700559h261.19398568v88.33700559zM239.40180237 555.55250812v-88.33700558h312.99655068v88.33700558zM465.582707 320.96322927v-88.3370056h321.17590304v88.3370056zM698.62881471 87.55723006v-88.33700559h321.17590303v88.33700559zM27.20759032 113.15860296v-88.33700559h321.17590303v88.33700559zM27.34391286 320.22708754v-88.33700558h321.17590302v88.33700558z" p-id="17190"></path></svg>