<?xml version="1.0" standalone="no"?><!DOCTYPE svg PUBLIC "-//W3C//DTD SVG 1.1//EN" "http://www.w3.org/Graphics/SVG/1.1/DTD/svg11.dtd"><svg t="1659759718586" class="icon" viewBox="0 0 1024 1024" version="1.1" xmlns="http://www.w3.org/2000/svg" p-id="26246" xmlns:xlink="http://www.w3.org/1999/xlink" width="200" height="200"><defs><style type="text/css">@font-face { font-family: feedback-iconfont; src: url("//at.alicdn.com/t/font_1031158_u69w8yhxdu.woff2?t=1630033759944") format("woff2"), url("//at.alicdn.com/t/font_1031158_u69w8yhxdu.woff?t=1630033759944") format("woff"), url("//at.alicdn.com/t/font_1031158_u69w8yhxdu.ttf?t=1630033759944") format("truetype"); }
</style></defs><path d="M368.54897778 726.56971852c0 100.6098963-81.55591111 182.04444445-182.04444445 182.04444445s-182.04444445-81.55591111-182.04444444-182.04444445 81.55591111-182.04444445 182.04444444-182.04444444 182.04444445 81.55591111 182.04444445 182.04444444z m-182.04444445 94.66311111c52.30743703 0 94.66311111-42.35567408 94.66311112-94.66311111s-42.35567408-94.66311111-94.66311112-94.66311111-94.66311111 42.35567408-94.66311111 94.66311111 42.35567408 94.66311111 94.66311111 94.66311111zM510.78637037 388.69522963c-100.48853333 0-182.04444445-81.55591111-182.04444445-182.04444445s81.55591111-182.04444445 182.04444445-182.04444443 182.04444445 81.55591111 182.04444445 182.04444443-81.55591111 182.04444445-182.04444445 182.04444445z m0-276.70755555c-52.30743703 0-94.66311111 42.35567408-94.66311112 94.6631111s42.35567408 94.66311111 94.66311112 94.66311112 94.66311111-42.35567408 94.66311111-94.66311112-42.35567408-94.66311111-94.66311111-94.6631111z m327.68 432.5376c100.6098963 0 182.04444445 81.55591111 182.04444445 182.04444444s-81.55591111 182.04444445-182.04444445 182.04444445-182.04444445-81.55591111-182.04444445-182.04444445 81.55591111-182.04444445 182.04444445-182.04444444z m0 276.70755555c52.30743703 0 94.66311111-42.35567408 94.66311111-94.66311111s-42.35567408-94.66311111-94.66311111-94.66311111-94.66311111 42.35567408-94.66311112 94.66311111 42.35567408 94.66311111 94.66311112 94.66311111z m14.56355555-304.86376296c-14.0781037-96.96900741-68.44871111-180.83081482-145.51419259-234.35188149 8.98085925-23.42305185 13.95674075-48.90927408 13.95674075-75.48776296 0-6.43223703-0.24272592-12.86447408-0.84954075-19.17534814C847.56859259 257.86595555 935.55674075 390.27294815 943.44533333 543.7970963c-26.94257778-15.53445925-57.64740741-25.2434963-90.41540741-27.42802963zM681.66542222 867.35075555c21.23851852 23.54441482 47.57428148 42.23431111 77.30820741 54.37060742C688.70447408 970.99472592 603.14358518 999.87911111 510.78637037 999.87911111c-91.7504 0-176.82583703-28.5202963-246.97362962-77.18684444 30.09801482-11.89357037 56.79786667-30.4621037 78.2791111-54.00651852 50.00154075 27.91348148 107.40622222 43.81202963 168.69451852 43.81202963 62.13783703 0 120.51342222-16.384 170.87905185-45.14702223zM314.05700741 282.13854815c-77.18684445 53.3997037-131.55745185 137.50423703-145.51419259 234.5946074-32.88936297 2.79134815-63.71555555 13.1072-90.53677037 29.24847408 7.28177778-154.49505185 95.39128889-287.75158518 222.94376296-358.5061926-0.48545185 6.31087408-0.84954075 12.74311111-0.84954074 19.17534815 0 26.57848889 4.97588148 52.06471111 13.95674074 75.48776297z" p-id="26247"></path></svg>