<?xml version="1.0" standalone="no"?><!DOCTYPE svg PUBLIC "-//W3C//DTD SVG 1.1//EN" "http://www.w3.org/Graphics/SVG/1.1/DTD/svg11.dtd"><svg class="icon" width="200px" height="200.00px" viewBox="0 0 1024 1024" version="1.1" xmlns="http://www.w3.org/2000/svg"><path d="M783.1008076 339.27900513l74.57773338-47.80544904c-35.92282059-55.91912176-85.09924729-102.46578643-143.1463434-135.21513891l-43.45949912 77.20009804c45.42843019 25.63062488 83.91443655 62.05646606 112.02810914 105.819257zM246.14236015 683.48070392l-74.57773338 47.80544904c35.92035479 55.92035465 85.09924729 102.46578643 143.1451105 135.21513891l43.45949913-77.20133095c-45.42843019-25.63062488-83.91443655-62.05646606-112.02687625-105.819257zM826.10536898 579.51818467l86.58981565 18.94217715c14.1412895-64.94143706 12.28085308-132.62852816-5.60966585-196.83146196l-85.39760754 23.88238177c7.65133763 27.33078515 11.88879291 56.08926107 11.88879291 85.8685729 0.00123289 23.40771774-2.68400935 46.16446766-7.47133517 68.13833014zM203.13533298 443.24029147l-86.58858276-18.94217713c-14.1412895 64.94143706-12.27962018 132.62852816 5.60966586 196.83146196l85.39637464-23.88114887c-7.65133763-27.33078515-11.88879291-56.09049397-11.88879291-85.8698058 0-23.40895063 2.68524224-46.16446766 7.47133517-68.13833016zM446.47893859 822.87165343l-18.93847845 86.58365118c64.94143706 14.13882371 132.62729527 12.27962018 196.83022906-5.60966583l-23.91813568-85.53076005c-27.34557987 7.63531002-56.05104137 12.02071252-85.83281899 12.02071251-23.40895063 0-46.1730979-2.66305016-68.13956303-7.46393781zM582.76053047 199.88558982l18.94094425-86.58118539c-64.94143706-14.1412895-132.62852816-12.27962018-196.83022906 5.60966584l23.91813567 85.52952716c27.34557987-7.63407713 56.04980848-12.02194542 85.8315861-12.02194542 23.41018353 0 46.1730979 2.66305016 68.13956304 7.46393781zM686.62441823 779.70804878l47.90284763 74.72568061c55.91912176-35.9215877 102.46578643-85.09678151 135.21513891-143.1451105l-77.30735979-43.51867801c-25.629392 45.42349862-62.05153448 83.828134-105.81062675 111.9381079zM342.61505084 243.05042738l-47.90038184-74.72691351c-55.92035465 35.9215877-102.46578643 85.09924729-135.21513893 143.1451105l77.30612691 43.5199109c25.63062488-45.42596439 62.05153448-83.828134 105.80939386-111.93810789zM514.61973453 511.37862163v0.0012329zM514.61973453 511.37862163l-85.8303532-306.9350242c-30.87782002 8.62039199-59.8372576 21.68906408-86.17433049 38.60682995L514.62096743 511.37862163zM821.68914412 425.51004873c-8.6401183-30.86425818-21.67057067-59.8939707-38.58710363-86.2310436l-268.47614149 172.0996165 307.06324512-85.8685729zM514.61973453 511.37985453h0.0024658l156.44926524-277.92010642c-27.20133132-15.34705943-56.91529978-26.71187256-88.3109351-33.57415829L514.62096743 511.37985453zM514.62096743 511.3835532l85.83158609 306.93132553c30.87782002-8.61915911 59.83602471-21.68783118 86.17186471-38.60559705L514.62096743 511.3823203zM514.62096743 511.38108741h-0.0012329zM358.1692364 789.29872804c27.20133132 15.34705943 56.91529978 26.71310545 88.3109351 33.57292539l68.13833013-311.48686733-156.44926523 277.91394194zM514.61973453 511.37985453l-277.81284466-156.39255215c-15.34952522 27.20503-26.82776457 56.84009328-33.670324 88.25298909L514.62096743 511.37985453zM514.61973453 511.37985453l-307.06694381 85.8685729c8.6401183 30.86425818 21.67180356 59.8939707 38.58956943 86.22857781v0.00246579l268.47614148-172.09838362h0.0012329zM514.62096743 511.37985453l277.81407755 156.39131924c15.34952522-27.20626289 26.82776457-56.84009328 33.670324-88.2529891l-311.48316865-68.13833014zM514.62096743 511.37985453v0.00123288zM514.62096743 511.37985453v0.00123288zM514.61973453 511.37862163v0.00246578-0.00246578zM514.62096743 511.37862163v0.0012329zM514.61973453 511.38108741l-0.0012329 0.00123289h0.0024658zM514.61973453 511.37862163v0.0012329zM514.61973453 511.37985453zM514.61973453 511.37985453zM514.61850163 511.37985453h0.0036987v0.00369867h-0.0036987v-0.00369867zM514.61973453 511.37985453zM514.61973453 511.37985453zM514.61973453 511.37985453v0.00123288zM514.62096743 511.38108741zM514.62096743 511.38108741zM514.61973453 511.38108741zM514.61973453 511.37985453zM515.29659311 6.0106067c-279.10861582 0-505.37048073 226.26063201-505.37048072 505.36924783 0 279.10738294 226.26186489 505.37048073 505.37048072 505.37048071 279.10861582 0 505.36924783-226.26309779 505.36924783-505.37048071 0-279.10861582-226.26063201-505.36924783-505.36924783-505.36924783z m0 978.13339173c-261.10220492 0-472.76537679-211.66317188-472.76537678-472.7653768 0-261.10220492 211.66317188-472.76537679 472.76537678-472.76537679s472.76537679 211.66317188 472.7653768 472.76537679c-0.00123289 261.10220492-211.66440477 472.76537679-472.7653768 472.7653768zM857.67730809 291.47355609c-35.9215877-55.91912176-85.09801439-102.46578643-143.14511051-135.21513891-59.07779514-33.32757958-127.24571474-52.43496447-199.91123015-52.43496448-225.0869173 0-407.55640181 182.46825161-407.55640182 407.55763471 0 81.0196024 23.73813322 156.44926525 64.49882827 219.90383265 35.92035479 55.92035465 85.10048018 102.46578643 143.14634339 135.21513891 59.07779514 33.32881247 127.24571474 52.43496447 199.91123016 52.43496447 225.0869173 0 407.55640181-182.46825161 407.55640181-407.55516891 0-81.02206819-23.73936612-156.45173105-64.50006115-219.90629844zM514.62096743 902.63370438c-69.75958522 0-135.19911129-18.34299086-191.91468232-50.33904536-55.72432457-31.43878659-102.93675178-76.12254905-137.41955267-129.80643474-39.13204262-60.91727238-61.92084777-133.32881171-61.92084774-211.10836975 0-216.0843283 175.17075445-391.25384985 391.25384983-391.25384986 69.75958522 0 135.19911129 18.34175797 191.91468232 50.33781247 55.72679035 31.43878659 102.934286 76.12254905 137.41955267 129.80520183 39.13204262 60.91727238 61.92084777 133.33004462 61.92084775 211.11083556 0 216.0830954-175.16952155 391.25384985-391.25384984 391.25384985z" /></svg>