<?xml version="1.0" standalone="no"?><!DOCTYPE svg PUBLIC "-//W3C//DTD SVG 1.1//EN" "http://www.w3.org/Graphics/SVG/1.1/DTD/svg11.dtd"><svg class="icon" width="200px" height="200.00px" viewBox="0 0 1024 1024" version="1.1" xmlns="http://www.w3.org/2000/svg"><path d="M957.18801292 649.37763429c-38.65121411-57.42201905-90.82357224-100.52028035-151.41412782-125.35445598 26.78707908-19.31574391 49.23807139-45.20157776 65.56528122-75.42349839 18.87929958-34.95253333 28.82998375-74.7663661 28.82998376-115.23733114 0-126.4061142-95.03390386-229.15916484-211.75194021-229.15916485-16.58241881 0-30.10479573 13.9279989-30.10479573 31.00973963s13.52114403 31.01097253 30.10479573 31.01097252c83.55319873 0 151.54234875 75.02897244 151.54234875 167.13968558 0 92.24139987-67.99038291 167.27037232-151.54234875 167.27037232-16.58241881 0-30.10479573 13.9279989-30.10479573 31.01097252v0.13068671c0 17.08297361 13.52114403 31.01097253 30.10479573 31.01097252 150.26753678 0 272.59770477 134.28923583 272.59770476 299.32683784 0 17.08297361 13.52237692 31.01097253 30.10479573 31.01097253s30.10479573-13.9279989 30.10479573-31.01097253c-0.12822093-77.131056-22.19578333-150.58439043-64.03649317-212.73578928zM646.32375685 596.68622794c-31.50782864-22.99346549-65.94994403-41.25878405-102.17728932-54.13635763 76.66502222-47.96079362 123.73443378-133.50141682 123.73443377-226.39994897 0-145.98446444-115.31500345-264.76883046-257.03612184-264.76883047-141.84810644 0-257.16310989 118.78436602-257.16310989 264.89951718 0 49.66958414 13.52114403 98.15559043 39.03341112 140.2034264 21.68659828 35.60966562 51.0245342 65.30637357 85.72185857 86.72420105-36.99297222 13.00702739-71.81605173 31.40303269-103.83429833 54.79348991-34.95253333 25.49130791-65.56774702 56.23844119-91.33399018 91.45234797-53.32141496 73.32018192-81.51275984 160.43890892-81.51275984 252.15509611 0 17.08174072 13.52237692 31.00973963 30.10479573 31.00973964s30.10479573-13.9279989 30.10479572-31.00973964c0-95.5270613 36.2273453-185.66761049 101.92084746-253.60004741 65.56651411-67.8017502 152.30797567-105.12020633 244.28060475-105.25212594 3.06127479 0.26383924 6.12254959 0 9.18505727-0.65589939l2.4226359-0.52521267c89.54752737 1.83947724 173.61114405 39.02601377 237.64640434 105.25089306 65.69350215 67.93243692 101.79385942 157.94106649 101.79385942 253.6000474 0 17.08297361 13.52114403 31.01097253 30.10479572 31.01097252s30.10356284-13.9279989 30.10356284-31.01097252c0-91.71618721-28.19011198-178.8336813-81.63851498-252.15386322-25.76747606-35.34705928-56.5096778-66.09542547-91.46097823-91.58673338zM410.84354657 113.40180302c108.55504787 0 196.95475132 91.05905491 196.95475131 202.88003792s-88.39970345 202.88003792-196.95475131 202.88003794-196.95475132-91.06028782-196.95475132-202.88003794c0-111.95290262 88.40093633-202.88003792 196.95475132-202.88003792z" /></svg>