<?xml version="1.0" standalone="no"?><!DOCTYPE svg PUBLIC "-//W3C//DTD SVG 1.1//EN" "http://www.w3.org/Graphics/SVG/1.1/DTD/svg11.dtd"><svg class="icon" width="200px" height="200.00px" viewBox="0 0 1024 1024" version="1.1" xmlns="http://www.w3.org/2000/svg"><path d="M622.49407986 510.52674559l-240.87709412-419.87750351c-10.31278078-18.41567998-4.41976321-41.98775033 13.99591678-52.30053111 18.41567998-10.31278078 41.98775033-4.41976321 52.30053116 13.99591677l240.87709413 419.8775035c10.31278078 18.41567998 4.41976321 41.98775033-13.99591676 52.30053114-18.41567998 10.31278078-41.98775033 4.41976321-52.30053119-13.99591679zM967.97223624 402.97917453l-419.87750348 240.87709414c-18.41567998 10.31278078-41.98775033 4.41976321-52.30053114-13.9959168-10.31278078-18.41567998-4.41976321-41.98775033 13.99591676-52.30053115l419.87750353-240.87709412c18.41567998-10.31278078 41.98775033-4.41976321 52.30053115 13.99591678 10.31278078 18.41567998 3.68313598 41.25112313-13.99591682 52.30053115zM805.91425245 844.955494l-414.72111312-249.71662049c-18.41567998-11.04940799-24.30869758-34.62147835-13.25928957-52.30053112 11.04940799-18.41567998 34.62147835-24.30869758 52.30053112-13.25928964l414.72111312 249.71662057c18.41567998 11.04940799 24.30869758 34.62147835 13.25928961 52.30053112-10.31278078 18.41567998-33.88485115 24.30869758-52.30053116 13.25928956zM201.87994919 822.85667804l196.67946215-442.71294671c8.83952638-19.15230716 30.93834239-27.99183357 50.82727675-19.15230715 19.15230716 8.83952638 27.99183357 30.93834239 19.15230716 50.82727675l-196.67946217 442.71294665c-8.83952638 19.15230716-30.93834239 27.99183357-50.82727673 19.15230719-19.15230716-8.83952638-27.99183357-31.67496955-19.15230716-50.82727673zM74.44344372 383.82686733l481.75418823-46.40751351c21.36218877-2.20988162 39.77786876 13.25928959 41.98775037 34.62147834 2.20988162 21.36218877-13.25928959 39.77786876-34.62147837 41.98775038L81.80971569 460.43609605c-21.36218877 2.20988162-39.77786876-13.25928959-41.98775035-34.62147837-2.20988162-20.6255616 13.25928959-39.77786876 34.62147838-41.98775035zM512 1020.27276741c-279.91833565 0-506.79951301-227.61780454-506.79951301-506.799513 0-279.91833565 227.61780454-506.79951301 506.79951301-506.79951303 279.91833565 0 506.79951301 227.61780454 506.79951301 506.79951303S791.91833565 1020.27276741 512 1020.27276741z m0-937.72642451c-237.19395811 0-430.19028431 192.99632614-430.19028431 430.19028428s192.99632614 430.19028431 430.19028431 430.19028431 430.19028431-192.99632614 430.19028431-430.19028431-192.99632614-430.19028431-430.19028431-430.19028428z" /></svg>