<?xml version="1.0" standalone="no"?><!DOCTYPE svg PUBLIC "-//W3C//DTD SVG 1.1//EN" "http://www.w3.org/Graphics/SVG/1.1/DTD/svg11.dtd"><svg t="1660283922997" class="icon" viewBox="0 0 1024 1024" version="1.1" xmlns="http://www.w3.org/2000/svg" p-id="14348" xmlns:xlink="http://www.w3.org/1999/xlink" width="200" height="200"><defs><style type="text/css">@font-face { font-family: feedback-iconfont; src: url("//at.alicdn.com/t/font_1031158_u69w8yhxdu.woff2?t=1630033759944") format("woff2"), url("//at.alicdn.com/t/font_1031158_u69w8yhxdu.woff?t=1630033759944") format("woff"), url("//at.alicdn.com/t/font_1031158_u69w8yhxdu.ttf?t=1630033759944") format("truetype"); }
</style></defs><path d="M960 512 512 512 512 0 64 0l0 576 128 0 0 448 192 0 0-320 576 0L960 512zM128 512 128 64l320 0 0 448L384 512 320 512 192 512 128 512zM320 960 256 960 256 576l64 0 0 128L320 960zM384 640 384 576l128 0 0 64L384 640zM576 640 576 576l64 0 0 64L576 640zM704 640 704 576l64 0 0 64L704 640zM896.32 640 832 640 832 576l64.32 0L896.32 640zM384 256 384 192 384 188.992 384 128 256 128 192 128l0 320 64 0L256 320l128 0L384 256zM256 256 256 192l64 0 0 64L256 256z" p-id="14349"></path></svg>