<?xml version="1.0" standalone="no"?><!DOCTYPE svg PUBLIC "-//W3C//DTD SVG 1.1//EN" "http://www.w3.org/Graphics/SVG/1.1/DTD/svg11.dtd"><svg class="icon" width="200px" height="200.00px" viewBox="0 0 1024 1024" version="1.1" xmlns="http://www.w3.org/2000/svg"><path d="M1024 170.666667v682.666666H0V170.666667h1024zM85.333333 256v512h853.333334V256H85.333333z m354.133334 280.106667c0 82.730667-51.477333 133.333333-136.469334 133.333333-92.501333 0-148.117333-59.776-148.117333-158.72 0-97.706667 55.829333-158.144 146.026667-158.144 73.344 0 127.936 42.709333 135.424 106.24h-75.413334c-7.509333-26.453333-29.994667-42.474667-60.010666-42.474667-42.688 0-68.117333 34.986667-68.117334 93.525334 0 59.584 28.117333 95.850667 71.893334 95.850666 34.773333 0 58.944-20.416 60.8-50.837333l0.213333-5.013333h-54.997333v-52.48H439.466667v38.741333zM573.013333 661.333333h-76.48V360.704h76.458667V661.333333z m147.285334 0H643.84V360.704h204.586667v61.461333h-128.128v68.544h116.245333v58.538667h-116.266667V661.333333z" /></svg>