<?xml version="1.0" standalone="no"?><!DOCTYPE svg PUBLIC "-//W3C//DTD SVG 1.1//EN" "http://www.w3.org/Graphics/SVG/1.1/DTD/svg11.dtd"><svg class="icon" width="200px" height="200.00px" viewBox="0 0 1024 1024" version="1.1" xmlns="http://www.w3.org/2000/svg"><path d="M472.7234375 72.6734375l44.1984375 35.9296875c-13.584375 13.0921875-22.5421875 30.909375-23.9203125 50.79375-1.2796875 17.8171875-2.6578125 35.83125-4.2328125 51.975-0.4921875 0.196875-1.0828125 0.2953125-1.4765625 0.4921875-17.71875 5.2171875-47.446875 13.8796875-66.2484375 42.2296875l-0.2953125 0.4921875-0.2953125 0.4921875c-16.14375 25.2-17.325 55.8140625-3.0515625 81.9 15.8484375 28.940625 49.1203125 48.43125 89.2828125 53.15625-0.984375 1.771875-1.96875 3.6421875-2.953125 5.4140625-0.39375 0.7875-0.8859375 1.575-1.2796875 2.3625-5.6109375-1.6734375-11.7140625-2.6578125-18.50625-2.6578125-3.9375 0-7.7765625 0.39375-11.615625 1.0828125-3.9375-0.8859375-9.05625-2.165625-12.99375-3.0515625-15.159375-3.740625-30.909375-7.678125-46.659375-7.678125-2.559375 0-5.11875 0.0984375-7.5796875 0.2953125-24.1171875 1.96875-44.8875 14.9625-57.5859375 35.9296875-17.325 1.96875-33.3703125 11.221875-43.8046875 25.396875-5.315625 7.284375-16.5375 26.4796875-10.434375 52.2703125 0.2953125 4.4296875 0.7875 9.3515625 1.378125 15.2578125 1.0828125 11.3203125 2.4609375 25.8890625 3.54375 43.3125-10.2375-4.921875-21.65625-8.6625-33.075-8.859375-0.8859375 0-1.575-0.0984375-2.0671875-0.0984375-1.575-2.6578125-5.4140625-10.5328125-8.1703125-29.1375-3.2484375-22.05-3.4453125-49.1203125-3.4453125-75.009375 0-18.4078125-5.709375-52.8609375-43.70625-76.0921875-16.6359375-10.1390625-35.7328125-15.553125-55.4203125-15.553125-19.096875 0-37.7015625 5.0203125-54.3375 14.4703125l-2.4609375-0.984375c3.0515625-8.859375 6.496875-17.6203125 10.1390625-26.2828125 22.246875-52.4671875 54.0421875-99.7171875 94.5-140.175s87.7078125-72.3515625 140.175-94.5c42.328125-18.1125 86.7234375-29.1375 132.3984375-33.1734375m455.2734375 337.7390625l15.4546875 9.646875c6.3984375 30.0234375 9.5484375 60.7359375 9.5484375 91.940625 0 21.7546875-1.575 43.2140625-4.6265625 64.4765625l-53.6484375 48.1359375c-1.575-2.4609375-3.2484375-4.921875-4.921875-7.284375-14.8640625-20.5734375-29.6296875-37.8-43.903125-51.0890625-6.7921875-6.3-11.7140625-12.403125-14.765625-18.2109375-3.15-6.0046875-3.4453125-10.1390625-3.2484375-13.0921875 0.39375-7.3828125 4.2328125-16.734375 11.221875-27.16875 11.615625-17.2265625 30.7125-36.1265625 56.7984375-56.2078125l37.0125-28.35-4.921875-12.796875M450.8703125 682.49375c4.134375 2.6578125 8.6625 5.2171875 13.4859375 7.48125 7.7765625 3.6421875 21.3609375 16.4390625 31.2046875 25.6921875 14.371875 13.4859375 29.925 28.0546875 48.43125 37.603125 9.45 22.05 23.9203125 33.8625 37.8984375 39.965625-12.99375 17.128125-21.9515625 36.028125-29.1375 56.7l0.0984375-7.5796875-26.971875-19.29375c-0.196875-0.0984375-19.6875-14.175-40.55625-33.1734375-29.2359375-26.578125-38.19375-41.6390625-40.55625-46.3640625 0.2953125-14.765625 2.0671875-26.578125 3.54375-36.225 1.2796875-7.0875 2.559375-15.553125 2.559375-24.80625M512 8C233.61875 8 8 233.61875 8 512s225.61875 504 504 504 504-225.61875 504-504S790.38125 8 512 8z m13.978125 320.11875c-37.603125 0-64.771875-19.9828125-52.4671875-39.178125 15.6515625-23.5265625 71.6625-10.434375 76.6828125-57.684375 2.2640625-21.853125 4.2328125-46.4625 5.709375-67.4296875 0.4921875-7.5796875 6.5953125-13.4859375 14.175-13.978125 36.61875-2.6578125 40.359375-46.265625 6.103125-74.1234375 36.9140625 5.315625 72.9421875 15.35625 107.49375 30.0234375 52.4671875 22.246875 99.7171875 54.0421875 140.175 94.5 36.815625 36.815625 66.346875 79.0453125 88.2 125.803125-5.6109375-3.54375-11.41875-5.11875-17.128125-5.11875-27.759375 0-53.353125 37.8-37.40625 80.71875-130.921875 100.40625-97.3546875 170.690625-54.6328125 210.65625 12.6 11.8125 25.003125 26.971875 35.83125 42.0328125 10.434375 14.371875 16.93125 31.0078125 20.671875 48.43125 1.378125 6.3 6.3 9.45 13.4859375 9.45 10.828125 0 26.578125-7.1859375 42.4265625-21.3609375-22.05 49.7109375-52.7625 94.4015625-91.4484375 133.0875-40.55625 40.55625-87.7078125 72.3515625-140.175 94.5-24.01875 10.1390625-48.628125 18.1125-73.828125 23.7234375-1.4765625-0.2953125-3.15-0.39375-4.921875-0.39375-3.4453125 0-7.3828125 0.4921875-11.8125 1.6734375 15.2578125-64.4765625 22.5421875-100.8 54.0421875-128.165625 43.3125-37.603125 9.5484375-79.14375-23.625-79.14375-1.8703125 0-3.8390625 0.0984375-5.709375 0.39375-1.4765625 0.196875-2.75625 0.2953125-3.9375 0.2953125-21.853125 0-7.3828125-34.3546875-30.515625-36.3234375-24.4125-2.0671875-56.4046875-50.596875-91.940625-67.4296875-18.6046875-8.859375-36.9140625-32.68125-65.8546875-33.9609375h-1.6734375c-18.309375 0-41.7375 10.9265625-53.55 10.9265625-4.725 0-7.678125-1.771875-7.678125-6.5953125 0-56.2078125-5.8078125-96.1734375-6.69375-112.021875-0.39375-5.4140625-1.96875-6.9890625-1.0828125-6.9890625 1.18125 0 7.0875 3.15 27.365625 3.6421875h0.39375c18.309375 0 9.5484375-37.8984375 27.6609375-39.375 0.7875-0.0984375 1.575-0.0984375 2.3625-0.0984375 16.14375 0 46.7578125 11.615625 62.803125 11.615625 3.346875 0 6.0046875-0.4921875 7.7765625-1.6734375 0.196875-0.0984375 0.39375-0.196875 0.6890625-0.196875 8.6625 0 42.721875 84.9515625 61.81875 84.9515625 7.875 0 13.190625-14.4703125 13.190625-55.125 0-16.8328125-8.859375-46.1671875 0-62.3109375 34.5515625-63.196875 66.8390625-114.8765625 64.0828125-122.1609375-0.8859375-2.2640625-11.1234375-4.33125-24.609375-4.33125-11.5171875 0-25.2984375 1.4765625-37.7015625 5.5125-9.253125 3.0515625 2.75625 17.4234375-10.040625 20.475-8.465625 1.8703125-16.8328125 2.75625-24.7078125 2.75625zM99.546875 431.5765625c9.5484375 0 19.096875-2.3625 26.6765625-7.48125 7.875-5.2171875 17.0296875-7.9734375 26.0859375-7.9734375 7.7765625 0 15.553125 2.0671875 22.44375 6.3 7.9734375 4.921875 13.584375 11.41875 13.584375 22.44375 0 80.325 2.75625 166.0640625 75.6984375 167.34375 2.165625 0 40.55625 14.6671875 58.865625 62.3109375 2.165625 5.5125 6.3984375 7.284375 12.009375 7.284375 11.3203125 0 28.546875-7.284375 46.85625-7.284375 13.6828125 0 0 23.23125 0 73.3359375C381.865625 797.46875 489.359375 874.3484375 489.359375 874.3484375c-0.590625 31.5 0.8859375 57.5859375 3.2484375 78.159375-52.7625-2.2640625-103.8515625-13.78125-152.2828125-34.25625-52.4671875-22.246875-99.7171875-54.0421875-140.175-94.5-40.55625-40.55625-72.3515625-87.7078125-94.5-140.175C82.615625 629.3375 71 571.5546875 71 512c0-28.546875 2.6578125-56.7 7.9734375-84.1640625 6.496875 2.4609375 13.584375 3.740625 20.5734375 3.740625z" /></svg>