<?xml version="1.0" standalone="no"?><!DOCTYPE svg PUBLIC "-//W3C//DTD SVG 1.1//EN" "http://www.w3.org/Graphics/SVG/1.1/DTD/svg11.dtd"><svg class="icon" width="200px" height="200.00px" viewBox="0 0 1024 1024" version="1.1" xmlns="http://www.w3.org/2000/svg"><path d="M512 1018.36701134C232.33129857 1018.36701134 5.63298866 791.66870143 5.63298866 512S232.33129857 5.63298866 512 5.63298866s506.36701134 226.69830889 506.36701134 506.36701134-226.69830889 506.36701134-506.36701134 506.36701134z m0-88.06382868c231.01343715 0 418.30318266-187.28974654 418.30318266-418.30318266S743.01343715 93.69681734 512 93.69681734 93.69681734 280.98656285 93.69681734 512s187.28974654 418.30318266 418.30318266 418.30318266z m-198.143613-506.36701032a66.047871 66.047871 0 1 1 0-132.095742 66.047871 66.047871 0 0 1 0 132.095742z m154.11169866-132.095742a66.047871 66.047871 0 1 1 0-132.09574199 66.047871 66.047871 0 0 1 0 132.09574199z m330.239355 264.191484a66.047871 66.047871 0 1 1 0-132.095742 66.047871 66.047871 0 0 1 0 132.095742z m-132.095742-176.12765634a66.047871 66.047871 0 1 1 0-132.095742 66.047871 66.047871 0 0 1 0 132.095742z m-176.12765531 198.143613a66.047871 66.047871 0 1 1 0-132.095742 66.047871 66.047871 0 0 1 0 132.095742z m198.14361299 176.12765634a66.047871 66.047871 0 1 1 0-132.09574199 66.047871 66.047871 0 0 1 0 132.09574199z m-396.287226-66.047871a66.047871 66.047871 0 1 1 0-132.095742 66.047871 66.047871 0 0 1 0 132.095742z m154.11169866 154.11169866a66.047871 66.047871 0 1 1 0-132.095742 66.047871 66.047871 0 0 1 0 132.095742z" /></svg>