<?xml version="1.0" standalone="no"?><!DOCTYPE svg PUBLIC "-//W3C//DTD SVG 1.1//EN" "http://www.w3.org/Graphics/SVG/1.1/DTD/svg11.dtd"><svg class="icon" width="200px" height="200.00px" viewBox="0 0 1024 1024" version="1.1" xmlns="http://www.w3.org/2000/svg"><path d="M609.09036999 414.90963001h-194.18073998v194.18073998h194.18073998v-194.18073998z m0-97.09037113V99.36592555h-194.18073998v218.45333333h194.18073998zM99.36592555 414.90963001v194.18073998h218.45333333v-194.18073998H99.36592555z m0-97.09037113h218.45333333V99.36592555H99.36592555v218.45333333z m825.2681489 97.09037113h-218.45333333v194.18073998h218.45333333v-194.18073998z m0-97.09037113V99.36592555h-218.45333333v218.45333333h218.45333333zM609.09036999 706.18074112h-194.18073998v218.45333333h194.18073998v-218.45333333zM99.36592555 706.18074112v218.45333333h218.45333333v-218.45333333H99.36592555z m825.2681489 0h-218.45333333v218.45333333h218.45333333v-218.45333333z m97.09037-703.90518557v1019.4488889H2.27555555V2.27555555h1019.4488889z" /></svg>