<?xml version="1.0" standalone="no"?><!DOCTYPE svg PUBLIC "-//W3C//DTD SVG 1.1//EN" "http://www.w3.org/Graphics/SVG/1.1/DTD/svg11.dtd"><svg class="icon" width="200px" height="200.00px" viewBox="0 0 1024 1024" version="1.1" xmlns="http://www.w3.org/2000/svg"><path d="M6.0300121 1017.9699879a387.16322405 387.16322405 0 1 1 774.32644924 0h-96.79080574a290.37241833 290.37241833 0 1 0-580.74483663 0H6.0300121z m387.16322518-435.55862749c-160.43076115 0-290.37241833-129.9416572-290.37241831-290.37241832s129.9416572-290.37241833 290.37241831-290.37241832 290.37241833 129.9416572 290.37241832 290.37241832-129.9416572 290.37241833-290.37241832 290.37241832z m0-96.79080685c106.95384037 0 193.58161259-86.6277711 193.58161146-193.58161147s-86.6277711-193.58161259-193.58161146-193.58161261-193.58161259 86.6277711-193.58161259 193.58161261 86.6277711 193.58161259 193.58161259 193.58161147z m400.90751815 179.20817789A387.2600156 387.2600156 0 0 1 1022.33347623 1017.9699879h-96.79080571a290.42081411 290.42081411 0 0 0-171.17454062-264.86804128l39.68423089-88.27321517z m-33.29603655-546.38410088A266.17471717 266.17471717 0 0 1 925.54267052 364.63204666a266.12632139 266.12632139 0 0 1-241.97701492 265.11001795v-97.41994636a169.38391033 169.38391033 0 0 0 50.37961459-319.84521878l26.85944869-94.0322689z" /></svg>