<?xml version="1.0" standalone="no"?><!DOCTYPE svg PUBLIC "-//W3C//DTD SVG 1.1//EN" "http://www.w3.org/Graphics/SVG/1.1/DTD/svg11.dtd"><svg t="1640134515243" class="icon" viewBox="0 0 1024 1024" version="1.1" xmlns="http://www.w3.org/2000/svg" p-id="12894" xmlns:xlink="http://www.w3.org/1999/xlink" width="200" height="200"><defs><style type="text/css"></style></defs><path d="M512 3.26609377c280.97074408 0 508.73390623 227.76316216 508.73390623 508.73390623s-227.76316216 508.73390623-508.73390623 508.73390623S3.26609377 792.97074408 3.26609377 512 231.02925592 3.26609377 512 3.26609377z m0 89.77657161c-231.3841501 0-418.95733462 187.57318314-418.95733462 418.95733462s187.57318314 418.95733462 418.95733462 418.95733462 418.95733462-187.57318314 418.95733462-418.95733462-187.57318314-418.95733462-418.95733462-418.95733462z m55.63154934 598.51047782v89.77657162h-84.09072253l-0.02992507-89.77657162h84.1206476z m-4.9676379-444.33417793c54.31482581 10.95274174 118.92403233 62.75382355 118.92403232 138.10629218 0 75.38239509-61.55680307 103.90141839-83.61191322 117.99634015-20.34935671 13.0176029-28.99783262 27.89058871-30.19485451 43.75111683l-0.14962669 3.95016917V631.702095h-84.1206476v-111.29302232c0-26.39431206 8.46892279-44.88828581 32.02030961-61.22762185l5.29681771-3.50128629 47.25240315-31.42180005c30.13500299-20.28950519 29.71604521-61.01814362 11.07244335-79.00338303a84.68923208 84.68923208 0 0 0-74.12552309-19.00270811c-52.42951781 10.29438068-58.47447317 47.28232817-58.83357945 83.19295682v20.31943023H362.37238019c0-69.90602422 8.02003993-101.597154 45.30724359-141.63750494 41.77603085-44.73865772 100.63953677-51.92078345 154.98428766-40.90819019z" p-id="12895"></path></svg>