<?xml version="1.0" standalone="no"?><!DOCTYPE svg PUBLIC "-//W3C//DTD SVG 1.1//EN" "http://www.w3.org/Graphics/SVG/1.1/DTD/svg11.dtd"><svg class="icon" width="200px" height="200.00px" viewBox="0 0 1024 1024" version="1.1" xmlns="http://www.w3.org/2000/svg"><path d="M517.49758507 208.9546176c-168.26321343 0-304.66694056 136.40493889-304.66694056 304.66815231s136.40372714 304.66815232 304.66694056 304.66815232 304.66815232-136.40372714 304.66815233-304.66815232-136.40493889-304.66815232-304.66815233-304.66815231z m0 533.16896362c-126.19589538 0-228.50081131-102.30370417-228.5008113-228.50081131s102.30491593-228.50081131 228.5008113-228.50081129 228.50081131 102.30491593 228.50081132 228.50081129-102.30370417 228.50081131-228.50081132 228.50081131z m136.84480631 143.89964917c0 18.83674556-15.27054793 34.10729351-34.10729352 34.10729351H412.34019575c-18.83674556 0-34.10729351-15.27054793-34.1072935-34.10729351 0-18.83674556 15.27054793-34.10729351 34.10729351-34.10729351H620.23630963c18.83674556 0.00121176 34.10729351 15.27054793 34.10729349 34.10729351z m-66.58962235 102.3218805c0 18.83795731-15.27054793 34.10850525-34.10729348 34.10850526h-74.71686922c-18.83674556 0-34.10729351-15.27054793-34.1072935-34.10850526 0-18.83674556 15.27054793-34.10729351 34.10850526-34.10729349h74.71565746c18.83674556 0 34.10729351 15.27054793 34.10729348 34.10729349z m-36.14667868-887.54819026c0 18.83795731-15.27054793 34.10850525-34.10850528 34.10850527-18.83674556 0-34.10729351-15.27054793-34.10729348-34.10850527V32.58233363c0-18.83674556 15.27054793-34.10729351 34.10729348-34.1072935 18.83795731 0 34.10729351 15.27054793 34.10729353 34.1072935v68.214587z m328.78451836 163.08780396c-13.32083267 13.31962093-34.91553469 13.31962093-48.23515561 0-13.31962093-13.31962093-13.31962093-34.91553469 0-48.23515561l48.23515561-48.23515561c13.31962093-13.31962093 34.91432293-13.31962093 48.23515562 0 13.31962093 13.31962093 13.31962093 34.91553469 0 48.23515561l-48.23515562 48.23515561z m-713.38736082 0c13.32083267 13.31962093 34.91553469 13.31962093 48.23515561 0 13.32083267-13.31962093 13.32083267-34.91553469 0-48.23515561L167.00324789 167.41441337c-13.31962093-13.31962093-34.91432293-13.31962093-48.23515562 0-13.31962093 13.31962093-13.31962093 34.91553469 0 48.23515561l48.23515562 48.23515561z m-30.93006951 308.31190234c18.51926552 3.44502204 36.32480682-8.77432451 39.76982885-27.29359005 3.4462338-18.51926552-8.77311276-36.32480682-27.29359005-39.76982883l-67.06463066-12.47745059c-18.51926552-3.44502204-36.32480682 8.77432451-39.76982884 27.29359004-3.44502204 18.51926552 8.77432451 36.32601856 27.29359005 39.76982887l67.06463065 12.47745056z m762.84881341 0c-18.51926552 3.44502204-36.32480682-8.77432451-39.76982885-27.29359005-3.4462338-18.51926552 8.77311276-36.32480682 27.29359004-39.76982883l67.06463065-12.47745059c18.51926552-3.44502204 36.32480682 8.77432451 39.76982885 27.29359004 3.44502204 18.51926552-8.77432451 36.32601856-27.29359003 39.76982887l-67.06463066 12.47745056z" /></svg>