<?xml version="1.0" standalone="no"?><!DOCTYPE svg PUBLIC "-//W3C//DTD SVG 1.1//EN" "http://www.w3.org/Graphics/SVG/1.1/DTD/svg11.dtd"><svg class="icon" width="200px" height="200.00px" viewBox="0 0 1024 1024" version="1.1" xmlns="http://www.w3.org/2000/svg"><path d="M784.64507898 207.1373605V375.67746051h-90.88169265V57.59153468h318.08592477v90.88169371h-156.74819928A498.73601073 498.73601073 0 0 1 1011.8493111 512c0 276.05314246-223.79616865 499.8493111-499.8493111 499.8493111S12.1506889 788.05314246 12.1506889 512 235.94685754 12.1506889 512 12.1506889v90.88169262C286.13627212 103.03238152 103.03238152 286.13627212 103.03238152 512s183.1038906 408.96761848 408.96761848 408.96761848 408.96761848-183.1038906 408.96761848-408.96761848c0-118.37340547-50.59838222-228.2039311-136.3225395-304.8626395zM523.36021197 625.6021166H307.51619077v-90.88169371h204.48380923V284.79576787h90.88169264v340.80634873h-79.52148067z" /></svg>