<?xml version="1.0" standalone="no"?><!DOCTYPE svg PUBLIC "-//W3C//DTD SVG 1.1//EN" "http://www.w3.org/Graphics/SVG/1.1/DTD/svg11.dtd"><svg class="icon" width="200px" height="199.03px" viewBox="0 0 1029 1024" version="1.1" xmlns="http://www.w3.org/2000/svg"><path d="M761.216 997.76c-144.64 0-262.4-117.76-262.4-262.4s117.76-262.4 262.4-262.4 262.4 117.76 262.4 262.4-117.76 262.4-262.4 262.4z m0-448c-102.4 0-185.6 83.2-185.6 185.6s83.2 185.6 185.6 185.6 185.6-83.2 185.6-185.6-83.328-185.6-185.6-185.6zM858.496 815.872l-116.48-58.24V588.16h51.2v137.728l88.192 44.16zM174.08 269.312h422.4v51.2h-422.4zM174.08 448.512h281.6v51.2h-281.6zM174.08 627.712h192v51.2h-192zM442.88 922.112H0v-883.2h775.68v364.8h-76.8V115.712H76.8v729.6h366.08z" /></svg>