<?xml version="1.0" standalone="no"?><!DOCTYPE svg PUBLIC "-//W3C//DTD SVG 1.1//EN" "http://www.w3.org/Graphics/SVG/1.1/DTD/svg11.dtd"><svg t="1623770630711" class="icon" viewBox="0 0 1024 1024" version="1.1" xmlns="http://www.w3.org/2000/svg" p-id="15432" xmlns:xlink="http://www.w3.org/1999/xlink" width="200" height="200"><defs><style type="text/css"></style></defs><path d="M422.97156603 1.49754866c95.34271906 74.48462937 162.01678669 146.75476951 200.02220154 216.87027196 36.00040522 66.43466298 50.45443324 134.39552769 43.36208407 203.88259411l-1.37657362 11.58117774 7.06242411-5.77562565a201.75788146 201.75788146 0 0 0 56.85849487-80.70913787l3.11225495-8.58862582 8.88788059-26.69356682c95.07338934 64.57928003 142.62504722 173.95707072 142.62504584 328.10344276 0 231.20459694-202.59579706 378.79728067-369.10141095 378.79728208-166.53554034 0-356.11373451-98.90385686-386.78739554-305.89870593-30.64373596-206.96492261 96.44996297-303.59444011 183.02450306-438.40892421 57.75626061-89.86634818 95.16316591-180.92971684 112.31049108-273.16018235z m38.93310702 179.19403695a943.46199102 943.46199102 0 0 1-75.71157492 142.47541912l-9.57616811 14.66350764c-9.72579479 14.51387955-20.05010053 28.93798111-33.30710808 46.80351886l-47.34217828 63.14285489c-73.52701215 100.69938828-93.51726256 157.67758479-79.51211739 252.15246458 20.64861147 139.66242037 148.28097123 229.25943883 297.96844116 229.25943883 139.66242037 0 279.32483932-128.5899756 279.32483933-289.02071046 0-71.85118233-11.37169955-129.0687849-33.63628788-173.5381129-9.5163166 10.89289023-19.90047383 21.1872709-31.15247037 30.82329051l-183.80256854 150.73486373 30.85321558-226.4763651c7.39160393-54.22504925-2.8728503-106.89397173-31.93053442-160.55043509-15.26201717-28.15991844-36.95802244-57.66648404-65.14786453-88.28029635l-9.63601964-10.23452918-7.39160391 18.04509092z" p-id="15433"></path></svg>