<?xml version="1.0" standalone="no"?><!DOCTYPE svg PUBLIC "-//W3C//DTD SVG 1.1//EN" "http://www.w3.org/Graphics/SVG/1.1/DTD/svg11.dtd"><svg class="icon" width="200px" height="200.00px" viewBox="0 0 1024 1024" version="1.1" xmlns="http://www.w3.org/2000/svg"><path d="M1006.17829342 641.27011971L878.94392403 512a50.89374848 50.89374848 0 0 0-72.26912267 0L664.68124422 656.53824414 522.68768709 512a50.89374848 50.89374848 0 0 0-72.26912265 0L333.87188213 631.09137049 217.32519864 512a50.89374848 50.89374848 0 0 0-72.26912267 0l-127.23436939 127.23437058a50.89374848 50.89374848 0 0 0-10.6876871 16.79493687 50.89374848 50.89374848 0 0 0-4.07150064 19.33962388V868.25623692a152.68124422 152.68124422 0 0 0 152.68124424 152.68124424h712.51247384a152.68124422 152.68124422 0 0 0 152.68124424-152.68124424v-190.85155528a50.89374848 50.89374848 0 0 0-4.07150064-19.33962507 50.89374848 50.89374848 0 0 0-10.6876871-16.79493686zM919.1499842 868.25623692a50.89374848 50.89374848 0 0 1-50.89374728 50.89374728H155.74376308a50.89374848 50.89374848 0 0 1-50.89374728-50.89374728v-169.98511896l76.3406221-76.34062211 116.5466823 117.05562017a50.89374848 50.89374848 0 0 0 72.26912267 0l116.5466835-117.05562017L628.54668349 766.46873999a50.89374848 50.89374848 0 0 0 72.26912147 0l141.99355714-142.50249381 76.3406221 76.34062211zM868.25623692 3.06251884H155.74376308a152.68124422 152.68124422 0 0 0-152.68124424 152.68124424v267.70111527a59.54568525 59.54568525 0 0 0 0 13.74131197v5.08937521a50.89374848 50.89374848 0 0 0 84.48362219 15.77706112L181.1906379 367.46175586l116.5466823 117.05562018a50.89374848 50.89374848 0 0 0 72.26912267 0l116.5466835-117.05562018L628.54668349 512a50.89374848 50.89374848 0 0 0 72.26912147 0l141.99355714-142.50249501 90.08193409 90.59087198a50.89374848 50.89374848 0 0 0 84.48362221-15.7770623 14.25024985 14.25024985 0 0 0 0-4.58043733 44.7864987 44.7864987 0 0 0 3.05362489-14.25024867V155.74376308A152.68124422 152.68124422 0 0 0 868.25623692 3.06251884z m50.89374728 297.21948956L878.94392403 257.53126001a50.89374848 50.89374848 0 0 0-72.26912267 0L664.68124422 402.06950415 522.68768709 257.53126001a50.89374848 50.89374848 0 0 0-72.26912265 0L333.87188213 376.62263052 217.32519864 257.53126001a50.89374848 50.89374848 0 0 0-72.26912267 0L104.8500158 300.2820084V155.74376308a50.89374848 50.89374848 0 0 1 50.89374728-50.89374728h712.51247384a50.89374848 50.89374848 0 0 1 50.89374728 50.89374728z" /></svg>