<?xml version="1.0" standalone="no"?><!DOCTYPE svg PUBLIC "-//W3C//DTD SVG 1.1//EN" "http://www.w3.org/Graphics/SVG/1.1/DTD/svg11.dtd"><svg t="1716087382638" class="icon" viewBox="0 0 1370 1024" version="1.1" xmlns="http://www.w3.org/2000/svg" p-id="33999" xmlns:xlink="http://www.w3.org/1999/xlink" width="267.578125" height="200"><path d="M645.19805261 584.08750981c-10.59080991 6.25480734-20.25506602 12.79732289-30.61480373 17.93528199-7.12925719 3.53857613-14.36272425 6.74187216-21.67094968 9.68690953 7.30822542-2.94503836 14.5416915-6.14833341 21.67321472-9.68690953C624.9429866 596.8848327 634.60724172 590.34458319 645.19805261 584.08750981z" p-id="34000"></path><path d="M485.35950738 639.46555325c15.14429241-2.49648623 30.21156042-5.30106905 45.11345245-8.69012747-14.90415806 3.38905941-29.97369112 6.19364123-45.11571848 8.69012747-19.1336857 3.15345614-38.46446297 5.31239527-57.78391304 7.06582603-8.10565087 0.7339943-16.22262895 1.47704977-24.3441381 2.12722355 8.1237742-0.65017378 16.24075228-1.39322925 24.34640315-2.12722355C446.89504539 644.78021356 466.22582167 642.62127444 485.35950738 639.46555325z" p-id="34001"></path><path d="M283.75805838 807.53887672c-25.05321295-1.22332317-50.1268133-3.366405-75.001059-6.57423113-7.66616091-0.98772089-15.31872858-2.11816238-22.96450111-3.31203501 7.6435065 1.19387362 15.29607516 2.32431511 22.96223508 3.31430104C233.62897905 804.17247172 258.70031435 806.31555355 283.75805838 807.53887672c30.54457547 1.49290805 61.12539858 1.77608419 91.65411576 0.24919551C344.885722 809.31496091 314.30263385 809.03178477 283.75805838 807.53887672z" p-id="34002"></path><path d="M48.49255741 756.73017308c-10.84000542-6.35901722-20.916567-13.71255047-27.71960428-24.66356091-3.5159227-5.65900355-5.33278462-11.71219022-5.31239527-18.50616633 0.11780114-41.7606397 0.05663503-83.52128039 0.06796224-125.28192009 0-1.35924862 0.1381905-2.71849627 0.25599164-4.87970142 0 0-0.00226505 0-0.00226505-0.00226505-0.11780114 2.1634702-0.25599164 3.52271883-0.25599164 4.88196745-0.0113272 41.7606397 0.05210494 83.52128039-0.06796224 125.2819201-0.02038838 6.79397611 1.79647355 12.84716278 5.31239527 18.50616633 6.80530331 10.95101044 16.87959886 18.30454467 27.71960428 24.6635609 27.06490041 15.87602067 56.69198325 25.10984798 87.07118372 31.63424021 3.86479603 0.82914103 7.74545034 1.59258586 11.62383863 2.37415401-3.87612323-0.78156816-7.75677755-1.545012-11.62157358-2.37415401C105.18227561 781.84002106 75.55745781 772.60619375 48.49255741 756.73017308z" p-id="34003"></path><path d="M813.44807828 980.45338991c-21.10459641-6.78717998-41.69267747-14.83166475-59.91566765-27.82154813-9.81830391-7.00012884-18.6375607-15.00836695-22.35057399-27.04677708-0.94694316-3.06963563-1.49064202-6.39526387-1.49743814-9.60535504-0.09967781-42.1910685-0.07249331-84.38440303-0.06116611-126.57547154 0-1.0760715 0.19482553-2.14987795 0.38058989-4.03696715 0 0-0.00226505 0-0.00226504-0.00226505-0.18349833 1.88935523-0.37832386 2.96542673-0.38058989 4.03923319-0.0113272 42.1910685-0.0385117 84.38440303 0.06116611 126.57547153 0.00679613 3.21009117 0.55049597 6.53571942 1.49743814 9.60535505 3.71527931 12.03840914 12.53227008 20.04664823 22.35057398 27.04677708C771.75313478 965.62399119 792.34121683 973.66847595 813.44807828 980.45338991c37.90037475 12.18792684 76.94704927 19.04986519 116.37431269 23.62147101 20.47254595 2.37415402 41.09460862 3.62692772 61.68495572 4.7845537-20.59034709-1.15762697-41.21240977-2.40813464-61.68268969-4.7845537C890.3973926 999.50325608 851.35298411 992.64131675 813.44807828 980.45338991z" p-id="34004"></path><path d="M594.65213674 766.05914811c-4.8842325 2.21557514-9.86361173 4.24311989-14.90415807 6.14606836C584.788525 770.30453403 589.76790424 768.27472325 594.65213674 766.05914811z" p-id="34005"></path><path d="M382.76344235 650.0201165c3.29164664-0.16990608 6.58329328-0.36473161 9.87493893-0.58674263C389.34900067 649.65538489 386.05735403 649.85021042 382.76344235 650.0201165z" p-id="34006"></path><path d="M1038.76161592 1010.36138483c-7.33314488-0.04983891-14.66628975-0.21294886-21.99943462-0.43269385C1024.09532617 1010.14617092 1031.42847105 1010.31154592 1038.76161592 1010.36138483z" p-id="34007"></path><path d="M1271.39244016 981.78998412c-18.80520075 5.82664458-37.97060302 10.2374055-57.33309586 13.88925268C1233.42183714 992.02965566 1252.58723941 987.61889473 1271.39244016 981.78998412z" p-id="34008"></path><path d="M645.1912555 794.20918119c0-1.3524525-0.13139437-2.70717005-0.22654111-4.58746313-1.13950364 0.7453215-1.78967742 1.2029348-2.46930075 1.60844414-11.06881256 6.5946195-21.71399245 14.07954712-33.29478829 19.60036116-32.68086117 15.5792513-67.56370425 24.19915148-102.96306268 31.07921316-29.6746567 5.76774352-59.58491667 9.87040884-89.68320604 11.98630518-28.87270017 2.02981078-57.86320247 3.54763828-86.79027263 3.38679338-30.62839598-0.16990608-61.26811917-2.18385858-91.85347237-4.17062658-17.93981306-1.16668814-35.8886873-3.17384452-53.63820492-6.02826623-20.94148645-3.366405-41.79462131-7.52117428-62.4619928-12.29666682-26.53932389-6.13474116-52.44206723-14.48958755-76.71824213-27.0807577-10.00406827-5.18553197-19.46443669-11.4131558-29.41186893-17.31002766 9.94743225 5.89687284 19.40780067 12.12449569 29.40960389 17.31229271 24.27617587 12.59117016 50.17891823 20.94601753 76.71824212 27.0807577 20.66737148 4.77775758 41.52050634 8.93252686 62.4619928 12.29666681 17.74951762 2.85215569 35.69839284 4.86157809 53.63820492 6.02826624 30.5853532 1.986768 61.22507639 4.0007205 91.85347238 4.17062658 28.92707016 0.16084392 57.91530642-1.35471755 86.79027262-3.38679338 30.09828938-2.11816238 60.00854934-6.21856167 89.68320605-11.98630519 35.39935744-6.88006167 70.2822015-15.49996186 102.96306267-31.07921315 11.58079584-5.52081403 22.22597573-13.00574166 33.2947883-19.60036116 0.67962431-0.40550934 1.32979809-0.86312264 2.46930075-1.60844414 0.09741277 1.88029308 0.22654111 3.23501063 0.22654111 4.58746312 0.0113272 41.61565406-0.09514772 83.23357317 0.08608556 124.84922625 0.04077773 9.66652116-3.37999725 17.69288259-9.46036842 24.80628249 0 0 0-0.00226505 0.00226504-0.00226505 6.08037117-7.11339989 9.50114616-15.13976133 9.46036842-24.80628248C645.09610877 877.44275436 645.20258271 835.82483525 645.1912555 794.20918119z" p-id="34009"></path><path d="M1084.85825819 852.16979642c20.26412719-1.06927538 40.56223598-1.90747856 60.75387084-3.83308045 19.02721177-1.81459687 38.06574975-4.19554702 56.85735825-7.64577155 22.9418467-4.21140431 45.8225273-9.07751348 68.38378411-14.97665137 27.07849266-7.07941828 53.1737955-17.01325828 76.84057435-32.41580738 2.84989064-1.85310858 5.60463356-3.85120378 8.719578-6.07810514-3.11494444 2.22916739-5.87195241 4.22499656-8.72184404 6.07810514-23.66677884 15.40028405-49.76208169 25.33638909-76.84057434 32.41580738-22.56352284 5.89913789-45.44193741 10.76298103-68.38378411 14.97665137-18.7916085 3.45022552-37.83014747 5.83117566-56.85735825 7.64577155C1125.42049417 850.26231786 1105.12012033 851.10052105 1084.85825819 852.16979642c-45.91767502 2.42172787-91.75379456 0.73625934-137.46984694-3.47514497C993.10446363 852.9083218 1038.94284921 854.5915243 1084.85825819 852.16979642z" p-id="34010"></path><path d="M729.73423741 585.29950578c0.04077773-0.47120653 0.08382052-0.98318981 0.12686329-1.61750531C729.81805792 584.31631695 729.77501514 584.82830023 729.73423741 585.29950578z" p-id="34011"></path><path d="M1359.68015092 712.98503042c0.0113272 9.09563681-3.25313395 16.91131444-8.9076074 23.79817322-11.12091652 13.54490944-26.0046862 21.81140522-41.56808021 28.94745952-25.74189844 11.80280686-52.80906389 19.5641145-80.51054484 25.03055854-18.88222514 3.72660553-37.85280089 7.14738052-56.90719716 9.83642724-3.81495713 0.53916877-7.64124145 1.01264034-11.46979082 1.45666139 3.83081541-0.44402105 7.65936478-0.91749262 11.47658695-1.45666139 19.05439627-2.68904672 38.02270697-6.1098217 56.90719716-9.83642724 27.70148095-5.46644405 54.76638136-13.22775169 80.51054484-25.03055854 15.563394-7.1360543 30.4471627-15.40254909 41.5680802-28.94745952 5.65447345-6.88912383 8.91893461-14.70253641 8.90760741-23.79817322-0.04757386-41.91015741-0.01812333-83.82257986-0.02945053-125.73273825 0-1.30034756-0.1381905-2.60296017-0.22654111-4.19781206-0.00226505 0.00226505-0.00453108 0.00226505-0.00679613 0.00453108 0.09061664 1.59258586 0.22654111 2.89293342 0.22654111 4.19328098C1359.6620276 629.16245056 1359.63257706 671.07487302 1359.68015092 712.98503042z" p-id="34012"></path><path d="M1359.61218869 306.38854095c-0.0271845 9.87267389-4.61238258 18.01457142-11.18208263 25.05774305-12.58664006 13.49507053-28.59178908 21.74344298-45.24258178 28.84098459-24.70660369 10.53417487-50.43944095 17.80615364-76.77034706 22.83990286-19.32398114 3.69488995-38.69100408 7.45774214-58.20527967 9.80924274-23.35868325 2.81364398-46.86235214 4.94313356-70.36149094 5.93538454-28.36298194 1.19840372-56.80072322 1.51103137-85.18862461 1.03076368-21.39909975-0.36020053-42.8095267-2.1249585-64.13839917-4.09133714-19.03627294-1.75343077-38.06801578-4.03017103-56.92532048-7.14964655-39.74895225-6.5787622-79.03576111-15.25529742-115.54290563-33.05238891-10.24420163-4.99297247-19.98321609-11.37917419-29.08564903-18.27509414-7.34447208-5.56385681-12.43485731-12.30799402-15.17147691-20.36607103 2.73661959 8.05807702 7.82700483 14.80448025 15.17374196 20.37060211 9.10016789 6.89591995 18.83918236 13.27985663 29.08564903 18.27509414 36.5071455 17.79709148 75.79395338 26.4736267 115.54290562 33.05238891 18.85730569 3.12174056 37.88904755 5.39621578 56.92532049 7.14964654 21.32887247 1.96411359 42.73929942 3.72887156 64.13839917 4.09133714 28.38563634 0.47800266 56.82337762 0.165375 85.18862461-1.03076367 23.50140384-0.99225098 47.00280769-3.12174056 70.36149094-5.93538454 19.51427559-2.35149961 38.87903348-6.1143518 58.20527967-9.80924274 26.33090611-5.0337502 52.06374239-12.30572798 76.77034706-22.83990286 16.6507927-7.09980764 32.65594172-15.34817911 45.24258178-28.84098459 6.56970005-7.04543766 11.15716317-15.18733519 11.18208263-25.05774305 0.11327105-42.61696622 0.05210494-85.23393342 0.03624665-127.84863459 0-1.00584422-0.23333723-2.0139525-0.26731884-2.28806846 0 0 0 0-0.00226505 0 0.03624666 0.27864605 0.26731884 1.27769316 0.26731885 2.28353738C1359.66655867 221.15687356 1359.72772478 263.77383978 1359.61218869 306.38854095z" p-id="34013"></path><path d="M1005.85194761 807.84923834c38.83372566 1.48384589 77.66518528 0.94241208 116.42641763-2.25861792 6.22309177-0.51424931 12.45071461-1.03529377 18.6760724-1.59032081-6.2253578 0.55502606-12.45524569 1.07833655-18.68286853 1.59032081C1083.51486785 808.78938538 1044.68567327 809.33081919 1005.85194761 807.84923834z" p-id="34014"></path><path d="M816.42483222 623.53516259c26.95842548 7.80435141 54.43563136 13.15978945 82.18015509 17.41876763 18.79613958 2.8861373 37.62625978 5.08358911 56.48809557 6.68976722-18.85957073-1.60617811-37.68969094-3.80362992-56.48356547-6.68976722-27.74452472-4.25897817-55.22399466-9.61668225-82.1801551-17.41876763-24.00885703-6.95028994-47.41964423-15.49769681-69.01130446-28.34938968-3.4049167-2.0252797-6.7214828-4.22952764-10.12640049-6.52439222 3.4049167 2.29486458 6.71921775 4.49911252 10.11960436 6.52439222C769.00518799 608.03746578 792.41597519 616.58487266 816.42483222 623.53516259z" p-id="34015"></path><path d="M378.40025528 602.0726307c-16.18411725 0.74305547-32.89154498 1.01943647-54.03465309 1.68773358C345.5087103 603.09206717 362.21613803 602.8179522 378.40025528 602.0726307z" p-id="34016"></path><path d="M46.77763933 550.44158216c24.43475475 14.68894416 51.26631694 23.22955392 78.63478284 30.25686825 39.22111069 10.06976447 79.18527783 15.86922455 119.48019497 18.98190295 0.66829711 0.05210494 1.33432917 0.09741277 2.00262628 0.1495177-0.66603206-0.04983891-1.33432917-0.09741277-2.00036025-0.1495177-40.29718317-3.11267841-80.25908428-8.91213848-119.48019496-18.98190295C98.04395627 573.67113608 71.2123931 565.13052631 46.77763933 550.44158216c-9.18172238-5.52081403-17.69061755-11.920608-24.09494259-20.65151321-10.45715048-14.25851536-9.75940284-29.30539402 1.80780075-42.77554509 11.10052814-12.92871727 25.58105353-20.98452923 40.73214206-28.00731248 21.94053356-10.16717723 44.92995412-17.3734598 68.49252408-22.41627118 22.41174009-4.79588091 44.97299691-9.16586508 67.66338304-12.30346293 21.89069466-3.02885888 43.99886925-4.88876358 66.07306224-6.0871673 3.04471617-0.165375 6.09169837-0.29903442 9.13641455-0.44855213-3.0469822 0.15178275-6.09622847 0.28317712-9.1386796 0.44855213-22.07645902 1.19840372-44.18236758 3.05830842-66.07306223 6.0871673-22.69038614 3.13759786-45.25164295 7.50758203-67.66338305 12.30346293-23.56256995 5.04281137-46.55199052 12.24909295-68.49252408 22.41627117-15.15108853 7.0205182-29.63161392 15.07859522-40.73214206 28.00731249-11.56720359 13.47015108-12.2626852 28.51703072-1.80780075 42.77554509C29.0824907 538.52097416 37.59138588 544.92076813 46.77763933 550.44158216z" p-id="34017"></path><path d="M1340.82964235 69.58029303c1.0760715 0.90163434 2.10456914 1.8599047 3.13080173 2.82270614C1342.93647653 71.44019872 1341.90571385 70.47966233 1340.82964235 69.58029303z" p-id="34018"></path><path d="M1261.6760801 424.84250431c12.86528611-3.36187392 25.55840011-7.30822542 38.00911471-11.99989743C1287.23447922 417.53427889 1274.54136522 421.48062941 1261.6760801 424.84250431z" p-id="34019"></path><path d="M581.28166347 566.10465397c-19.7294895 7.88364084-40.09782656 13.77598163-60.92377692 17.98058981C541.18383789 579.88290163 561.55217397 573.99055986 581.28166347 566.10465397z" p-id="34020"></path><path d="M1224.13817092 589.72385994c-23.40399108 4.23632377-46.87367934 8.48624077-70.49515036 11.07107761-45.62317069 4.99070644-91.44116691 7.15191159-137.36110696 5.30333409-18.72364627-0.75211763-37.4835382-1.26636595-56.13242611-2.93824223-20.88032034-1.87123191-41.74251638-4.36771814-62.44613452-7.6435065-19.4100667-3.06963563-38.76576342-6.84608105-57.85414031-11.50377146-29.67012562-7.24026319-58.64023955-16.64173055-84.37307583-33.84301823-8.5655302-5.72470073-16.1591978-12.50281955-21.42855028-21.55994466-3.07643175-5.28974184-4.43341533-10.9985843-4.43341533-17.07895547 0.00226505-41.90789236-0.00453108-83.81804977 0.00906117-125.72594114 0-1.2029348 0.18576436-2.40586959 0.32168883-4.05056039 0 0-0.00226505 0-0.00226505-0.00226504-0.13592447 1.64695584-0.32168883 2.85215569-0.32168882 4.05509048-0.01359225 41.90789236-0.00679613 83.81804977-0.00906118 125.72594114 0 6.08037117 1.35698259 11.78921362 4.43341533 17.07895547 5.26935248 9.05939016 12.86528611 15.83524294 21.42855028 21.55994466 25.73283628 17.20128769 54.7029502 26.60502108 84.37307583 33.84301823 19.08837787 4.65769139 38.44407459 8.43413583 57.85414031 11.50377145 20.70361814 3.27352331 41.56581417 5.77000955 62.44613452 7.6435065 18.64888692 1.6718753 37.41104587 2.18612461 56.13242611 2.93824224 45.91994006 1.84631245 91.73793628-0.31262667 137.36110697-5.3033341C1177.26222653 598.21236575 1200.7319148 593.96244875 1224.13817092 589.72385994c24.55029084-4.44021145 48.54328959-11.19114478 71.79549793-20.34341663 17.35533647-6.8324888 34.11260311-14.79768412 48.15363853-27.45002039 0 0 0.00226505-0.00226505 0.00226504-0.00226505-14.04103542 12.65233627-30.79830206 20.61753159-48.15363853 27.4500204C1272.68372556 578.53044913 1248.68846177 585.28138245 1224.13817092 589.72385994z" p-id="34021"></path><path d="M436.17737219 597.79099813c-15.15561863 1.88482416-30.45169378 2.81590903-45.72511453 3.65184717C405.72567742 600.60690814 421.02401763 599.67808831 436.17737219 597.79099813z" p-id="34022"></path><path d="M1350.28547969 124.06123222c-12.03840914 13.88472159-27.72640139 22.38228956-44.18236758 29.59083619-27.10341211 11.87530017-55.42108622 19.99680834-84.5090003 25.00110801-27.62672259 4.75510416-55.34859291 9.4807568-83.22451101 12.14261902-15.06953306 1.44080311-30.18437494 2.33790736-45.01603969 3.05830842 14.83393078-0.71813602 29.9510377-1.61297423 45.02057077-3.05377833 27.87818414-2.66186123 55.59778842-7.38751486 83.22451101-12.14261901 29.08791506-5.00656472 57.40558819-13.12580784 84.5090003-25.00110802 16.45370114-7.21081266 32.14395844-15.70611459 44.18236758-29.59083619 11.51056856-13.27759059 12.31705519-28.30861195 1.98903304-42.38136393-2.24729072-3.0628395-4.71432642-5.85156403-7.35806432-8.41827854 2.64147286 2.56444847 5.10850856 5.353173 7.35353325 8.41374746C1362.60253488 95.75262027 1361.79604727 110.78364162 1350.28547969 124.06123222z" p-id="34023"></path><path d="M878.82565891 180.97749153c-30.12320883-4.72112255-59.5645283-12.48243117-87.92071411-23.88425878-17.71780205-7.12472709-34.83300417-15.38442577-48.54782067-29.14001902 13.71255047 13.7578583 30.83001764 22.019823 48.55235076 29.1445501 28.35618581 11.39956256 57.79750528 19.16313623 87.92071411 23.88425878 27.84193748 4.36318706 55.79714503 8.39788917 83.84976535 10.92156089 26.97881386 2.42399292 54.15245423 2.72529338 84.05818312 4.08907209-29.90572889-1.36377872-57.07936927-1.66734422-84.0627142-4.09360317C934.62053791 189.37538169 906.66759541 185.34067958 878.82565891 180.97749153z" p-id="34024"></path><path d="M645.19805261 589.08048228c0-1.64922089 0-3.29844277 0-4.99297247-10.59080991 6.25707337-20.25506602 12.79732289-30.61253869 17.93528199-7.13152322 3.53857613-14.36272425 6.74187216-21.67321472 9.68690953-20.27545439 8.17134806-41.18522527 14.23132988-62.43933839 19.06572347-14.90189302 3.38905941-29.97142608 6.19364123-45.11345245 8.69012747-19.1336857 3.15572119-38.46446297 5.3146613-57.78391303 7.06582603-8.10565087 0.7339943-16.22262895 1.47704977-24.34640316 2.12722354-3.52951495 0.28317712-7.05902991 0.53690273-10.5908099 0.77477203-3.29164664 0.22201102-6.58329328 0.41683655-9.87493894 0.58674263-6.72374883 0.34660828-13.44749667 0.58674263-20.1712455 0.63205045-34.05823313 0.22427606-68.18442848-0.11327105-102.17469839-2.07058851-28.96331681-1.66961025-57.87905977-5.21724853-86.62489763-9.29272838-29.29180177-4.15476928-58.13052131-10.93968422-86.2646961-20.28225051-22.92598842-7.61405597-45.17008847-16.77992105-65.09666855-30.78697486-2.02981078-1.42721086-4.01884383-2.91332278-6.64898949-4.82306639 0 0 0 0 0 0.00226504-0.11780114 2.16120516-0.25599164 3.5204528-0.25599164 4.87970143-0.0113272 41.7606397 0.04983891 83.52128039-0.06796223 125.28192009-0.02038838 6.79397611 1.79647355 12.84716278 5.31239526 18.50616633 6.80303827 10.95101044 16.87959886 18.30454467 27.71960429 24.6635609 27.06490041 15.87602067 56.6897182 25.10984798 87.07118371 31.63424021 3.86253098 0.82914103 7.74545034 1.59258586 11.62157358 2.37415401 12.81318117 2.58030675 25.6897935 4.89329367 38.60718357 6.91404328 7.64577155 1.19387362 15.2983402 2.32431511 22.9645011 3.31203502 24.87424472 3.20782612 49.94784605 5.35090795 75.001059 6.57423112 30.5468415 1.49290805 61.12766362 1.77608419 91.65411577 0.24919552 10.17623939-0.50971823 20.34568266-1.21879308 30.50832881-2.152143 25.94805117-2.38548122 51.85305956-5.49362855 77.66518528-9.08657564 29.2057162-4.06415264 57.83828302-10.94648034 85.73685554-20.58355097 3.49553334-1.20746588 6.97294434-2.45797453 10.4254349-3.75832209 5.04054633-1.90294748 10.01992556-3.93049322 14.90415806-6.14606836 11.70312806-5.30786517 22.85802619-11.69633194 32.95044507-20.09195606 11.43127814-9.51020733 18.05081808-20.92336312 17.80388761-36.72235941C644.77895102 669.19911102 645.19805261 629.13526508 645.19805261 589.08048228z" p-id="34025"></path><path d="M768.16245372 759.87456805c37.99099139 19.95829664 79.24417889 29.37788733 121.09543523 36.47996001 18.28642134 3.10361723 36.74954489 5.31919139 55.20813736 7.18815825 18.62849855 1.88709019 37.32949041 3.30976997 56.03501335 4.11399155 1.78288031 0.07702439 3.56802666 0.12459825 5.35090795 0.19256048 38.83145963 1.48158084 77.66292023 0.94014703 116.4196215-2.25861792 6.2253578-0.51424931 12.45524569-1.03529377 18.68286853-1.59032081 6.46322611-0.57541542 12.92192114-1.20066975 19.36249285-1.94599027 3.82854938-0.44402105 7.6548337-0.91749262 11.46979082-1.45666139 19.05439627-2.68904672 38.024973-6.1098217 56.90719716-9.83642723 27.70148095-5.46644405 54.76864641-13.22775169 80.51054484-25.03055855 15.563394-7.1360543 30.4471627-15.40254909 41.56808021-28.94745951 5.65447345-6.88685878 8.91893461-14.70253641 8.9076074-23.79817322-0.04757386-41.91015741-0.01812333-83.82257986-0.02945053-125.73273825 0-1.30034756-0.13592447-2.60069513-0.22654111-4.19328099 0-0.00226505 0-0.00226505 0-0.00453108-4.43794542 3.13306777-8.277822 6.06224784-12.32838239 8.66067694-24.60919092 15.78313898-51.83720128 25.3477163-79.74256992 33.19057941-35.53301686 9.98820998-71.8113562 16.32910388-108.45669122 20.144061-26.23575839 2.72982347-52.60970728 4.81627027-78.97006392 5.57971411-41.70626972 1.20973092-83.34231216 0.54596489-124.83336895-2.98581511-18.86183578-1.60617811-37.69422202-3.80362992-56.48809557-6.68976722-27.74452472-4.25897817-55.22172961-9.61441622-82.18015509-17.41876763-24.00885703-6.95028994-47.41964423-15.49769681-69.01130447-28.34938968-3.40038661-2.0252797-6.71468667-4.22952764-10.11960436-6.52439222-2.40586959-1.62203639-4.84798584-3.28031944-7.43055764-4.97938022-0.04304278 0.6343155-0.08835159 1.14629977-0.1268633 1.61750531-0.06569719 0.7838332-0.12006717 1.41588366-0.12686329 2.02754574-0.00906117 42.19559958 0 84.38893411-0.00679613 126.58453368 0 7.339941 2.22916739 13.94815373 6.45416396 19.89939558C744.337096 745.47333209 755.77290522 753.36603411 768.16245372 759.87456805z" p-id="34026"></path><path d="M645.18899045 794.21144623c0-1.3524525-0.12912834-2.70717005-0.2265411-4.58746312-1.13950364 0.7453215-1.78967742 1.2029348-2.46930075 1.60844414-11.06881256 6.5946195-21.71399245 14.07954712-33.2947883 19.60036116-32.68086117 15.5792513-67.56370425 24.19915148-102.96306267 31.07921315-29.6746567 5.76774352-59.58491667 9.86814281-89.68320605 11.98630519-28.8749662 2.03207583-57.86320247 3.54763828-86.79027263 3.38679338-30.62839598-0.16990608-61.26811917-2.18385858-91.85347237-4.17062658-17.93981306-1.16668814-35.8886873-3.17611055-53.63820492-6.02826624-20.94148645-3.36413995-41.79462131-7.51890923-62.4619928-12.29666681-26.53932389-6.13474116-52.44206723-14.48958755-76.71824212-27.0807577-10.00180223-5.187798-19.46217066-11.41542084-29.40960389-17.31229271-0.04983891 0.52104544-0.15178275 1.07380645-0.15178275 1.62883252 0 43.46196553-0.00226505 86.92393205 0.04530782 130.39042866 0.00226505 1.81459687 0.33754711 3.66770545 0.77477203 5.43699351 2.8589528 11.54681522 10.67009934 19.55505333 19.63434277 26.49854616 18.20033578 14.09993648 39.27321562 22.47743728 60.89432639 29.5477934 32.10997683 10.50019327 65.03776847 17.53656877 98.54550563 21.55767863 25.61050406 3.0741667 51.28217522 6.20949952 77.01727654 7.55062481 29.18985792 1.52009255 58.51790733 2.13855075 87.7213575 1.18481147 30.87985753-1.00810927 61.7665102-3.54763828 92.49005391-6.898185 21.76609739-2.37415402 43.34869547-6.77811881 64.85880023-11.05522031 27.26878711-5.42340127 53.85795089-13.35008391 79.14223505-25.10531691 14.60285859-6.78944503 28.49211127-14.78409089 39.16221061-27.26652206 0 0 0 0 0 0 6.08037117-7.11339989 9.50114616-15.13976133 9.46036842-24.80628249C645.09384274 877.44501941 645.20031766 835.8271003 645.18899045 794.21144623z" p-id="34027"></path><path d="M1359.66429363 381.99672997c-2.61202233 1.55407416-5.17420575 3.12853669-7.70920369 4.69620309-7.60725984 4.70526427-14.9721203 9.36069061-22.71983569 13.25720222-9.66199008 4.86384412-19.53013289 9.11602519-29.55005944 12.89020556-12.45298064 4.69393805-25.14382861 8.63802352-38.00911471 11.99989744-13.69216209 3.57708881-27.57688369 6.51306502-41.55901805 9.0344707-25.34318522 4.5693398-50.97634369 7.79075817-76.59590991 10.51605155-21.57127087 2.29486458-43.29659053 3.76058714-64.98339848 4.2544471-40.6075448 0.9220237-81.24680517 1.09872591-121.73428181-3.16478335-20.99812148-2.21104406-42.04381683-4.18421981-62.9309333-7.21081265-26.06811834-3.77644542-51.83040516-9.25648172-77.14867092-16.66891604-23.9952638-7.0250483-47.39925586-15.49316573-69.01130447-28.28595853-5.91952627-3.5045955-11.54908027-7.50078591-17.76764096-11.56720359 0 0.00226505 0 0.00226505 0 0.00453108-0.13592447 1.6446908-0.32168883 2.84989064-0.32168882 4.05056039-0.01359225 41.90789236-0.00679613 83.81804977-0.00906118 125.72594114 0 6.08037117 1.35698259 11.78921362 4.43341533 17.07895547 5.26935248 9.05712511 12.86302008 15.83524294 21.42855028 21.55994465 25.73283628 17.20128769 54.7029502 26.60275603 84.37307583 33.84301824 19.08837787 4.65769139 38.44407459 8.43413583 57.85414031 11.50377145 20.70361814 3.27578836 41.56581417 5.77227459 62.44613452 7.6435065 18.64888692 1.6718753 37.40877984 2.18612461 56.13242611 2.93824224 45.91994006 1.8485775 91.73793628-0.31262667 137.36110697-5.3033341 23.62147102-2.58483684 47.09115928-6.83475384 70.49515036-11.07107761 24.55029084-4.4424765 48.54555464-11.19340983 71.79776297-20.34568265 17.35533647-6.8324888 34.11260311-14.79768412 48.15363853-27.45002039l0-1e-8c10.29177548-9.27233902 15.88734787-20.34115158 15.728769-34.76730698-0.44402105-40.19977041-0.1540478-80.40633595-0.1540478-120.61063645C1359.66429363 385.02558884 1359.66429363 383.50096522 1359.66429363 381.99672997z" p-id="34028"></path><path d="M1359.66429363 790.25829959c0-1.13270653 0-2.26314802 0-3.74246381 0-0.49385995 0-1.02396755 0-1.60617811-1.13497256 0.79742545-2.21330911 1.56766641-3.25086891 2.31072188-3.11494444 2.22916739-5.86968736 4.22499656-8.719578 6.07810514-23.66677884 15.40254909-49.76208169 25.33638909-76.84057434 32.41580737-22.56125681 5.89913789-45.44193741 10.76524706-68.38378411 14.97665138-18.7916085 3.45022552-37.83014747 5.83117566-56.85735825 7.64577154-20.19163388 1.92560189-40.48974267 2.76380508-60.75387085 3.83308046-45.91540898 2.42172787-91.75379456 0.73852538-137.46984693-3.47514497-1.68546755-0.15631383-3.37093608-0.28770722-5.05640363-0.44855213-21.13178091-2.03207583-42.1525568-5.42340127-63.14841323-8.67880026-24.64770361-3.82175325-48.87630562-9.63707062-72.65182444-17.18089931-24.66809198-7.82700483-48.57953625-17.37572484-69.96504375-32.34331407-2.0252797-1.41588366-4.02564094-2.86801397-6.56290392-4.67807976 0 0 0 0 0 0.00226504-0.18576436 1.88709019-0.38058989 2.96089566-0.38058989 4.03696716-0.0113272 42.1910685-0.0385117 84.38440303 0.06116611 126.57547153 0.00679613 3.21009117 0.55049597 6.53571942 1.49743814 9.60535505 3.71301328 12.03840914 12.53227008 20.04664823 22.35057398 27.04677708 18.2229892 12.98988337 38.81107125 21.03436814 59.91566766 27.82154812 37.90490583 12.18792684 76.94931431 19.04986519 116.37657872 23.62147102 20.47027992 2.37415402 41.09234259 3.62466267 61.68268968 4.7845537 0.36926269 0.02038838 0.73625934 0.04304278 1.10552204 0.06343116 8.04901584 0.45081717 16.09803169 0.76344483 24.14931257 1.00357818 7.33314488 0.21974498 14.66628975 0.38285494 21.99943463 0.43269385 25.63768955 0.17443716 51.27084802-0.66829711 76.89721036-2.40813464 31.56854302-2.14308183 62.9309333-5.77227459 94.07131256-11.45619858 1.44533419-0.26278777 2.8861373-0.54596489 4.32920644-0.81781481 19.36249284-3.65184717 38.52789413-8.06260809 57.33309586-13.88925267 2.77966336-0.86085759 5.55026456-1.74889969 8.31406865-2.67318844 21.02983706-7.0363755 41.50691409-15.31646353 59.28588225-29.01315572 13.54037934-10.43223103 21.2858287-23.20463447 20.91883205-41.37098864C1359.11153261 869.25554802 1359.66429363 829.7512602 1359.66429363 790.25829959z" p-id="34029"></path><path d="M731.7980298 316.96802366c2.73888562 8.05581197 7.82700483 14.79994917 15.1714769 20.36607103 9.10243294 6.89591995 18.84144741 13.28212167 29.08564904 18.27509414 36.5071455 17.79709148 75.79395338 26.4736267 115.54290562 33.0523889 18.85730569 3.11947453 37.88904755 5.39621578 56.92532049 7.14964655 21.32887247 1.96637963 42.73929942 3.73113661 64.13839917 4.09133714 28.38790139 0.4802677 56.82564267 0.16764103 85.18862461-1.03076367 23.4991388-0.99225098 47.00280769-3.12174056 70.36149093-5.93538455 19.51427559-2.35149961 38.88129952-6.1143518 58.20527968-9.80924273 26.33090611-5.0337502 52.06374239-12.30572798 76.77034706-22.83990286 16.6507927-7.09754161 32.65594172-15.34591406 45.24258178-28.84098459 6.56970005-7.04317163 11.15489813-15.18506916 11.18208262-25.05774305 0.11553609-42.61470117 0.05436998-85.23166739 0.03624666-127.8486346 0-1.00357819-0.23107219-2.00489133-0.26731884-2.28353737 0 0 0-0.00453108 0-0.00453108-11.28402647 6.51306502-22.11043964 13.62872995-33.65725486 19.26508008-34.38671808 16.78218609-71.17024359 26.26747397-108.6152701 32.80998952-26.34449836 4.60332141-52.96537772 8.02183036-79.60211437 10.4639466-26.69337267 2.44891237-53.54305819 3.85120378-80.34743588 4.26124322-57.12920817 0.87444984-114.00922083-2.73888562-170.46333576-12.08824903-25.59011569-4.23632377-50.89025812-9.64386675-75.71013286-17.18996048-23.65545164-7.19268933-46.62901491-16.00288397-67.67924034-29.22610458-4.30202095-2.70263897-8.4046853-5.72016966-13.69669219-9.34483233 0 0.71587097 0 1.36604475 0 1.9641136 0 1.79420752 0 3.12853669-0.00226505 4.46059982 0 39.77613773 0.35567044 79.55680556-0.17896725 119.32388213C729.34911742 306.78725417 730.14654288 312.11550772 731.7980298 316.96802366z" p-id="34030"></path><path d="M742.35712413 127.95321373c13.71481552 13.75559325 30.83001764 22.01529291 48.54782067 29.14001902 28.35618581 11.40182859 57.79750528 19.16313623 87.92071411 23.88425878 27.84193748 4.36318706 55.794879 8.39788917 83.84976534 10.92156089 26.98334494 2.42625797 54.15698531 2.72982347 84.0627142 4.09360317 14.91548527-0.79516041 30.60121148-1.36377872 46.61542266-2.13855075 14.83393078-0.71813602 29.94877167-1.61750531 45.01603969-3.05830842 27.87591811-2.66186123 55.59778842-7.38751486 83.22451101-12.14261901 29.08791506-5.00429967 57.40558819-13.12580784 84.5090003-25.00110802 16.45596717-7.20854663 32.14395844-15.70611459 44.18236758-29.59083619 11.51056856-13.27759059 12.31705519-28.30861195 1.98903305-42.38136393-2.24502567-3.06057445-4.71206138-5.84929898-7.35353325-8.41374746-0.31036163-0.30130045-0.64337766-0.5686193-0.95827036-0.86312264-1.02623259-0.96280045-2.05699627-1.92107081-3.13080174-2.82270614-7.02278325-5.88554564-15.01516308-10.52737875-23.31564047-14.68214803-40.41045323-20.21881936-84.0242025-29.39601066-128.19071179-36.35536275-16.36761558-2.57804072-32.87115563-4.51270477-49.38602386-5.87648348-22.90786509-1.89162028-45.86557008-3.6314588-68.83460227-4.24538593-36.77899542-0.98545486-73.57384814-0.38511998-110.24183756 3.13080174-18.62396747 1.78514634-37.28418258 3.46381777-55.7835518 6.18231501-17.63171648 2.59163395-35.14563183 6.125679-52.58025675 9.86361174-25.94352009 5.56159078-51.27764414 13.18017783-75.35219737 24.55255589-13.02386498 6.15286448-25.44286402 13.29118383-35.59191792 23.72341486-15.87375563 16.32004172-15.88055175 34.90096641-0.09741277 51.18929255C741.75225916 127.36873714 742.0580897 127.65417931 742.35712413 127.95321373z" p-id="34031"></path><path d="M201.37854667 424.28747727c-22.69038614 3.13759786-45.25164295 7.50758203-67.66338304 12.30346293-23.56256995 5.04281137-46.55199052 12.24909295-68.49252408 22.41627118-15.15108853 7.02278325-29.63161392 15.07859522-40.73214206 28.00731248-11.56720359 13.47015108-12.26495123 28.51703072-1.80780075 42.77554509 6.40432505 8.7309052 14.91322022 15.13069917 24.09720764 20.65151321 24.43248872 14.68894416 51.26405189 23.22955392 78.63478284 30.25686825 39.22111069 10.06976447 79.18301278 15.86922455 119.48019497 18.98190295 0.66603206 0.05210494 1.33432917 0.09741277 2.00036025 0.1495177 24.09720764 1.80780075 48.17629195 2.61655341 68.68281952 3.52271883 3.01073555 0.13365942 5.94444572 0.26731884 8.78980626 0.40777439 21.14310811-0.67056216 37.85053584-0.94467713 54.03465309-1.68773358 2.04566906-0.09514772 4.08227597-0.19482553 6.11888288-0.30583054 1.9754408-0.10873997 3.95314762-0.21521391 5.93085347-0.32395388 15.27342075-0.83593814 30.57176095-1.76702302 45.72511453-3.65184717 0.88124597-0.10873997 1.76702302-0.20841778 2.64826898-0.32395388 25.39302413-3.35734383 50.70222872-7.54835878 75.88683507-12.24909295 1.88709019-0.35340441 3.76285219-0.75211763 5.64541129-1.13270653 20.82595036-4.20460819 41.19655247-10.09468392 60.92377693-17.98058981 4.42435317-1.76702302 8.82831797-3.59974223 13.1847089-5.57065294 14.41935928-6.52665727 28.14097191-14.20188033 39.22337672-25.80532959 15.26662463-15.98476064 15.19639636-34.26891595 0.02038838-50.25820768-7.62085209-8.02862648-16.57829939-14.24265708-26.26747397-19.38061617-37.67383364-19.97415492-78.60533231-29.52967008-120.18247369-36.52526883-21.35832202-3.59294611-42.93185892-6.26613455-64.51445799-8.08299646-26.01601341-2.19065569-52.13170463-3.84214163-78.22474242-4.22952764-22.63148508-0.33754711-45.30601294 0.37832386-67.93296693 1.49970417-3.04471617 0.15178275-6.09396342 0.28317712-9.13641455 0.44855212C245.37741494 419.39871467 223.26924133 421.25861937 201.37854667 424.28747727z" p-id="34032"></path></svg>