<?xml version="1.0" standalone="no"?><!DOCTYPE svg PUBLIC "-//W3C//DTD SVG 1.1//EN" "http://www.w3.org/Graphics/SVG/1.1/DTD/svg11.dtd"><svg class="icon" width="200px" height="200.00px" viewBox="0 0 1024 1024" version="1.1" xmlns="http://www.w3.org/2000/svg"><path d="M831.23146104 133.25508854l-94.39585676 94.40848159c-69.17144566-33.5315495-145.03405143-52.32992193-224.84822911-52.32992193-215.92247403 0-403.9819474 135.61592796-504.99321528 336.6663518 49.65345789 98.83979706 120.54188048 181.44406224 205.24186752 240.28839666L133.25508854 831.23146104 192.76853896 890.74491146l94.23173396-94.23173397 109.11640901-109.0785345h-0.0378745L890.74491146 192.76853896 831.23146104 133.25508854zM512 385.75169617c-69.73956303 0-126.24830383 56.50874078-126.24830383 126.24830383 0 19.44223879 4.77218588 37.68511869 12.61220555 54.12264784l-61.59654743 61.60917227c-22.03032901-33.21592874-35.18540228-72.83264647-35.18540226-115.73182011 0-116.2241885 94.19385948-210.41804797 210.41804797-210.41804797 42.89917364 0 82.51589138 13.11719877 115.73182011 35.18540226l-61.60917227 61.59654743C549.63461937 390.52388206 531.48011328 385.75169617 512 385.75169617zM877.71608651 324.81163992L719.50171216 483.02601427c1.31298236 9.58224626 2.91633582 19.0761187 2.91633581 28.97398573 0 116.2241885-94.19385948 210.41804797-210.41804797 210.41804797-9.94836633 0-19.39173947-1.60335347-28.97398573-2.91633581l-109.60877737 109.64665187c44.42677812 12.53645656 90.74728079 19.53061259 138.5827631 19.53061261 215.92247403 0 403.9819474-135.57805348 504.99321529-336.66635181-36.11963972-71.92365869-83.55112747-135.26243272-139.27712878-187.20098491z" /></svg>