<?xml version="1.0" standalone="no"?><!DOCTYPE svg PUBLIC "-//W3C//DTD SVG 1.1//EN" "http://www.w3.org/Graphics/SVG/1.1/DTD/svg11.dtd"><svg t="1681625603167" class="icon" viewBox="0 0 1024 1024" version="1.1" xmlns="http://www.w3.org/2000/svg" p-id="15752" xmlns:xlink="http://www.w3.org/1999/xlink" width="200" height="200"><path d="M465.99114322 762.49266597l-76.68142831 76.68142831-132.91447665-117.57818931-92.01771356 76.68142831V108.14447636h603.22723704v393.63133312h102.24190406V5.90257229H62.13561959v1012.19485542l194.25961867-163.58704714 138.02657139 122.69028509 143.1386661-143.13866611z" p-id="15753"></path><path d="M261.50733403 215.49847621h403.85552259v102.24190512H261.50733403zM261.50733403 440.43066641h301.61361852v102.24190513H261.50733403zM859.6224753 747.15638072c15.33628525-25.56047575 25.56047575-56.23304728 25.56047681-86.90561883 0-81.79352409-66.4572378-153.36285662-148.2507619-153.36285662-81.79352409 0-153.36285662 66.4572378-153.36285662 153.36285662 0 30.67257154 10.22419052 61.34514307 25.56047575 86.90561883-61.34514307 40.89676205-102.24190511 107.35399986-102.24190407 189.14752394h102.24190407c0-66.4572378 56.23304728-122.69028509 122.69028509-122.69028614 66.4572378 0 122.69028509 56.23304728 122.69028614 122.69028614h102.24190407c5.11209473-81.79352409-35.78466627-148.25076189-97.12980934-189.14752394zM690.92333342 660.25076189c0-25.56047575 20.44838102-51.12095255 51.12095152-51.12095255 25.56047575 0 46.00885678 20.44838102 46.00885783 51.12095255 0 25.56047575-20.44838102 46.00885678-46.00885783 46.00885678-30.67257154 5.11209473-51.12095255-15.33628525-51.12095152-46.00885678z" p-id="15754"></path></svg>