<?xml version="1.0" standalone="no"?><!DOCTYPE svg PUBLIC "-//W3C//DTD SVG 1.1//EN" "http://www.w3.org/Graphics/SVG/1.1/DTD/svg11.dtd"><svg t="1681787748021" class="icon" viewBox="0 0 1024 1024" version="1.1" xmlns="http://www.w3.org/2000/svg" p-id="14453" xmlns:xlink="http://www.w3.org/1999/xlink" width="200" height="200"><path d="M416.38784393 839.09421833L285.55015701 723.3531872l-95.61215607 75.483281V109.42250067h603.86624901v311.99756151h100.64437431V8.77812532h-805.15499866v1006.44374936L285.55015701 854.19087412l140.90212446 120.77325043 140.90212445-145.93434374-75.48328099-70.45106275z" p-id="14454"></path><path d="M290.58237526 220.13131252h402.57749934v100.64437535h-402.57749934zM290.58237526 441.54893725h301.93312502v100.64437536h-301.93312502zM934.7063744 718.32096895V637.80546867h-85.54771853l70.45106274-115.74103113-70.45106274-40.25775015-70.45106275 120.77325043-70.45106171-120.77325043-70.45106274 40.25775015 70.45106274 115.74103113h-85.54771955v80.51550028H738.44984299v45.28996839h-115.74103113v80.51549925H738.44984299v115.74103113h80.51550028v-115.74103113h115.74103113v-80.51549925h-115.74103113v-45.28996839z" p-id="14455"></path></svg>