<?xml version="1.0" standalone="no"?><!DOCTYPE svg PUBLIC "-//W3C//DTD SVG 1.1//EN" "http://www.w3.org/Graphics/SVG/1.1/DTD/svg11.dtd"><svg class="icon" width="200px" height="200.00px" viewBox="0 0 1024 1024" version="1.1" xmlns="http://www.w3.org/2000/svg"><path d="M642.54581863 77.42614413c-2.60199256 29.54834975-18.69066686 53.46531125-26.63519833 63.64901233-15.20568763 19.50907336-38.08701852 33.87521917-60.45640502 38.75630361 2.09944167-29.69747117 20.89695929-54.9952735 27.51348825-63.03608808 14.62446637-17.66912645 37.51753909-32.44388843 59.5781151-39.37040204z m59.49592219 230.45599278c45.3164717 0 77.81319842 10.09328888 115.97301638 46.45308218-60.95778174 46.57402316-86.03601159 128.58493073-80.49855809 207.3327799 5.7182779 81.71853565 47.49458371 166.37135804 117.14837494 204.04506366-13.96574894 29.76557387-20.74783788 41.4616244-41.54968825 73.01078433-36.24002649 55.35927065-77.19440326 111.70720454-128.80098064 112.23441333h-0.9017736c-20.68208356 0-33.89870286-6.07053321-52.19249539-14.44481616-23.6011059-10.82010899-53.01325028-24.29974561-102.53212785-24.2997456h-1.50178182c-49.81359786 0.29824282-79.73886079 13.62053873-103.78850513 24.33849369-18.82334968 8.3930699-32.43214658 14.46125475-53.34789282 14.46125474h-1.27986097c-53.08252716-0.40157106-99.10116111-60.2098263-133.26875218-112.28490325-108.09306504-164.59481709-107.92163412-343.63327615-52.8981802-428.48336152 41.09880144-63.11358424 105.41122793-102.29729097 167.8238241-102.29729098 32.45445609 0 58.79610831 9.38760406 86.70647087 19.32942316 27.55106214 9.80796208 56.04147178 19.96700527 89.38361124 19.96700526 31.63252701 0 57.0982377-9.62831186 81.71970983-18.93372301 26.54830867-10.04279894 54.03596486-20.42845973 93.80793795-20.42845973h-0.00234837z m0.00704511-302.81745315c-54.29428543 3.67871964-117.64153236 38.27488802-154.7504553 83.13929874-33.64860159 40.89919009-61.43332641 101.46831681-50.53219869 160.32665688 1.43720168 0.05048994 2.84270036 0.06458014 4.26346346 0.06458015 57.79570322 0 116.98633748-34.70067079 151.71988543-79.26449031 33.29634628-42.65224737 58.47438179-102.74230684 49.30047929-164.26839383v0.00234837z m20.08677208 236.89169731c-91.46426595 0-130.01978403 43.39668026-193.51380402 43.39668027-65.26586421 0-114.99609497-43.32505501-194.13025081-43.32505501-77.68168977 0-160.15522597 47.14937351-212.64009328 127.76417585-73.51568362 113.37337216-61.05523905 326.60525437 58.38044704 508.47349777 42.59353814 64.93004747 99.71643372 138.08408231 174.24661264 138.66647774h1.65442578c65.05803357 0 84.17610354-42.24950212 173.42703194-42.78258182h1.46303374c88.11196955 0 105.64723899 42.71330495 170.57963483 42.71330494h1.28573189c74.59241069-0.7737875 134.7928435-81.69622615 177.32062732-146.6638475 30.70492137-46.53292671 42.10625163-70.08354268 65.91283979-122.77858901-172.64972188-65.24825144-200.50372359-309.17800989-29.59062038-402.85326501-52.09856064-65.01693712-125.29369193-102.61197239-194.3944423-102.61197239" /></svg>