<?xml version="1.0" standalone="no"?><!DOCTYPE svg PUBLIC "-//W3C//DTD SVG 1.1//EN" "http://www.w3.org/Graphics/SVG/1.1/DTD/svg11.dtd"><svg class="icon" width="200px" height="185.34px" viewBox="0 0 1105 1024" version="1.1" xmlns="http://www.w3.org/2000/svg"><path d="M1020.96111503 244.91396904l78.35681957-76.78134886L942.44016257 8.78009142 491.08302177 467.23520428a301.82108203 301.82108203 0 0 0-174.38878952-55.62797507 301.52132003 301.52132003 0 0 0-213.5937374 88.25388172 300.86970668 300.86970668 0 0 0 0 426.20956037 301.52132003 301.52132003 0 0 0 213.5937374 88.28140166c77.32485206 0 154.62218516-29.44547955 213.62125536-88.28140166 103.67049764-103.45230967 116.15042762-263.32180553 37.5754201-380.4511275l215.2783011-218.6503791L936.13336537 479.55198523l77.6501683-77.48800112L860.14024381 248.77451131l82.29991876-83.60511313 78.52095246 79.74457086zM452.6368175 848.58267018a191.27178315 191.27178315 0 0 1-135.94356811 56.17147928 191.2177271 191.2177271 0 0 1-135.91506727-56.17147928 190.23883181 190.23883181 0 0 1-56.30809222-135.61628716c0-51.22393055 19.98380947-99.37456325 56.30809222-135.61727097a191.19020814 191.19020814 0 0 1 135.91506727-56.1449422c51.35956066 0 99.64680629 19.9297544 135.94356811 56.1449422a191.68063814 191.68063814 0 0 1 0 271.23355813z" /></svg>