<?xml version="1.0" standalone="no"?><!DOCTYPE svg PUBLIC "-//W3C//DTD SVG 1.1//EN" "http://www.w3.org/Graphics/SVG/1.1/DTD/svg11.dtd"><svg class="icon" width="200px" height="200.00px" viewBox="0 0 1024 1024" version="1.1" xmlns="http://www.w3.org/2000/svg"><path d="M476.4304713 833.38717651l-59.52606561-172.646365H168.99068701L109.00299973 833.38717651H5.34593732L240.19577292 182.87044445h108.64257241L583.71126163 833.38717651h-107.30387103z m-187.09511198-532.38784197l-94.67852779 274.98780671h196.55834894l-94.21690723-274.98780671h-7.66291392z m505.17526756 458.89773173c73.02848966 0 127.13050541-46.41602112 127.1305054-107.28078924v-41.01505302l-119.92921316 7.66291389c-67.62752049 4.50080766-98.27917392 27.48954829-98.27917393 70.76654495 0 44.17715819 38.31456735 69.86638341 91.07788169 69.86638342z m-24.81214439 81.61464579c-94.65544709 0-163.64474969-57.24104129-163.64475078-146.98022155 0-88.35431639 65.82719742-139.29422696 182.57122362-146.4955192l133.01617695-7.66291283v-42.37683514c0-51.84007211-34.27538135-81.15302414-100.54111864-81.15302413-54.10201574 0-91.51642264 19.84971617-102.34144171 54.5405556h-93.75528558c9.92485755-84.29204861 89.25447792-138.39406543 200.59753494-138.39406434 123.06823762 0 192.49608116 61.32638977 192.49608115 165.00653287V833.38717651h-93.31674571v-68.96622189h-7.66291281c-29.31295204 49.1395875-82.95334721 77.09075637-147.41876143 77.09075744z" /></svg>