<?xml version="1.0" standalone="no"?><!DOCTYPE svg PUBLIC "-//W3C//DTD SVG 1.1//EN" "http://www.w3.org/Graphics/SVG/1.1/DTD/svg11.dtd"><svg t="1711252679283" class="icon" viewBox="0 0 1024 1024" version="1.1" xmlns="http://www.w3.org/2000/svg" p-id="17517" xmlns:xlink="http://www.w3.org/1999/xlink" width="200" height="200"><path d="M440.05239466 74.75853333a72.024064 72.024064 0 1 0 143.97166934 0 72.024064 72.024064 0 0 0-143.97166934 0z m71.25947734 664.80810667a232.96955734 232.96955734 0 1 0 0-465.862656 232.96955734 232.96955734 0 0 0 0 465.862656z m0.76458667 271.19889066a72.024064 72.024064 0 1 1 0-143.97166933 72.024064 72.024064 0 0 1 0 143.97166933z m431.915008-576.03959466a72.024064 72.024064 0 1 1 0 144.048128 72.024064 72.024064 0 0 1 0-144.048128zM152.03259733 506.75a72.024064 72.024064 0 1 0-143.97166933 0 72.024064 72.024064 0 0 0 143.97166933 0z m716.41770667 254.60736001a72.024064 72.024064 0 1 1-101.842944 101.76648532 72.024064 72.024064 0 0 1 101.842944-101.84294399zM257.39264 252.14264a72.024064 72.024064 0 1 0-101.842944-101.84294399 72.024064 72.024064 0 0 0 101.842944 101.84294399z m509.21472-101.84294399a72.024064 72.024064 0 1 1 101.842944 101.84294399 72.024064 72.024064 0 0 1-101.842944-101.84294399z m-509.13826133 610.90474667a72.024064 72.024064 0 1 0-101.76648535 101.842944 72.024064 72.024064 0 0 0 101.76648535-101.842944z" p-id="17518"></path></svg>