<?xml version="1.0" standalone="no"?><!DOCTYPE svg PUBLIC "-//W3C//DTD SVG 1.1//EN" "http://www.w3.org/Graphics/SVG/1.1/DTD/svg11.dtd"><svg class="icon" width="200px" height="200.00px" viewBox="0 0 1024 1024" version="1.1" xmlns="http://www.w3.org/2000/svg"><path d="M728.98927185 72.36348401C888.42883245 72.36348401 1018.36701134 200.07804988 1018.36701134 357.55819099c0 163.0721935-96.76013102 306.72631293-259.01773445 437.47908087-40.94968002 33.00191989-84.01289192 63.49401965-131.34719981 94.00813707a7115.99762157 7115.99762157 0 0 1-91.91661978 57.13140841l-24.17352078 15.30108944-23.79925021-15.89552028c2.31167549 1.54111665-65.49747242-42.6008768-92.11476339-60.7420257-47.31229125-32.23136105-90.46356765-64.19853061-131.45727994-98.30124766C102.28304057 651.60331268 5.63298866 510.30489997 5.63298866 357.55819099 5.63298866 200.10006652 135.59318317 72.36348401 295.03274376 72.36348401c83.88079617 0 162.01542757 34.96133937 216.96725624 96.47392289C566.97384429 107.32482339 645.08646007 72.36348401 728.98927185 72.36348401z m-148.69577323 742.66427714c44.89053667-28.95098311 85.50997734-57.70382364 123.79572586-88.54817939C847.67729604 610.76371176 930.30318266 488.0907997 930.30318266 357.55819099 930.30318266 249.06355455 840.12582313 160.42731167 728.98927185 160.42731167c-63.69216326 0-122.01243335 28.44461679-160.51834214 78.15664701L512 311.45677703l-34.80722802-44.91255227-21.66370169-27.96026608C417.0231615 188.87192846 358.70289141 160.42731167 295.03274376 160.42731167 183.89619249 160.42731167 93.69681734 249.06355455 93.69681734 357.55819099c0 119.98696599 83.11023733 241.47101638 227.16064398 361.28185437 38.61598893 32.12128091 79.58768455 62.45927035 124.74241271 93.23757721 15.47721742 10.56765936 46.12342957 30.6902444 67.65503552 44.78045654a5055.52420558 5055.52420558 0 0 0 67.03858907-41.83031796z" /></svg>