<?xml version="1.0" standalone="no"?><!DOCTYPE svg PUBLIC "-//W3C//DTD SVG 1.1//EN" "http://www.w3.org/Graphics/SVG/1.1/DTD/svg11.dtd"><svg class="icon" width="200px" height="200.00px" viewBox="0 0 1024 1024" version="1.1" xmlns="http://www.w3.org/2000/svg"><path d="M834.45464436 673.19882147l-80.59941005-80.59941007L834.45464436 512A228.00399183 228.00399183 0 1 0 512 189.54535564l-80.5994114 80.59941005-80.59941007-80.59941005 80.59941007-80.59941141a342.00598707 342.00598707 0 0 1 483.65346717 483.65346717l-80.59941141 80.59941007z m-161.25582289 161.25582289l-80.59941007 80.59941141a342.00598707 342.00598707 0 1 1-483.65346717-483.65346717l80.59941141-80.59941007 80.59941005 80.59941007L189.54535564 512A228.00399183 228.00399183 0 1 0 512 834.45464436l80.5994114-80.59941005 80.59941007 80.59941005z m0-564.30987867l80.65641284 80.65641284-403.05405578 402.99705433-80.65641284-80.59941139 403.05405578-402.99705433z" /></svg>