<?xml version="1.0" standalone="no"?><!DOCTYPE svg PUBLIC "-//W3C//DTD SVG 1.1//EN" "http://www.w3.org/Graphics/SVG/1.1/DTD/svg11.dtd"><svg class="icon" width="200px" height="200.00px" viewBox="0 0 1024 1024" version="1.1" xmlns="http://www.w3.org/2000/svg"><path d="M287.55857054 63.11714241h729.43464475v112.22071407H287.55857054V63.11714241zM91.1723206 203.39303467a84.16553589 84.16553589 0 1 1 0-168.33107177 84.16553589 84.16553589 0 0 1 0 168.33107177z m0 392.77250122a84.16553589 84.16553589 0 1 1 0-168.33107178 84.16553589 84.16553589 0 0 1 0 168.33107178z m0 387.16146503a84.16553589 84.16553589 0 1 1 0-168.33107175 84.16553589 84.16553589 0 0 1 0 168.33107175zM287.55857054 455.88964231h729.43464475v112.22071538H287.55857054v-112.22071538z m0 392.77250121h729.43464475v112.22071407H287.55857054v-112.22071407z" /></svg>