<?xml version="1.0" standalone="no"?><!DOCTYPE svg PUBLIC "-//W3C//DTD SVG 1.1//EN" "http://www.w3.org/Graphics/SVG/1.1/DTD/svg11.dtd"><svg class="icon" width="200px" height="200.00px" viewBox="0 0 1024 1024" version="1.1" xmlns="http://www.w3.org/2000/svg"><path d="M292.89190387 63.11714241h729.43464475v112.22071407H292.89190387V63.11714241zM124.56083212 7.00678471v168.33107177h56.11035769v56.11035769H12.34011804V175.33785648h56.1103577V63.11714241H12.34011804V7.00678471h112.22071408zM12.34011804 624.22071407v-140.27589225h112.22071408V455.88964231H12.34011804v-56.11035638h168.33107177v140.27589225H68.45047574v28.05517951h112.22071407v56.11035638H12.34011804z m112.22071408 308.60696533H12.34011804v-56.11035768h112.22071408V848.66214352H12.34011804v-56.11035769h168.33107177v224.44142946H12.34011804v-56.1103577h112.22071408v-28.05517819zM292.89190387 455.88964231h729.43464475v112.22071538H292.89190387v-112.22071538z m0 392.77250121h729.43464475v112.22071407H292.89190387v-112.22071407z" /></svg>