<?xml version="1.0" standalone="no"?><!DOCTYPE svg PUBLIC "-//W3C//DTD SVG 1.1//EN" "http://www.w3.org/Graphics/SVG/1.1/DTD/svg11.dtd"><svg t="1650213862718" class="icon" viewBox="0 0 1024 1024" version="1.1" xmlns="http://www.w3.org/2000/svg" p-id="24975" xmlns:xlink="http://www.w3.org/1999/xlink" width="200" height="200"><defs><style type="text/css">@font-face { font-family: feedback-iconfont; src: url("//at.alicdn.com/t/font_1031158_u69w8yhxdu.woff2?t=1630033759944") format("woff2"), url("//at.alicdn.com/t/font_1031158_u69w8yhxdu.woff?t=1630033759944") format("woff"), url("//at.alicdn.com/t/font_1031158_u69w8yhxdu.ttf?t=1630033759944") format("truetype"); }
</style></defs><path d="M103.03238152 57.59118003a90.88133799 90.88133799 0 0 1 90.881338 90.88240299v727.05283396a90.88133799 90.88133799 0 1 1-181.76267597 0V148.47358302A90.88133799 90.88133799 0 0 1 103.03238152 57.59118003z m408.96761848 227.20494248A90.88133799 90.88133799 0 0 1 602.88133799 375.67746051v272.64507898a90.88133799 90.88133799 0 1 1-181.76267598 0V375.67746051A90.88133799 90.88133799 0 0 1 512 284.79612251zM920.96761848 171.19365128q90.88133799 0 90.88133797 90.88133799v499.85002146Q1011.84895645 852.80634872 920.96761848 852.80634872t-90.881338-90.88133799V262.07498927Q830.08628048 171.19365128 920.96761848 171.19365128z" p-id="24976"></path></svg>