<?xml version="1.0" standalone="no"?><!DOCTYPE svg PUBLIC "-//W3C//DTD SVG 1.1//EN" "http://www.w3.org/Graphics/SVG/1.1/DTD/svg11.dtd"><svg class="icon" width="200px" height="200.00px" viewBox="0 0 1024 1024" version="1.1" xmlns="http://www.w3.org/2000/svg"><path d="M916.95250092 675.44234062c-21.8231555 51.6819643-53.06991844 98.00600826-92.9475228 137.88238543S737.80332979 884.44909336 686.12259266 906.27224888c-53.4663015 22.61714873-110.20675124 34.02389846-168.8321679 34.02389845s-115.36586645-11.40674972-168.73276538-34.02389845c-51.6819643-21.8231555-98.00600826-53.06991844-137.88238543-92.94752283s-71.1243673-86.20042115-92.94752283-137.88238543c-22.61714873-53.36689894-34.12330102-110.10734869-34.12330101-168.73276538s11.40674972-115.36586645 34.02389848-168.8321679c21.8231555-51.68073711 53.06991844-98.00600826 92.94752281-137.88238546s86.20164834-71.1243673 137.88238543-92.9475228c42.95172034-18.15262419 88.08661524-29.16299092 134.60946435-32.73411966 19.34300047-1.48858391 34.22270357-17.55866327 34.22270358-36.90166375 0-21.62435041-18.45083187-38.6860009-39.97577972-36.99983908-261.77969073 20.33457159-467.90867822 239.26071736-467.90867822 506.29769865 0 280.52750309 227.35695486 507.88568511 507.88445794 507.88568514 267.03698132 0 485.96312706-206.13144186 506.29769865-467.90990542 1.68616182-21.52494786-15.37548869-39.97577973-36.99983908-39.97577972-19.34300047 0-35.51248238 14.87970312-36.99983909 34.12330103-3.57112875 46.52284909-14.48332009 91.65774399-32.63594432 134.61069154z" /></svg>