<?xml version="1.0" standalone="no"?><!DOCTYPE svg PUBLIC "-//W3C//DTD SVG 1.1//EN" "http://www.w3.org/Graphics/SVG/1.1/DTD/svg11.dtd"><svg class="icon" width="200px" height="200.00px" viewBox="0 0 1024 1024" version="1.1" xmlns="http://www.w3.org/2000/svg"><path d="M512 512m-152.68124422 0a152.68124422 152.68124422 0 1 0 305.36248844 0 152.68124422 152.68124422 0 1 0-305.36248844 0ZM562.89374848 108.3616844V3.06251884h-101.78749696v105.29916556A407.55713498 407.55713498 0 0 0 108.3616844 461.10625152H3.06251884v101.78749696h105.29916556A407.50624084 407.50624084 0 0 0 461.10625152 915.6383156V1020.93748116h101.78749696v-105.29916556A407.50624084 407.50624084 0 0 0 915.6383156 562.89374848H1020.93748116v-101.78749696h-105.29916556A407.55713498 407.55713498 0 0 0 562.89374848 108.3616844zM512 817.36248845c-168.40741239 0-305.36248845-136.95507607-305.36248845-305.36248845s136.95507607-305.36248845 305.36248845-305.36248845 305.36248845 136.95507607 305.36248845 305.36248845-136.95507607 305.36248845-305.36248845 305.36248845z" /></svg>