<?xml version="1.0" standalone="no"?><!DOCTYPE svg PUBLIC "-//W3C//DTD SVG 1.1//EN" "http://www.w3.org/Graphics/SVG/1.1/DTD/svg11.dtd"><svg class="icon" width="200px" height="200.00px" viewBox="0 0 1024 1024" version="1.1" xmlns="http://www.w3.org/2000/svg"><path d="M448 640l384 0L832 576 448 576 448 640zM448 768l384 0 0-64L448 704 448 768zM448 512l384 0L832 448 448 448 448 512zM896 256l0 704L384 960 384 256 896 256M960 192 320 192l0 832 640 0L960 192 960 192zM768 0l0 192-64 0L704 64 192 64l0 768 128 0 0 64L128 896 128 0 768 0z" /></svg>