<?xml version="1.0" standalone="no"?><!DOCTYPE svg PUBLIC "-//W3C//DTD SVG 1.1//EN" "http://www.w3.org/Graphics/SVG/1.1/DTD/svg11.dtd"><svg t="1638965157636" class="icon" viewBox="0 0 1024 1024" version="1.1" xmlns="http://www.w3.org/2000/svg" p-id="14278" xmlns:xlink="http://www.w3.org/1999/xlink" width="200" height="200"><defs><style type="text/css"></style></defs><path d="M512 7.13007408c-104.12942222 0-204.37522963 31.55437037-289.3293037 91.02222222-83.01226667 58.25422222-146.12100741 138.83922963-182.28717038 233.25961481L31.40266667 356.65540741h110.92574815l4.61179259-12.1362963c19.90352592-43.20521482 47.08882963-82.28408889 81.31318518-116.50844444 75.73048889-75.73048889 176.46174815-117.47934815 283.74660741-117.47934815s208.01611852 41.74885925 283.74660741 117.47934815c75.73048889 75.73048889 117.47934815 176.46174815 117.47934814 283.74660741 0 107.04213333-41.74885925 208.01611852-117.47934814 283.7466074-75.73048889 75.73048889-176.46174815 117.47934815-283.74660741 117.47934815-107.04213333 0-207.77339259-41.74885925-283.74660741-117.47934815-33.98162963-33.98162963-61.40965925-73.0605037-81.31318518-116.26571851l-4.61179259-12.1362963H31.40266667l8.73813333 25.2434963c36.16616297 94.42038518 99.2749037 175.00539259 182.28717037 233.25961481C307.62477037 985.55828148 407.62785185 1016.86992592 512 1016.86992592c278.40663703 0 504.86992592-226.46328889 504.86992592-504.86992592S790.40663703 7.13007408 512 7.13007408z" p-id="14279"></path><path d="M7.13007408 563.94334815h460.45108147l-105.8285037 108.49848888L434.3277037 745.01688889l233.01688889-233.01688889-233.01688889-233.01688889-75.24503703 72.57505186 108.49848888 108.49848888H7.13007408v103.8866963z" p-id="14280"></path></svg>