<?xml version="1.0" standalone="no"?><!DOCTYPE svg PUBLIC "-//W3C//DTD SVG 1.1//EN" "http://www.w3.org/Graphics/SVG/1.1/DTD/svg11.dtd"><svg t="1652282435371" class="icon" viewBox="0 0 1024 1024" version="1.1" xmlns="http://www.w3.org/2000/svg" p-id="25545" xmlns:xlink="http://www.w3.org/1999/xlink" width="200" height="200"><defs><style type="text/css">@font-face { font-family: feedback-iconfont; src: url("//at.alicdn.com/t/font_1031158_u69w8yhxdu.woff2?t=1630033759944") format("woff2"), url("//at.alicdn.com/t/font_1031158_u69w8yhxdu.woff?t=1630033759944") format("woff"), url("//at.alicdn.com/t/font_1031158_u69w8yhxdu.ttf?t=1630033759944") format("truetype"); }
</style></defs><path d="M512 1016.86992593c104.12942222 0 204.37522963-31.55437037 289.3293037-91.02222223 83.01226667-58.25422222 146.12100741-138.83922963 182.28717039-233.25961481L992.59733333 667.34459259l-110.92574815 0-4.61179259 12.1362963c-19.90352592 43.20521482-47.08882963 82.28408889-81.31318518 116.50844444-75.73048889 75.73048889-176.46174815 117.47934815-283.74660741 117.47934815s-208.01611852-41.74885925-283.74660741-117.47934815c-75.73048889-75.73048889-117.47934815-176.46174815-117.47934814-283.74660741 0-107.04213333 41.74885925-208.01611852 117.47934814-283.7466074 75.73048889-75.73048889 176.46174815-117.47934815 283.74660741-117.47934815 107.04213333 0 207.77339259 41.74885925 283.74660741 117.47934815 33.98162963 33.98162963 61.40965925 73.0605037 81.31318518 116.26571851l4.61179259 12.1362963L992.59733333 356.89813333l-8.73813333-25.2434963c-36.16616297-94.42038518-99.2749037-175.00539259-182.28717037-233.25961481C716.37522963 38.44171852 616.37214815 7.13007408 512 7.13007407c-278.40663703 0-504.86992592 226.46328889-504.86992593 504.86992593S233.59336296 1016.86992592 512 1016.86992593z" p-id="25546"></path><path d="M1016.86992592 460.05665185l-460.45108147 0 105.8285037-108.49848888L589.6722963 278.98311111l-233.01688889 233.01688889 233.01688889 233.01688889 75.24503703-72.57505186-108.49848888-108.49848888L1016.86992592 563.94334815l0-103.8866963z" p-id="25547"></path></svg>