<?xml version="1.0" standalone="no"?><!DOCTYPE svg PUBLIC "-//W3C//DTD SVG 1.1//EN" "http://www.w3.org/Graphics/SVG/1.1/DTD/svg11.dtd"><svg t="1638965015568" class="icon" viewBox="0 0 1024 1024" version="1.1" xmlns="http://www.w3.org/2000/svg" p-id="12812" xmlns:xlink="http://www.w3.org/1999/xlink" width="200" height="200"><defs><style type="text/css"></style></defs><path d="M601.53155847 97.47098105c8.59670702 0 17.08857615 0.41935157 25.68528316 1.25805468l-36.79809956 47.28188861-57.97535342 74.43490225 74.43490224 57.97535343 74.43490222 57.97535344 74.43490225 57.97535342 57.97535344-74.43490223 40.36258782-51.78991789c10.58862694 26.31431051 17.08857615 54.30602727 19.08049607 83.13644714 2.30643358 32.81425972-1.25805468 65.41884365-10.58862693 96.76537291-9.64508593 32.39490816-25.16109371 62.58822062-46.2335097 89.63639636-26.31431051 33.75780074-59.02373234 60.17694913-97.28956237 78.41874207-36.58842377 17.50792771-77.37036317 26.73366207-118.04746467 26.73366207-21.28209176 0-42.56418353-2.51610937-63.11241008-7.44349022l-59.02373232-14.04827731-37.32228902 47.91091594L270.8728519 888.4728647l-82.71709558-64.37046475 167.95030054-215.7563786 38.58034369-49.58832219-30.82233979-54.72537883c-26.10463474-46.2335097-38.05615425-98.86213072-34.49166597-152.11977908 3.56448827-54.41086516 23.27401168-105.99110727 56.92697454-149.28915605 26.31431051-33.75780074 59.02373234-60.17694913 97.28956235-78.41874207 36.48358588-17.50792771 77.26552528-26.73366207 117.94262679-26.73366208m0-94.35410142C492.29047659 3.11687963 384.09777361 51.76166081 311.7596292 144.64803178c-93.6202362 120.35389826-100.53953697 280.65103281-30.08847458 405.61779824L55.74550065 840.56194875l231.69173795 180.32117162L516.19351561 727.02251337c27.99171675 6.70962499 56.50762297 9.95959959 85.02352918 9.9595996 109.34591978 0 217.43378485-48.64478119 289.77192928-141.53115216C1006.62516727 446.89567001 990.06078058 237.32472695 858.80374169 108.47895955l-119.51519514 153.37783377-74.43490224-57.97535343L783.53013633 51.44714714c-56.71729875-32.49974604-119.51519514-48.33026751-181.99857786-48.33026751z" p-id="12813"></path></svg>