<?xml version="1.0" standalone="no"?><!DOCTYPE svg PUBLIC "-//W3C//DTD SVG 1.1//EN" "http://www.w3.org/Graphics/SVG/1.1/DTD/svg11.dtd"><svg class="icon" width="200px" height="200.00px" viewBox="0 0 1024 1024" version="1.1" xmlns="http://www.w3.org/2000/svg"><path d="M913.6896 366.45376V183.37792c-35.77344 35.47136-143.32416 141.57824-199.04 196.62848 54.77376 67.86048 87.71584 154.1632 87.71584 247.90528 0 218.37824-177.7664 396.08832-396.14464 396.08832S10.24 846.2848 10.24 627.91168c0-218.37824 177.60256-396.06272 395.9808-396.06272 85.55008 0 164.54144 27.4688 229.376 73.71776 54.99392-53.13536 165.6576-159.71328 203.43296-196.29568h-198.0416V0h377.53344v366.45376h-104.832zM119.45472 627.91168c0 158.208 128.6656 286.8736 286.76608 286.8736 158.1568 0 286.8736-128.66048 286.8736-286.8736 0-158.1312-128.7168-286.79168-286.8736-286.79168-158.1056 0-286.76608 128.66048-286.76608 286.79168z" /></svg>