<?xml version="1.0" standalone="no"?><!DOCTYPE svg PUBLIC "-//W3C//DTD SVG 1.1//EN" "http://www.w3.org/Graphics/SVG/1.1/DTD/svg11.dtd"><svg class="icon" width="200px" height="200.00px" viewBox="0 0 1024 1024" version="1.1" xmlns="http://www.w3.org/2000/svg"><path d="M262.01756152 514.48912378c0-69.6415519-56.50285711-126.1965469-126.20014328-126.19654688s-126.19834422 56.55499501-126.1983442 126.19654688c0 69.75301866 56.50105981 126.20014327 126.1983442 126.20014329S262.01756152 584.24214244 262.01756152 514.48912378M388.21590574 514.48912378c0 69.75301866 56.50285711 126.20014327 126.20014326 126.20014329 69.69548708 0 126.14081261-56.44712462 126.14081261-126.20014329 0-69.6415519-56.44532554-126.1965469-126.14081261-126.19654688C444.71876286 388.29257691 388.21590574 444.84757368 388.21590574 514.48912378M766.75880222 514.48912378c0 69.75301866 56.5567923 126.20014327 126.19654689 126.20014329 69.754816 0 126.20014327-56.44712462 126.20014329-126.20014329 0-69.6415519-56.44532554-126.1965469-126.20014329-126.19654688C823.31559453 388.2925769 766.75880222 444.84757368 766.75880222 514.48912378" /></svg>