<?xml version="1.0" standalone="no"?><!DOCTYPE svg PUBLIC "-//W3C//DTD SVG 1.1//EN" "http://www.w3.org/Graphics/SVG/1.1/DTD/svg11.dtd"><svg class="icon" width="200px" height="200.00px" viewBox="0 0 1024 1024" version="1.1" xmlns="http://www.w3.org/2000/svg"><path d="M917.89375679 1019.36719688a101.4734389 101.4734389 0 1 1 0-202.94687897 101.4734389 101.4734389 0 0 1 0 202.94687897z m0-405.89375798a101.4734389 101.4734389 0 1 1 0-202.9468778 101.4734389 101.4734389 0 0 1 0 202.9468778z m0-405.89375681a101.4734389 101.4734389 0 1 1 0-202.94687897 101.4734389 101.4734389 0 0 1 0 202.94687897z m-405.89375679 811.78751479a101.4734389 101.4734389 0 1 1 0-202.94687897 101.4734389 101.4734389 0 0 1 0 202.94687897z m0-405.89375798a101.4734389 101.4734389 0 1 1 0-202.9468778 101.4734389 101.4734389 0 0 1 0 202.9468778z m0-405.89375681a101.4734389 101.4734389 0 1 1 0-202.94687897 101.4734389 101.4734389 0 0 1 0 202.94687897zM106.10624321 1019.36719688a101.4734389 101.4734389 0 1 1 0-202.94687897 101.4734389 101.4734389 0 0 1 0 202.94687897z m0-405.89375798a101.4734389 101.4734389 0 1 1 0-202.9468778 101.4734389 101.4734389 0 0 1 0 202.9468778z m0-405.89375681a101.4734389 101.4734389 0 1 1 0-202.94687897 101.4734389 101.4734389 0 0 1 0 202.94687897z" /></svg>