<?xml version="1.0" standalone="no"?><!DOCTYPE svg PUBLIC "-//W3C//DTD SVG 1.1//EN" "http://www.w3.org/Graphics/SVG/1.1/DTD/svg11.dtd"><svg class="icon" width="200px" height="200.00px" viewBox="0 0 1024 1024" version="1.1" xmlns="http://www.w3.org/2000/svg"><path d="M509.51046684 256.87645418c69.6419226 0 126.19842326-56.50203665 126.19842327-126.19842327s-56.55650066-126.19842326-126.19842327-126.19842326c-69.75260755 0-126.19842326 56.50027974-126.19842325 126.19842326s56.44581572 126.19842326 126.19842325 126.19842327m0 126.19842327c-69.75260755 0-126.19842326 56.50203665-126.19842325 126.20018015 0 69.69638663 56.44581572 126.14044543 126.19842325 126.14044544 69.6419226 0 126.19842326-56.4440588 126.19842327-126.14044544 0-69.69638663-56.55650066-126.20018017-126.19842327-126.20018015m0 378.54256267c-69.75260755 0-126.19842326 56.55650066-126.19842325 126.19842328 0 69.75260755 56.44581572 126.19842326 126.19842325 126.19842325 69.6419226 0 126.19842326-56.44581572 126.19842327-126.19842325 0-69.6419226-56.55650066-126.19842326-126.19842327-126.19842328" /></svg>