<?xml version="1.0" standalone="no"?><!DOCTYPE svg PUBLIC "-//W3C//DTD SVG 1.1//EN" "http://www.w3.org/Graphics/SVG/1.1/DTD/svg11.dtd"><svg t="1750166560925" class="icon" viewBox="0 0 1230 1024" version="1.1" xmlns="http://www.w3.org/2000/svg" p-id="5751" xmlns:xlink="http://www.w3.org/1999/xlink" width="240.234375" height="200"><path d="M1061.721854 63.576159h-847.682119a31.788079 31.788079 0 0 1 0-63.576159h847.682119a31.788079 31.788079 0 0 1 0 63.576159zM762.066225 553.536424a229.721854 229.721854 0 0 1-145.377483-63.152318 191.576159 191.576159 0 0 1-143.258278 63.152318 228.450331 228.450331 0 0 1-157.245034-66.966888 227.178808 227.178808 0 0 1-141.562913 51.284769c-142.834437 0-172.927152-72.05298-172.927153-132.662252 0-34.754967 11.86755-102.569536 112.741722-290.331126l11.86755-22.463576h995.178808l10.596026 26.701987a2106.490066 2106.490066 0 0 1 92.397351 275.92053 112.317881 112.317881 0 0 1-25.430463 112.741721c-57.642384 57.218543-166.993377 33.907285-188.609272 28.821192a272.529801 272.529801 0 0 1-102.993377-49.165562 211.92053 211.92053 0 0 1-145.377484 66.119205zM604.397351 360.264901l36.450331 38.569536c87.735099 91.97351 153.854305 94.092715 231.84106 0l30.940397-36.450331 32.635762 35.178808a184.794702 184.794702 0 0 0 94.516556 55.099338 144.10596 144.10596 0 0 0 108.503311-6.357616c5.509934-5.509934 6.781457-16.529801 2.543047-32.635762a1912.794702 1912.794702 0 0 0-77.986755-237.350993h-890.066226C96.635762 326.781457 84.768212 384 84.768212 405.192053s0 47.89404 88.15894 47.89404a159.364238 159.364238 0 0 0 113.589404-55.099338l33.483444-32.635762 30.092715 34.754967a163.602649 163.602649 0 0 0 122.913908 68.662252 122.490066 122.490066 0 0 0 101.298013-64.423841z" p-id="5752"></path><path d="M1131.655629 1024H108.07947v-470.463576h194.543047v123.761589h635.761589v-123.761589h192.847682z m-938.807947-84.768212H1046.887417v-300.927152h-23.311258v123.761589h-805.298013v-123.761589h-25.430464z" p-id="5753"></path></svg>