<?xml version="1.0" standalone="no"?><!DOCTYPE svg PUBLIC "-//W3C//DTD SVG 1.1//EN" "http://www.w3.org/Graphics/SVG/1.1/DTD/svg11.dtd"><svg class="icon" width="200px" height="200.00px" viewBox="0 0 1024 1024" version="1.1" xmlns="http://www.w3.org/2000/svg"><path d="M512 7.13007408c278.8435437 0 504.86992592 226.02638222 504.86992592 504.86992592s-226.02638222 504.86992592-504.86992592 504.86992592a503.31648 503.31648 0 0 1-194.45259378-38.83614814H45.96622222v-271.46467556A503.31648 503.31648 0 0 1 7.13007408 512C7.13007408 233.1564563 233.1564563 7.13007408 512 7.13007408z m0 77.67229629C276.0704 84.80237037 84.80237037 276.0704 84.80237037 512c0 57.32215467 11.26248297 112.97435497 32.85538133 164.58759585l5.98076682 14.36937482V900.36148148h209.48218311l14.36937482 6.01960297A425.6441837 425.6441837 0 0 0 512 939.19762963c235.9296 0 427.19762963-191.26802963 427.19762963-427.19762963S747.9296 84.80237037 512 84.80237037z m-233.01688889 370.10849185a58.25422222 58.25422222 0 1 1 0 116.50844445 58.25422222 58.25422222 0 0 1 0-116.50844445z m233.01688889 0a58.25422222 58.25422222 0 1 1 0 116.50844445 58.25422222 58.25422222 0 0 1 0-116.50844445z m233.01688889 0a58.25422222 58.25422222 0 1 1 0 116.50844445 58.25422222 58.25422222 0 0 1 0-116.50844445z" /></svg>