<?xml version="1.0" standalone="no"?><!DOCTYPE svg PUBLIC "-//W3C//DTD SVG 1.1//EN" "http://www.w3.org/Graphics/SVG/1.1/DTD/svg11.dtd"><svg class="icon" width="200px" height="200.00px" viewBox="0 0 1024 1024" version="1.1" xmlns="http://www.w3.org/2000/svg"><path d="M875.605333 875.605333l-89.813333-89.813333 89.813333 89.813333 78.613334 78.613334-62.805334 57.856-173.013333-173.013334c-47.786667 29.44-103.168 48.64-163.733333 54.784V938.666667h149.333333v85.333333H320v-85.333333h149.333333v-44.8c-198.165333-20.202667-341.333333-180.181333-341.333333-381.781334h85.333333C213.333333 681.237333 339.648 810.666667 512 810.666667c53.12 0 101.824-12.266667 143.829333-34.176l-49.557333-49.536A233.749333 233.749333 0 0 1 512 746.666667c-129.706667 0-234.666667-104.96-234.666667-234.837334v-113.813333l-277.333333-277.333333 60.330667-60.352 108.501333 108.501333 706.773333 706.773333zM287.36 166.698667C316.544 70.208 406.058667 0 512 0c129.706667 0 234.666667 104.96 234.666667 234.837333v276.992c0 33.578667-7.04 65.536-19.733334 94.421334l-67.946666-67.925334c1.536-8.597333 2.346667-17.450667 2.346666-26.496V234.837333A149.248 149.248 0 0 0 512 85.333333c-82.474667 0-149.333333 66.922667-149.333333 149.504v7.146667l-75.306667-75.306667z m489.088 489.066666C798.464 613.525333 810.666667 564.736 810.666667 512.085333h85.333333c0 76.565333-20.608 147.093333-57.002667 206.229334l-62.549333-62.549334z m-238.101333 3.242667L362.666667 483.349333v28.48a149.248 149.248 0 0 0 175.68 147.2z" /></svg>