<?xml version="1.0" standalone="no"?><!DOCTYPE svg PUBLIC "-//W3C//DTD SVG 1.1//EN" "http://www.w3.org/Graphics/SVG/1.1/DTD/svg11.dtd"><svg class="icon" width="200px" height="200.00px" viewBox="0 0 1024 1024" version="1.1" xmlns="http://www.w3.org/2000/svg"><path d="M362.666667 234.837333v276.992A149.248 149.248 0 0 0 512 661.333333c82.474667 0 149.333333-66.922667 149.333333-149.504V234.837333A149.248 149.248 0 0 0 512 85.333333c-82.474667 0-149.333333 66.922667-149.333333 149.504zM554.666667 893.866667V938.666667h149.333333v85.333333H320v-85.333333h149.333333v-44.8c-198.165333-20.202667-341.333333-180.181333-341.333333-381.781334h85.333333C213.333333 681.237333 339.648 810.666667 512 810.666667c172.458667 0 298.666667-129.28 298.666667-298.581334h85.333333c0 201.770667-143.082667 361.6-341.333333 381.76zM277.333333 234.88C277.333333 105.130667 382.378667 0 512 0c129.706667 0 234.666667 104.96 234.666667 234.837333v276.992C746.666667 641.536 641.621333 746.666667 512 746.666667c-129.706667 0-234.666667-104.96-234.666667-234.837334V234.837333z" /></svg>