<?xml version="1.0" standalone="no"?><!DOCTYPE svg PUBLIC "-//W3C//DTD SVG 1.1//EN" "http://www.w3.org/Graphics/SVG/1.1/DTD/svg11.dtd"><svg class="icon" width="200px" height="200.00px" viewBox="0 0 1024 1024" version="1.1" xmlns="http://www.w3.org/2000/svg"><path d="M776.79231322 940.71033227H272.42626032a63.09573757 63.09573757 0 0 1-63.04589207-63.04480846V770.99073016h630.45675345v106.67371005c0 34.77590687-28.26890159 63.04480846-63.04480848 63.04480847M272.42626032 83.28966773h504.3660529c34.77590687 0 63.04480846 28.26890159 63.04480848 63.04480846v549.00270053H209.38036825V146.33447619c0-34.77590687 28.26998519-63.04480846 63.04589207-63.04480846m504.3660529-75.65572064H272.42626032a138.87715556 138.87715556 0 0 0-138.7005291 138.7005291v731.33104762c0 76.46083386 62.23861164 138.7005291 138.7005291 138.7005291h504.3660529c76.46191746 0 138.7005291-62.23969524 138.70052911-138.7005291v-731.33104762c0-76.46083386-62.23861164-138.7005291-138.70052911-138.7005291M524.60874497 802.00980317a50.43606349 50.43606349 0 1 0 0.02600635 100.89921694 50.43606349 50.43606349 0 0 0-0.02600635-100.89921694" /></svg>