<?xml version="1.0" standalone="no"?><!DOCTYPE svg PUBLIC "-//W3C//DTD SVG 1.1//EN" "http://www.w3.org/Graphics/SVG/1.1/DTD/svg11.dtd"><svg class="icon" width="200px" height="200.00px" viewBox="0 0 1024 1024" version="1.1" xmlns="http://www.w3.org/2000/svg"><path d="M512 1011.43958443C236.15951773 1011.43958443 12.56041557 787.84048227 12.56041557 512S236.15951773 12.56041557 512 12.56041557s499.43958443 223.59910218 499.43958443 499.43958443-223.59910218 499.43958443-499.43958443 499.43958443z m0-99.88791759a399.55166684 399.55166684 0 1 0 0-799.10333368 399.55166684 399.55166684 0 0 0 0 799.10333368z m49.94395879-349.60770805h149.83187522v99.88791643h-149.83187522v99.88791642h-99.88791758v-99.88791642H312.22416599v-99.88791643h149.83187522v-49.94395879H312.22416599v-99.88791642h129.15507644L335.39816348 306.1809478 406.11880856 235.51024587 512 341.49132601l105.93113577-105.98108014 70.67070075 70.67070193L582.62075757 412.11208358H711.77583401v99.88791642h-149.83187522v49.94395879z" /></svg>