<?xml version="1.0" standalone="no"?><!DOCTYPE svg PUBLIC "-//W3C//DTD SVG 1.1//EN" "http://www.w3.org/Graphics/SVG/1.1/DTD/svg11.dtd"><svg class="icon" width="200px" height="200.00px" viewBox="0 0 1024 1024" version="1.1" xmlns="http://www.w3.org/2000/svg"><path d="M511.20355555 2.50311111c-281.48622222 0-509.72444445 228.23822222-509.72444444 509.72444444s228.23822222 509.72444445 509.72444444 509.72444445 509.72444445-228.23822222 509.72444445-509.72444445c0-281.6-228.12444445-509.72444445-509.72444445-509.72444444z m0 934.45688889C277.04888889 936.96 86.47111111 746.38222222 86.47111111 512.22755555s190.57777778-424.73244445 424.73244444-424.73244444 424.73244445 190.57777778 424.73244445 424.73244444-190.464 424.73244445-424.73244445 424.73244445zM277.61777778 448.512c-35.15733333 0-63.71555555 28.55822222-63.71555556 63.71555555s28.55822222 63.71555555 63.71555556 63.71555556 63.71555555-28.55822222 63.71555555-63.71555556c0-35.27111111-28.55822222-63.71555555-63.71555555-63.71555555zM744.90311111 448.512c-35.15733333 0-63.71555555 28.55822222-63.71555556 63.71555555s28.55822222 63.71555555 63.71555556 63.71555556 63.71555555-28.55822222 63.71555556-63.71555556c0-35.27111111-28.55822222-63.71555555-63.71555556-63.71555555zM511.20355555 448.512c-35.15733333 0-63.71555555 28.55822222-63.71555555 63.71555555s28.55822222 63.71555555 63.71555555 63.71555556 63.71555555-28.55822222 63.71555556-63.71555556c0-35.27111111-28.44444445-63.71555555-63.71555556-63.71555555z" /></svg>