<?xml version="1.0" standalone="no"?><!DOCTYPE svg PUBLIC "-//W3C//DTD SVG 1.1//EN" "http://www.w3.org/Graphics/SVG/1.1/DTD/svg11.dtd"><svg t="1640135371647" class="icon" viewBox="0 0 1024 1024" version="1.1" xmlns="http://www.w3.org/2000/svg" p-id="14660" xmlns:xlink="http://www.w3.org/1999/xlink" width="200" height="200"><defs><style type="text/css"></style></defs><path d="M884.16829927 590.91588852v47.68739669H1016.15572114v229.96620158h-131.98742187v101.9631853H803.44482892v-101.9631853H671.04955333v-229.96620158h132.39527559V590.91588852h80.72347035zM922.03585732 57.56999309a94.11986382 94.11986382 0 0 1 94.11986382 94.11986381v376.47945526h-94.11986382V151.6898569H106.33037047v564.71918287l199.53411126-0.06274705 0.03137428 98.44937756L441.74219228 716.40903977 608.30297844 716.34629272v94.11986381l-136.03457746 0.03137429-210.70300085 152.63104484a31.37328744 31.37328744 0 0 1-49.78940793-25.41236324V810.52890361L106.33037047 810.52890361a94.11986382 94.11986382 0 0 1-94.11986383-94.11986384V151.6898569a94.11986382 94.11986382 0 0 1 94.11986383-94.11986381h815.70548685z m-119.9087065 636.87774562h-55.09149312v103.53185019h55.09149312v-103.53185019z m137.82285344 0H885.32911043v103.53185019h54.65226808v-103.53185019zM557.16451814 245.80972071L639.67626588 552.48360982h-84.08041117l-14.2748465-59.7974863h-86.02555555l-14.27484651 59.7974863H357.31667447L439.48331556 245.80972071h117.64982979z m-58.26019572 66.73098345h-0.75295892l-28.17321205 118.43416148h56.72290507l-27.7967341-118.43416148z" p-id="14661"></path></svg>