<?xml version="1.0" standalone="no"?><!DOCTYPE svg PUBLIC "-//W3C//DTD SVG 1.1//EN" "http://www.w3.org/Graphics/SVG/1.1/DTD/svg11.dtd"><svg class="icon" width="200px" height="200.00px" viewBox="0 0 1024 1024" version="1.1" xmlns="http://www.w3.org/2000/svg"><path d="M977.07513198 300.85314062V789.97841231h-1.40866661A181.76338633 181.76338633 0 1 1 886.19343827 655.2463021V351.42880278l-477.12888821 89.97287606V812.69883521h-1.40866553A181.76338633 181.76338633 0 1 1 318.18285743 677.96672605V132.35848182l658.89227455-124.23527468v292.72993348zM227.30116478 926.30095181a90.88169264 90.88169264 0 1 0 0-181.76338635 90.88169264 90.88169264 0 0 0 0 181.76338635z m568.01058086-22.72042291a90.88169264 90.88169264 0 1 0 0-181.76338634 90.88169264 90.88169264 0 0 0 0 181.76338634zM409.06455006 207.69940495v141.23015091l477.12888821-89.97287605V117.72652889l-477.12888821 89.97287606z" /></svg>