<?xml version="1.0" standalone="no"?><!DOCTYPE svg PUBLIC "-//W3C//DTD SVG 1.1//EN" "http://www.w3.org/Graphics/SVG/1.1/DTD/svg11.dtd"><svg class="icon" width="200px" height="200.00px" viewBox="0 0 1024 1024" version="1.1" xmlns="http://www.w3.org/2000/svg"><path d="M476.16 262.23999999h286.72c19.824 0 35.84-16.016 35.84-35.83999999s-16.016-35.84-35.84-35.84H476.16c-19.824 0-35.84 16.016-35.84 35.84s16.016 35.84 35.84 35.83999999zM943.20000001 476.16h-1.12000001V80.79999999c0-38.304-31.136-69.44-69.43999999-69.43999999H366.4c-38.304 0-69.44 31.136-69.44 69.43999999v36.96000001H151.35999999c-38.304 0-69.44 31.136-69.43999999 69.44000001v288.95999999h-1.12000001c-38.304 0-69.44 31.136-69.43999999 69.44v397.60000001c0 38.304 31.136 69.44 69.43999999 69.43999999h862.40000002c38.304 0 69.44-31.136 69.43999999-69.43999999V545.6c0-38.304-31.136-69.44-69.43999999-69.44zM368.64000001 83.04h501.75999999v393.12H677.76c-32.144 0-58.24000001 26.096-58.24 58.23999999v49.28000001H404.48v-49.28000001c0-24.192-14.784-44.912-35.83999999-53.75999999V83.04z m-215.04000001 106.4h143.36v286.72H153.6V189.44z m787.36 751.52H83.04V547.84h249.75999999v49.28c0 32.144 26.096 58.24000001 58.24000001 58.23999999h241.92c32.144 0 58.24000001-26.096 58.24000001-58.23999999v-49.28h249.75999999v393.12zM476.16 404.48h286.72c19.824 0 35.84-16.016 35.84-35.83999999s-16.016-35.84-35.84-35.84000002H476.16c-19.824 0-35.84 16.016-35.84 35.84000002s16.016 35.84 35.84 35.83999999z" /></svg>