<?xml version="1.0" standalone="no"?><!DOCTYPE svg PUBLIC "-//W3C//DTD SVG 1.1//EN" "http://www.w3.org/Graphics/SVG/1.1/DTD/svg11.dtd"><svg t="1645850088253" class="icon" viewBox="0 0 1024 1024" version="1.1" xmlns="http://www.w3.org/2000/svg" p-id="25401" xmlns:xlink="http://www.w3.org/1999/xlink" width="200" height="200"><defs><style type="text/css"></style></defs><path d="M3.84826793 1020.15173207V3.84826793h834.82070269v254.07586601H1020.15173207v635.18966511a127.037933 127.037933 0 0 1-108.81706376 125.73125714L911.26207519 1020.15173207H3.84826793zM766.07586606 76.4413725H76.4413725v871.117255h701.90272821a126.52978129 126.52978129 0 0 1-12.26823465-54.44482845V76.4413725zM947.5586275 330.51723855h-108.88965688v562.5965605c0 27.58537974 20.47125549 50.30702147 47.04033177 53.93667671l7.40449666 0.50815174a54.44482844 54.44482844 0 0 0 53.93667671-47.04033179L947.5586275 893.11379905V330.51723855z m-254.07586605 435.55862751v72.59310456H149.03447709v-72.59310456h544.44828436z m0-181.48276148v72.59310459H149.03447709V584.59310458h544.44828436zM439.40689542 185.33102938v290.37241833H149.03447709v-290.37241833h290.37241833zM693.48276145 366.81379083v72.59310459H512V366.81379083h181.48276145zM366.81379083 257.92413394H221.62758167v145.18620919h145.18620916v-145.18620919z m326.66897062-36.29655227v72.59310459H512V221.62758167h181.48276145z" p-id="25402"></path></svg>