<?xml version="1.0" standalone="no"?><!DOCTYPE svg PUBLIC "-//W3C//DTD SVG 1.1//EN" "http://www.w3.org/Graphics/SVG/1.1/DTD/svg11.dtd"><svg class="icon" width="200px" height="200.00px" viewBox="0 0 1024 1024" version="1.1" xmlns="http://www.w3.org/2000/svg"><path d="M512 1011.8493111C235.94685754 1011.8493111 12.1506889 788.05314246 12.1506889 512S235.94685754 12.1506889 512 12.1506889s499.8493111 223.79616865 499.8493111 499.8493111-223.79616865 499.8493111-499.8493111 499.8493111z m0-90.88169262c225.86372788 0 408.96761848-183.1038906 408.96761848-408.96761848S737.86372788 103.03238152 512 103.03238152 103.03238152 286.13627212 103.03238152 512s183.1038906 408.96761848 408.96761848 408.96761848z m124.96232752-701.56122942C523.40565211 267.95993424 443.83873026 380.67595327 443.83873026 512s79.56692186 244.04006576 193.12359726 292.59361094A317.06350678 317.06350678 0 0 1 512 830.08592583c-175.6743122 0-318.08592583-142.41161257-318.08592583-318.08592583s142.41161257-318.08592583 318.08592583-318.08592583c44.35026652 0 86.61025377 9.08816895 124.96232752 25.49231489z" /></svg>