<?xml version="1.0" standalone="no"?><!DOCTYPE svg PUBLIC "-//W3C//DTD SVG 1.1//EN" "http://www.w3.org/Graphics/SVG/1.1/DTD/svg11.dtd"><svg class="icon" width="200px" height="185.84px" viewBox="0 0 1102 1024" version="1.1" xmlns="http://www.w3.org/2000/svg"><path d="M787.56060851 789.80376077c25.47288584 0.10669308 50.99911721 7.78856838 76.12525206 20.3516353 13.60332089 6.82833371 22.7255487 12.53639416 32.22120026 19.23136203a33.34147352 33.34147352 0 1 1-38.35603099 54.54665041 171.29515378 171.29515378 0 0 0-23.68578235-14.13678527c-16.75075657-8.34870451-32.99472152-13.2565699-46.54469689-13.30991542-17.33756648-0.05334654-29.50053587 7.46849016-38.94284089 27.58006654-7.36179708 17.87102984-22.32545016 42.8104513-46.59804342 67.66985447-38.2493379 39.18289981-87.64806502 63.96228267-148.54293232 66.84298565l-8.77547581 0.26673169h-8.53541689c-64.54909257-0.82686883-116.82852267-26.05969575-156.89163683-67.10971734-24.27259225-24.85940216-39.20957257-49.77215187-45.95788698-66.25617574-9.60234463-20.5116739-21.81866057-27.68675962-40.06311416-27.39335518-13.68334019 0.24005892-29.87395962 4.90786438-46.46467759 12.77645308a167.24082997 167.24082997 0 0 0-23.20566552 13.04318375A33.34147352 33.34147352 0 1 1 184.85346337 829.41343086l6.13483174-4.08099657a250.46114743 250.46114743 0 0 1 27.04660318-14.7769407c24.45930463-11.54948673 49.26536127-18.72457143 73.85803174-19.12466895 43.85070527-0.72017575 80.49965308 20.80507937 102.15827403 67.21641041l1.38700496 2.96072229a180.57741917 180.57741917 0 0 0 31.28763835 43.53062806c26.69985219 27.3666814 60.12134502 44.35749587 101.70483098 46.75808204l7.86858768 0.26673168h7.73522184c45.66448152-0.5868099 81.61992635-17.92437638 110.00018896-47.02481372 10.26917384-10.50923276 18.77791797-21.84533333 25.55290514-33.1014146 3.89428419-6.50825549 6.24152381-11.28275505 7.73522184-14.80361448 21.17850413-45.264384 57.13394895-67.58983517 100.21113194-67.42979555zM192.10856838 516.75043048a33.34147352 33.34147352 0 1 1 35.95544483 56.14704153l-4.00097727 2.66731784a472.72874565 472.72874565 0 0 0-73.69799213 64.17566781c-82.52681448 88.76833829-103.81201168 179.85724343-31.87444927 274.65372038l4.72115302 6.0814852c2.21387378 3.06741537 7.89526044 9.12222679 16.43067834 15.36375061 30.62080914 22.458816 66.97635149 24.80605663 115.2014588-8.26868521a33.34147352 33.34147352 0 1 1 37.68920076 55.05344102c-72.7110847 49.77215187-139.79412927 45.47776914-192.31361829 7.01504609-14.7769407-10.82931098-25.07278832-21.81866057-30.08734476-28.8070339C-30.79918629 834.56135417-2.7390019 706.47675023 101.49978006 594.31603404a538.74486248 538.74486248 0 0 1 61.69506235-56.60048457l9.01553473-6.9350268c8.50874413-6.40156241 15.31040406-11.12271543 19.89819124-14.05676495zM865.87306159 526.83289194a33.34147352 33.34147352 0 0 1 46.03790628-10.08246146l5.33463569 3.52085943a538.71818971 538.71818971 0 0 1 85.30082539 74.09809067c102.34498641 110.16022756 131.28538514 235.65753397 37.5825087 358.46084774l-5.25461638 6.66829512c-6.00146489 8.32203175-16.29731251 19.3380541-31.07425321 30.14069231-52.51948902 38.46272406-119.60253359 42.75710578-192.31361828-7.01504609a33.34147352 33.34147352 0 0 1 37.68920178-55.02676826c48.2251073 33.0213953 84.55397689 30.67415568 115.22813155 8.26868521 7.0950654-5.2279426 12.2429887-10.2958466 15.60380952-14.40351594l1.81377626-2.29389308c76.52534959-95.67669232 56.09369498-188.76608508-28.14020368-279.40154717a472.70207289 472.70207289 0 0 0-54.03985981-49.61211225l-7.6818753-5.92144559a275.61395505 275.61395505 0 0 0-16.00390705-11.33610057 33.34147352 33.34147352 0 0 1-10.08246146-46.06458007zM665.3707774 1.31792559a33.34147352 33.34147352 0 0 1 35.84875174 30.62080915c7.44181638 94.55641803 16.8041021 181.29759594 27.74010616 260.27687822 9.97576838 72.41768025 20.67171352 134.35280051 31.36765765 185.80536178l5.3346367 24.91274971c1.70708317 7.62852876 3.33414705 14.6169021 4.88119162 20.96511797l4.16101587 16.53737041c26.29975467 123.76354946 24.4059581 217.0396546 4.5611134 283.13579175-6.00146489 20.00488432-12.48304762 33.63487797-17.68431746 41.39677359a33.34147352 33.34147352 0 0 1-57.21396825-34.11499581l2.48060546-4.26770794 1.14694704-2.34723962c2.40058616-5.067904 4.96121092-11.65617879 7.38846984-19.81817194 16.48402489-54.92007517 18.16443429-136.86007975-5.41465498-248.14058158l-3.30747429-12.80312584-4.26770895-18.13776153c-2.34723962-10.10913422-4.80117232-21.33854273-7.36179708-33.76824381l-5.067904-25.15280762c-8.42872483-43.21054984-16.77742933-92.60927594-24.69936355-148.22285409l-2.37391238-16.85744864c-11.06936889-80.28626794-20.61836698-168.30775771-28.14020369-264.17116139A33.34147352 33.34147352 0 0 1 665.3707774 1.31792559z" /></svg>