<?xml version="1.0" standalone="no"?><!DOCTYPE svg PUBLIC "-//W3C//DTD SVG 1.1//EN" "http://www.w3.org/Graphics/SVG/1.1/DTD/svg11.dtd"><svg class="icon" width="200px" height="200.00px" viewBox="0 0 1024 1024" version="1.1" xmlns="http://www.w3.org/2000/svg"><path d="M554.666667 109.141333c180.202667 21.12 320 174.293333 320 360.192v189.952L961.984 853.333333H677.290667a170.730667 170.730667 0 0 1-330.581334 0H62.016L149.333333 659.285333V469.333333c0-185.877333 139.797333-339.072 320-360.192V42.666667h85.333334v66.474666zM585.92 853.333333h-147.84A85.290667 85.290667 0 0 0 512 896c31.573333 0 59.157333-17.152 73.92-42.666667zM789.333333 677.610667V469.333333c0-153.173333-124.16-277.333333-277.333333-277.333333s-277.333333 124.16-277.333333 277.333333v208.277334L193.984 768h636.032L789.333333 677.610667z" /></svg>