<?xml version="1.0" standalone="no"?><!DOCTYPE svg PUBLIC "-//W3C//DTD SVG 1.1//EN" "http://www.w3.org/Graphics/SVG/1.1/DTD/svg11.dtd"><svg t="1717919041558" class="icon" viewBox="0 0 1024 1024" version="1.1" xmlns="http://www.w3.org/2000/svg" p-id="17728" xmlns:xlink="http://www.w3.org/1999/xlink" width="200" height="200"><path d="M950.857143 210.285714v612.571429H73.142857V210.285714h877.714286m73.142857-73.142857H0V896h1024V137.142857z" p-id="17729"></path><path d="M161.133714 285.696h73.142857v449.170286h-73.142857zM483.108571 300.032h73.142858v200.557714h-73.142858zM777.142857 286.573714h73.142857v447.414857h-73.142857zM355.693714 534.308571h73.142857v200.557715h-73.142857z" p-id="17730"></path><path d="M355.693714 488.009143h200.557715v73.142857H355.693714zM355.693714 287.451429h200.557715v73.142857H355.693714zM649.728 286.573714h200.557714v73.142857H649.728zM649.728 473.746286h200.557714v73.142857H649.728zM649.728 660.845714h200.557714v73.142857H649.728zM355.693714 661.723429h200.557715v73.142857H355.693714z" p-id="17731"></path></svg>