<?xml version="1.0" standalone="no"?><!DOCTYPE svg PUBLIC "-//W3C//DTD SVG 1.1//EN" "http://www.w3.org/Graphics/SVG/1.1/DTD/svg11.dtd"><svg class="icon" width="200px" height="200.00px" viewBox="0 0 1024 1024" version="1.1" xmlns="http://www.w3.org/2000/svg"><path d="M512 705.28274152A193.28274152 193.28274152 0 1 1 705.28274152 512 193.28274152 193.28274152 0 0 1 512 705.28274152z m0-309.25238643A115.96964491 115.96964491 0 1 0 627.96964491 512 115.96964491 115.96964491 0 0 0 512 396.03035509zM125.43451695 241.40416185A115.96964491 115.96964491 0 1 1 241.40416185 125.43451695 115.96964491 115.96964491 0 0 1 125.43451695 241.40416185z m0-154.6261932a38.6565483 38.6565483 0 1 0 38.6565483 38.6565483 38.6565483 38.6565483 0 0 0-38.6565483-38.6565483zM898.56548305 241.40416185A115.96964491 115.96964491 0 1 1 1014.53512795 125.43451695 115.96964491 115.96964491 0 0 1 898.56548305 241.40416185z m0-154.6261932a38.6565483 38.6565483 0 1 0 38.6565483 38.6565483 38.6565483 38.6565483 0 0 0-38.6565483-38.6565483zM898.56548305 1014.53512795a115.96964491 115.96964491 0 1 1 115.9696449-115.9696449 115.96964491 115.96964491 0 0 1-115.9696449 115.9696449z m0-154.6261932a38.6565483 38.6565483 0 1 0 38.6565483 38.6565483 38.6565483 38.6565483 0 0 0-38.6565483-38.6565483zM125.43451695 1014.53512795A115.96964491 115.96964491 0 1 1 241.40416185 898.56548305 115.96964491 115.96964491 0 0 1 125.43451695 1014.53512795z m0-154.6261932a38.6565483 38.6565483 0 1 0 38.6565483 38.6565483 38.6565483 38.6565483 0 0 0-38.6565483-38.6565483zM821.25238645 859.90893475a36.33715541 36.33715541 0 0 1-27.05958381-11.59696449l-193.28274154-193.28274153a37.88341734 37.88341734 0 0 1 54.11916763-54.11916763l193.28274153 193.28274154a37.11028636 37.11028636 0 0 1 0 54.11916762 36.33715541 36.33715541 0 0 1-27.05958381 11.59696449zM396.03035509 434.68690339a36.33715541 36.33715541 0 0 1-27.05958382-11.59696449l-193.28274153-193.28274154a37.88341734 37.88341734 0 0 1 54.11916762-54.11916762l193.28274154 193.28274153a37.11028636 37.11028636 0 0 1 0 54.11916763 36.33715541 36.33715541 0 0 1-27.05958381 11.59696449zM202.74761355 859.90893475a36.33715541 36.33715541 0 0 1-27.05958381-11.59696449 37.11028636 37.11028636 0 0 1 0-54.11916762l193.28274153-193.28274154a37.88341734 37.88341734 0 0 1 54.11916763 54.11916763l-193.28274154 193.28274153a36.33715541 36.33715541 0 0 1-27.05958381 11.59696449zM621.01146622 441.64508209a38.6565483 38.6565483 0 0 1-27.05958382-11.59696449 39.42967928 39.42967928 0 0 1 0-54.8922986l200.24092024-199.46778926a37.88341734 37.88341734 0 0 1 54.11916762 54.11916762L648.844181 430.0481176a39.42967928 39.42967928 0 0 1-27.83271478 11.59696449z" /></svg>