<?xml version="1.0" standalone="no"?><!DOCTYPE svg PUBLIC "-//W3C//DTD SVG 1.1//EN" "http://www.w3.org/Graphics/SVG/1.1/DTD/svg11.dtd"><svg class="icon" width="200px" height="200.00px" viewBox="0 0 1024 1024" version="1.1" xmlns="http://www.w3.org/2000/svg"><path d="M512 801.8c31.9872 0 61.37599965 11.20000035 84.49279965 29.8368L512 936.2l-84.49279965-104.5632A133.81759965 133.81759965 0 0 1 512 801.8zM100.1984 57.80640035l791.92960035 791.97439965-63.34720035 63.34720034-232.06399965-232.06400069A268.5312 268.5312 0 0 0 512 667.39999999c-63.9744 0-122.75200035 22.35520035-168.89599965 59.6736l-56.2688007-69.70879964a356.74240035 356.74240035 0 0 1 207.0656007-79.1168007L377.6 461.94720034a491.41120035 491.41120035 0 0 0-175.2576 90.89919931L145.98399965 483.13759999A581.6832 581.6832 0 0 1 306.6368 390.98400034L204.31359965 288.61599964a717.20320035 717.20320035 0 0 0-142.68799965 89.9136L5.26719965 308.86560035a807.2064 807.2064 0 0 1 132.2496-87.00160036L36.80640035 121.1984l63.39199965-63.39199965zM624.00000035 456.16800035l-102.32320035-102.27840001L512 353.79999965c138.65599965 0 265.9776 48.42880035 366.01600035 129.33760034l-56.35840035 69.70879966a491.00800035 491.00800035 0 0 0-197.65759965-96.6783993zM512 129.8c191.96800035 0 368.256 67.0656 506.688 179.06560035l-56.3136 69.66399929A713.7984 713.7984 0 0 0 512 219.39999965c-39.33439965 0-77.952 3.13600035-115.584 9.2736L320.48 152.648A809.84959965 809.84959965 0 0 1 512 129.8z" /></svg>