<?xml version="1.0" standalone="no"?><!DOCTYPE svg PUBLIC "-//W3C//DTD SVG 1.1//EN" "http://www.w3.org/Graphics/SVG/1.1/DTD/svg11.dtd"><svg t="1681134965853" class="icon" viewBox="0 0 1024 1024" version="1.1" xmlns="http://www.w3.org/2000/svg" p-id="17388" xmlns:xlink="http://www.w3.org/1999/xlink" width="200" height="200"><path d="M658.285714 390.095238l360.838096-136.533333L936.228571 39.009524 658.285714 146.285714v-29.257143h-585.142857v770.438096H4.87619v97.523809H731.428571v-97.523809h-68.266666V390.095238z m234.057143-195.047619l-385.219047 146.285714-14.628572-29.257143 385.219048-146.285714 14.628571 29.257143zM414.47619 385.219048c0 29.257143-19.504762 53.638095-48.761904 53.638095s-53.638095-24.380952-53.638096-53.638095 24.380952-53.638095 53.638096-53.638096 48.761905 24.380952 48.761904 53.638096z m-243.809523 502.247619V214.552381h307.2L404.72381 243.809524c-9.752381-4.87619-24.380952-9.752381-39.009524-9.752381-82.895238 0-151.161905 68.266667-151.161905 151.161905 0 82.895238 68.266667 151.161905 151.161905 151.161904 58.514286 0 107.27619-34.133333 131.657143-82.895238l63.390476-24.380952v458.361905h-390.095238z" p-id="17389"></path><path d="M229.180952 614.4h273.066667v97.52381H229.180952z" p-id="17390"></path></svg>