<?xml version="1.0" standalone="no"?><!DOCTYPE svg PUBLIC "-//W3C//DTD SVG 1.1//EN" "http://www.w3.org/Graphics/SVG/1.1/DTD/svg11.dtd"><svg t="1685248281378" class="icon" viewBox="0 0 1024 1024" version="1.1" xmlns="http://www.w3.org/2000/svg" p-id="14768" xmlns:xlink="http://www.w3.org/1999/xlink" width="200" height="200"><path d="M622.40073417 307.37300162l-79.28060112-79.13542555-283.09802466 283.01358644 283.09802466 283.08617423 79.28060112-79.2198652-147.21529803-147.13085982L1024.42410622 567.98661027l0-113.38645875-549.23867008 0L622.40073417 307.37300162zM118.45531756 1020.84360537L911.12060329 1020.84360537c62.30100056 0 113.30202055-50.9180627 113.30202054-113.13314269l-1e-8-226.59070828-113.30202053 0 0 226.59070828-792.66528572 0 0-792.83416358L911.12060329 114.8762991l0 226.50627007 113.30202054 0 0-226.50627007c0-62.28766921-51.00250092-113.21906326-113.30202054-113.21906329l-792.66528572 0c-62.21508144 0-113.21758233 50.93139406-113.21758235 113.21906329l0 792.83416358C5.23921759 969.92554411 56.24023758 1020.84360537 118.45531756 1020.84360537" p-id="14769"></path></svg>