<?xml version="1.0" standalone="no"?><!DOCTYPE svg PUBLIC "-//W3C//DTD SVG 1.1//EN" "http://www.w3.org/Graphics/SVG/1.1/DTD/svg11.dtd"><svg t="1645849544332" class="icon" viewBox="0 0 1024 1024" version="1.1" xmlns="http://www.w3.org/2000/svg" p-id="13744" xmlns:xlink="http://www.w3.org/1999/xlink" width="200" height="200"><defs><style type="text/css"></style></defs><path d="M512 1012.31262273C234.59894146 1012.31262273 11.68737727 789.40105854 11.68737727 512S234.59894146 11.68737727 512 11.68737727s500.31262273 222.91156419 500.31262273 500.31262273h-99.07180597c0-222.91156419-178.32925156-401.24081676-401.24081676-401.24081676S110.75918324 289.08843581 110.75918324 512s178.32925156 401.24081676 401.24081676 401.24081676c19.8143614 0 44.58231263 0 64.39667403-4.95359086l14.86077156 99.07180699c-24.76795124 4.95358984-54.48949333 4.95358984-79.25744559 4.95358984z" p-id="13745"></path><path d="M303.94920635 774.54028698V249.45971302h198.14361295c104.02539683 0 173.37566171 59.44308419 173.37566172 158.51489015s-69.35026489 158.51489016-178.32925156 158.51489016H393.11383263v208.05079365H303.94920635z m193.19002311-287.30823822c59.44308419 0 84.21103543-24.76795124 84.21103543-74.30385574 0-64.39667403-54.48949333-74.30385473-84.21103543-74.30385473H393.11383263v148.60771047h104.02539683zM680.42207086 883.51927467h297.21541993v99.07180596h-297.21541993zM680.42207086 586.30385473h297.21541993v99.07180698h-297.21541993zM680.42207086 734.91156419h297.21541993v99.07180698h-297.21541993z" p-id="13746"></path></svg>