<?xml version="1.0" standalone="no"?><!DOCTYPE svg PUBLIC "-//W3C//DTD SVG 1.1//EN" "http://www.w3.org/Graphics/SVG/1.1/DTD/svg11.dtd"><svg t="1683914204153" class="icon" viewBox="0 0 1024 1024" version="1.1" xmlns="http://www.w3.org/2000/svg" p-id="28454" xmlns:xlink="http://www.w3.org/1999/xlink" width="200" height="200"><path d="M512 11.0146675a500.9853325 500.9853325 0 1 1 0 1001.970665A500.9853325 500.9853325 0 0 1 512 11.0146675z m17.72235663 250.4926657H355.4420838v537.9330014h108.58857048v-202.89905972h70.82680104c49.15918601 0 86.73308558-2.56754935 112.72169983-7.70264912 19.03744239-4.19575265 37.82439274-12.71250233 56.23560444-25.55025234 18.47383389-12.83774891 33.75388666-30.49748225 45.71491172-52.97919892 11.96102506-22.54433996 17.97284869-50.28640301 17.9728487-83.28881129 0-42.83424593-10.39544615-77.77797289-31.18633733-104.76855757a141.02737138 141.02737138 0 0 0-77.40223426-52.66608358c-18.41121061-4.94722992-56.11035676-7.64002583-113.16006176-8.01576557L529.72235663 261.5073332z m64.94022288 94.68622786a75.14780026 75.14780026 0 0 1 43.7109709 23.79680355c11.46003985 12.77512562 17.22137032 28.93190333 17.22137031 48.47033094 0 15.90628456-4.07050607 29.87125046-12.2741404 41.8322755-8.20363434 11.96102506-19.53842761 20.79089117-33.94175653 26.42697619-14.40332783 5.63608499-43.08473909 8.45412749-85.85636065 8.45412748h-59.49200886V352.49879473h52.47821371c39.1394796 0 65.19071605 1.25246358 78.15371152 3.69476633z" p-id="28455"></path></svg>