<?xml version="1.0" standalone="no"?><!DOCTYPE svg PUBLIC "-//W3C//DTD SVG 1.1//EN" "http://www.w3.org/Graphics/SVG/1.1/DTD/svg11.dtd"><svg t="1716087387900" class="icon" viewBox="0 0 1046 1024" version="1.1" xmlns="http://www.w3.org/2000/svg" p-id="34177" xmlns:xlink="http://www.w3.org/1999/xlink" width="204.296875" height="200"><path d="M692.547368 556.463158h-133.389473V485.052632h133.389473v-76.8h-105.094736L687.157895 309.894737l-53.894737-57.936842-113.178947 113.178947-99.705264-99.705263L363.789474 309.894737l90.273684 97.010526h-106.442105V485.052632h134.736842v71.410526h-134.736842V633.263158h134.736842v133.389474h76.8V633.263158h133.389473v-76.8z" p-id="34178"></path><path d="M512 1024C229.052632 1024 0 794.947368 0 512S229.052632 0 512 0v80.842105C274.863158 80.842105 80.842105 274.863158 80.842105 512s194.021053 431.157895 431.157895 431.157895 431.157895-194.021053 431.157895-431.157895h80.842105c0 282.947368-229.052632 512-512 512z" p-id="34179"></path><path d="M677.726316 137.431579h274.863158v80.842105H677.726316z" p-id="34180"></path><path d="M874.442105 348.968421l-47.157894-47.157895 123.957894-123.957894L827.284211 53.894737 874.442105 6.736842l172.463158 171.11579z" p-id="34181"></path></svg>