<?xml version="1.0" standalone="no"?><!DOCTYPE svg PUBLIC "-//W3C//DTD SVG 1.1//EN" "http://www.w3.org/Graphics/SVG/1.1/DTD/svg11.dtd"><svg class="icon" width="200px" height="200.00px" viewBox="0 0 1024 1024" version="1.1" xmlns="http://www.w3.org/2000/svg"><path d="M451.82164184 294.85291742l-42.08276794 10.94151968L331.04409786 7.00678471h87.95298499l62.70332423 236.50515583a42.08276794 42.08276794 0 0 1-29.87876524 51.34097688zM722.41383972 614.2611261l10.94151964-42.08276794a42.08276794 42.08276794 0 0 1 51.76180458-29.87876524L1016.99321529 606.26540019v81.64056979zM974.91044735 638.24830383m-42.08276795 0a42.08276794 42.08276794 0 1 0 84.16553589 0 42.08276794 42.08276794 0 1 0-84.16553589 0ZM94.95976971 91.1723206h-84.16553589C51.99326364 582.32030522 441.67969478 972.00673636 932.8276794 1013.20576618v-84.16553589C488.01282227 888.472442 135.527558 535.98717773 94.95976971 91.1723206zM91.1723206 7.00678471H7.00678471c0 28.19545451 0 56.39090904 3.78744911 84.16553589h84.16553589C91.1723206 63.39769377 91.1723206 35.20223924 91.1723206 7.00678471zM492.22109906 283.91139776L469.91723206 202.69165564l-112.36099039 29.87876524c7.32240163 27.48004747 16.74894164 54.3288534 28.1954545 80.37808675zM693.37672982 725.35963345l21.88303932-81.6405698A592.94620028 592.94620028 0 0 1 385.75169617 312.94850763l-84.16553589 21.88303934a679.21587456 679.21587456 0 0 0 391.79056954 390.52808648zM301.58616028 334.83154697l84.16553589-21.88303934a559.27998593 559.27998593 0 0 1-25.67048844-80.37808675l-81.21974213 21.88303933c5.80742198 27.26963363 13.3823202 54.11843957 22.72469468 80.37808676zM385.75169617 91.1723206V7.00678471h-37.87449114c-4.20827679 27.85879238-6.4386635 55.97008135-6.73324287 84.16553589zM256.97842628 91.1723206a695.20732637 695.20732637 0 0 1 5.89158752-84.16553589H91.1723206c0 28.19545451 0 56.39090904 3.78744911 84.16553589zM341.14396216 91.1723206c0.29457937-28.19545451 2.52496607-56.3067435 6.73324287-84.16553589h-84.16553589a695.20732637 695.20732637 0 0 0-5.8915875 84.16553589zM932.8276794 769.96736748v159.07286281c27.77462684 2.1041384 55.97008135 3.78744911 84.16553589 3.78744911v-168.33107176a695.20732637 695.20732637 0 0 1-84.16553589 5.47075984zM932.8276794 638.24830383v47.55352776a619.03751639 619.03751639 0 0 0 84.16553589-5.47075983v-42.08276793zM932.8276794 769.96736748a695.20732637 695.20732637 0 0 0 84.16553589-5.47075984v-84.16553588a619.03751639 619.03751639 0 0 1-84.16553589 6.73324288zM932.8276794 1013.20576618c27.77462684 2.1041384 55.97008135 3.78744911 84.16553589 3.78744911v-84.16553589c-28.19545451 0-56.39090904 0-84.16553589-3.78744911zM826.35827652 554.08276794l-81.64056982-21.88303933-29.45793756 110.67767969c26.13339889 10.35236092 53.0242876 18.81099726 80.37808678 25.24966076zM773.75481659 750.18846654l21.88303933-81.21974212a575.27143774 575.27143774 0 0 1-80.37808678-25.24966077l-21.88303932 81.6405698a740.65671575 740.65671575 0 0 0 80.37808677 24.82883309zM8.26926776 49.08955265L7.00678471 7.00678471h43.76607867v42.08276794" /></svg>