<?xml version="1.0" standalone="no"?><!DOCTYPE svg PUBLIC "-//W3C//DTD SVG 1.1//EN" "http://www.w3.org/Graphics/SVG/1.1/DTD/svg11.dtd"><svg class="icon" width="200px" height="200.00px" viewBox="0 0 1024 1024" version="1.1" xmlns="http://www.w3.org/2000/svg"><path d="M93.69681734 731.78529908l251.42222826-405.20368859 260.33869187 315.57672764 115.58377425-132.09574201L930.30318266 763.70843638V181.760645H93.69681734v550.02465408zM880.9213918 842.239355l-161.86131622-196.20620913-115.58377424 132.095742L355.2463865 477.25881985 128.81226807 842.239355h752.10912373zM1018.36701134 93.69681734v836.60636532H5.63298866V93.69681734h1012.73402268zM622.07978535 489.98404335a132.095742 132.095742 0 1 1 0-264.19148401 132.095742 132.095742 0 0 1 0 264.19148401z m0-88.0638287a44.03191434 44.03191434 0 1 0 0-88.06382765 44.03191434 44.03191434 0 0 0 0 88.06382765z" /></svg>