<?xml version="1.0" standalone="no"?><!DOCTYPE svg PUBLIC "-//W3C//DTD SVG 1.1//EN" "http://www.w3.org/Graphics/SVG/1.1/DTD/svg11.dtd"><svg class="icon" width="200px" height="200.00px" viewBox="0 0 1024 1024" version="1.1" xmlns="http://www.w3.org/2000/svg"><path d="M543.36 506.837333V275.562667l352.298667 238.677333-352.277334 238.72V521.642667l-341.333333 231.274666V275.562667l341.333333 231.274666zM512 1024C229.226667 1024 0 794.773333 0 512S229.226667 0 512 0s512 229.226667 512 512-229.226667 512-512 512z m0-85.333333c235.648 0 426.666667-191.018667 426.666667-426.666667S747.648 85.333333 512 85.333333 85.333333 276.352 85.333333 512s191.018667 426.666667 426.666667 426.666667zM287.36 436.458667v155.584l114.837333-77.802667-114.816-77.781333z m341.333333 0v155.584l114.837334-77.802667-114.816-77.781333z" /></svg>