<?xml version="1.0" standalone="no"?><!DOCTYPE svg PUBLIC "-//W3C//DTD SVG 1.1//EN" "http://www.w3.org/Graphics/SVG/1.1/DTD/svg11.dtd"><svg class="icon" width="200px" height="200.00px" viewBox="0 0 1024 1024" version="1.1" xmlns="http://www.w3.org/2000/svg"><path d="M362.666667 509.909333V298.666667h-85.333334v426.666666h85.333334v-197.866666l378.624 256.554666V253.376L362.666667 509.909333zM512 1024c282.773333 0 512-229.226667 512-512S794.773333 0 512 0 0 229.226667 0 512s229.226667 512 512 512z m0-85.333333C276.352 938.666667 85.333333 747.648 85.333333 512S276.352 85.333333 512 85.333333s426.666667 191.018667 426.666667 426.666667-191.018667 426.666667-426.666667 426.666667z m143.957333-524.394667v208.853333l-154.112-104.426666 154.112-104.426667z" /></svg>