<?xml version="1.0" standalone="no"?><!DOCTYPE svg PUBLIC "-//W3C//DTD SVG 1.1//EN" "http://www.w3.org/Graphics/SVG/1.1/DTD/svg11.dtd"><svg class="icon" width="200px" height="200.00px" viewBox="0 0 1024 1024" version="1.1" xmlns="http://www.w3.org/2000/svg"><path d="M66.313897 330.241508h288.277635c5.520684 0 9.972848-4.229556 9.972847-9.460849V9.463075a9.082415 9.082415 0 0 0-2.760341-6.633725 10.08415199 10.08415199 0 0 0-6.900855-2.827124h-49.129632a9.928326 9.928326 0 0 0-8.68172 4.741555l-40.603738 68.474286a8.347808 8.347808 0 0 0-1.313389 4.585729v139.152393a9.572153 9.572153 0 0 1-9.661196 9.460849h-179.199611a9.727979 9.727979 0 0 0-9.972847 9.48311v84.880511a9.86154401 9.86154401 0 0 0 9.972847 9.460849zM1004.407162 727.040646H19.677477c-5.186771 0.734607-8.94885 6.455638-8.503634 12.911276v51.88997401c-0.445216 6.455638 3.339123 12.176669 8.503634 12.91127599h984.751946c5.164511-0.734607 8.90432801-6.477899 8.39233-12.91127599v-51.88997401c0.511999-6.433377-3.227819-12.176669-8.39233-12.911276z m-136.414312 118.538872H412.313841a8.058417 8.058417 0 0 0-5.87685701 3.094254 10.106413 10.106413 0 0 0-2.13703899 6.834073v59.436392c-0.222608 5.20903199 3.339123 9.63893601 8.013896 9.928326h455.70127c4.652512-0.289391 8.23650401-4.697033 8.013896-9.906065v-59.458653a10.08415199 10.08415199 0 0 0-2.137039-6.85633299 8.036156 8.036156 0 0 0-5.876857-3.07199401z m0.133565 99.105176H412.313841c-4.674772 0.289391-8.23650401 4.719294-8.013896 9.928326v59.458654c-0.222608 5.20903199 3.36138401 9.616675 8.013896 9.906065h455.834835c4.585729-0.356173 8.102939-4.741555 7.902592-9.906065v-59.458654c0.200347-5.164511-3.316862-9.572153-7.902592-9.928326zM397.354569 320.112835h20.146043c27.514375 0 49.819718 23.97490399 49.819718 53.559535v330.306065c-0.089043 4.563468 3.316862 8.303286 7.546418 8.37006899H760.205954a7.457375 7.457375 0 0 0 6.121726-3.11651499 8.703981 8.703981 0 0 0 1.446953-7.123463l-85.192162-387.783505C656.448267 195.340932 557.632482 111.306332 443.946468 111.306332H397.354569a7.390593 7.390593 0 0 0-5.453901 2.337386 8.570416 8.570416 0 0 0-2.337386 5.787814v192.177669c-0.022261 2.226082 0.756868 4.363121 2.203821 5.9659a7.546418 7.546418 0 0 0 5.476162 2.537734h0.111304z" /></svg>