<?xml version="1.0" standalone="no"?><!DOCTYPE svg PUBLIC "-//W3C//DTD SVG 1.1//EN" "http://www.w3.org/Graphics/SVG/1.1/DTD/svg11.dtd"><svg class="icon" width="200px" height="200.00px" viewBox="0 0 1024 1024" version="1.1" xmlns="http://www.w3.org/2000/svg"><path d="M739.14786068 96.38609779c27.68260589 0 49.53729532-21.85468941 49.5372941-48.8088059a48.80880592 48.80880592 0 0 0-49.5372941-48.08031528c-27.68260589 0-49.53729532 21.85468941-49.53729532 48.08031528 0 26.95411646 22.58317882 48.80880592 49.53729532 48.8088059z m-582.79170721 446.56414477c44.43786704 0 80.13386003-34.96750235 80.13386004-79.4053694 0-42.98088827-35.69599176-78.67688001-80.13386004-78.67688121-44.43786704 0-80.13386003 34.96750235-80.13386002 78.67688121 0 43.70937764 35.69599176 79.40537065 80.13386002 79.4053694z m77.21990118 158.81074005c-89.6042247 0-162.45318824 70.66349412-162.45318825 158.81074s72.84896354 158.81074001 162.45318825 158.81074005 162.45318824-71.3919835 162.4531883-158.81074005c0-88.1472459-72.12047415-158.81074001-162.4531883-158.81074z m129.67115414-445.8356554c53.90823296 0 97.61761061-42.98088827 97.61761181-95.43214237S417.15544174 65.06104368 363.24720879 65.06104368c-53.90823296 0-97.61761061 42.98088827-97.61761059 95.43214116s43.70937764 95.43214238 97.61761059 95.43214237z m539.81081894 68.47802591c-24.04015763 0-42.25239882 18.21224122-42.25239883 41.52390821 0 23.31166824 18.94073062 41.52390941 42.25239883 41.52390945 23.31166824 0 42.25239882-18.21224122 42.25239887-41.52390945 0-23.31166824-18.94073062-41.52390941-42.25239887-41.52390821z m-343.84710714-67.02104711c-142.78396826 0-257.88533066 112.91589296-257.88533064 252.78590363 0 139.87000944 115.8298518 252.78590239 257.88533064 252.78590238 142.78396826 0 257.88533066-112.91589296 257.88533068-252.78590238 0-139.87000944-115.8298518-252.78590239-257.88533068-252.78590363z m276.09757062 503.38633659c-45.16635768 0.7284894-81.59083884 36.42448116-81.59083881 80.13386001 0 43.70937764 36.42448116 80.13386003 81.59083881 80.13386005 45.16635768 0 81.59083884-35.69599176 81.59083887-80.13386005 0-44.43786704-36.42448116-80.13386003-81.59083887-80.13386001z" /></svg>