<?xml version="1.0" standalone="no"?><!DOCTYPE svg PUBLIC "-//W3C//DTD SVG 1.1//EN" "http://www.w3.org/Graphics/SVG/1.1/DTD/svg11.dtd"><svg class="icon" width="200px" height="200.00px" viewBox="0 0 1024 1024" version="1.1" xmlns="http://www.w3.org/2000/svg"><path d="M265.47999082 842.41078591h330.05383387V395.5032974h-77.30360241v369.56396385H265.47999082zM755.56810966 8.13400172H188.01317679v282.92676986h77.3036024V85.47752638h426.37217802v211.10895686h210.36922069v640.56454303H265.31560501V699.29884613h-77.30360241v315.1957048H979.36060612V224.28373207zM678.96079859 406.31753547h145.42860557v75.4108172H678.96079859z m0 179.85803976h145.42860557v75.4108172H678.96079859z m0 179.85921394h145.42860557v75.40964301H678.96079859zM189.77327916 418.21671992H318.98757271v59.64386943H189.77327916zM454.17729053 699.29884613V291.06077158H46.14704661v408.23807455h408.03024392z m-269.82756899-153.76296625v93.82789909h-68.01815237V350.53790682h68.01815237v0.00352255H329.12078385c31.71119738 0 57.50920223 27.48648199 57.50920224 61.27246316v72.45069838c0 33.78598117-25.79800486 61.27246316-57.50920224 61.27246316H184.34972154zM329.11960966 545.53587988c31.71119738 0 57.50920223-27.48648199 57.50920225-61.27246315v-72.45069839c0-33.78598117-25.79800486-61.27246316-57.50920225-61.27246315H184.34972154v-0.00234837h-68.01815237v288.82469797h68.01815237V545.5347057H329.12078385zM189.77327916 418.21789411H318.98757271v59.64386943H189.77327916V418.21789411z" /></svg>