<?xml version="1.0" standalone="no"?><!DOCTYPE svg PUBLIC "-//W3C//DTD SVG 1.1//EN" "http://www.w3.org/Graphics/SVG/1.1/DTD/svg11.dtd"><svg class="icon" width="200px" height="200.00px" viewBox="0 0 1024 1024" version="1.1" xmlns="http://www.w3.org/2000/svg"><path d="M512 0C794.773333 0 1024 229.226667 1024 512S794.773333 1024 512 1024s-512-229.226667-512-512 229.226667-512 512-512z m0 85.333333c-235.648 0-426.666667 191.018667-426.666667 426.666667S276.352 938.666667 512 938.666667 938.666667 747.648 938.666667 512s-191.018667-426.666667-426.666667-426.666667z m143.957333 524.394667l-154.11200001-104.426667 154.11200001-104.426666 0 208.853333zM362.666667 514.090667L741.290667 770.624 741.290667 240 362.666667 496.533333 362.666667 298.666667l-85.333334 0L277.333333 725.333333l85.333334 0 0-211.242666z" /></svg>