<?xml version="1.0" standalone="no"?><!DOCTYPE svg PUBLIC "-//W3C//DTD SVG 1.1//EN" "http://www.w3.org/Graphics/SVG/1.1/DTD/svg11.dtd"><svg class="icon" width="200px" height="200.00px" viewBox="0 0 1024 1024" version="1.1" xmlns="http://www.w3.org/2000/svg"><path d="M-2.90664297 483.53917155h62.61357986q25.04567467 0 40.41386666-4.55353837t30.16961897-17.07576888l18.21415348-18.21536712q11.38384592-11.38384592 23.90729008-26.18405926t25.61486695-30.16840533 24.47648238-29.03002074q22.76769185-28.46204208 40.98427259-22.19971318t27.32244385 26.75325155L340.90249482 500.61615408q38.70628978-108.15139082 68.30550281-195.81064533 12.52223052-37.56790518 25.04446104-73.42944712t22.76769185-66.02873363 17.07576889-50.09134933 7.96990577-25.61486697q5.69192297-19.3537517 17.0757689-31.30678992t25.04567467-11.95425186q14.80021333 0 30.73759762 8.53788445t20.4921363 34.72194371q1.13838459 6.83030755 4.55353836 36.42952059t9.10829038 73.99863941 11.95425184 98.47390814 13.0902092 109.85775408q14.80021333 130.9202963 34.15396503 292.57819022 25.04567467-81.96733155 45.53781097-149.13444977 7.96869215-28.46204208 16.50657658-56.35367823t15.93859794-51.2285203 11.95425185-39.27548207 6.83030755-20.4921363q5.69192297-18.21536711 13.66182874-27.32244385t21.63052089-12.52344415q26.18405925-6.83030755 39.27548208 7.39949985t13.09142281 29.03002075q0 12.52344415-2.27798281 21.63052088-1.13838459 4.55353837-1.1383846 7.96990578l40.9842726 111.56654459q1.13838459-1.13838459 3.41515377-4.55353837 3.41394015-5.69192297 11.38384593-23.90607644 9.10829037-19.3537517 30.16840533-25.61608059t40.41386667-5.12273067q12.52344415 1.13838459 25.04567467 1.13838459h52.36811852v86.52086993q-6.83030755 1.13959822-13.66182875 1.13959822H989.80598518q-15.93859792-1.13959822-29.59921303 8.53788445t-19.3537517 18.7845594q-4.55353837 9.10707675-15.93859793 35.29234963t-20.4921363 53.50650312q-4.55232475 13.66061511-14.7989997 18.21415348t-21.0613286 3.98434607-20.49213629-6.26232889-13.09142281-13.66061511-11.38384593-27.89163615-15.93859792-40.41386667q-10.24546133-23.90729008-20.4921363-51.22973392-29.59799941 94.48956208-53.50650312 174.18012444-10.24546133 34.15396503-20.4921363 67.16833186t-18.7845594 60.90600295-14.2298074 47.24538786-6.83030756 26.18405926q-5.69192297 27.32244385-21.63052089 43.25982815t-38.70750341 14.80021333q-23.90607645-2.27798282-34.15275141-20.4921363t-12.52344415-42.12144355q0-5.69192297-2.84596148-35.29234963t-7.39949985-75.13581037-9.67626903-101.32108326-10.81465364-113.84210015q-12.52344415-135.47383467-29.59921303-302.82243792-31.87598222 93.35239111-56.92165689 167.34860325-10.24546133 31.87598222-21.06011496 62.61357985t-19.3537517 55.7832723-14.22980742 42.12144356l-6.83030755 20.49213629q-5.69192297 14.7989997-15.36940563 27.32244385t-30.16840533 11.38384593q-20.4921363 0-30.73759763-14.2298074t-15.93859792-32.44517453q-3.41515378-9.10829037-12.52223052-35.29234963t-19.3537517-53.5065031q-12.52223052-31.87598222-26.18405927-70.582272-7.96869215 10.24546133-17.07576889 20.49213629-7.96990578 9.10707675-17.07576889 19.92173037t-18.21536711 21.0613286q-18.21415348 21.63052089-34.15275141 29.5979994t-37.56790518 5.69192297q-11.38384592-1.13838459-30.16961897-0.56797867t-38.13709748 0.56797867q-21.63052089 1.13838459-47.81458014 1.13838458V483.54038518z" /></svg>