<?xml version="1.0" standalone="no"?><!DOCTYPE svg PUBLIC "-//W3C//DTD SVG 1.1//EN" "http://www.w3.org/Graphics/SVG/1.1/DTD/svg11.dtd"><svg class="icon" width="200px" height="200.00px" viewBox="0 0 1024 1024" version="1.1" xmlns="http://www.w3.org/2000/svg"><path d="M932.210526 188.631579H96.842105v619.789474h835.368421V188.631579z m80.842106-80.842105v781.473684H16V107.789474h997.052632zM352.842105 485.052632a67.368421 67.368421 0 1 1 0-134.736843 67.368421 67.368421 0 0 1 0 134.736843zM285.473684 660.210526H204.631579a148.210526 148.210526 0 0 1 296.421053 0h-80.842106a67.368421 67.368421 0 1 0-134.736842 0zM608.842105 458.105263v-80.842105h215.578948v80.842105h-215.578948z m0 188.631579v-80.842105h215.578948v80.842105h-215.578948z" /></svg>