<?xml version="1.0" standalone="no"?><!DOCTYPE svg PUBLIC "-//W3C//DTD SVG 1.1//EN" "http://www.w3.org/Graphics/SVG/1.1/DTD/svg11.dtd"><svg t="1659761032540" class="icon" viewBox="0 0 1024 1024" version="1.1" xmlns="http://www.w3.org/2000/svg" p-id="13296" xmlns:xlink="http://www.w3.org/1999/xlink" width="200" height="200"><defs><style type="text/css">@font-face { font-family: feedback-iconfont; src: url("//at.alicdn.com/t/font_1031158_u69w8yhxdu.woff2?t=1630033759944") format("woff2"), url("//at.alicdn.com/t/font_1031158_u69w8yhxdu.woff?t=1630033759944") format("woff"), url("//at.alicdn.com/t/font_1031158_u69w8yhxdu.ttf?t=1630033759944") format("truetype"); }
</style></defs><path d="M444.44444445 300.37333333h81.92v209.35111112h125.15555556v81.92H444.44444445V300.37333333z m570.83676444-115.39569778l-70.11214222 218.40782223-238.70577778-84.44131556 27.24067556-77.02755555 104.58908444 37.00053333A407.48145778 407.48145778 0 0 0 501.33333334 102.4c-225.85344 0-409.6 183.74656-409.6 409.6s183.74656 409.6 409.6 409.6 409.6-183.74656 409.6-409.6h81.92a491.52 491.52 0 0 1-839.07697778 347.55697778 491.56096 491.56096 0 0 1 608.88177778-763.92220445 493.23576889 493.23576889 0 0 1 148.80540445 145.48992l26.03918222-81.12355555z" p-id="13297"></path></svg>