<?xml version="1.0" standalone="no"?><!DOCTYPE svg PUBLIC "-//W3C//DTD SVG 1.1//EN" "http://www.w3.org/Graphics/SVG/1.1/DTD/svg11.dtd"><svg class="icon" width="200px" height="200.00px" viewBox="0 0 1024 1024" version="1.1" xmlns="http://www.w3.org/2000/svg"><path d="M983.36711111 7.13007408v1009.73985184H51.29955555v-1009.73985184h932.06755556z m-77.6722963 77.67229629H128.97185185v854.39525926h776.72296296v-854.39525926zM361.98874074 745.01688889a58.25422222 58.25422222 0 1 1-116.50844444 0A58.25422222 58.25422222 0 0 1 361.98874074 745.01688889z m427.19762962-38.83614814v77.67229628H439.66103703v-77.67229628h349.52533333zM361.98874074 512a58.25422222 58.25422222 0 1 1-116.50844444 0A58.25422222 58.25422222 0 0 1 361.98874074 512z m427.19762962-38.83614815v77.6722963H439.66103703v-77.6722963h349.52533333zM361.98874074 278.98311111a58.25422222 58.25422222 0 1 1-116.50844444 0A58.25422222 58.25422222 0 0 1 361.98874074 278.98311111z m427.19762962-38.83614814v77.67229628H439.66103703v-77.67229628h349.52533333z" /></svg>