<?xml version="1.0" standalone="no"?><!DOCTYPE svg PUBLIC "-//W3C//DTD SVG 1.1//EN" "http://www.w3.org/Graphics/SVG/1.1/DTD/svg11.dtd"><svg class="icon" width="200px" height="200.00px" viewBox="0 0 1024 1024" version="1.1" xmlns="http://www.w3.org/2000/svg"><path d="M333.8066136 849.33108285c-155.73489468 0-277.32834484-16.90058216-283.33996134-17.69456924-23.59275899-3.28937506-39.92620751-25.18073316-36.63683246-48.66006542s25.18073316-39.92620751 48.66006543-36.63683246c2.26853451 0.34028017 172.86233028 23.93303917 363.07894962 14.74547437 168.43868798-8.05329754 387.12541553-43.66928948 475.25798156-167.19099398l0.90741381-1.36112073c17.46771577-26.54185387 26.65528059-57.39392331 26.6552806-89.26683329 0-89.60711346-72.81995803-162.4270715-162.42707151-162.42707151s-162.4270715 72.81995803-162.4270715 162.42707151c0 23.81961243-19.2825434 43.10215583-43.10215584 43.10215586s-43.10215583-19.2825434-43.10215587-43.10215586c0-66.46806137 25.8612935-128.85276063 72.81995804-175.81142516 46.95866453-46.95866453 109.34336378-72.81995803 175.81142517-72.81995802s128.85276063 25.8612935 175.81142515 72.81995802 72.81995803 109.34336378 72.81995804 175.81142516c0 46.84523781-13.04407347 92.32935489-37.77109975 131.8018555l-0.34028015 1.02084054-3.5162285 4.99077594C924.53300213 710.8370505 843.88660001 763.80733153 733.52239569 798.62933636c-84.38948409 26.65528059-187.04067103 42.98872912-305.00446596 48.54663869-32.44004361 1.47454744-64.19952686 2.1551078-94.71131613 2.1551078zM207.10896075 716.28153337c-58.07448366 0-112.06560519-6.57875011-147.68159711-10.77553896-4.53706903-0.56713363-8.7338579-1.02084052-12.70379332-1.47454744-23.59275899-2.83566814-40.60676788-24.27331934-37.77109972-47.86607834 2.72224141-23.59275899 24.15989262-40.60676788 47.75265159-37.77109972 3.96993541 0.4537069 8.280151 1.02084052 13.04407349 1.58797415 74.52135892 8.96071135 271.43015509 32.78032379 329.61806549-51.722587l1.58797416-2.49538797c4.7639225-7.14588372 7.25931045-15.53946146 7.25931046-24.15989263 0-24.27331934-19.73625031-44.00956966-44.00956966-44.00956965s-44.00956966 19.73625031-44.00956963 44.00956965c0 23.81961243-19.2825434 43.10215583-43.10215587 43.10215584s-43.10215583-19.2825434-43.10215584-43.10215584c0-71.7991175 58.41476386-130.21388135 130.21388134-130.21388134S494.41885748 469.69183123 494.41885748 541.49094874c0 23.47933227-6.23846992 46.27810417-18.14827614 66.35463465l-0.11342672 0.34028018-2.94909489 4.65049575c-38.11137989 58.86847076-109.34336378 92.89648852-211.88112399 101.29006626-18.26170287 1.47454744-36.40997902 2.1551078-54.21797499 2.15510779zM143.36314079 534.91219863m-31.75948325 0a31.75948326 31.75948326 0 1 0 63.51896651 0 31.75948326 31.75948326 0 1 0-63.51896651 0ZM809.51830206 167.29617995m-44.57670328 0a44.57670328 44.57670328 0 1 0 89.15340656 0 44.57670328 44.57670328 0 1 0-89.15340656 0ZM362.16329508 266.77141858m-67.48890194 0a67.48890191 67.48890191 0 1 0 134.97780385 0 67.48890191 67.48890191 0 1 0-134.97780385 0ZM874.62524273 854.09500534m-43.66928949 0a43.66928948 43.66928948 0 1 0 87.33857897 0 43.66928948 43.66928948 0 1 0-87.33857897 0ZM557.14383691 216.97708592m-29.71780219 0a29.71780219 29.71780219 0 1 0 59.43560438 0 29.71780219 29.71780219 0 1 0-59.43560438 0ZM969.56341232 732.72840861m-29.71780219 0a29.71780219 29.71780219 0 1 0 59.43560438 0 29.71780219 29.71780219 0 1 0-59.43560438 0ZM769.4786678 548.86368593m-40.60676786 0a40.60676788 40.60676788 0 1 0 81.21353575 0 40.60676788 40.60676788 0 1 0-81.21353575 0ZM516.65049576 673.17937752m-29.71780217 0a29.71780219 29.71780219 0 1 0 59.43560437 0 29.71780219 29.71780219 0 1 0-59.43560437 0Z" /></svg>