<?xml version="1.0" standalone="no"?><!DOCTYPE svg PUBLIC "-//W3C//DTD SVG 1.1//EN" "http://www.w3.org/Graphics/SVG/1.1/DTD/svg11.dtd"><svg class="icon" width="200px" height="200.00px" viewBox="0 0 1024 1024" version="1.1" xmlns="http://www.w3.org/2000/svg"><path d="M510.40711111 118.32888889c-23.89333333 0-43.23555555-19.34222222-43.23555556-43.23555556V47.104c0-23.89333333 19.34222222-43.23555555 43.23555556-43.23555555s43.23555555 19.34222222 43.23555556 43.23555555v27.98933333c0 23.89333333-19.34222222 43.23555555-43.23555556 43.23555556zM201.15911111 246.44266667c-11.03644445 0-22.18666667-4.20977778-30.60622222-12.62933334L150.75555555 214.016c-16.83911111-16.83911111-16.83911111-44.25955555 0-61.09866667s44.25955555-16.83911111 61.09866667 0l19.79733333 19.79733334c16.83911111 16.83911111 16.83911111 44.25955555 0 61.09866666-8.30577778 8.41955555-19.456 12.62933333-30.49244444 12.62933334zM73.04533333 555.69066667h-27.98933333c-23.89333333 0-43.23555555-19.34222222-43.23555555-43.23555556s19.34222222-43.23555555 43.23555555-43.23555556h27.98933333c23.89333333 0 43.23555555 19.34222222 43.23555556 43.23555556s-19.34222222 43.23555555-43.23555556 43.23555556zM181.36177778 884.736c-11.03644445 0-22.07288889-4.20977778-30.60622223-12.62933333-16.83911111-16.83911111-16.83911111-44.25955555 0-61.09866667l19.79733334-19.79733333c16.83911111-16.83911111 44.25955555-16.83911111 61.09866666 0 16.83911111 16.83911111 16.83911111 44.25955555 0 61.09866666l-19.79733333 19.79733334c-8.30577778 8.41955555-19.456 12.62933333-30.49244444 12.62933333zM510.40711111 1021.04177778c-23.89333333 0-43.23555555-19.34222222-43.23555556-43.23555556v-27.98933333c0-23.89333333 19.34222222-43.23555555 43.23555556-43.23555556s43.23555555 19.34222222 43.23555556 43.23555556v27.98933333c0 23.89333333-19.34222222 43.23555555-43.23555556 43.23555556zM839.45244445 884.736c-11.03644445 0-22.18666667-4.20977778-30.60622223-12.62933333L789.04888889 852.30933333c-16.83911111-16.83911111-16.83911111-44.25955555 0-61.09866666 16.83911111-16.83911111 44.25955555-16.83911111 61.09866666 0l19.79733334 19.79733333c16.83911111 16.83911111 16.83911111 44.25955555 0 61.09866667-8.30577778 8.41955555-19.456 12.62933333-30.49244444 12.62933333zM975.75822222 555.69066667H947.76888889c-23.89333333 0-43.23555555-19.34222222-43.23555556-43.23555556s19.34222222-43.23555555 43.23555556-43.23555556h27.98933333c23.89333333 0 43.23555555 19.34222222 43.23555556 43.23555556s-19.34222222 43.23555555-43.23555556 43.23555556zM819.65511111 246.44266667c-11.03644445 0-22.07288889-4.20977778-30.60622222-12.62933334-16.83911111-16.83911111-16.83911111-44.25955555 0-61.09866666l19.79733333-19.79733334c16.83911111-16.83911111 44.25955555-16.83911111 61.09866667 0 16.83911111 16.83911111 16.83911111 44.25955555 0 61.09866667l-19.79733334 19.79733333c-8.30577778 8.41955555-19.456 12.62933333-30.49244444 12.62933334zM521.32977778 859.59111111c-89.88444445 0-174.30755555-34.92977778-237.79555556-98.53155556-63.488-63.488-98.53155555-148.02488889-98.53155555-237.79555555 0-89.88444445 34.92977778-174.30755555 98.53155555-237.79555555 63.488-63.488 148.02488889-98.53155555 237.79555556-98.53155556 89.88444445 0 174.30755555 34.92977778 237.79555555 98.53155556 63.488 63.488 98.53155555 148.02488889 98.53155556 237.79555555 0 89.88444445-34.92977778 174.30755555-98.53155556 237.79555555-63.488 63.488-147.91111111 98.53155555-237.79555555 98.53155556z m0-586.18311111c-137.78488889 0-249.856 112.07111111-249.856 249.856s112.07111111 249.856 249.856 249.856 249.856-112.07111111 249.856-249.856-112.07111111-249.856-249.856-249.856z" /></svg>