<?xml version="1.0" standalone="no"?><!DOCTYPE svg PUBLIC "-//W3C//DTD SVG 1.1//EN" "http://www.w3.org/Graphics/SVG/1.1/DTD/svg11.dtd"><svg class="icon" width="200px" height="200.00px" viewBox="0 0 1024 1024" version="1.1" xmlns="http://www.w3.org/2000/svg"><path d="M461.02357333 817.83466666h101.94090667v-101.94090666h-101.94090667V817.83466666zM512 2.27157333C230.63210667 2.27157333 2.27157333 230.63210667 2.27157333 512S230.63210667 1021.72842667 512 1021.72842667 1021.72842667 793.36789333 1021.72842667 512 793.36789333 2.27157333 512 2.27157333z m0 917.504c-224.78848 0-407.77557333-182.98709333-407.77557333-407.77557333S287.21152 104.22442667 512 104.22442667 919.77557333 287.21152 919.77557333 512 736.78848 919.77557333 512 919.77557333zM512 206.16533334c-112.64512 0-203.89376 91.23669334-203.89376 203.89375999h101.94090667c0-56.06570667 45.8752-101.94090667 101.94090666-101.94090666s101.94090667 45.8752 101.94090667 101.94090666c0 101.94090667-152.91733333 89.20576001-152.91733333 254.85824h101.94090666c0-114.68800001 152.91733333-127.43509333 152.91733334-254.85824C715.89376 297.40202667 624.64512 206.16533334 512 206.16533334z" /></svg>