<?xml version="1.0" standalone="no"?><!DOCTYPE svg PUBLIC "-//W3C//DTD SVG 1.1//EN" "http://www.w3.org/Graphics/SVG/1.1/DTD/svg11.dtd"><svg class="icon" width="200px" height="200.00px" viewBox="0 0 1024 1024" version="1.1" xmlns="http://www.w3.org/2000/svg"><path d="M343.33720403 905.54090179c0-62.03417636 50.34584459-112.43061979 112.44748606-112.43061977s112.44748605 50.39644343 112.44748606 112.43061977a112.44748605 112.44748605 0 0 1-224.89497212 0zM849.32559192 287.12189415C849.32559192 131.85092419 673.08983642 6.01161214 455.78469009 6.01161214 345.59728552 6.01161214 246.10310216 38.46233407 174.67440808 90.56227176l57.10922271 98.9375961c49.56999572-40.73206523 127.86326562-71.04076967 224.0010593-71.04076965 165.6437319 0 281.11028202 88.88529346 281.11028203 168.66279594 0 79.7606362-115.46655011 168.66279597-281.11028203 168.66279594h-56.21530988V680.66279597H512v-115.61834663c190.63955826-19.56488433 337.32559192-136.38073681 337.32559192-277.92255519z" /></svg>