<?xml version="1.0" standalone="no"?><!DOCTYPE svg PUBLIC "-//W3C//DTD SVG 1.1//EN" "http://www.w3.org/Graphics/SVG/1.1/DTD/svg11.dtd"><svg class="icon" width="200px" height="171.96px" viewBox="0 0 1191 1024" version="1.1" xmlns="http://www.w3.org/2000/svg"><path d="M599.630438 0.002176a571.500331 571.500331 0 0 0-226.677284 46.260404q-107.984368 46.208295-186.29225 124.477095-78.164581 78.164581-124.320766 186.565826A572.881239 572.881239 0 0 0 16.001569 584.347553q0 121.415649 46.898749 229.608456A584.189048 584.189048 0 0 0 193.174619 1003.114294h812.911638q83.4928-80.952451 130.274301-189.158285t46.898749-229.608456a573.206925 573.206925 0 0 0-46.23435-227.029024q-46.13013-108.12767-124.359847-186.578854Q934.617776 92.496929 826.307722 46.26258A570.783823 570.783823 0 0 0 599.630438 0.002176z m371.281758 919.736565H228.34868Q99.377122 777.322875 99.377122 584.41269q0-135.60252 67.11732-251.103715t182.384021-182.683653Q464.145165 83.651304 599.630438 83.534057t250.817112 67.091265q115.214592 67.299704 182.384021 182.683653t67.143375 251.103715Q1099.883754 777.427095 970.912196 919.738741zM247.889825 560.898179l-105.522184-19.541145 10.421944-58.623436 105.522184 19.541145z m693.059282-58.740683l105.522184-19.541145 10.421944 58.623436-105.522184 19.710502-10.421944-58.740683zM349.50378 333.934291l-69.04538-82.242166 45.596006-37.779547 68.915105 82.164002z m500.253316 0l-45.596005-37.857711 69.045379-82.164002 45.596006 37.779547-69.04538 82.242166zM569.667349 125.065505h59.926178v106.824926h-59.926178z m32.568575 461.900561L422.457389 386.109149l100.311211 245.267427q-25.976696 46.898748 1.302743 92.585945 19.423898 31.343997 56.01795 39.772745c24.244047 5.57574 46.898748 1.745676 67.742636-11.724688s34.053702-32.164725 39.74669-56.135196S689.519706 649.549841 676.492276 628.640815q-26.05486-40.385033-74.256352-41.687776z" /></svg>