<?xml version="1.0" standalone="no"?><!DOCTYPE svg PUBLIC "-//W3C//DTD SVG 1.1//EN" "http://www.w3.org/Graphics/SVG/1.1/DTD/svg11.dtd"><svg class="icon" width="200px" height="200.00px" viewBox="0 0 1024 1024" version="1.1" xmlns="http://www.w3.org/2000/svg"><path d="M5.63298866 512C5.63298866 232.33129857 232.30928193 5.63298866 512 5.63298866c279.66870143 0 506.36701134 226.67629327 506.36701134 506.36701134 0 279.66870143-226.67629327 506.36701134-506.36701134 506.36701134C232.33129857 1018.36701134 5.63298866 791.69071807 5.63298866 512z m88.06382868 0c0 231.05746837 187.2677299 418.30318266 418.30318266 418.30318266 231.05746837 0 418.30318266-187.2677299 418.30318266-418.30318266 0-231.05746837-187.2677299-418.30318266-418.30318266-418.30318266C280.94253163 93.69681734 93.69681734 280.96454724 93.69681734 512z m638.46275232-44.03191434v88.06382868H291.84043034v-88.06382868h440.31913932z" /></svg>