<?xml version="1.0" standalone="no"?><!DOCTYPE svg PUBLIC "-//W3C//DTD SVG 1.1//EN" "http://www.w3.org/Graphics/SVG/1.1/DTD/svg11.dtd"><svg class="icon" width="200px" height="200.00px" viewBox="0 0 1024 1024" version="1.1" xmlns="http://www.w3.org/2000/svg"><path d="M899.44392535 345.97422413l-70.43694734 40.71499846A363.42207626 363.42207626 0 0 1 878.43498614 569.66242567c0 202.06853736-164.36644879 366.43498614-366.43498614 366.43498616-135.33665489 0-253.53229542-73.9791522-316.96626302-183.42106807A363.70708125 363.70708125 0 0 1 145.56501386 569.66242567c0-202.06853736 164.40716378-366.43498614 366.43498614-366.43498614v122.14499538l244.28999077-162.85999384-244.28999077-162.85999384v122.14499538C265.06353433 121.79744261 64.13501693 322.68524501 64.13501693 569.66242567c0 81.51142692 22.27110415 157.77061903 60.46177272 223.68820156C202.1588617 927.14011216 346.57496126 1017.52740875 512 1017.52740875c246.97718066 0 447.86498307-200.9285174 447.86498307-447.86498308 0-81.51142692-22.23038916-157.77061903-60.42105772-223.68820154" /></svg>