<?xml version="1.0" standalone="no"?><!DOCTYPE svg PUBLIC "-//W3C//DTD SVG 1.1//EN" "http://www.w3.org/Graphics/SVG/1.1/DTD/svg11.dtd"><svg t="1688488153546" class="icon" viewBox="0 0 1024 1024" version="1.1" xmlns="http://www.w3.org/2000/svg" p-id="28994" xmlns:xlink="http://www.w3.org/1999/xlink" width="200" height="200"><path d="M102.4 512c0-225.28 184.32-409.6 409.6-409.6 143.36 0 275.34222187 72.81777813 350.4355552 197.97333333l59.1644448-36.40888853C832.85333333 120.6044448 680.39111147 34.13333333 512 34.13333333 248.0355552 34.13333333 34.13333333 248.0355552 34.13333333 512H0l68.26666667 113.77777813 68.26666666-113.77777813H102.4zM955.73333333 398.22222187l-68.26666666 113.77777813H921.6c0 225.28-184.32 409.6-409.6 409.6-143.36 0-275.34222187-72.81777813-350.4355552-197.97333333L102.4 760.0355552C191.14666667 903.3955552 343.60888853 989.86666667 512 989.86666667c263.9644448 0 477.86666667-213.90222187 477.86666667-477.86666667h34.13333333l-68.26666667-113.77777813z" p-id="28995"></path><path d="M614.4 580.26666667H694.0444448v68.26666666h-79.6444448z" p-id="28996"></path><path d="M694.0444448 443.73333333h-141.0844448l111.50222187-111.50222186-47.78666667-50.06222294-104.6755552 104.67555627-104.6755552-104.67555627-47.78666667 50.06222294 111.50222187 111.50222186H329.9555552v68.26666667h147.91111147v68.26666667H329.9555552v68.26666666h147.91111147v91.02222187h68.26666666V512H694.0444448z" p-id="28997"></path></svg>