<?xml version="1.0" standalone="no"?><!DOCTYPE svg PUBLIC "-//W3C//DTD SVG 1.1//EN" "http://www.w3.org/Graphics/SVG/1.1/DTD/svg11.dtd"><svg class="icon" width="200px" height="200.00px" viewBox="0 0 1024 1024" version="1.1" xmlns="http://www.w3.org/2000/svg"><path d="M279.38461569 744.61538431h465.23076862V395.69230784c0-128.46184608-104.15353823-232.61538431-232.61538431-232.61538431S279.38461569 267.23046177 279.38461569 395.69230784v348.92307647z m542.76923039 0h38.76923039v77.53846177H163.07692353v-77.53846177h38.76923039V395.69230784C201.84615392 244.27907647 310.34184608 118.20153823 453.84615392 90.96615392V8h116.30769216v82.96615392C713.65815392 118.22092353 822.15384608 244.29846177 822.15384608 395.69230784v348.92307647z m-387.69230785 116.30769216a77.53846177 77.53846177 0 1 0 155.07692354 0h77.53846176a155.07692353 155.07692353 0 1 1-310.15384706 0h77.53846176z m155.07692354-484.61538431v290.76923137h77.53846176V376.30769216h-77.53846176z" /></svg>