<?xml version="1.0" standalone="no"?><!DOCTYPE svg PUBLIC "-//W3C//DTD SVG 1.1//EN" "http://www.w3.org/Graphics/SVG/1.1/DTD/svg11.dtd"><svg class="icon" width="200px" height="200.00px" viewBox="0 0 1024 1024" version="1.1" xmlns="http://www.w3.org/2000/svg"><path d="M572.330667 512l135.765333 135.765333-60.330667 60.330667L512 572.330667l-135.765333 135.765333-60.330667-60.330667L451.669333 512l-135.765333-135.765333 60.330667-60.330667L512 451.669333l135.765333-135.765333 60.330667 60.330667L572.330667 512zM21.333333 512C21.333333 241.002667 240.981333 21.333333 512 21.333333c270.997333 0 490.666667 219.648 490.666667 490.666667 0 270.997333-219.648 490.666667-490.666667 490.666667C241.002667 1002.666667 21.333333 783.018667 21.333333 512z m85.333334 0c0 223.893333 181.461333 405.333333 405.333333 405.333333 223.893333 0 405.333333-181.461333 405.333333-405.333333 0-223.893333-181.461333-405.333333-405.333333-405.333333C288.106667 106.666667 106.666667 288.128 106.666667 512z" /></svg>