<?xml version="1.0" standalone="no"?><!DOCTYPE svg PUBLIC "-//W3C//DTD SVG 1.1//EN" "http://www.w3.org/Graphics/SVG/1.1/DTD/svg11.dtd"><svg class="icon" width="200px" height="200.00px" viewBox="0 0 1024 1024" version="1.1" xmlns="http://www.w3.org/2000/svg"><path d="M476.21533339 940.30809273c-256.69534222-16.67565464-453.27244343-211.96450896-453.27244343-467.34774601C22.94288996 205.81588185 238.00873631 4.41977813 512 4.41977813c276.99717568 0 489.05711004 195.95683439 489.05711004 468.54056859 0 237.61018632-161.77054918 415.19755815-476.6756154 531.23530452l-48.16616125 17.72533744v-81.58903987z m71.56933322-22.01949856c256.88619305-105.68404912 381.7031102-253.66557305 381.70311021-445.32824745C929.48777682 241.21884572 750.68372632 75.98911137 512 75.98911137c-235.46310634 0-417.48777682 170.45429569-417.48777682 396.97123535 0 226.49308361 182.02467048 396.97123537 417.48777682 396.97123538h35.78466661v48.35701207zM274.86694293 642.48424107c58.18586792 46.80634393 138.72522387 73.52556131 224.48914116 73.52556131 87.07602247 0 168.78434383-27.5541933 227.11335153-75.62492915a35.78466661 35.78466661 0 1 0-45.54195313-55.22766807c-45.08867994 37.19219722-110.6223331 59.28326399-181.54754121 59.28326399-69.89938249 0-134.55034647-21.4469439-179.63902642-57.73259585a35.78466661 35.78466661 0 0 0-44.87397193 55.77636777z" /></svg>