<?xml version="1.0" standalone="no"?><!DOCTYPE svg PUBLIC "-//W3C//DTD SVG 1.1//EN" "http://www.w3.org/Graphics/SVG/1.1/DTD/svg11.dtd"><svg t="1626519758207" class="icon" viewBox="0 0 1266 1024" version="1.1" xmlns="http://www.w3.org/2000/svg" p-id="23897" xmlns:xlink="http://www.w3.org/1999/xlink" width="247.265625" height="200"><defs><style type="text/css"></style></defs><path d="M913.660512 443.297039L474.753353 70.480459 35.846194 443.297039l-35.549944-40.397665L474.753353-0.026932l474.457104 403.007101zM190.515386 551.481984H136.193993v-258.545053h54.321393v258.545053z m633.13913 0h-54.321393v-258.545053h54.321393v258.545053zM507.313871 962.083846h-149.821472v-53.297985h149.821472v53.297985z m309.44611 0h-133.904792v-53.297985h79.583399V570.549682H84.835095v338.236179h91.945085v53.297985h-146.239546V517.224765h786.219347v444.859081z m-546.71506 61.943086a121.354584 121.354584 0 1 1 123.616854-121.192994 122.620378 122.620378 0 0 1-123.643785 121.112198z m0-189.330388A68.029667 68.029667 0 1 0 339.340382 902.537689a68.729893 68.729893 0 0 0-69.322392-67.92194z m324.096997 189.330388a121.354584 121.354584 0 1 1 123.616853-121.192994 122.620378 122.620378 0 0 1-123.643785 121.112198z m0-189.330388a68.029667 68.029667 0 1 0 69.29546 67.841145 68.729893 68.729893 0 0 0-69.322392-67.92194z m416.688443 189.330388a121.354584 121.354584 0 1 1 123.616854-121.192994 122.620378 122.620378 0 0 1-123.643785 121.112198z m0-189.330388a68.029667 68.029667 0 1 0 69.295461 67.841145 68.729893 68.729893 0 0 0-69.322392-67.92194z m254.828468 96.631214h-135.816948v-53.405713h81.468623v-106.622902h-108.615854V584.742728h-325.874493v-53.324917H1156.989112v186.583346h108.642785v213.218874z m-380.222818 0h-108.642786v-53.405713h108.642786v53.297986z m-172.040188-469.340067h-54.321392v-156.042712h54.321392v156.042712z m-88.309294 1.346589h-130.349798V304.652254h130.349798v158.73589z m-76.001473-53.297985h21.707012v-52.112987h-21.733944v52.112987z m-93.668718 51.978328h-54.348325v-156.069644h54.321393v156.042712z m-88.309295 1.346589H236.703382V304.652254h130.349798v158.73589z m-76.028404-53.297985h21.707011v-52.139919h-21.760875v52.112987z" p-id="23898"></path></svg>