<?xml version="1.0" standalone="no"?><!DOCTYPE svg PUBLIC "-//W3C//DTD SVG 1.1//EN" "http://www.w3.org/Graphics/SVG/1.1/DTD/svg11.dtd"><svg t="1713004890873" class="icon" viewBox="0 0 1024 1024" version="1.1" xmlns="http://www.w3.org/2000/svg" p-id="33785" xmlns:xlink="http://www.w3.org/1999/xlink" width="200" height="200"><path d="M271.39071781 257.52529348h113.60211624v79.52148137h-113.60211624zM271.39071781 401.57277688h113.60211624v79.52148136h-113.60211624zM271.39071781 545.73386239h113.60211624v79.52148137h-113.60211624zM753.51809913 508.92677673h90.88169299v50.89374807h-90.88169299zM753.51809913 604.46615648h90.88169299v50.89374809h-90.88169299zM753.51809913 699.89193413h90.88169299v50.89374808h-90.88169299z" p-id="33786"></path><path d="M658.8875363 288.87947757V102.11759846h-0.11360212v-64.75320626l-655.48421071 78.83986868v79.52148138h0.22720424v710.80844132H3.06251923v68.16126974h1018.32936999V391.12138218l-362.50435292-102.24190461z m0 113.60211625l282.98287156 68.16126973v424.41750629h-97.47061574v-103.03711944h-90.88169299v103.03711944h-94.63056283V402.48159382z m-575.84912722-195.39563994l496.32764585-56.11944543v744.09386139H384.99283405v-193.12359763h-113.60211624v193.12359763H83.03840908V207.08595388z" p-id="33787"></path></svg>