<?xml version="1.0" standalone="no"?><!DOCTYPE svg PUBLIC "-//W3C//DTD SVG 1.1//EN" "http://www.w3.org/Graphics/SVG/1.1/DTD/svg11.dtd"><svg class="icon" width="200px" height="200.00px" viewBox="0 0 1024 1024" version="1.1" xmlns="http://www.w3.org/2000/svg"><path d="M480.64 506.837333V275.562667L128.32 514.24l352.277333 238.72V521.642667l341.333334 231.274666V275.562667l-341.333334 231.274666zM512 1024c282.773333 0 512-229.226667 512-512S794.773333 0 512 0 0 229.226667 0 512s229.226667 512 512 512z m0-85.333333C276.352 938.666667 85.333333 747.648 85.333333 512S276.352 85.333333 512 85.333333s426.666667 191.018667 426.666667 426.666667-191.018667 426.666667-426.666667 426.666667z m224.64-502.208v155.584l-114.837333-77.802667 114.816-77.781333z m-341.333333 0v155.584l-114.837334-77.802667 114.816-77.781333z" /></svg>