<?xml version="1.0" standalone="no"?><!DOCTYPE svg PUBLIC "-//W3C//DTD SVG 1.1//EN" "http://www.w3.org/Graphics/SVG/1.1/DTD/svg11.dtd"><svg class="icon" width="200px" height="156.57px" viewBox="0 0 1308 1024" version="1.1" xmlns="http://www.w3.org/2000/svg"><path d="M310.99008001 431.38844445S493.01518223 291.98791111 677.13493333 291.98791111c188.48199111 0 325.19850667 139.40053333 325.19850668 139.40053334l282.50453332-113.38752L684.58055111 20.64725333 30.34353778 314.29290667l148.67000889 62.01571555v138.74744889c-14.16192 6.42730667-24.13909333 20.55964445-24.13909333 37.13592889 0 16.92558222 10.26730667 31.40721778 24.89457778 37.632l-30.47651556 85.03296h89.19381333l-30.21596444-84.30478222c16.37262222-5.35096889 28.38414222-20.21489778 28.38414222-38.35904 0-17.9712-11.77827555-32.80213333-27.89034667-38.27256889V388.75591111l102.22592001 42.63367111z m610.98666666 6.1895111c-41.28199111-29.73240889-125.00309333-74.96590222-252.28515555-74.96590222-189.55832889 0-282.50567111 100.35882667-282.50567112 100.35882667v208.16213333s60.52750222 70.57635555 239.07669333 77.50428445a301.02300445 301.02300445 0 0 1-0.30947554-13.29379556c0-10.65528889 0.57002667-21.17745778 1.66229333-31.54261333-113.14289778-4.58979555-199.54005333-29.12824889-199.54005334-58.69681778 0-32.83171555 106.53013333-59.47164445 237.9264-59.47164444l0.27989334 0.00227555c51.32856889-88.07992889 146.55374222-147.41959111 255.69621333-148.05674667m250.34183111 273.68675556h-23.38133334c-10.70307555 0-22.04558222-8.37745778-25.24501334-18.58218666l-13.40757333-32.60074667c-5.05969778-9.45152-2.99463111-23.38133333 4.53632001-30.94186667l16.60814223-16.54670222c7.58897778-7.59011555 7.58897778-20.00896 0-27.56949334l-27.5717689-27.54104888c-7.59125333-7.55939555-19.98165333-7.55939555-27.5706311 0l-16.57742223 16.57742222c-7.53208889 7.56167111-21.49262222 9.6256-30.94414222 4.56590222l-32.57116445-13.40529778c-10.20814222-3.17212445-18.61404445-14.5408-18.61404444-25.27232V516.59662222c0-10.70193778-8.78364445-19.48444445-19.456-19.48444444H919.18577779c-10.72924445 0-19.51288889 8.78250667-19.5128889 19.48444444v23.35061333c0 10.73038222-8.31829333 22.10133333-18.55488 25.27232l-32.63032888 13.40529778c-9.45152 5.05856-23.32558222 2.99576889-30.88384001-4.56590222l-16.63658667-16.57742222c-7.56280889-7.56053333-19.94979555-7.56053333-27.51146666 0L745.91360001 585.02257778c-7.59125333 7.55939555-7.59125333 19.97710222 0 27.53877333l16.54783999 16.57628444c7.58897778 7.56053333 9.65518222 21.48920889 4.56704001 30.9407289l-13.40757335 32.6291911c-3.17098667 10.20814222-14.54193778 18.58332445-25.27118222 18.58332445l-23.35402665-0.02958222c-10.70307555 0-19.48444445 8.78364445-19.48444445 19.48330667v38.93930666c0 10.73152 8.78364445 19.51288889 19.48444445 19.51288889h23.35402665c10.72924445 0 22.07288889 8.37745778 25.21315557 18.58446222l13.4656 32.59960889c5.03125333 9.47996445 2.99576889 23.44049778-4.56704001 30.94186667l-16.60586667 16.57742222c-7.53322667 7.58897778-7.53322667 19.97937778 0 27.56835555l27.59793778 27.57063112c7.56167111 7.56053333 19.94865778 7.56053333 27.51146668 0l16.60700444-16.60586667c7.53208889-7.53208889 21.43232-9.6256 30.85653332-4.50901333l32.68949334 13.40643555c10.23772445 3.16984889 18.55488 14.51008 18.55488 25.27232v23.29258667c0 10.67008 8.78478222 19.45486222 19.5128889 19.45486222h38.94158222c10.67235555 0 19.45486222-8.78364445 19.45486221-19.456v-23.29031111c0-10.75996445 8.40476445-22.10247111 18.61404445-25.27004445l32.63032889-13.40757333c9.42307555-5.11658667 23.38247111-3.02193778 30.97144889 4.50901333l16.49322666 16.60586667c7.58897778 7.56053333 19.97937778 7.56053333 27.57063112 0l27.57063111-27.56949333c7.58897778-7.59011555 7.58897778-19.97937778 0-27.56835556l-16.60700445-16.57742222c-7.53208889-7.50364445-9.59715555-21.46190222-4.53632-30.94300444l13.40757334-32.59960889c3.19715555-10.20586667 14.56924445-18.58332445 25.24387556-18.58332445h23.38133332c10.70535111 0 19.456-8.75178667 19.45600001-19.48444444v-38.96888889c-0.00341333-10.69966222-8.75747555-19.48216889-19.45827556-19.48216889M938.70321778 847.53863111c-53.77365333 0-97.36988445-43.56437333-97.36988445-97.33347556 0-53.77137778 43.59395555-97.33461333 97.36988445-97.33461333 53.77137778 0 97.36760889 43.56323555 97.36760889 97.33461333 0 53.76910222-43.59736889 97.33347555-97.36760889 97.33347556" /></svg>