<?xml version="1.0" standalone="no"?><!DOCTYPE svg PUBLIC "-//W3C//DTD SVG 1.1//EN" "http://www.w3.org/Graphics/SVG/1.1/DTD/svg11.dtd"><svg t="1659761242454" class="icon" viewBox="0 0 1024 1024" version="1.1" xmlns="http://www.w3.org/2000/svg" p-id="25984" xmlns:xlink="http://www.w3.org/1999/xlink" width="200" height="200"><defs><style type="text/css">@font-face { font-family: feedback-iconfont; src: url("//at.alicdn.com/t/font_1031158_u69w8yhxdu.woff2?t=1630033759944") format("woff2"), url("//at.alicdn.com/t/font_1031158_u69w8yhxdu.woff?t=1630033759944") format("woff"), url("//at.alicdn.com/t/font_1031158_u69w8yhxdu.ttf?t=1630033759944") format("truetype"); }
</style></defs><path d="M512 2.59302604l431.51275682 203.84662573v349.87054393c0 187.30119449-153.76648918 383.99703817-398.39723455 453.63086785l-10.23301758 2.83565603-22.88250469 5.91788925-23.15374166-5.99186285C246.18814195 947.80322651 89.80791874 757.14856183 80.85711126 570.98162905l-0.29589446-7.96449183-0.07397362-356.5528268L512 2.5683674z m-0.02465748 81.81481877l-357.53914246 168.88176423 0.09863227 308.76587118c3.79731188 149.79657143 130.36616804 311.33029023 333.2757954 373.41881115l9.86314835 2.93428598 10.01109673 2.76168241 4.26581106 1.10960423 4.0932075-1.03563061c211.638514-56.61447336 345.11157389-218.61669135 353.10072436-370.50918266l0.29589446-7.22475683 0.0986311-7.20009819V253.28960904L511.97534252 84.40784481z m121.02083498 274.09690298l52.29934618 52.29934618-235.38404459 235.38404458-165.62692514-165.62692514 52.29934616-52.29934618 113.30292034 113.32757898 183.10935705-183.08469842z" p-id="25985"></path></svg>