<?xml version="1.0" standalone="no"?><!DOCTYPE svg PUBLIC "-//W3C//DTD SVG 1.1//EN" "http://www.w3.org/Graphics/SVG/1.1/DTD/svg11.dtd"><svg t="1652282405816" class="icon" viewBox="0 0 1024 1024" version="1.1" xmlns="http://www.w3.org/2000/svg" p-id="25404" xmlns:xlink="http://www.w3.org/1999/xlink" width="200" height="200"><defs><style type="text/css">@font-face { font-family: feedback-iconfont; src: url("//at.alicdn.com/t/font_1031158_u69w8yhxdu.woff2?t=1630033759944") format("woff2"), url("//at.alicdn.com/t/font_1031158_u69w8yhxdu.woff?t=1630033759944") format("woff"), url("//at.alicdn.com/t/font_1031158_u69w8yhxdu.ttf?t=1630033759944") format("truetype"); }
</style></defs><path d="M6.99363384 1.57564442h1010.22840649v83.89462808H6.99363384zM931.82952875 86.75248184h85.39251158V1011.10179473h-85.39251158z" p-id="25405"></path><path d="M7.03966189 927.04278086h1010.18237844v84.05901387H7.03966189zM7.03966189 759.37188252h84.23918072v167.67089834h-84.23918072zM6.99363384 85.4702725h84.28389368v168.6098701h-84.28389368zM7.91682456 337.97477065H175.40361081v84.71655714H7.91682456zM6.99363384 590.80804043h168.86105162v83.8144078H6.99363384zM614.43603261 255.40180453l-101.11700085 122.21624861-97.49656771-122.21624861h-117.88698387l121.49163596 144.3846617h-121.49163596v76.48411566H460.22504457v70.93839589H297.93548018v73.06357566H460.22504457v139.32946921h102.80162664V620.27255344h165.66802161v-73.06357566H563.02667121v-70.93839589h165.66802161v-76.48411566h-121.7309817l121.7309817-144.3846617h-114.25866021z m0 0M7.91682456 465.81432914H175.40361081v84.71655713H7.91682456z" p-id="25406"></path></svg>