<?xml version="1.0" standalone="no"?><!DOCTYPE svg PUBLIC "-//W3C//DTD SVG 1.1//EN" "http://www.w3.org/Graphics/SVG/1.1/DTD/svg11.dtd"><svg class="icon" width="200px" height="175.04px" viewBox="0 0 1170 1024" version="1.1" xmlns="http://www.w3.org/2000/svg"><path d="M540.452571 990.208H0V583.68c0-149.650286 31.890286-267.702857 95.670857-354.304C159.451429 142.774857 268.726857 66.340571 423.643429 0l116.809142 215.990857c-95.305143 43.739429-161.133714 87.186286-197.558857 130.486857-36.425143 43.300571-56.758857 94.427429-60.854857 153.526857h258.413714v490.203429z m629.833143 0H629.833143V583.68c0-149.650286 31.890286-267.702857 95.670857-354.304C789.284571 142.774857 898.633143 66.340571 1053.476571 0L1170.285714 215.990857c-95.232 43.739429-161.060571 87.186286-197.485714 130.486857-36.498286 43.300571-56.758857 94.427429-60.928 153.526857H1170.285714v490.203429z" /></svg>