<?xml version="1.0" standalone="no"?><!DOCTYPE svg PUBLIC "-//W3C//DTD SVG 1.1//EN" "http://www.w3.org/Graphics/SVG/1.1/DTD/svg11.dtd"><svg class="icon" width="200px" height="200.00px" viewBox="0 0 1024 1024" version="1.1" xmlns="http://www.w3.org/2000/svg"><path d="M520.034 529.618c284.754 0 499.494-106.894 499.494-248.652S804.788 32.314 520.034 32.314c-284.768 0-499.502 106.894-499.502 248.652S235.268 529.618 520.034 529.618zM520.034 120.062c233.696 0 408.322 84.944 408.322 160.904s-174.626 160.912-408.322 160.912c-233.706 0-408.332-84.95-408.332-160.912S286.328 120.062 520.034 120.062zM520.034 687.604c-233.706 0-408.332-84.944-408.332-160.908L20.532 526.696c0 141.756 214.736 248.652 499.502 248.652 284.754 0 499.494-106.896 499.494-248.652l-91.172 0C928.358 602.662 753.73 687.604 520.034 687.604zM520.034 906.032c-233.706 0-408.332-84.95-408.332-160.898L20.532 745.134c0 141.746 214.736 248.642 499.502 248.642 284.754 0 499.494-106.896 499.494-248.642l-91.172 0C928.358 821.082 753.73 906.032 520.034 906.032z" /></svg>