<?xml version="1.0" standalone="no"?><!DOCTYPE svg PUBLIC "-//W3C//DTD SVG 1.1//EN" "http://www.w3.org/Graphics/SVG/1.1/DTD/svg11.dtd"><svg class="icon" width="200px" height="200.00px" viewBox="0 0 1024 1024" version="1.1" xmlns="http://www.w3.org/2000/svg"><path d="M241.941333 768a128.042667 128.042667 0 0 1 241.450667 0H1024v85.333333H483.392a128.042667 128.042667 0 0 1-241.450667 0H0v-85.333333h241.941333z m384-298.666667a128.042667 128.042667 0 0 1 241.450667 0H1024v85.333334h-156.608a128.042667 128.042667 0 0 1-241.450667 0H0v-85.333334h625.941333z m-490.666666-298.666666A128.042667 128.042667 0 0 1 376.746667 170.666667H1024v85.333333H376.725333A128.042667 128.042667 0 0 1 135.253333 256H0V170.666667h135.274667zM256 256a42.666667 42.666667 0 1 0 0-85.333333 42.666667 42.666667 0 0 0 0 85.333333z m490.666667 298.666667a42.666667 42.666667 0 1 0 0-85.333334 42.666667 42.666667 0 0 0 0 85.333334zM362.666667 853.333333a42.666667 42.666667 0 1 0 0-85.333333 42.666667 42.666667 0 0 0 0 85.333333z" /></svg>