<?xml version="1.0" standalone="no"?><!DOCTYPE svg PUBLIC "-//W3C//DTD SVG 1.1//EN" "http://www.w3.org/Graphics/SVG/1.1/DTD/svg11.dtd"><svg class="icon" width="200px" height="200.00px" viewBox="0 0 1024 1024" version="1.1" xmlns="http://www.w3.org/2000/svg"><path d="M53.64260061 236.14620259m-40.26648771 0a40.26648768 40.26648768 0 1 0 80.5329754 0 40.26648768 40.26648768 0 1 0-80.5329754 0ZM269.38023329 196.33342179m-58.07448368 0a58.07448366 58.07448366 0 1 0 116.14896733 0 58.07448366 58.07448366 0 1 0-116.14896733 0ZM125.66857156 398.91355428m-58.07448368 0a58.07448366 58.07448366 0 1 0 116.14896734 0 58.07448366 58.07448366 0 1 0-116.14896734 0ZM384.84864025 398.91355428m-29.26409528 0a29.26409528 29.26409528 0 1 0 58.52819057 0 29.26409528 29.26409528 0 1 0-58.52819057 0ZM615.21832056 398.91355428m-86.88487204 0a86.88487205 86.88487205 0 1 0 173.76974411 0 86.88487205 86.88487205 0 1 0-173.76974411 0ZM845.5880009 398.91355428m-58.07448367 0a58.07448366 58.07448366 0 1 0 116.14896734 0 58.07448366 58.07448366 0 1 0-116.14896734 0ZM499.52306018 224.12296964m-29.26409531 0a29.26409528 29.26409528 0 1 0 58.52819056 0 29.26409528 29.26409528 0 1 0-58.52819056 0ZM729.66588702 167.52303342m-58.07448367 0a58.07448366 58.07448366 0 1 0 116.14896735 0 58.07448366 58.07448366 0 1 0-116.14896735 0ZM932.01916605 196.33342179m-29.26409529 0a29.26409528 29.26409528 0 1 0 58.52819058 0 29.26409528 29.26409528 0 1 0-58.52819058 0ZM268.58624619 598.99829876m-86.88487204 0a86.88487205 86.88487205 0 1 0 173.7697441 0 86.88487205 86.88487205 0 1 0-173.7697441 0ZM499.52306018 598.99829876m-58.0744837 0a58.07448366 58.07448366 0 1 0 116.14896734 0 58.07448366 58.07448366 0 1 0-116.14896734 0ZM729.89274048 598.99829876m-29.26409529 0a29.26409528 29.26409528 0 1 0 58.52819057 0 29.26409528 29.26409528 0 1 0-58.52819057 0ZM38.21656588 598.99829876m-29.26409528 0a29.26409528 29.26409528 0 1 0 58.52819055 0 29.26409528 29.26409528 0 1 0-58.52819055 0ZM960.26242079 598.99829876m-58.07448366 0a58.07448366 58.07448366 0 1 0 116.14896732 0 58.07448366 58.07448366 0 1 0-116.14896732 0ZM873.37754876 800.5575907m-58.07448369 0a58.07448366 58.07448366 0 1 0 116.14896735 0 58.07448366 58.07448366 0 1 0-116.14896735 0ZM614.76461368 772.31433595m-29.26409528 0a29.26409528 29.26409528 0 1 0 58.52819055 0 29.26409528 29.26409528 0 1 0-58.52819055 0ZM383.82779973 857.61123385m-58.07448368 0a58.07448366 58.07448366 0 1 0 116.14896735 0 58.07448366 58.07448366 0 1 0-116.14896735 0ZM153.91182631 800.5575907m-29.26409527 0a29.26409528 29.26409528 0 1 0 58.52819054 0 29.26409528 29.26409528 0 1 0-58.52819054 0Z" /></svg>