<?xml version="1.0" standalone="no"?><!DOCTYPE svg PUBLIC "-//W3C//DTD SVG 1.1//EN" "http://www.w3.org/Graphics/SVG/1.1/DTD/svg11.dtd"><svg class="icon" width="200px" height="200.00px" viewBox="0 0 1024 1024" version="1.1" xmlns="http://www.w3.org/2000/svg"><path d="M805.95933625 615.96122867c-59.48228665 0-112.98979006 26.15627334-149.63512734 67.71421026l-245.62997837-119.49566515c4.38150774-16.33107422 6.63864806-33.45878623 6.63864807-50.98481714 0-25.89072745-4.91259957-50.7192712-13.94116093-73.42344757l238.32746548-115.9107952c35.98147252 52.17977378 96.26039693 86.56797074 164.24015309 86.56797075 109.93601193 0 199.42498781-89.4889759 199.42498783-199.42498783 0-109.93601193-89.4889759-199.42498781-199.42498783-199.4249878s-199.42498781 89.4889759-199.42498783 199.4249878c0 7.8336047 0.39831887 15.4016635 1.32772964 22.96972229l-261.16441487 127.06372396c-34.78651585-29.47559742-79.66377675-47.26717424-128.78977242-47.26717421-109.93601193 0-199.42498781 89.4889759-199.4249878 199.42498781 0 109.93601193 89.4889759 199.42498781 199.4249878 199.42498785 58.02178406 0 110.20155784-24.82854378 146.71412224-64.52765919l247.48879979 120.42507588c-3.58486991 15.00334463-5.5764644 30.80332699-5.57646438 46.86885532 0 109.93601193 89.4889759 199.42498781 199.42498783 199.42498782s199.42498781-89.4889759 199.42498783-199.42498782-89.4889759-199.42498781-199.42498783-199.42498783z m0-508.91876055c57.22514631 0 103.82845573 46.60330941 103.82845573 103.82845575s-46.60330941 103.82845573-103.82845573 103.8284557-103.82845573-46.60330941-103.82845571-103.8284557 46.47053645-103.82845573 103.82845571-103.82845575zM217.90789077 616.89063938c-57.22514631 0-103.82845573-46.60330941-103.82845569-103.8284557s46.60330941-103.82845573 103.82845569-103.82845572 103.82845573 46.60330941 103.82845573 103.82845572-46.60330941 103.82845573-103.82845573 103.8284557z m588.05144548 302.32403283c-57.22514631 0-103.82845573-46.60330941-103.82845571-103.82845571s46.60330941-103.82845573 103.82845571-103.8284557 103.82845573 46.60330941 103.82845573 103.8284557-46.60330941 103.82845573-103.82845573 103.82845571z" /></svg>