<?xml version="1.0" standalone="no"?><!DOCTYPE svg PUBLIC "-//W3C//DTD SVG 1.1//EN" "http://www.w3.org/Graphics/SVG/1.1/DTD/svg11.dtd"><svg t="1683914058074" class="icon" viewBox="0 0 1024 1024" version="1.1" xmlns="http://www.w3.org/2000/svg" p-id="14513" xmlns:xlink="http://www.w3.org/1999/xlink" width="200" height="200"><path d="M512 1015.22187468c-276.77203066 0-503.22187468-226.44984299-503.22187468-503.22187468S235.22796934 8.77812532 512 8.77812532s503.22187468 226.44984299 503.22187468 503.22187468c0 25.16109332 0 50.32218767-5.03221928 75.483281l-100.64437432-15.09665579c5.03221825-20.12887507 5.03221825-40.25775014 5.03221825-60.38662521 0-221.41762474-181.1598746-402.57749933-402.57749933-402.57749933s-402.57749933 181.1598746-402.57749933 402.57749933 181.1598746 402.57749933 402.57749933 402.57749933v100.64437535z" p-id="14514"></path><path d="M295.61459455 778.70759312V245.29240688h201.28874966c105.67659361 0 176.12765634 60.38662521 176.12765532 161.03099951s-70.45106275 161.03099953-181.1598746 161.03099953H386.19453133v211.3531872H295.61459455z m196.25653038-291.86868644c60.38662521 0 85.54771853-25.16109332 85.54771853-75.48328202 0-65.41884346-55.35440592-75.483281-85.54771853-75.483281H386.19453133v150.96656302h105.6765936zM974.96412455 753.54649981h-407.60971863l186.19209389-181.1598746 55.35440592 55.35440592-50.32218767 45.2899684h216.38540649zM793.80424995 1015.22187468L738.44984299 959.86746772l50.32218767-50.32218664h-216.38540545v-80.51550027h407.60971759z" p-id="14515"></path></svg>