<?xml version="1.0" standalone="no"?><!DOCTYPE svg PUBLIC "-//W3C//DTD SVG 1.1//EN" "http://www.w3.org/Graphics/SVG/1.1/DTD/svg11.dtd"><svg class="icon" width="200px" height="200.00px" viewBox="0 0 1024 1024" version="1.1" xmlns="http://www.w3.org/2000/svg"><path d="M317.4570372 748.96058909L196.80325655 78.53154424H6.38778598v77.80080913H131.74221827l120.65378063 670.42904485h98.57969917a106.80081511 106.80081511 0 0 0-4.01955959 29.07481444c0 58.92004446 47.94441366 106.86445813 106.87562357 106.86445814 58.92004446 0 106.86445813-47.94441366 106.86445812-106.86445814 0-10.07122988-1.40684587-19.82982736-4.01955959-29.07481444H727.19531115a106.80081511 106.80081511 0 0 0-4.0195596 29.07481444c0 58.92004446 47.94441366 106.86445813 106.87562356 106.86445814 58.92004446 0 106.86445813-47.94441366 106.86445813-106.86445814 0-10.07122988-1.40684587-19.82982736-4.01955959-29.07481444h74.19437093V748.96058909H317.4570372z m165.42720842 106.87562357c0 16.02241118-13.04123781 29.063649-29.06364901 29.06364898-16.03357663 0-29.07481444-13.04123781-29.07481443-29.06364898 0-16.03357663 13.04123781-29.07481444 29.07481443-29.07481444 16.02241118 0 29.063649 13.04123781 29.06364901 29.07481444z m376.21961303 0c0 16.02241118-13.04123781 29.063649-29.06364898 29.06364898-16.03357663 0-29.07481444-13.04123781-29.07481443-29.06364898 0-16.03357663 13.04123781-29.07481444 29.07481443-29.07481444 16.02241118 0 29.063649 13.04123781 29.06364898 29.07481444zM984.20148574 670.59034235l31.330234-612.36873951H296.44367285l94.2810035 612.36873951h593.47680939z m-50.54596195-534.55676495l-23.38043834 456.76712125H457.46053114l-70.33112755-456.76712125h546.5261202z" /></svg>