<?xml version="1.0" standalone="no"?><!DOCTYPE svg PUBLIC "-//W3C//DTD SVG 1.1//EN" "http://www.w3.org/Graphics/SVG/1.1/DTD/svg11.dtd"><svg class="icon" width="200px" height="200.00px" viewBox="0 0 1024 1024" version="1.1" xmlns="http://www.w3.org/2000/svg"><path d="M512 366.51200033l-126 72.74399934v145.48800066l126 72.74399934 126-72.74399934v-145.48800066l-126-72.74399934z m83.99999967-48.51L932.00000033 512c0-122.45100033-52.416-232.67999967-136.017-309.456L595.99999967 318.00200033z m326.06700033 285.24299934L721.99999967 487.745v388.08c100.233-58.00200033 174.27899967-156.19799967 200.06700033-272.58000033zM91.99999967 512c0 122.45100033 52.416 232.67999967 136.017 309.456L428.00000033 705.99799967 91.99999967 512z m9.93300033-91.24499967l200.06700033 115.49999967V148.175c-100.233 58.00200033-174.27899967 156.19799967-200.06700033 272.58000033z m200.00400033 455.00699967A418.068 418.068 0 0 0 512 932.00000033c43.89000033 0 86.22600033-6.72000033 126-19.23600066V681.74299967l-336.06299967 194.04zM386 342.25700033l336.06299967-194.04A418.068 418.068 0 0 0 512 91.99999967c-43.89000033 0-86.22600033 6.72000033-126 19.23600066v231.021zM512 1016C233.64500033 1016 8 790.35499967 8 512S233.64500033 8 512 8s504 225.64500033 504 504-225.64500033 504-504 504z" /></svg>