<?xml version="1.0" standalone="no"?><!DOCTYPE svg PUBLIC "-//W3C//DTD SVG 1.1//EN" "http://www.w3.org/Graphics/SVG/1.1/DTD/svg11.dtd"><svg class="icon" width="200px" height="193.94px" viewBox="0 0 1056 1024" version="1.1" xmlns="http://www.w3.org/2000/svg"><path d="M937.12342162 155.49980494l-138.50370011-138.50370012c-19.08515553-19.08515553-50.16669453-19.08515553-67.61597958 0l-201.21206831 201.2120683c-19.08515553 19.08515553-19.08515553 50.16669453 0 67.61597958l54.52901581 54.52901579-27.2645079 27.2645079-17.44928506-17.44928505c-25.62863742-25.62863742-59.43662721-37.07973073-91.60874654-37.07973076-43.62321264-35.44386027-99.78809892-40.3514717-131.96021822-8.17935236s-27.2645079 88.33700559 8.17935237 131.96021822c0 33.8079898 11.45109332 65.98010911 37.07973075 91.60874656l17.44928506 17.44928505-27.26450792 27.26450788-54.52901579-54.52901578c-19.08515553-19.08515553-50.16669453-19.08515553-67.61597959 0l-201.21206828 201.21206828c-19.08515553 19.08515553-19.08515553 50.16669453 0 67.6159796l138.50370012 138.5037001c19.08515553 19.08515553 50.16669453 19.08515553 67.6159796 0L435.4564763 724.78272986c19.08515553-19.08515553 19.08515553-50.16669453 0-67.61597959l-46.89495357-46.89495358 27.26450788-27.26450791 61.07249769 61.0724977c16.35870474-37.07973073 41.98734217-74.15946149 74.1594615-106.3315808s69.25185006-57.80075674 106.3315808-74.1594615l-61.07249771-61.07249769 27.26450791-27.26450788 46.89495358 46.89495358c19.08515553 19.08515553 50.16669453 19.08515553 67.61597959 0l201.21206828-201.21206829c16.9039949-16.9039949 16.9039949-47.44024375-2.18116063-65.43481896zM890.22846803 503.39492573c-3.27174094-3.27174094-8.17935237-6.54348189-11.4510933-8.17935238 0 0-1.63587047 0-1.63587048-1.63587047-3.27174094-1.63587047-4.90761142-3.27174094-8.17935237-4.90761143h-1.63587047c-79.0670729-43.62321264-201.21206829-13.08696379-291.73023452 77.43120243-91.60874653 91.60874653-121.05441507 212.6631616-77.43120243 291.73023452 1.63587047 3.27174094 3.27174094 4.90761142 4.90761143 8.17935237 0 0 0 1.63587047 1.63587048 1.63587047 3.27174094 4.90761142 6.54348189 8.17935237 8.17935237 11.45109332 33.8079898 22.35689648 109.60332175-6.54348189 190.30626511-70.88772055l-40.35147168-32.17211931c-48.53082406 38.71560122-87.24642527 59.43662721-98.15222843 50.16669454-14.72283426-14.72283426 33.8079898-87.24642527 107.96745127-160.8605966s146.68305249-122.69028554 160.8605966-107.96745128c9.81522284 9.81522284-8.17935237 43.62321264-41.98734216 87.24642527l32.17211933 40.35147169c61.61778786-78.52178275 88.88229574-149.40950328 66.52539925-181.58162259zM697.19575213 719.32982827c-13.08696379-9.81522284-13.08696379-27.2645079-1.63587048-38.7156012l4.90761143-4.90761144c11.45109332-11.45109332 28.90037838-9.81522284 38.71560121 1.63587048l43.62321264 52.89314532c9.81522284 13.08696379 9.81522284 32.17211931-1.63587047 43.62321264l14.72283425-14.72283427c-11.45109332 11.45109332-30.53624885 13.08696379-43.62321264 1.63587048L697.19575213 719.32982827zM801.34617229 741.14143459c-20.72102601 0-37.6250209 16.9039949-38.71560121 36.53444059 0 20.72102601 15.81341458 36.53444058 38.71560121 36.53444059 20.72102601 0 38.71560122-15.81341458 38.7156012-36.53444059-1.09058032-21.81160633-18.53986537-36.53444058-38.7156012-36.53444059M896.77194994 741.14143459c0 34.35327995-13.63225395 65.98010911-39.80618155 89.97287608-25.08334727 25.08334727-58.34604689 37.6250209-94.33519731 37.62502088v52.34785518c104.69571032 0 188.1251045-80.70294337 189.21568482-179.94575214h-55.07430596M993.83359806 740.05085428c0 120.50912491-103.60513002 219.75193365-231.20302698 219.75193365v52.34785517c157.0435655 0 285.73204277-122.14499538 285.73204277-272.09978882h-54.52901579" /></svg>