<?xml version="1.0" standalone="no"?><!DOCTYPE svg PUBLIC "-//W3C//DTD SVG 1.1//EN" "http://www.w3.org/Graphics/SVG/1.1/DTD/svg11.dtd"><svg class="icon" width="200px" height="200.00px" viewBox="0 0 1024 1024" version="1.1" xmlns="http://www.w3.org/2000/svg"><path d="M572.66353008 455.81239367l153.36285692-201.50743449A407.05910291 407.05910291 0 0 0 512 193.91407417c-225.86372788 0-408.96761848 183.1038906-408.96761848 408.96761847a407.14998424 407.14998424 0 0 0 99.47001264 267.32849994l-68.75200004 59.43662721A497.98623675 497.98623675 0 0 1 12.1506889 602.88169264C12.1506889 326.82855017 235.94685754 103.03238152 512 103.03238152c99.15192741 0 191.55588805 28.85493716 269.2824567 78.65810531l80.81654478-106.1725382 71.93286072 54.75622073-291.04862182 382.38472327a159.04296239 159.04296239 0 1 1-70.34243037-56.84649896z m283.77808601-73.54601007l57.89163914-76.06797703A497.62271034 497.62271034 0 0 1 1011.8493111 602.88169264c0 121.09985626-43.28240629 235.61078945-120.60000623 325.60638557l-68.93376379-59.23214341A407.12726418 407.12726418 0 0 0 920.96761848 602.88169264c0-81.24823353-23.69740179-156.95268415-64.52600239-220.61530904zM512 671.04296239a68.16126974 68.16126974 0 1 0 0-136.3225395 68.16126974 68.16126974 0 0 0 0 136.3225395z" /></svg>