<?xml version="1.0" standalone="no"?><!DOCTYPE svg PUBLIC "-//W3C//DTD SVG 1.1//EN" "http://www.w3.org/Graphics/SVG/1.1/DTD/svg11.dtd"><svg class="icon" width="200px" height="200.00px" viewBox="0 0 1024 1024" version="1.1" xmlns="http://www.w3.org/2000/svg"><path d="M520.10187218 844.17675921l287.16674964 150.33434787c13.50312029 7.20244694 28.80626522-4.5006487 26.10564117-18.90436841l-54.91308058-319.57306415c-0.89942523-5.40124812 0.90059941-11.70309565 5.4012481-16.20374435l232.25366906-225.95299569c10.80249623-10.80249623 4.50182288-28.80626522-9.90189683-30.60628988L685.74053917 336.45943618c-6.30184753-0.90059941-10.80249623-4.5006487-13.50312029-9.90189682L528.20374435 36.69016567c-6.30184753-13.50312029-26.10564117-13.50312029-32.4074887 0L352.66318054 327.45696459c-2.70062406 5.40124812-8.10187218 9.00247159-13.5031203 9.90307102L18.68639668 384.17006983C3.38207755 385.97126866-2.01917057 403.97503766 8.78332567 414.77753389l232.25366904 225.95182151c4.50182288 4.50182288 6.30184753 9.903071 5.40124812 16.20374436L191.52633644 976.5073381c-2.70062406 14.40371971 12.60252088 26.10564117 26.10564116 18.9043684l287.16674964-150.33434787c4.5006487-3.60122348 9.90189682-3.60122348 15.30314494-0.90059942z" /></svg>