<?xml version="1.0" standalone="no"?><!DOCTYPE svg PUBLIC "-//W3C//DTD SVG 1.1//EN" "http://www.w3.org/Graphics/SVG/1.1/DTD/svg11.dtd"><svg t="1622538910271" class="icon" viewBox="0 0 1024 1024" version="1.1" xmlns="http://www.w3.org/2000/svg" p-id="12144" xmlns:xlink="http://www.w3.org/1999/xlink" width="200" height="200"><defs><style type="text/css"></style></defs><path d="M512 542.93150267l315.62075955 473.43113933H196.37924045l315.62075955-473.43113933z m0 189.37245573L393.11618015 911.15572133h237.7676397L512 732.3039584z m-55.75966792-317.72489837a78.90518989 78.90518989 0 1 1 111.51933584-111.51933462 78.90518989 78.90518989 0 0 1-111.51933584 111.51933462zM158.55735317 5.48195179l74.43389539 74.43389662a394.52594944 394.52594944 0 0 0 0 557.91229514l-74.43389539 74.43389661a499.73286889 499.73286889 0 0 1 0-706.78008837z m706.78008716 0a499.73286889 499.73286889 0 0 1 0 706.78008837l-74.43389539-74.43389661a394.52594944 394.52594944 0 0 0 0-557.91229514l74.43389539-74.43389662zM307.3725413 154.24453727l74.38129151 74.38129152a184.11210933 184.11210933 0 0 0 0 260.38712663L307.3725413 563.39424817a289.31903 289.31903 0 0 1 0-409.1497109z m409.14971089 0a289.31903 289.31903 0 0 1 0 409.1497109l-74.38129275-74.38129275a184.11210933 184.11210933 0 0 0 0-260.38712663l74.38129275-74.38129152z" p-id="12145"></path></svg>