<?xml version="1.0" standalone="no"?><!DOCTYPE svg PUBLIC "-//W3C//DTD SVG 1.1//EN" "http://www.w3.org/Graphics/SVG/1.1/DTD/svg11.dtd"><svg class="icon" width="200px" height="200.00px" viewBox="0 0 1024 1024" version="1.1" xmlns="http://www.w3.org/2000/svg"><path d="M834.07407686 581.0162091c-69.01503492 0-128.82916107-39.10973311-161.03703842-96.62363208-32.20787736 57.51389897-92.02082935 96.62363208-161.03703844 96.62363208s-128.83033526-39.10973311-161.03703844-96.62363208c-32.20787736 57.51389897-92.02082935 96.62363208-161.03703842 96.62363208-101.22408646 0-184.04283286-82.81992059-184.04283287-184.04283287 0-4.60045437 0-6.90185575 2.30140138-11.50231011l138.031244-299.06945663c0-2.30140138 2.30022719-2.30140138 4.60045438-4.60045438 0 0 0-2.30140138 2.30140137-2.30140138 2.30022719-2.30022719 4.60045437-2.30022719 6.90068155-4.60045437H854.77964411c4.60045437 0 6.90068156 0 11.50231012 2.30022719 2.30140138 0 4.60045437 2.30140138 6.90185574 4.60162856 0 0 0 2.30022719 2.30022719 2.30022719l4.60045437 4.60045438L1018.11690973 387.7712933v9.20208293c0 101.22291227-82.8187464 184.04165868-184.04165868 184.04165869z m6.90185576-460.10649506H183.02406738l-131.13056245 280.66529076c2.30140138 73.61666347 62.11435335 133.43078963 138.03241821 133.43078963 59.81295197 0 110.4249952-39.10973311 128.82916107-92.02082935h62.11435334c18.40416587 52.91109623 69.0162091 92.02082935 128.83033526 92.02082935s110.4249952-39.10973311 128.82916107-92.02082935h62.11435335c18.40416587 52.91109623 69.0162091 92.02082935 128.83033526 92.02082935 73.61666347 0 135.73101682-59.81412616 138.03124402-133.43078963l-126.52893389-280.66529076z m-52.91227042 230.05324752h-529.12270416c-13.80253732 0-23.00462024-9.20208294-23.00462024-23.00579442s9.20208294-23.00462024 23.00462024-23.00462024h529.12270416c13.80371149 0 23.00579443 9.20208294 23.00579443 23.00462024s-9.20208294 23.00579443-23.00579443 23.00579442zM120.90971404 627.02662377c13.80253732 0 23.00579443 9.20208294 23.00579443 23.00579442v207.0474531c0 25.30602162 20.70439305 46.01041467 46.01041467 46.01041467h644.14815372c25.30602162 0 46.01041467-20.70439305 46.01041467-46.01041467V650.03241819c0-13.80371149 9.20325711-23.00579443 23.00579443-23.00579442s23.00579443 9.20208294 23.00579443 23.00579442v207.0474531c0 50.61204323-41.4099603 92.02082935-92.02082934 92.02082935H189.92474895c-50.61204323 0-92.02082935-41.40878611-92.02082934-92.02082935V650.03241819c0-13.80371149 9.20090875-23.00579443 23.00462025-23.00579442z" /></svg>