<?xml version="1.0" standalone="no"?><!DOCTYPE svg PUBLIC "-//W3C//DTD SVG 1.1//EN" "http://www.w3.org/Graphics/SVG/1.1/DTD/svg11.dtd"><svg class="icon" width="200px" height="200.00px" viewBox="0 0 1024 1024" version="1.1" xmlns="http://www.w3.org/2000/svg"><path d="M801.1927813 624.22071407c12.90538173 28.95294434 19.41418405 61.16028985 19.41418403 96.50981492 0 75.30009988-29.40182676 134.21597499-88.14937212 176.57929428C673.5978289 939.67314255 592.4061415 960.88285759 488.7703121 960.88285759c-92.02098547 0-183.08809529-21.3780461-273.25744027-64.19024782V770.1076438c85.28774259 49.20878376 172.53934856 73.84122971 261.81092738 73.84122971 143.1375218 0 214.90266785-41.07278151 215.40766107-123.27445531a124.0038891 124.0038891 0 0 0-36.3595115-89.94490182l-6.73324287-6.56491178H7.00678471v-112.2207154h1009.98643058v112.2207154h-215.80043399z m-228.81803733-168.33107176H266.74162844a229.26691974 229.26691974 0 0 1-26.98908228-29.28960649C215.51287183 395.29045646 203.39303467 357.47207612 203.39303467 312.92045291c0-69.35240156 26.14742692-128.32438747 78.38616995-176.91595643C334.13016793 87.41292622 414.98519187 63.11714241 524.45649931 63.11714241c82.53833596 0 161.5417181 18.40419762 236.89792876 55.21259153v120.74948793c-67.3324287-38.54781543-141.11754893-57.79366841-221.41147016-57.79366709-139.15368556 0-208.6744182 43.87829893-208.67441819 131.63489813 0 23.56635005 12.23205744 44.10274079 36.69617366 61.66528173 24.4641162 17.56254225 54.65148753 31.53402121 90.5060058 42.08276795 34.78842106 10.0998643 72.77513381 23.2296879 113.90402479 39.22113972z" /></svg>