<?xml version="1.0" standalone="no"?><!DOCTYPE svg PUBLIC "-//W3C//DTD SVG 1.1//EN" "http://www.w3.org/Graphics/SVG/1.1/DTD/svg11.dtd"><svg class="icon" width="200px" height="200.00px" viewBox="0 0 1024 1024" version="1.1" xmlns="http://www.w3.org/2000/svg"><path d="M512 446.89305933c122.16058381 0 221.18211554-99.02153172 221.18211554-221.18211552s-99.02153172-221.18211554-221.18211554-221.29554225c-122.16058381 0-221.18211554 99.02153172-221.29554227 221.18211551v0.11342674c0.11342672 122.16058381 99.13495844 221.18211554 221.29554227 221.18211552zM138.82607177 595.82235045c-43.66928948 110.47763105-87.79228586 423.76224798-87.79228587 423.76224799h375.78274295l-112.97301901-517.45272361c-68.05603554 0-131.3481486-16.78715543-175.01743807 93.69047562zM512 502.13187483l-106.62112236 148.92929114 83.93577717 368.52343247h45.37069038l83.93577717-368.52343247zM885.17392823 595.82235045c-43.66928948-110.47763105-106.96140252-93.6904756-175.01743807-93.69047562l-112.97301901 517.45272361h375.78274295S928.84321771 706.29998148 885.17392823 595.82235045z m-36.18312555 191.35088661H717.18894717v-29.37752201h131.80185551v29.37752201z" /></svg>