<?xml version="1.0" standalone="no"?><!DOCTYPE svg PUBLIC "-//W3C//DTD SVG 1.1//EN" "http://www.w3.org/Graphics/SVG/1.1/DTD/svg11.dtd"><svg class="icon" width="200px" height="200.00px" viewBox="0 0 1024 1024" version="1.1" xmlns="http://www.w3.org/2000/svg"><path d="M512 5.63298866C234.5989418 5.63298866 5.63298866 234.5989418 5.63298866 512S234.5989418 1018.36701134 512 1018.36701134 1018.36701134 789.4010582 1018.36701134 512 793.80424995 5.63298866 512 5.63298866z m0 924.670194c-228.96595315 0-418.30318266-189.33723055-418.30318266-418.30318266S283.03404685 93.69681734 512 93.69681734s418.30318266 189.33723055 418.30318266 418.30318266-184.9340388 418.30318266-418.30318266 418.30318266zM512 155.34149659c-149.70850795 0-268.59467575 118.8861678-268.59467575 268.59467575s118.8861678 268.59467575 268.59467575 268.59467472 268.59467575-118.8861678 268.59467575-268.59467472-118.8861678-268.59467575-268.59467575-268.59467575z m0 449.12552281c-101.27340185 0-180.53084706-79.2574452-180.53084706-180.53084706S415.12978885 243.40532425 512 243.40532425s180.53084706 79.2574452 180.53084706 180.53084809-79.2574452 180.53084706-180.53084706 180.53084706zM512 820.22339835m-61.64467925 0a61.64467925 61.64467925 0 1 0 123.2893585 0 61.64467925 61.64467925 0 1 0-123.2893585 0Z" /></svg>