<?xml version="1.0" standalone="no"?><!DOCTYPE svg PUBLIC "-//W3C//DTD SVG 1.1//EN" "http://www.w3.org/Graphics/SVG/1.1/DTD/svg11.dtd"><svg t="1621087558499" class="icon" viewBox="0 0 1082 1024" version="1.1" xmlns="http://www.w3.org/2000/svg" p-id="29643" xmlns:xlink="http://www.w3.org/1999/xlink" width="211.328125" height="200"><defs><style type="text/css"></style></defs><path d="M89.88785 873.145286a134.691709 134.691709 0 0 1-89.794472-131.997874v-140.977322a131.09993 131.09993 0 0 1 68.692771-114.03898v-12.122253A471.42098 471.42098 0 0 1 987.832574 323.603115a44.897236 44.897236 0 0 1-84.406804 30.979093 378.483701 378.483701 0 0 0-179.588945-215.955706A384.769314 384.769314 0 0 0 159.029594 476.253718v44.897237a44.897236 44.897236 0 0 1-44.897236 44.897236c-7.63253 0-22.448618 17.509922-22.448618 34.121899v145.467046a44.897236 44.897236 0 0 0 89.794472 0v-100.569809a44.897236 44.897236 0 0 1 89.794473 0v100.569809A134.691709 134.691709 0 0 1 89.88785 873.145286z m892.557056 9.877392A134.691709 134.691709 0 0 0 1077.627047 754.616583v-130.201985a134.691709 134.691709 0 0 0-89.794473-131.997874 134.691709 134.691709 0 0 0-179.588945 127.957123v89.794472a44.897236 44.897236 0 0 0 89.794473 0v-89.794472a44.897236 44.897236 0 0 1 89.794472 0v134.691708a44.897236 44.897236 0 0 1-44.897236 44.897236 44.897236 44.897236 0 0 0-44.897236 47.591071 89.794472 89.794472 0 0 1-89.794473 87.100638h-179.588944V902.777462a44.897236 44.897236 0 0 0-89.794473 0v76.325302a44.897236 44.897236 0 0 0 44.897236 44.897236h224.486181a179.588945 179.588945 0 0 0 175.548194-140.977322z" p-id="29644"></path></svg>