<?xml version="1.0" standalone="no"?><!DOCTYPE svg PUBLIC "-//W3C//DTD SVG 1.1//EN" "http://www.w3.org/Graphics/SVG/1.1/DTD/svg11.dtd"><svg t="1622988254628" class="icon" viewBox="0 0 1024 1024" version="1.1" xmlns="http://www.w3.org/2000/svg" p-id="23055" xmlns:xlink="http://www.w3.org/1999/xlink" width="200" height="200"><defs><style type="text/css"></style></defs><path d="M800.24726017 68.49251618a213.75374194 213.75374194 0 0 1 213.75374194 213.75374189v456.00798234a213.75374194 213.75374194 0 0 1-213.75374194 213.75374191h-570.00997888A213.75374194 213.75374194 0 0 1 16.48353936 738.25424041v-456.00798234A213.75374194 213.75374194 0 0 1 230.23728129 68.49251618z m0 85.50149676h-570.00997888a128.25224516 128.25224516 0 0 0-128.25224515 128.25224513v456.00798234a128.25224516 128.25224516 0 0 0 128.25224515 128.25224516h570.00997888a128.25224516 128.25224516 0 0 0 128.25224516-128.25224516v-456.00798234a128.25224516 128.25224516 0 0 0-128.25224516-128.25224513z m-456.0079823 527.25923051a42.75074838 42.75074838 0 0 1 0 85.50149677h-114.00199658a42.75074838 42.75074838 0 0 1 0-85.50149677z m228.00399048 0a42.75074838 42.75074838 0 0 1 0 85.50149677h-114.00199524a42.75074838 42.75074838 0 0 1 0-85.50149677z m228.00399182 0a42.75074838 42.75074838 0 0 1 0 85.50149677h-114.00199524a42.75074838 42.75074838 0 0 1 0-85.50149677z" p-id="23056"></path></svg>