<?xml version="1.0" standalone="no"?><!DOCTYPE svg PUBLIC "-//W3C//DTD SVG 1.1//EN" "http://www.w3.org/Graphics/SVG/1.1/DTD/svg11.dtd"><svg class="icon" width="200px" height="200.00px" viewBox="0 0 1024 1024" version="1.1" xmlns="http://www.w3.org/2000/svg"><path d="M512 142.70296217L512 4.21657285 327.35148055 188.86509122l184.64851945 184.64851946L512 235.02722135c152.33502826 0 276.97277865 124.63775039 276.97277865 276.97277865 0 46.16213013-13.84863893 92.32425919-32.31349122 129.25396372l69.24319467 69.24319468C858.2159733 650.48638932 881.29703783 585.85940801 881.29703783 512 881.29703783 308.88662936 715.11337064 142.70296217 512 142.70296217zM512 788.97277865c-152.33502826 0-276.97277865-124.63775039-276.97277865-276.97277865 0-46.16213013 13.84863893-92.32425919 32.31349122-129.25396372L198.0975179 313.5028416C165.7840267 373.51361068 142.70296217 438.14059199 142.70296217 512c0 203.11337064 166.18366719 369.29703783 369.29703783 369.29703783l0 138.48638932 184.64851945-184.64851946-184.64851945-184.64851945L512 788.97277865z" /></svg>