<?xml version="1.0" standalone="no"?><!DOCTYPE svg PUBLIC "-//W3C//DTD SVG 1.1//EN" "http://www.w3.org/Graphics/SVG/1.1/DTD/svg11.dtd"><svg t="1653320738353" class="icon" viewBox="0 0 1024 1024" version="1.1" xmlns="http://www.w3.org/2000/svg" p-id="25672" xmlns:xlink="http://www.w3.org/1999/xlink" width="200" height="200"><defs><style type="text/css">@font-face { font-family: feedback-iconfont; src: url("//at.alicdn.com/t/font_1031158_u69w8yhxdu.woff2?t=1630033759944") format("woff2"), url("//at.alicdn.com/t/font_1031158_u69w8yhxdu.woff?t=1630033759944") format("woff"), url("//at.alicdn.com/t/font_1031158_u69w8yhxdu.ttf?t=1630033759944") format("truetype"); }
</style></defs><path d="M892.928 614.4L972.8 533.504 900.096 460.8 819.2 540.672a200.704 200.704 0 0 0-51.2-21.504V409.6h-102.4v109.568a200.704 200.704 0 0 0-51.2 21.504L533.504 460.8 460.8 533.504 540.672 614.4a200.704 200.704 0 0 0-21.504 51.2H409.6v102.4h109.568a200.704 200.704 0 0 0 21.504 51.2L460.8 900.096 533.504 972.8 614.4 892.928a200.704 200.704 0 0 0 51.2 21.504V1024h102.4v-109.568a200.704 200.704 0 0 0 51.2-21.504L900.096 972.8 972.8 900.096 892.928 819.2a200.704 200.704 0 0 0 21.504-51.2H1024v-102.4h-109.568a200.704 200.704 0 0 0-21.504-51.2zM716.8 819.2a102.4 102.4 0 1 1 102.4-102.4 102.4 102.4 0 0 1-102.4 102.4zM0 0v716.8h204.8v102.4H102.4v102.4h204.8v-307.2H102.4v-102.4h307.2V409.6H102.4V102.4h819.2v256h102.4V0z" p-id="25673"></path></svg>