<?xml version="1.0" standalone="no"?><!DOCTYPE svg PUBLIC "-//W3C//DTD SVG 1.1//EN" "http://www.w3.org/Graphics/SVG/1.1/DTD/svg11.dtd"><svg t="1645849895341" class="icon" viewBox="0 0 1024 1024" version="1.1" xmlns="http://www.w3.org/2000/svg" p-id="25248" xmlns:xlink="http://www.w3.org/1999/xlink" width="200" height="200"><defs><style type="text/css"></style></defs><path d="M927.92439567 654.55442701L869.2191497 643.99483983c3.78673721-20.96770489 5.69092505-42.40063748 5.69092508-63.73619684 0-152.06454702-96.05329409-288.90641047-238.99721408-340.4925905l20.23199592-56.10862617C822.66392055 243.76917468 934.54577617 403.15835339 934.54577617 580.26946224c0 24.86263459-2.22876534 49.84428091-6.6213805 74.28496477zM98.46665839 654.55442701a421.01268857 421.01268857 0 0 1-6.62138049-74.29578402c0-177.20848208 111.88185562-336.58684155 278.41173879-396.60121667l20.23199593 56.10862617C247.53427339 291.28731701 151.49179854 428.11836121 151.49179854 580.25864299c0 21.33555935 1.90418786 42.76849196 5.69092507 63.73619684l-58.71606522 10.55958718zM513.29830989 1001.71167498c-99.54791157 0-196.07725263-35.36812553-271.81199679-99.56955007l38.55980404-45.50576198c64.98041049 55.09161676 147.81258211 85.43961066 233.25219275 85.43961066 85.5153454 0 168.27178228-30.32635541 233.0141693-85.39633366l38.63553876 45.43002723c-75.51835917 64.23388229-171.98278473 99.60200782-271.64970806 99.60200782z" p-id="25249"></path><path d="M513.23339441 353.49799971c-90.86005449 0-164.76634555-73.92792955-164.76634555-164.77716478S422.38415916 23.95448938 513.23339441 23.95448938s164.77716479 73.90629105 164.7771648 164.76634555-73.9171103 164.77716479-164.7771648 164.77716478z m0-269.90780894c-57.96953703 0-105.11982488 47.15028787-105.11982491 105.1198249s47.15028787 105.14146339 105.11982491 105.1414634 105.14146339-47.17192637 105.14146338-105.1414634-47.17192637-105.11982488-105.14146338-105.1198249zM174.41778753 940.78848295c-56.97416612 0-112.47691433-29.54736947-142.95473923-82.35612465-45.43002726-78.69921843-18.36026584-179.6752709 60.31731409-225.08365965 38.10539557-22.03881055 82.48595564-27.83792811 125.02724337-16.47771648 42.51964922 11.39266938 78.03924423 38.66799652 100.05641628 76.78421133 45.43002726 78.69921843 18.36026584 179.6752709-60.31731409 225.08365964-25.89046325 14.9413831-54.19361907 22.04962981-82.12892042 22.04962981z m-0.43276997-269.9186282c-18.23043484 0-36.19038847 4.77128888-52.39762371 14.12993941-50.20131613 28.98476853-67.47965705 93.4133973-38.49488852 143.62553268 14.05420468 24.32167213 36.70971242 41.71902478 63.85520856 48.97874097 27.08058066 7.2597162 55.42701348 3.54871373 79.77032409-10.50549094 50.20131613-28.98476853 67.47965705-93.4133973 38.49488855-143.62553268-14.05420468-24.32167213-36.73135092-41.71902478-63.85520859-48.97874097a105.7278667 105.7278667 0 0 0-27.37270038-3.62444847zM852.08145904 940.78848295c-27.93530134 0-56.23845716-7.10824669-82.11810118-22.04962981-78.67757993-45.40838875-105.74734135-146.37362197-60.31731409-225.08365964 45.40838875-78.69921843 146.39526046-105.74734135 225.08365963-60.2956756 78.67757993 45.40838875 105.74734135 146.37362197 60.31731412 225.08365965-30.48864415 52.79793592-85.99139237 82.3453054-142.96555848 82.3453054z m0.42195071-269.9186282a105.21719814 105.21719814 0 0 0-27.3727004 3.63526772c-27.13467691 7.2597162-49.79018467 24.65706885-63.85520857 48.97874097-28.98476853 50.20131613-11.7064276 114.64076415 38.49488852 143.62553267 24.36494913 14.05420468 52.72220118 17.76520712 79.77032411 10.50549095 27.13467691-7.2597162 49.79018467-24.65706885 63.85520858-48.97874097 28.98476853-50.20131613 11.7064276-114.64076415-38.49488854-143.62553268-16.20723526-9.36946979-34.18882736-14.14075866-52.3976237-14.14075866z" p-id="25250"></path></svg>