<?xml version="1.0" standalone="no"?><!DOCTYPE svg PUBLIC "-//W3C//DTD SVG 1.1//EN" "http://www.w3.org/Graphics/SVG/1.1/DTD/svg11.dtd"><svg class="icon" width="200px" height="200.00px" viewBox="0 0 1024 1024" version="1.1" xmlns="http://www.w3.org/2000/svg"><path d="M998.4 444.98488889c-14.67733333-34.36088889-35.61244445-65.30844445-62.35022222-91.70488889-26.624-26.39644445-57.68533333-47.104-92.27377778-61.66755555-34.36088889-14.44977778-70.76977778-21.95911111-108.31644445-22.528-3.75466667-14.10844445-8.41955555-27.98933333-14.22222222-41.5288889-15.36-36.06755555-37.43288889-68.49422222-65.42222222-96.256-27.98933333-27.76177778-60.52977778-49.49333333-96.82488889-64.73955555-37.54666667-15.70133333-77.36888889-23.77955555-118.32888889-23.77955555s-80.78222222 7.96444445-118.32888888 23.77955555c-36.29511111 15.24622222-68.83555555 36.97777778-96.8248889 64.73955555-27.98933333 27.76177778-50.06222222 60.18844445-65.42222222 96.256-15.92888889 37.43288889-24.12088889 77.25511111-24.12088888 118.10133334 0 7.73688889 0.34133333 15.47377778 0.91022222 23.09688889-25.6 13.76711111-48.92444445 31.97155555-68.72177778 53.93066667-42.21155555 46.76266667-65.42222222 106.83733333-65.42222222 169.4151111 0 34.24711111 6.82666667 67.69777778 20.36622222 99.10044445 12.97066667 30.26488889 31.40266667 57.344 54.95466666 80.66844445 8.30577778 8.192 17.06666667 15.81511111 26.28266667 22.75555555l35.95377778-82.83022222c-31.40266667-30.49244445-50.97244445-72.93155555-50.97244445-119.69422223 0-85.44711111 65.42222222-156.33066667 148.93511112-166.22933333-10.01244445-24.80355555-15.70133333-51.88266667-15.70133334-80.21333333 0-119.46666667 97.73511111-216.40533333 218.22577778-216.40533334s218.22577778 96.82488889 218.22577778 216.40533334c0 7.96444445-0.45511111 15.81511111-1.36533334 23.552 22.86933333-8.76088889 47.55911111-13.76711111 73.50044445-13.76711111 112.64 0 203.88977778 90.45333333 203.88977778 202.06933333 0 68.03911111-33.90577778 128.22755555-85.90222223 164.864L830.57777778 828.75733333c43.46311111-15.81511111 82.83022222-41.75644445 114.688-76.45866666 49.03822222-53.248 76.00355555-122.42488889 76.00355555-194.67377778 0.11377778-39.02577778-7.62311111-76.91377778-22.86933333-112.64zM205.71022222 687.55911111l-93.98044444 164.40888889h70.42844444l-70.42844444 140.97066667 234.83733333-211.39911112h-70.42844444l70.42844444-93.98044444zM441.57155555 687.55911111l-93.98044444 164.40888889h70.54222222l-70.54222222 140.97066667L582.54222222 781.53955555h-70.54222222l70.54222222-93.98044444zM675.49866667 687.55911111l-93.98044445 164.40888889H651.94666667l-70.42844445 140.97066667 234.83733333-211.39911112h-70.42844444l70.42844444-93.98044444zM618.38222222 403.22844445c-12.288 0-24.576-5.23377778-33.10933333-15.36-15.36-18.20444445-13.08444445-45.51111111 5.12-60.87111112 43.69066667-36.864 99.328-57.11644445 156.55822222-57.11644444 23.89333333 0 43.23555555 19.34222222 43.23555556 43.23555556s-19.34222222 43.23555555-43.23555556 43.23555555c-36.864 0-72.704 13.08444445-100.80711111 36.75022222-8.07822222 6.82666667-17.97688889 10.12622222-27.76177778 10.12622223z" /></svg>