<?xml version="1.0" standalone="no"?><!DOCTYPE svg PUBLIC "-//W3C//DTD SVG 1.1//EN" "http://www.w3.org/Graphics/SVG/1.1/DTD/svg11.dtd"><svg class="icon" width="200px" height="200.00px" viewBox="0 0 1024 1024" version="1.1" xmlns="http://www.w3.org/2000/svg"><path d="M268.41545175 199.77516956L207.65141043 140.06789417a35.08462908 35.08462908 0 0 0-49.667999 0c-13.73795717 13.73795717-13.73795717 35.40165886 0 49.13961603l60.23565837 59.70727538c13.73795717 13.73795717 35.93004182 13.73795717 49.66799898 0 14.26634013-13.2095742 14.26634013-35.40165886 0.52838297-49.13961602zM490.86468127 7.44376921c-19.55016981 0-35.40165886 15.85148904-35.40165884 34.87327589v69.74655177c0 19.55016981 15.85148904 34.87327589 35.40165884 34.87327589s35.40165886-15.85148904 35.40165886-34.87327589V42.3170451c0-19.02178685-15.85148904-34.87327589-35.40165886-34.87327589zM207.65141043 852.32813505l60.23565835-59.70727539c13.73795717-13.73795717 13.73795717-35.40165886 0-49.13961602a35.08462908 35.08462908 0 0 0-49.66799898 0L157.98341143 803.18851902c-13.73795717 13.73795717-13.73795717 35.40165886 0 49.13961603 13.73795717 13.73795717 35.93004182 13.73795717 49.667999 0zM129.97911414 461.32473872H59.17579642c-19.55016981 0-35.40165886 15.85148904-35.40165885 34.87327588 0 19.55016981 15.85148904 34.87327589 35.40165885 34.8732759h70.27493474c19.55016981 0 35.40165886-15.85148904 35.40165886-34.8732759 0-19.02178685-15.85148904-34.87327589-34.87327588-34.87327588zM999.1690965 714.4201804c-13.2095742-59.70727539-48.61123306-112.54557219-99.86438095-147.41884808V173.35602116c0-77.14391333-62.87757319-140.02148652-141.07825246-140.02148652S617.67659361 96.21210783 617.67659361 173.35602116v393.11692819c-26.94753137 18.49340388-49.13961602 41.2138715-67.10463695 69.21816881-35.40165886 54.95182867-47.02608415 120.4713167-32.75974401 184.40565583 14.26634013 63.93433913 52.30991383 117.82940186 108.31850844 153.23106072 40.15710556 25.89076543 85.59804082 38.0435737 132.095742 38.0435737 17.96502091 0 35.93004182-2.11353188 53.89506273-5.81221265 64.46272209-14.26634013 118.8861678-51.78153086 154.81620963-107.2617425 34.87327589-54.95182867 46.49770118-120.99969968 32.23136105-183.87727286zM906.70207709 860.78226253c-24.83399949 39.10033964-64.99110507 67.10463693-110.43204031 76.61553036-45.96931822 10.03927639-92.99540237 1.5851489-132.62412497-23.77723355-39.6287226-24.83399949-67.10463693-64.46272209-77.14391332-109.37527439-10.03927639-45.44093524-1.5851489-91.93863643 23.77723356-131.56735903 15.32310607-23.77723356 35.40165886-42.7990204 60.23565835-57.06536054l17.43663794-10.03927639V173.35602116c0-38.0435737 31.70297808-69.74655177 70.27493475-69.74655177s70.27493475 31.17459511 70.27493474 69.74655177v432.74565079l24.30561653 13.73795717c39.6287226 25.36238247 67.10463693 63.93433913 77.14391333 109.37527437 10.56765936 45.44093524 2.11353188 92.4670194-23.2488506 131.56735904zM793.62812195 668.45086218V348.25078357H723.3531872v320.72846157c-54.95182867 19.55016981-83.48450894 79.2574452-64.46272209 133.68089091 14.79472311 41.74225448 54.95182867 69.74655177 99.33599798 69.74655177 58.65050945 0 105.67659361-46.49770118 105.6765936-104.61982765 0.52838296-46.49770118-29.06106324-84.54127488-70.27493474-99.33599799zM461.27523507 609.27196976c17.43663795-28.00429731 40.15710556-50.72476493 67.10463694-69.2181688V191.84942504c-7.92574452-0.52838296-15.85148904-1.05676594-23.77723356-1.05676593-168.02578382 0-304.34858957 134.73765684-304.34858957 301.17829175 0 140.02148652 96.16570018 257.32250542 226.1479103 291.13901538-11.09604233-60.23565835 1.05676594-121.52808264 34.87327589-173.83799648z" /></svg>