<?xml version="1.0" standalone="no"?><!DOCTYPE svg PUBLIC "-//W3C//DTD SVG 1.1//EN" "http://www.w3.org/Graphics/SVG/1.1/DTD/svg11.dtd"><svg class="icon" width="200px" height="200.00px" viewBox="0 0 1024 1024" version="1.1" xmlns="http://www.w3.org/2000/svg"><path d="M926.14787539 97.85212461v276.47710599a6.67980402 6.67980402 0 0 1-6.67980526 6.67980401h-63.12415193a6.67980402 6.67980402 0 0 0-6.67980401 6.67980527V919.46807013a6.67980402 6.67980402 0 0 1-6.67980402 6.67980526H180.94889221a6.67980402 6.67980402 0 0 1-6.67980403-6.67980526V387.622041a6.67980402 6.67980402 0 0 0-6.67980527-6.67980402H104.53192987a6.67980402 6.67980402 0 0 1-6.67980526-6.679804V104.53192987a6.67980402 6.67980402 0 0 1 6.67980526-6.67980526h243.21167865a6.67980402 6.67980402 0 0 1 6.67980528 5.5442381 160.31530643 160.31530643 0 0 0 315.55396068 0 6.67980402 6.67980402 0 0 1 6.67980526-5.5442381H926.14787539m93.51726126-93.51726126h-434.18728745a6.67980402 6.67980402 0 0 0-6.67980527 6.67980403v61.12021058a68.5347935 68.5347935 0 0 1-62.65656476 69.26957241A66.79804393 66.79804393 0 0 1 445.20195607 74.74000169V11.01466738a6.67980402 6.67980402 0 0 0-6.67980527-6.67980403H11.01466738a6.67980402 6.67980402 0 0 0-6.67980403 6.67980403v456.83182572a6.67980402 6.67980402 0 0 0 6.67980403 6.67980402h63.1241519a6.67980402 6.67980402 0 0 1 6.67980403 6.67980402V1012.98533262a6.67980402 6.67980402 0 0 0 6.67980528 6.67980403h849.06994171a6.67980402 6.67980402 0 0 0 6.67980403-6.67980403V481.13930351a6.67980402 6.67980402 0 0 1 6.679804-6.67980401H1012.98533262a6.67980402 6.67980402 0 0 0 6.67980403-6.67980527V4.33486335z" /></svg>