<?xml version="1.0" standalone="no"?><!DOCTYPE svg PUBLIC "-//W3C//DTD SVG 1.1//EN" "http://www.w3.org/Graphics/SVG/1.1/DTD/svg11.dtd"><svg class="icon" width="200px" height="200.00px" viewBox="0 0 1024 1024" version="1.1" xmlns="http://www.w3.org/2000/svg"><path d="M510.49033438 12.68312746c-276.17934732 0-500.07282363 223.87446571-500.07282363 500.07282363 0 276.18046558 223.89347631 500.07394189 500.07394191 500.07394189s500.07394189-223.89347631 500.07394188-500.07394189c0-276.19835792-223.89459458-500.07282363-500.07394188-500.07282363z m0 928.7071517c-236.72898891 0-428.6332098-191.90198436-428.63320981-428.63320981 0-236.73010719 191.9042209-428.63432808 428.63320981-428.63432809s428.63656461 191.90645745 428.63656462 428.63320983c0 236.73122546-191.90645745 428.63432808-428.63544634 428.63432807zM546.20790474 191.27992545h-71.43514072v357.19583253l215.43152092 57.7117211 35.71757036-61.86274241L546.20790474 496.17646774z" /></svg>