<?xml version="1.0" standalone="no"?><!DOCTYPE svg PUBLIC "-//W3C//DTD SVG 1.1//EN" "http://www.w3.org/Graphics/SVG/1.1/DTD/svg11.dtd"><svg t="1646026076207" class="icon" viewBox="0 0 1024 1024" version="1.1" xmlns="http://www.w3.org/2000/svg" p-id="35792" xmlns:xlink="http://www.w3.org/1999/xlink" width="200" height="200"><defs><style type="text/css"></style></defs><path d="M837.31969359 949.45594606L111.10750737 949.45594606c-60.10344551 0-109.01203977-48.92138246-109.01203979-109.01203976L2.09546647 183.5549327c0-60.1069331 48.90859427-109.00855333 109.01203976-109.00855332l729.55320403 0c60.1069331 0 109.01087762 48.90162023 109.01087762 109.00855332l0 106.78934507c0 20.05889379-16.24590238 36.33967203-36.33967203 36.33967203-20.08911877 0-36.32804712-16.28077709-36.32804713-36.33967203l0-106.78934507c0-20.01588176-16.28426467-36.33967203-36.34432177-36.33967203L111.10750737 147.21526067c-20.02750666 0-36.33967203 16.32379026-36.33967202 36.33967203l0 656.8878103c0 20.05540735 16.31216536 36.32804712 36.33967202 36.32804713l726.21102407 0c20.06005709 0 36.33967203-16.27263977 36.33967203-36.32804713l0-112.34840783c0-20.10074367 16.23660291-36.33967203 36.33269686-36.33967202s36.3466472 16.23892721 36.3466472 36.33967202l0 112.34840783C946.33754638 900.53456362 897.45568838 949.45594606 837.31969359 949.45594606L837.31969359 949.45594606z" p-id="35793"></path><path d="M716.17234177 510.67126535c0-0.02789954 0.00697517-0.05812454 0.00697518-0.08602521l-0.00697518 0c-0.04998721-9.24999211-3.87344138-18.43023479-10.41249051-24.98090882-6.58903634-6.58089788-15.85065335-10.41249051-25.15760784-10.41249053-9.30927992 0-18.57322235 3.8315915-25.15295809 10.41249053-6.54369886 6.5506729-10.36250217 15.73091559-10.41249052 24.98090882l-0.00697517 0c0 0.02789954 0 0.05812454 0 0.08602521 0 0.02557524 0 0.05463693 0 0.09765009l0.00697517 0c0.04998721 9.24999211 3.86879164 18.41860988 10.41249052 24.9681218 6.57973574 6.59019849 15.83205328 10.41132723 25.15295809 10.41132721 9.30695448 0 18.56857262-3.82112874 25.15063381-10.41132721 6.53904802-6.54951076 10.36947734-15.71812853 10.41946454-24.9681218l0.00697518 0C716.17931695 510.72474013 716.17234177 510.69684058 716.17234177 510.67126535z" p-id="35794"></path><path d="M956.350137 655.24642944L580.71348282 655.24642944c-35.59916117 0-64.56162311-28.96362522-64.56162311-64.56394856L516.15185971 430.25433801c0-35.60032333 28.96246307-64.56278639 64.56162311-64.56278639l375.63665418 0c35.59916117 0 64.56162311 28.96246307 64.56162312 64.56278639L1020.91176012 590.68248088C1020.91176012 626.28280422 991.94929817 655.24642944 956.350137 655.24642944zM586.58293268 584.81419318l363.89542902 0L950.4783617 436.12378788 586.58293268 436.12378788 586.58293268 584.81419318z" p-id="35795"></path></svg>