<?xml version="1.0" standalone="no"?><!DOCTYPE svg PUBLIC "-//W3C//DTD SVG 1.1//EN" "http://www.w3.org/Graphics/SVG/1.1/DTD/svg11.dtd"><svg t="1717844387589" class="icon" viewBox="0 0 1024 1024" version="1.1" xmlns="http://www.w3.org/2000/svg" p-id="34616" xmlns:xlink="http://www.w3.org/1999/xlink" width="200" height="200"><path d="M110.372571 355.108571a388.534857 388.534857 0 0 1 731.062858-18.505142l55.369142-21.504A447.926857 447.926857 0 0 0 53.906286 336.457143l56.466285 18.651428z" p-id="34617"></path><path d="M29.696 248.978286l10.678857 174.372571 140.434286-97.792c0.073143 0-85.942857-0.365714-151.113143-76.580571z m810.861714 346.770285a388.608 388.608 0 0 1-731.062857 18.505143l-55.442286 21.504A447.926857 447.926857 0 0 0 897.024 614.4l-56.466286-18.651429z" p-id="34618"></path><path d="M921.161143 701.805714l-10.752-174.372571-140.434286 97.792s86.016 0.365714 151.186286 76.580571zM412.818286 267.922286h59.392V520.045714h-59.392z" p-id="34619"></path><path d="M410.258286 524.580571l27.062857-52.882285 224.475428 114.688-26.989714 52.882285z" p-id="34620"></path></svg>