<?xml version="1.0" standalone="no"?><!DOCTYPE svg PUBLIC "-//W3C//DTD SVG 1.1//EN" "http://www.w3.org/Graphics/SVG/1.1/DTD/svg11.dtd"><svg class="icon" width="200px" height="200.00px" viewBox="0 0 1024 1024" version="1.1" xmlns="http://www.w3.org/2000/svg"><path d="M784.02152372 390.35417002c-56.29889614 0-106.44749296-24.71947299-141.81171604-63.39539544L426.59449638 451.5023418c5.32237505 17.97779853 9.10717499 36.5469722 9.10717499 56.18062041 0 31.93424801-8.27924956 61.50299547-21.6443239 88.11486958l207.21778716 119.69429273c34.4180231-54.2882216 94.26516889-90.48036895 162.74638909-90.48036896 106.92059352 0 193.49788799 87.64176901 193.49788799 195.62683708s-86.69556902 195.62683708-193.49788799 195.62683708c-106.92059352 0-193.49788799-87.64176901-193.49788798-195.62683708 0-7.21477502 1.30102483-14.07472403 2.12895025-21.17122333L358.23155073 664.27905315l0.70965086-1.53757513c-32.52562313 25.19257355-72.73912071 40.68659699-116.85569277 40.68659699-106.92059352 0-193.49788799-87.64176901-193.49788799-195.62683708 0-108.10334264 86.69556902-195.62683708 193.49788799-195.62683708 56.29889614 0 106.44749296 24.71947299 141.81171604 63.39539544l215.6153113-124.54356721c-5.32237505-17.97779853-9.10717499-36.5469722-9.10717498-56.29889613 0-108.10334264 86.69556902-195.62683708 193.49788798-195.62683709 106.92059352 0 193.49788799 87.64176901 193.49788682 195.62683709 0.11827457 107.98506808-86.4590199 195.62683708-193.37961226 195.62683707z m0 547.8497651c64.10504629 0 116.14604193-52.5140962 116.14604193-117.44706792 0-64.81469599-52.04099678-117.44706791-116.14604193-117.44706675s-116.14604193 52.5140962-116.14604192 117.44706675 52.04099678 117.44706791 116.14604192 117.44706792zM242.08550882 390.35417002c-64.10504629 0-116.14604193 52.5140962-116.14604193 117.44706791 0 64.81469599 52.04099678 117.44706791 116.14604193 117.44706676s116.14604193-52.5140962 116.14604191-117.44706676c0-64.81469599-52.04099678-117.44706791-116.14604191-117.44706791zM784.02152372 77.28026619c-64.10504629 0-116.14604193 52.5140962-116.14604192 117.44706676 0 64.81469599 52.04099678 117.44706791 116.14604192 117.4470679s116.14604193-52.5140962 116.14604193-117.4470679c0-64.81469599-52.04099678-117.44706791-116.14604193-117.44706676z" /></svg>