<?xml version="1.0" standalone="no"?><!DOCTYPE svg PUBLIC "-//W3C//DTD SVG 1.1//EN" "http://www.w3.org/Graphics/SVG/1.1/DTD/svg11.dtd"><svg t="1621122463150" class="icon" viewBox="0 0 1024 1024" version="1.1" xmlns="http://www.w3.org/2000/svg" p-id="11475" xmlns:xlink="http://www.w3.org/1999/xlink" width="200" height="200"><defs><style type="text/css"></style></defs><path d="M512 7.13007408c278.8435437 0 504.86992592 226.02638222 504.86992592 504.86992592 0 37.33448416-4.06484977 74.15115261-12.01331556 109.98397155l-3.18456414 13.38552534-75.34212741-18.90025837c8.54395259-33.86512118 12.86771083-68.86943645 12.86771082-104.46923852 0-235.94254578-191.25508384-427.19762963-427.19762963-427.19762963S84.80237037 276.05745422 84.80237037 512 276.05745422 939.19762963 512 939.19762963a425.38527645 425.38527645 0 0 0 273.56182755-99.05806814l2.79620267-2.40784118-303.51744356-298.00271053 54.31882668-55.48390992 313.77018547 308.04832712 46.49981511 45.74898251-27.1853037 27.7031182A503.36826194 503.36826194 0 0 1 512 1016.86992592C233.1564563 1016.86992592 7.13007408 790.8435437 7.13007408 512S233.1564563 7.13007408 512 7.13007408z m0 258.90765391a245.96227201 245.96227201 0 0 1 241.04302577 295.12883556l-2.14893272 9.57958281-75.44569128-18.48600652a168.28997571 168.28997571 0 1 0-131.03316385 124.92294402l7.89668386-1.73468209 18.51189688 75.4197997A245.96227201 245.96227201 0 1 1 512 266.03772799z" p-id="11476"></path></svg>