<?xml version="1.0" standalone="no"?><!DOCTYPE svg PUBLIC "-//W3C//DTD SVG 1.1//EN" "http://www.w3.org/Graphics/SVG/1.1/DTD/svg11.dtd"><svg class="icon" width="200px" height="200.00px" viewBox="0 0 1024 1024" version="1.1" xmlns="http://www.w3.org/2000/svg"><path d="M552.27733333 819.31377778h472.40533334L746.496 337.35111111l-97.05244445 168.16355556-234.496-406.18666667L-0.79644445 819.31377778h553.07377778z m304.24177778-97.05244445H636.35911111l110.13688889-190.69155555 110.02311111 190.69155555z m-689.03822222 0L414.94755555 293.54666667l178.40355556 309.02044444-69.06311111 119.58044444H167.48088889zM163.95377778 876.08888889h679.59466667v97.05244444H163.95377778zM819.31377778 293.54666667c66.90133333 0 121.40088889-54.38577778 121.40088889-121.40088889 0-66.90133333-54.38577778-121.40088889-121.40088889-121.40088889-66.90133333 0-121.40088889 54.38577778-121.40088889 121.40088889 0 67.01511111 54.38577778 121.40088889 121.40088889 121.40088889z m0-145.63555556c13.42577778 0 24.23466667 10.92266667 24.23466667 24.23466667s-10.92266667 24.23466667-24.23466667 24.23466667-24.23466667-10.92266667-24.23466667-24.23466667 10.80888889-24.23466667 24.23466667-24.23466667z" /></svg>