<?xml version="1.0" standalone="no"?><!DOCTYPE svg PUBLIC "-//W3C//DTD SVG 1.1//EN" "http://www.w3.org/Graphics/SVG/1.1/DTD/svg11.dtd"><svg class="icon" width="200px" height="200.00px" viewBox="0 0 1024 1024" version="1.1" xmlns="http://www.w3.org/2000/svg"><path d="M766.46873999 766.46873999h254.46874117v101.78749693h-152.68124424v152.68124424h-101.78749693v-254.46874117zM257.53126001 257.53126001H3.06251884V155.74376308h152.68124424V3.06251884h101.78749693v254.46874117z m578.35655315 434.42903278L763.92405298 619.89474552l71.96376018-71.96375899a254.46873999 254.46873999 0 1 0-359.86969266-359.86969263L404.05436033 260.07594702 332.03970721 188.11218684 404.10525448 116.14842787a356.25623692 356.25623692 0 0 1 503.84810596 503.84810594l-72.01465434 71.96375898z m-143.92752037 143.92752037l-72.01465312 71.96375897a356.25623692 356.25623692 0 0 1-503.84810595-503.84810594l72.01465312-71.96375898L260.07594702 404.10525448l-71.96376018 71.96375899a254.46873999 254.46873999 0 1 0 359.86969266 359.86969263l71.96376017-71.96375898 72.01465312 71.96375898z m-36.03277362-539.82998664l72.01465431 72.01465431-359.86969265 359.81879851-72.01465431-71.96376017 359.86969265-359.81879851z" /></svg>