<?xml version="1.0" standalone="no"?><!DOCTYPE svg PUBLIC "-//W3C//DTD SVG 1.1//EN" "http://www.w3.org/Graphics/SVG/1.1/DTD/svg11.dtd"><svg class="icon" width="200px" height="200.00px" viewBox="0 0 1024 1024" version="1.1" xmlns="http://www.w3.org/2000/svg"><path d="M396.27125213 86.47131355v77.36819113h618.94916427v-77.36819113H396.27125213z m0 464.21157026h618.94916427V473.3086339H396.27125213v77.37667341z m0 386.84337912h618.94916427v-77.36819112H396.27125213v77.36819112zM125.488642 9.10312243c-64.0921934 0-116.06198072 51.95282275-116.06198074 116.04501615 0 64.09946394 51.96857556 116.06076898 116.06198074 116.06076898 64.08492287 0 116.05228668-51.96009328 116.05228667-116.06198073 0.00121176-64.09098166-51.96736381-116.04501615-116.05228667-116.04501615z m0 773.67827597c-64.0921934 0-116.06198072 51.96857556-116.06198074 116.06198072s51.96857556 116.0547102 116.06198074 116.0547102c64.08492287 0 116.05228668-51.96009328 116.05228667-116.05592195 0.00121176-64.0921934-51.96736381-116.06198072-116.05228667-116.06198073z m0-386.83489683c-64.0921934 0-116.06198072 51.96009328-116.06198074 116.05228667s51.96857556 116.04501615 116.06198074 116.04501615c64.08492287 0 116.05228668-51.95282275 116.05228667-116.04501615 0.00121176-64.0921934-51.96736381-116.05228668-116.05228667-116.05228667z" /></svg>