<?xml version="1.0" standalone="no"?><!DOCTYPE svg PUBLIC "-//W3C//DTD SVG 1.1//EN" "http://www.w3.org/Graphics/SVG/1.1/DTD/svg11.dtd"><svg t="1638965127576" class="icon" viewBox="0 0 1024 1024" version="1.1" xmlns="http://www.w3.org/2000/svg" p-id="13611" xmlns:xlink="http://www.w3.org/1999/xlink" width="200" height="200"><defs><style type="text/css"></style></defs><path d="M853.344 298.67733334C853.344 251.73333334 814.944 213.33333334 768 213.33333334s-85.344 38.4-85.344 85.344 38.4 85.344 85.344 85.344 85.344-38.4 85.344-85.344z" p-id="13612"></path><path d="M0 42.67733334v853.344h512v-85.344H85.344V699.73333334l256-256L512 614.38933334l59.744-59.744-230.4-230.4-256 256V127.98933334h853.344v256L1024.032 469.33333334V42.67733334z" p-id="13613"></path><path d="M951.456 712.53333334l59.744-59.744-200.544-200.544-200.544 200.544 59.744 59.744L768 614.38933334v196.256h85.344v-196.256zM597.344 895.98933334h85.344V981.33333334h-85.344v-85.344zM768 895.98933334h85.344V981.33333334H768v-85.344zM938.656 895.98933334H1024V981.33333334h-85.344v-85.344z" p-id="13614"></path></svg>