<?xml version="1.0" standalone="no"?><!DOCTYPE svg PUBLIC "-//W3C//DTD SVG 1.1//EN" "http://www.w3.org/Graphics/SVG/1.1/DTD/svg11.dtd"><svg class="icon" width="200px" height="200.00px" viewBox="0 0 1024 1024" version="1.1" xmlns="http://www.w3.org/2000/svg"><path d="M512 578.04787134c-158.07457092 0-286.20744066-128.13286974-286.20744066-286.20744169S353.92542908 5.63298899 512 5.63298899s286.20744066 128.13286974 286.20744066 286.20744066-128.13286974 286.20744066-286.20744066 286.20744169z m0-88.06382868a198.143613 198.143613 0 1 0 0-396.28722601 198.143613 198.143613 0 0 0 0 396.28722601zM115.71277399 1018.36701065H27.64894635v-176.12765531c0-121.5721149 98.63148701-220.15956966 220.11553739-220.15957068h528.47103252C897.71956664 622.07978466 996.35105365 720.77732057 996.35105365 842.23935534v176.12765531h-88.06382764v-176.12765531c0-72.8287861-59.22292468-132.095742-132.05170975-132.095742H247.76448374A132.13977426 132.13977426 0 0 0 115.71277399 842.23935534v176.12765531z" /></svg>