<?xml version="1.0" standalone="no"?><!DOCTYPE svg PUBLIC "-//W3C//DTD SVG 1.1//EN" "http://www.w3.org/Graphics/SVG/1.1/DTD/svg11.dtd"><svg class="icon" width="200px" height="200.00px" viewBox="0 0 1024 1024" version="1.1" xmlns="http://www.w3.org/2000/svg"><path d="M666.62619322 38.07071779l-310.02551741 115.96964492L9.46487205 41.16324165v814.88003827L357.37380678 985.92928221l310.02551741-115.96964492 347.13580376 112.87712106V167.95672008L666.62619322 38.07071779z m270.59583813 184.00516993v317.75682706l-482.43372284 59.53108439-55.66542958-378.83417341L666.62619322 120.0226002l270.59583813 102.05328752z m-850.4440627 241.98999238l258.99887362-72.6743108 31.69836965 218.02293242-290.69724327 35.56402444V464.0658801z m235.03181369-240.44373044l13.14322644 90.45632303-248.17504013 69.58178696V147.85531498l235.03181369 75.76683468zM86.77796865 801.92411228v-78.85935853l302.29420772-37.88341734 28.60584577 195.60213443-60.30421536 23.19392896-270.59583813-102.05328752z m579.07509359-13.9163574l-173.95446739 64.94300116-26.28645282-177.04699122 471.60988932-58.75795344v258.99887364l-271.36896911-88.13693014zM620.23833526 403.76166474l61.85047729 61.85047729 61.85047727-61.85047729c34.0177625-34.0177625 34.0177625-89.68319207 0-123.70095456s-89.68319207-34.0177625-123.70095456 0-34.0177625 89.68319207 0 123.70095456z" /></svg>