<?xml version="1.0" standalone="no"?><!DOCTYPE svg PUBLIC "-//W3C//DTD SVG 1.1//EN" "http://www.w3.org/Graphics/SVG/1.1/DTD/svg11.dtd"><svg class="icon" width="200px" height="200.00px" viewBox="0 0 1024 1024" version="1.1" xmlns="http://www.w3.org/2000/svg"><path d="M512 175.3336482c-215.92247403 0-403.9819474 135.61592796-504.99321529 336.6663518 101.01126789 201.08829832 289.07074126 336.6663518 504.99321529 336.6663518S915.9819474 713.08829832 1016.99321529 512c-101.01126789-201.05042384-289.07074126-336.6663518-504.99321529-336.6663518z m0 547.08439977c-116.2241885 0-210.41804797-94.19385948-210.41804797-210.41804797S395.7758115 301.58195203 512 301.58195203 722.41804797 395.7758115 722.41804797 512 628.2241885 722.41804797 512 722.41804797zM512 512m-126.24830383 0a126.24830383 126.24830383 0 1 0 252.49660766 0 126.24830383 126.24830383 0 1 0-252.49660766 0Z" /></svg>