<?xml version="1.0" standalone="no"?><!DOCTYPE svg PUBLIC "-//W3C//DTD SVG 1.1//EN" "http://www.w3.org/Graphics/SVG/1.1/DTD/svg11.dtd"><svg class="icon" width="200px" height="200.00px" viewBox="0 0 1024 1024" version="1.1" xmlns="http://www.w3.org/2000/svg"><path d="M556.03191434 817.51543493V930.30318298h242.17552632v88.06382766H225.79255934v-88.06382766h242.17552632v-112.78774805C281.4929302 794.42069673 137.72873066 626.504992 137.72873066 423.93617164h88.06382868c0 170.84382666 128.79334845 308.22339835 286.20744066 308.22339835s286.20744066-137.37957168 286.20744066-308.22339835h88.06382868c0 202.54680474-143.76419956 370.48452406-330.239355 393.57926329zM512 5.63298898a198.143613 198.143613 0 0 1 198.143613 198.14361301v242.17552734a198.143613 198.143613 0 0 1-396.287226 0V203.77660199a198.143613 198.143613 0 0 1 198.143613-198.14361301z m0 88.06382766a110.07978535 110.07978535 0 0 0-110.07978535 110.07978535v242.17552734a110.07978535 110.07978535 0 0 0 220.1595707 0V203.77660199a110.07978535 110.07978535 0 0 0-110.07978535-110.07978535z" /></svg>