<?xml version="1.0" standalone="no"?><!DOCTYPE svg PUBLIC "-//W3C//DTD SVG 1.1//EN" "http://www.w3.org/Graphics/SVG/1.1/DTD/svg11.dtd"><svg class="icon" width="200px" height="187.55px" viewBox="0 0 1092 1024" version="1.1" xmlns="http://www.w3.org/2000/svg"><path d="M784.937618 68.718336v67.750473H68.718336V68.718336h716.219282z m68.718337-68.718336H0v1024h1024V751.062382h68.718336V409.406427h-68.718336V136.468809H853.655955V0zM68.718336 956.249527V205.187146h887.531191v204.219281H751.062382c-95.818526 0-170.344045 75.493384-170.344046 171.311909 0 94.850662 74.52552 170.344045 170.344046 170.344046h205.187145v205.187145H68.718336z m682.344046-272.937618c-58.071834 0-102.593573-44.521739-102.593573-102.593573s44.521739-102.593573 102.593573-102.593572h272.937618v205.187145H751.062382zM768.483932 529.42155c-27.100189 0-51.296786 23.228733-51.296786 51.296786 0 27.100189 24.196597 51.296786 51.296786 51.296787s51.296786-24.196597 51.296786-51.296787c0-28.068053-24.196597-51.296786-51.296786-51.296786z" /></svg>