<?xml version="1.0" standalone="no"?><!DOCTYPE svg PUBLIC "-//W3C//DTD SVG 1.1//EN" "http://www.w3.org/Graphics/SVG/1.1/DTD/svg11.dtd"><svg class="icon" width="200px" height="200.00px" viewBox="0 0 1024 1024" version="1.1" xmlns="http://www.w3.org/2000/svg"><path d="M373.4489278 621.24462307c-4.67705593 2.361788-9.46623715 3.489005-15.28005265 3.489005-13.00176221 0-23.60714456-6.97800999-29.53904946-17.44502499l-2.3928014-4.60906505-93.16657233-200.29035751c-1.14033804-2.361788-1.14033804-4.61025788-1.14033805-6.97204589 0-9.33979798 7.07105013-16.31780798 16.53609444-16.31780798 3.53671789 0 7.07105013 1.12602418 10.60776801 3.48781217l109.69789551 76.85353568c8.21138817 4.60906505 17.67762532 8.09926287 28.27942921 8.09926287 5.93071208 0 11.74929886-1.12721701 17.68001095-3.49019781L929.14185874 238.22225112c-92.02504149-107.12020669-244.1516234-176.99573238-416.45598597-176.99573237-280.75575887 0-509.62375114 187.46155454-509.62375114 419.03128914 0 125.68529173 68.42147539 239.7775443 175.730148 316.63107997 8.20661688 5.85079299 14.13732895 16.31780798 14.13732897 26.77885885 0 3.489005-1.14153087 6.97800999-2.39280138 10.46701499-8.20780971 31.39269519-22.46203524 82.70313584-22.46203524 84.95637701-1.14272369 3.48304088-2.40115114 8.09926287-2.40115113 12.82283887 0 9.33979798 7.07224295 16.31780798 16.53848008 16.31780798 3.53433224 0 7.07105013-1.12602418 9.46504432-3.489005l110.83942638-64.02353985c8.21258099-4.61622199 17.67762532-8.10403416 27.14386245-8.10403418 4.67109182 0 10.60299672 1.12602418 15.28005265 2.361788 51.8829953 15.08204415 108.56113594 23.29581797 166.37484331 23.29581797 280.75695169 0 509.62136551-187.46155454 509.6213655-419.03128914 0-69.87552567-21.20837908-136.15230671-57.81251456-194.43360041l-586.14091095 334.0737193-3.53433223 2.361788z" /></svg>