<?xml version="1.0" standalone="no"?><!DOCTYPE svg PUBLIC "-//W3C//DTD SVG 1.1//EN" "http://www.w3.org/Graphics/SVG/1.1/DTD/svg11.dtd"><svg class="icon" width="200px" height="200.00px" viewBox="0 0 1024 1024" version="1.1" xmlns="http://www.w3.org/2000/svg"><path d="M690.42023987 350.25348886c11.11581913 0 22.23163828 0 33.34745739 1.81482763C692.34849418 209.37749527 540.24325476 103.66378674 365.90637704 103.66378674 171.26611537 103.66378674 11.78813874 237.16704312 11.78813874 404.01775694c0 96.41271701 51.94944047 177.96653295 140.87599358 239.21696495l-35.27571176 105.71370855L241.59068545 687.81142516c44.46327656 9.30099152 79.73898832 18.48855632 124.20226485 18.48855632 11.11581913 0 22.23163828 0 35.27571177-1.81482761-7.37273718-24.15989262-11.11581913-48.2063585-11.11581915-74.18107874 0.11342672-153.92006706 131.8018555-280.05058627 300.46739695-280.05058627z m-191.01060646-96.41271702c27.78954786 0 44.46327656 18.48855632 44.46327658 44.46327656 0 25.97472023-18.48855632 44.46327656-44.46327658 44.46327654-27.78954786 0-53.76426809-18.60198305-53.76426807-44.46327654 0-27.78954786 27.90297458-44.46327656 53.76426807-44.46327656z m-245.34200814 82.91493663c-28.01640129 0-54.21797497-18.37512959-54.21797496-44.00956965 0-27.56269441 28.01640129-44.00956966 54.21797496-44.00956965s44.80355674 18.37512959 44.80355675 44.00956965c0.11342672 25.74786678-18.60198305 44.00956966-44.80355675 44.00956965zM1013.11927507 626.56099317c0-142.80424792-140.87599358-257.70552125-300.35397021-257.70552127-168.77896814 0-302.28222455 116.82952768-302.28222455 257.70552127 0 142.80424792 133.50325639 257.70552125 302.28222455 257.70552126 35.27571175 0 70.43799679-9.30099152 105.71370855-18.48855631l96.41271702 53.76426805-25.97472025-89.03997982c70.43799679-53.76426809 124.20226487-124.20226487 124.20226489-203.94125318z m-398.69494157-44.46327657c-16.67372871 0-35.27571175-16.67372871-35.27571176-35.27571174 0-16.67372871 18.48855632-35.27571175 35.27571176-35.27571176 25.97472023 0 44.46327656 18.48855632 44.46327655 35.27571176 0 18.60198305-16.67372871 35.27571175-44.46327655 35.27571174z m201.89957212-8.62043117c-16.78715543 0-35.50256521-16.56030199-35.50256522-34.82200484 0-16.56030199 18.71540979-34.82200486 35.50256522-34.82200485 26.20157368 0 44.80355674 18.37512959 44.80355674 34.82200485 0 18.37512959-18.60198305 34.82200486-44.80355674 34.82200484z" /></svg>