<?xml version="1.0" standalone="no"?><!DOCTYPE svg PUBLIC "-//W3C//DTD SVG 1.1//EN" "http://www.w3.org/Graphics/SVG/1.1/DTD/svg11.dtd"><svg class="icon" width="200px" height="191.04px" viewBox="0 0 1072 1024" version="1.1" xmlns="http://www.w3.org/2000/svg"><path d="M160.81026032 1012.95014605H18.78091852v-197.50955344c0-39.39095027 31.62372063-71.0146709 71.01467089-71.0146709 39.39095027 0 71.0146709 31.62372063 71.01467091 71.0146709v197.50955344zM62.61028571 59.80011007h55.48021164v711.81111534H62.61028571zM89.2407873 70.8961524m-71.56947301 0a71.56947302 71.56947302 0 1 0 143.13894603 0 71.56947302 71.56947302 0 1 0-143.13894603 0ZM538.63050159 824.31742648l125.94008042-58.25422223V163.54810584l-125.94008042-59.36382646zM868.73776084 258.41926774l-126.49488254-58.80902434v530.39082328l126.49488254-58.80902433zM461.51300741 68.12214181l-75.45308784-35.50733544-307.9151746 423.31401481 307.9151746 439.40327619 75.45308784-34.95253334V68.12214181zM343.89495873 719.45982648l-181.97509418-260.75699472 181.97509418-250.21575449v510.97274921zM945.30045291 294.4814053V635.12990478l126.49488254-58.80902434V353.84523176z" /></svg>