<?xml version="1.0" standalone="no"?><!DOCTYPE svg PUBLIC "-//W3C//DTD SVG 1.1//EN" "http://www.w3.org/Graphics/SVG/1.1/DTD/svg11.dtd"><svg class="icon" width="200px" height="200.00px" viewBox="0 0 1024 1024" version="1.1" xmlns="http://www.w3.org/2000/svg"><path d="M988.31781252 464.32355697c-14.40342189-33.71963887-34.94783763-63.9779903-61.07497501-89.88181881-26.1271374-25.90382852-56.49714326-46.2249354-90.32843656-60.40504842-33.60798442-14.0684586-69.22574865-21.54930563-105.96005723-22.10757781-3.68459631-13.73349529-8.26242807-27.35533617-13.95680415-40.53055928-15.07334849-35.39445537-36.62265413-67.10431442-64.08964472-94.34799618-27.35533617-27.13202731-59.28850409-48.45802405-94.90626834-63.41971811-36.84596298-15.4083118-75.81336022-23.22412213-116.00895621-23.22412212s-79.16299324 7.81581033-116.0089562 23.22412212c-35.50610979 14.85003963-67.43927772 36.28769084-94.90626833 63.41971811-27.4669906 27.24368173-49.01629624 58.95354081-64.08964471 94.34799618-15.63162067 36.73430855-23.55908543 75.70170578-23.55908543 115.78564733 0 7.59250148 0.33496329 15.07334849 0.89323546 22.55419554-25.01059306 13.51018643-47.78809746 31.26324133-67.21596885 52.81254695-41.42379476 45.77831766-64.20129915 104.73185846-64.20129916 166.03014235 0 33.60798442 6.699266 66.32273339 19.87448914 97.13935698 12.7286054 29.58842484 30.81662359 56.16217996 53.81743685 79.0513388 23.00081326 22.7775044 49.68622284 40.64221372 79.38630207 53.14751025 8.70904579 3.68459631 17.52974604 6.81092043 26.57375515 9.49062683l1.11654433-89.99347325c-56.49714326-26.1271374-96.02281266-83.18255282-96.02281266-148.83535961 0-83.62917055 64.08964472-153.07822808 145.93234435-162.79216378-9.82559014-24.34066645-15.29665737-50.80276717-15.29665736-78.49306662 0-117.01384612 95.68784935-211.80846001 213.70658535-211.80845999s213.70658537 94.90626831 213.70658537 211.80845999c0 7.81581033-0.44661773 15.51996623-1.33985321 23.11246769 22.33088667-8.59739137 46.55989869-13.51018643 71.90545508-13.51018643 110.20292567 0 199.63812678 88.65362005 199.63812677 197.96331028 0 80.05622869-48.01140632 149.05866849-117.01384612 180.21025537l-1.22819877 90.77505429c49.01629624-14.51507635 93.45476069-41.98206695 128.51425276-80.16788314 48.01140632-52.25427479 74.47350702-119.91686138 74.473507-190.81742652 0.22330886-38.40912506-7.36919258-75.59005135-22.33088666-110.53788899zM319.73106582 638.16950964h445.27788008v84.85736932H319.73106582zM258.9910541 753.17357596h445.27788008v84.85736931H258.9910541zM299.40995897 868.17764227h445.27788006v84.85736932H299.40995897zM615.83862298 424.01630654c-12.0586788 0-24.1173576-5.13610392-32.49144009-15.07334849-15.07334849-17.86470933-12.84025982-44.66177332 5.0244495-59.73512182 42.76364796-36.06438196 97.25101142-55.93887109 153.30153694-55.9388711 23.44743099 0 42.42868465 18.98125366 42.42868466 42.42868465s-18.98125366 42.42868465-42.42868466 42.42868469c-36.06438196 0-71.12387401 12.7286054-98.59086462 35.9527275-7.81581033 6.58761156-17.52974604 9.93724456-27.24368173 9.93724457z" /></svg>