<?xml version="1.0" standalone="no"?><!DOCTYPE svg PUBLIC "-//W3C//DTD SVG 1.1//EN" "http://www.w3.org/Graphics/SVG/1.1/DTD/svg11.dtd"><svg class="icon" width="200px" height="200.00px" viewBox="0 0 1024 1024" version="1.1" xmlns="http://www.w3.org/2000/svg"><path d="M399.155791 94.597659A8.501597 8.501597 0 0 1 407.657388 85.999453h52.265501a273.017203 273.017203 0 0 1 266.254569 210.221314l95.54636 383.924403v2.415227a8.501597 8.501597 0 0 1-8.598206 8.501597h-318.809897a8.501597 8.501597 0 0 1-8.501598-8.501597V358.437001a55.646818 55.646818 0 0 0-55.646818-56.033254h-22.799738a8.501597 8.501597 0 0 1-8.598206-8.501598zM95.803343 216.421683a8.501597 8.501597 0 0 1 6.762634-8.501597h158.052422a8.501597 8.501597 0 0 0 8.501597-8.598206V71.025049a7.535507 7.535507 0 0 1 0.676264-2.705054L303.899258 5.813933A8.888033 8.888033 0 0 1 312.787291 0.01739h42.314769a8.501597 8.501597 0 0 1 8.598206 8.501597v285.383162a8.501597 8.501597 0 0 1-8.598206 8.501598H102.565977a8.501597 8.501597 0 0 1-8.501597-8.501598z m311.564218 620.809818a8.501597 8.501597 0 0 1 8.501597-9.17786H910.121108a8.501597 8.501597 0 0 1 8.501597 9.17786v57.385782a8.501597 8.501597 0 0 1-8.501597 9.177861H415.869158a8.21177 8.21177 0 0 1-8.501597-9.177861z m514.346634 177.470843a8.501597 8.501597 0 0 1-8.501597 9.27447h-495.604477a8.21177 8.21177 0 0 1-8.598206-9.27447v-58.931526a8.501597 8.501597 0 0 1 8.501597-9.27447h494.25195a8.501597 8.501597 0 0 1 9.854124 9.177861z m102.405603-231.378698a10.24056 10.24056 0 0 1-8.501597 10.916824H8.661971a9.564297 9.564297 0 0 1-8.501597-10.916824V740.042787a10.24056 10.24056 0 0 1 8.501597-10.916824h1005.507094a9.564297 9.564297 0 0 1 8.598207 10.916824z m0 0" /></svg>