<?xml version="1.0" standalone="no"?><!DOCTYPE svg PUBLIC "-//W3C//DTD SVG 1.1//EN" "http://www.w3.org/Graphics/SVG/1.1/DTD/svg11.dtd"><svg class="icon" width="200px" height="200.00px" viewBox="0 0 1024 1024" version="1.1" xmlns="http://www.w3.org/2000/svg"><path d="M997.83111111 454.99733333c-14.67733333-34.36088889-35.61244445-65.19466667-62.35022222-91.70488888-26.624-26.39644445-57.68533333-47.104-92.16-61.66755556-34.36088889-14.44977778-70.76977778-21.95911111-108.20266667-22.528-3.75466667-14.10844445-8.41955555-27.87555555-14.22222222-41.41511111-15.36-36.06755555-37.43288889-68.38044445-65.42222222-96.14222223s-60.52977778-49.49333333-96.71111111-64.62577777c-37.54666667-15.70133333-77.36888889-23.66577778-118.32888889-23.66577778s-80.78222222 7.96444445-118.32888889 23.66577778c-36.29511111 15.24622222-68.83555555 36.97777778-96.71111111 64.62577777-27.98933333 27.76177778-49.94844445 60.07466667-65.42222223 96.14222223-15.92888889 37.43288889-24.12088889 77.14133333-24.12088888 118.10133333 0 7.73688889 0.34133333 15.47377778 0.91022222 23.09688889-25.6 13.76711111-48.81066667 31.97155555-68.72177778 53.81688889-42.21155555 46.64888889-65.42222222 106.83733333-65.42222222 169.41511111 0 34.24711111 6.82666667 67.584 20.36622222 99.10044445 12.97066667 30.15111111 31.40266667 57.344 54.84088889 80.55466666s50.74488889 41.52888889 81.00977778 54.272c31.51644445 13.312 64.85333333 20.02488889 99.10044444 20.02488889h53.93066667l45.51111111-86.47111111h-99.44177778c-92.84266667 0-168.84622222-75.32088889-168.84622222-167.48088889 0-85.33333333 65.30844445-156.21688889 148.93511111-166.11555555-10.01244445-24.80355555-15.70133333-51.76888889-15.70133333-80.09955556 0-119.35288889 97.62133333-216.17777778 218.112-216.17777778 120.37688889 0 218.112 96.82488889 218.112 216.17777778 0 7.96444445-0.45511111 15.81511111-1.36533333 23.552 22.75555555-8.76088889 47.44533333-13.76711111 73.38666666-13.76711111 112.52622222 0 203.66222222 90.45333333 203.66222222 201.95555555 0 104.78933333-80.55466667 190.91911111-183.63733333 200.93155556-5.91644445 0.68266667-11.94666667 1.024-18.09066667 1.024h-69.97333333l-45.51111111 86.47111111h115.48444444c8.64711111 0 17.74933333-0.45511111 26.85155556-1.47911111 71.11111111-7.05422222 136.98844445-39.82222222 185.344-92.38755556 49.03822222-53.248 76.00355555-122.42488889 76.00355556-194.56 0.11377778-39.02577778-7.62311111-76.91377778-22.86933334-112.64zM419.15733333 975.41688889c-6.82666667 0-13.76711111-1.59288889-20.25244444-5.12-21.04888889-11.264-29.01333333-37.43288889-17.86311111-58.48177778l22.07288889-41.41511111c11.264-21.04888889 37.43288889-29.01333333 58.48177778-17.86311111 21.04888889 11.264 29.01333333 37.43288889 17.8631111 58.48177778L457.38666667 952.43377778c-7.73688889 14.67733333-22.75555555 22.98311111-38.22933334 22.98311111zM513.024 811.12177778c-6.82666667 0-13.76711111-1.59288889-20.25244445-5.12-21.04888889-11.264-29.01333333-37.43288889-17.8631111-58.48177778l22.07288888-41.41511111c11.264-21.04888889 37.43288889-29.01333333 58.48177778-17.86311111 21.04888889 11.264 29.01333333 37.43288889 17.86311111 58.48177777l-22.07288889 41.41511112c-7.73688889 14.56355555-22.75555555 22.98311111-38.22933333 22.98311111zM606.32177778 413.12711111c-12.288 0-24.576-5.23377778-33.10933333-15.36-15.36-18.20444445-13.08444445-45.51111111 5.12-60.87111111 43.69066667-36.864 99.21422222-57.11644445 156.44444444-57.11644445 23.89333333 0 43.23555555 19.34222222 43.23555556 43.23555556s-19.34222222 43.23555555-43.23555556 43.23555556c-36.864 0-72.59022222 13.08444445-100.69333334 36.75022222-8.07822222 6.71288889-17.97688889 10.12622222-27.76177777 10.12622222z" /></svg>