<?xml version="1.0" standalone="no"?><!DOCTYPE svg PUBLIC "-//W3C//DTD SVG 1.1//EN" "http://www.w3.org/Graphics/SVG/1.1/DTD/svg11.dtd"><svg class="icon" width="200px" height="200.00px" viewBox="0 0 1024 1024" version="1.1" xmlns="http://www.w3.org/2000/svg"><path d="M992.256 440.32c-14.56355555-34.13333333-35.27111111-64.62577778-61.78133333-90.90844445-26.39644445-26.16888889-57.11644445-46.76266667-91.36355556-61.09866666-33.792-14.22222222-69.51822222-21.73155555-106.38222222-22.30044444-3.64088889-13.65333333-8.30577778-27.07911111-13.88088889-40.27733334-15.24622222-35.72622222-37.09155555-67.81155555-64.85333333-95.34577778-27.648-27.42044445-59.96088889-49.03822222-95.91466667-64.05688888-37.20533333-15.58755555-76.68622222-23.552-117.30488889-23.552-40.61866667 0-80.09955555 7.96444445-117.30488889 23.552-35.95377778 15.01866667-68.15288889 36.63644445-95.91466667 64.05688888-27.76177778 27.53422222-49.49333333 59.61955555-64.85333333 95.34577778-15.81511111 37.09155555-23.89333333 76.45866667-23.89333333 117.07733334 0 7.39555555 0.22755555 14.79111111 0.79644444 22.18666666-25.14488889 13.65333333-48.01422222 31.51644445-67.47022222 53.13422222-41.87022222 46.30755555-64.85333333 105.92711111-64.85333333 167.936 0 34.01955555 6.82666667 67.01511111 20.13866667 98.304 12.85688889 29.92355555 31.17511111 56.88888889 54.38577777 79.872 23.21066667 22.98311111 50.28977778 41.18755555 80.32711111 53.81688889 31.28888889 13.19822222 64.28444445 19.79733333 98.304 19.79733333h28.78577778l45.51111111-86.4711111h-74.29688889c-91.70488889 0-166.79822222-74.41066667-166.79822222-165.31911112 0-84.30933333 64.512-154.28266667 147.00088889-164.06755555-9.89866667-24.46222222-15.47377778-51.2-15.47377778-79.18933333 0-117.87377778 96.36977778-213.44711111 215.26755556-213.44711112 118.89777778 0 215.26755555 95.57333333 215.26755555 213.44711112 0 7.85066667-0.45511111 15.58755555-1.36533333 23.21066666 22.528-8.64711111 46.87644445-13.53955555 72.47644445-13.53955556 111.04711111 0 201.15911111 89.31555555 201.1591111 199.45244445 0 103.53777778-79.53066667 188.52977778-181.36177777 198.42844445-5.91644445 0.68266667-11.83288889 1.024-17.86311111 1.024h-92.95644445l-45.51111111 86.4711111H729.31555555c8.64711111 0 17.63555555-0.45511111 26.624-1.4791111 70.54222222-6.94044445 135.73688889-39.48088889 183.75111112-91.59111112C988.16 691.99644445 1014.89777778 623.50222222 1014.89777778 551.82222222c0-38.57066667-7.62311111-76.11733333-22.64177778-111.50222222zM549.888 749.11288889h-126.29333333c-7.50933333 0-13.65333333-6.144-13.65333334-13.65333334s6.144-13.65333333 13.65333334-13.65333333h126.29333333c7.50933333 0 13.65333333 6.144 13.65333333 13.65333333s-6.144 13.65333333-13.65333333 13.65333334zM486.74133333 812.25955555c-7.50933333 0-13.65333333-6.144-13.65333333-13.65333333v-126.29333333c0-7.50933333 6.144-13.65333333 13.65333333-13.65333334s13.65333333 6.144 13.65333334 13.65333334v126.29333333c-0.11377778 7.50933333-6.144 13.65333333-13.65333334 13.65333333zM442.02666667 796.10311111c-3.52711111 0-6.94044445-1.36533333-9.67111112-3.98222222-5.34755555-5.34755555-5.34755555-13.99466667 0-19.34222222l89.31555556-89.31555556c5.34755555-5.34755555 13.99466667-5.34755555 19.34222222 0 5.34755555 5.34755555 5.34755555 13.99466667 0 19.34222222L451.69777778 792.12088889c-2.73066667 2.73066667-6.144 3.98222222-9.67111111 3.98222222zM531.34222222 796.10311111c-3.52711111 0-6.94044445-1.36533333-9.67111111-3.98222222L432.35555555 702.80533333c-5.34755555-5.34755555-5.34755555-13.99466667 0-19.34222222 5.34755555-5.34755555 13.99466667-5.34755555 19.34222223 0l89.31555555 89.31555556c5.34755555 5.34755555 5.34755555 13.99466667 0 19.34222222-2.61688889 2.73066667-6.144 3.98222222-9.67111111 3.98222222zM465.80622222 919.89333333h-126.29333333c-7.50933333 0-13.65333333-6.144-13.65333334-13.65333333s6.144-13.65333333 13.65333334-13.65333333h126.29333333c7.50933333 0 13.65333333 6.144 13.65333333 13.65333333-0.11377778 7.62311111-6.144 13.65333333-13.65333333 13.65333333zM402.54577778 983.15377778c-7.50933333 0-13.65333333-6.144-13.65333333-13.65333333V843.09333333c0-7.50933333 6.144-13.65333333 13.65333333-13.65333333s13.65333333 6.144 13.65333333 13.65333333v126.29333334c0 7.62311111-6.03022222 13.76711111-13.65333333 13.76711111zM357.94488889 966.99733333c-3.52711111 0-6.94044445-1.36533333-9.67111111-3.98222222-5.34755555-5.34755555-5.34755555-13.99466667 0-19.34222222l89.31555555-89.31555556c5.34755555-5.34755555 13.99466667-5.34755555 19.34222222 0 5.34755555 5.34755555 5.34755555 13.99466667 0 19.34222222L367.50222222 963.01511111c-2.61688889 2.61688889-6.144 3.98222222-9.55733333 3.98222222zM447.26044445 966.99733333c-3.52711111 0-6.94044445-1.36533333-9.67111112-3.98222222l-89.31555555-89.31555556c-5.34755555-5.34755555-5.34755555-13.99466667 0-19.34222222 5.34755555-5.34755555 13.99466667-5.34755555 19.34222222 0l89.31555555 89.31555556c5.34755555 5.34755555 5.34755555 13.99466667 0 19.34222222-2.73066667 2.61688889-6.144 3.98222222-9.6711111 3.98222222zM603.93244445 399.92888889c-12.288 0-24.576-5.23377778-33.10933334-15.36-15.36-18.20444445-13.08444445-45.51111111 5.12-60.87111111 43.23555555-36.40888889 98.19022222-56.54755555 154.85155556-56.54755556 23.89333333 0 43.23555555 19.34222222 43.23555555 43.23555556s-19.34222222 43.23555555-43.23555555 43.23555555c-36.18133333 0-71.45244445 12.85688889-99.10044445 36.18133334-8.07822222 6.82666667-17.97688889 10.12622222-27.76177777 10.12622222z" /></svg>