<?xml version="1.0" standalone="no"?><!DOCTYPE svg PUBLIC "-//W3C//DTD SVG 1.1//EN" "http://www.w3.org/Graphics/SVG/1.1/DTD/svg11.dtd"><svg class="icon" width="200px" height="200.00px" viewBox="0 0 1024 1024" version="1.1" xmlns="http://www.w3.org/2000/svg"><path d="M333.25511111 850.37511111c-156.21688889 0-278.18666667-16.95288889-284.21688889-17.74933333-23.66577778-3.29955555-40.04977778-25.25866667-36.75022222-48.81066667s25.25866667-40.04977778 48.81066667-36.75022222c2.27555555 0.34133333 173.39733333 24.00711111 364.20266666 14.79111111 168.96-8.07822222 388.32355555-43.80444445 476.72888889-167.70844445l0.91022223-1.36533333c17.52177778-26.624 26.73777778-57.57155555 26.73777777-89.54311111 0-89.88444445-73.04533333-162.92977778-162.92977777-162.92977778s-162.92977778 73.04533333-162.92977778 162.92977778c0 23.89333333-19.34222222 43.23555555-43.23555556 43.23555556s-43.23555555-19.34222222-43.23555556-43.23555556c0-66.67377778 25.94133333-129.25155555 73.04533334-176.35555556 47.104-47.104 109.68177778-73.04533333 176.35555556-73.04533333s129.25155555 25.94133333 176.35555555 73.04533333 73.04533333 109.68177778 73.04533333 176.35555556c0 46.99022222-13.08444445 92.61511111-37.888 132.20977778l-0.34133333 1.024-3.52711111 5.00622222C925.80977778 711.45244445 844.91377778 764.58666667 734.208 799.51644445c-84.65066667 26.73777778-187.61955555 43.12177778-305.94844445 48.69688888-32.54044445 1.47911111-64.39822222 2.16177778-95.00444444 2.16177778zM206.16533333 716.91377778c-58.25422222 0-112.41244445-6.59911111-148.13866666-10.80888889-4.55111111-0.56888889-8.76088889-1.024-12.74311112-1.47911111-23.66577778-2.84444445-40.73244445-24.34844445-37.888-48.01422223 2.73066667-23.66577778 24.23466667-40.73244445 47.90044445-37.888 3.98222222 0.45511111 8.30577778 1.024 13.08444445 1.5928889 74.752 8.98844445 272.27022222 32.88177778 330.63822222-51.88266667l1.59288888-2.50311111c4.77866667-7.168 7.28177778-15.58755555 7.28177778-24.23466667 0-24.34844445-19.79733333-44.14577778-44.14577778-44.14577778s-44.14577778 19.79733333-44.14577777 44.14577778c0 23.89333333-19.34222222 43.23555555-43.23555556 43.23555555s-43.23555555-19.34222222-43.23555555-43.23555555c0-72.02133333 58.59555555-130.61688889 130.61688888-130.61688889S494.36444445 469.56088889 494.36444445 541.58222222c0 23.552-6.25777778 46.42133333-18.20444445 66.56l-0.11377778 0.34133333-2.95822222 4.6648889c-38.22933333 59.05066667-109.68177778 93.184-212.53688889 101.60355555-18.31822222 1.47911111-36.52266667 2.16177778-54.38577778 2.16177778zM875.74755555 855.15377778m-43.80444444 0a43.80444445 43.80444445 0 1 0 87.60888889 0 43.80444445 43.80444445 0 1 0-87.60888889 0ZM516.66488889 673.67822222m-29.80977778 0a29.80977778 29.80977778 0 1 0 59.61955556 0 29.80977778 29.80977778 0 1 0-59.61955556 0Z" /></svg>