<?xml version="1.0" standalone="no"?><!DOCTYPE svg PUBLIC "-//W3C//DTD SVG 1.1//EN" "http://www.w3.org/Graphics/SVG/1.1/DTD/svg11.dtd"><svg class="icon" width="200px" height="200.00px" viewBox="0 0 1024 1024" version="1.1" xmlns="http://www.w3.org/2000/svg"><path d="M441.45777778 188.30222222c120.49066667 0 218.112 98.64533333 218.112 220.38755556 0 8.07822222-0.45511111 16.15644445-1.36533333 24.00711111 22.75555555-8.87466667 47.44533333-13.99466667 73.38666666-13.99466667 112.52622222 0 203.776 92.16 203.776 205.93777778 0 106.83733333-80.55466667 194.67377778-183.63733333 204.91377778-5.91644445 0.68266667-11.94666667 1.024-18.09066667 1.024H259.072c-92.95644445 0-168.96-76.8-168.96-170.66666667 0-87.04 65.30844445-159.28888889 148.93511111-169.41511111-10.01244445-25.25866667-15.70133333-52.79288889-15.70133333-81.69244445 0.11377778-121.856 97.73511111-220.50133333 218.112-220.50133333m0-86.47111111c-41.18755555 0-81.23733333 8.192-118.89777778 24.23466667-36.29511111 15.47377778-68.83555555 37.66044445-96.82488889 65.87733333-27.87555555 28.21688889-49.72088889 60.98488889-65.08088889 97.50755556-15.81511111 37.77422222-23.89333333 77.93777778-23.89333333 119.12533333 0 8.30577778 0.34133333 16.61155555 1.024 24.91733333-25.82755555 14.10844445-49.37955555 32.768-69.40444444 55.296-41.87022222 47.21777778-64.85333333 107.86133333-64.85333334 170.89422222 0 34.47466667 6.71288889 68.03911111 20.13866667 99.78311112 12.85688889 30.49244445 31.17511111 58.02666667 54.49955555 81.57866666 23.43822222 23.66577778 50.63111111 42.32533333 81.00977778 55.296 31.63022222 13.53955555 65.19466667 20.48 99.66933334 20.48h474.5671111c8.76088889 0 17.86311111-0.45511111 27.07911112-1.47911111 71.33866667-7.168 137.32977778-40.61866667 185.68533333-94.208 48.69688889-53.93066667 75.43466667-123.67644445 75.43466667-196.608 0-39.36711111-7.62311111-77.48266667-22.75555556-113.55022222-14.56355555-34.816-35.38488889-66.10488889-62.00888889-92.84266667-26.624-26.85155555-57.68533333-48.01422222-92.27377777-62.80533333-34.47466667-14.67733333-70.88355555-22.528-108.43022223-23.09688889-3.75466667-14.56355555-8.53333333-28.78577778-14.336-42.78044444-15.24622222-36.52266667-37.20533333-69.29066667-65.08088889-97.50755556S596.19555555 141.53955555 559.90044445 126.06577778C522.69511111 110.02311111 482.75911111 101.83111111 441.45777778 101.83111111zM609.16622222 466.944c-12.17422222 0-24.23466667-5.12-32.768-15.01866667-15.58755555-18.09066667-13.53955555-45.39733333 4.55111111-60.98488888 43.69066667-37.54666667 99.44177778-58.25422222 156.78577778-58.25422223 23.89333333 0 43.23555555 19.34222222 43.23555556 43.23555556s-19.34222222 43.23555555-43.23555556 43.23555555c-36.63644445 0-72.36266667 13.312-100.352 37.43288889-8.192 6.94044445-18.20444445 10.35377778-28.21688889 10.35377778z" /></svg>