<?xml version="1.0" standalone="no"?><!DOCTYPE svg PUBLIC "-//W3C//DTD SVG 1.1//EN" "http://www.w3.org/Graphics/SVG/1.1/DTD/svg11.dtd"><svg class="icon" width="200px" height="200.00px" viewBox="0 0 1024 1024" version="1.1" xmlns="http://www.w3.org/2000/svg"><path d="M896 288h117.333333v597.333333h-853.333333V768h64v53.333333h725.333333v-469.333333H896v-64zM10.666667 138.666667h853.333333v597.333333H10.666667v-597.333333z m64 64v469.333333h725.333333v-469.333333h-725.333333zM128 277.333333h277.333333v64H128v-64z m0 128h170.666667v64H128v-64z m501.269333-30.272L629.098667 405.333333H704v64h-75.242667l-0.234666 42.666667H704v64h-75.818667l-0.234666 42.837333-64-0.341333 0.213333-42.496H490.666667v-64h73.856l0.213333-42.666667H490.666667v-64h74.453333l0.149333-29.184-75.946666-76.224 45.354666-45.184 62.144 62.421334 63.36-62.592 44.970667 45.525333-75.882667 74.965333z" /></svg>