<?xml version="1.0" standalone="no"?><!DOCTYPE svg PUBLIC "-//W3C//DTD SVG 1.1//EN" "http://www.w3.org/Graphics/SVG/1.1/DTD/svg11.dtd"><svg class="icon" width="200px" height="200.00px" viewBox="0 0 1024 1024" version="1.1" xmlns="http://www.w3.org/2000/svg"><path d="M921.7903463 370.51078301c-60.35307679-60.35307679-140.66728792-93.58249456-226.03049187-93.58249455-61.99693492 0-121.99775639 17.84760247-173.77928726 51.42927555-36.7519709 23.95336122-68.10269365 55.06924712-92.17347331 91.23412581-32.99458089-14.79472311-68.80720428-22.42692153-105.55917516-22.42692154-69.27687803 0-134.44411074 27.00624059-183.40759911 75.96972896-48.96348837 48.96348837-75.96972895 114.13072109-75.96972896 183.40759913 0 53.54280743 16.20374435 104.97208298 46.84995649 148.65174165 29.70686465 42.38805588 70.92073615 74.56070771 119.06229547 93.23023925 27.59333277 11.74184374 56.71310524 17.6127656 86.65480674 17.61276559h15.14697842l46.96737494-89.23801237h-62.11435336c-18.08243935 0-35.57778651-3.63997156-52.13378617-10.68507779l-1.64385812-0.70451062c-65.4020696-25.1275456-109.43398359-88.88575706-109.43398359-158.74972729 0-93.81733143 76.32198426-170.25673414 170.25673413-170.25673412 34.87327589 0 68.33753053 10.56765936 96.98762923 30.5287937l43.44482181 30.29395682 22.42692154-48.02414087c37.80873682-80.78388488 119.64938764-133.03508949 208.53514471-133.03508949 127.04674919 0 230.37497405 103.32822486 230.37497405 230.37497405 0 112.95653672-80.90130332 208.41772626-192.4488188 226.96983937l-2.11353187 0.35225531c-5.63608499 1.17418437-19.96113434 2.46578718-32.05523339 2.93546093l-47.08479337 89.35543081h39.21775807c11.27216999 0 39.80485026-1.17418437 57.53503429-4.81415593 73.50394177-12.44635437 140.66728792-50.48992806 189.39593942-107.20303329 49.55058055-57.76987117 76.79165802-131.39123137 76.79165801-207.5957972-0.11741844-85.36320395-33.34683621-165.67741508-93.69991298-226.03049187zM158.10082988 465.15004351c-1.76127657-11.9766806-2.58320562-24.18819809-2.58320562-36.39971559 0-67.51560146 26.30172996-131.03897606 74.09103395-178.71086161 47.78930398-47.78930398 111.19526015-74.09103396 178.71086162-74.09103395 86.41996988 0 166.02967039 43.44482181 212.76220844 116.36167139 4.34448218 6.81026937 8.45412749 13.8553756 12.09409906 21.01790028l-79.37486364 40.74419775c-2.34836874-4.69673749-5.04899281-9.27605655-7.8670353-13.62053872-30.29395684-47.20221181-81.72323238-75.26521833-137.73182699-75.26521834-90.17735987 0-163.56388322 73.38652334-163.56388321 163.5638832 0 7.8670353 0.58709219 15.85148904 1.64385812 23.60110591l-88.18124643 12.79860968zM385.54034299 145.06738333c-24.65787184 0-44.61900618-19.96113434-44.61900618-44.61900619V72.85504437c0-24.65787184 19.96113434-44.61900618 44.61900618-44.61900619s44.61900618 19.96113434 44.61900619 44.61900619v27.47591434c0 24.77529028-19.96113434 44.73642462-44.61900619 44.73642462zM183.46321234 216.45779323c-11.38958843 0-22.77917685-4.34448218-31.58555965-13.03344654l-19.49146059-19.49146059c-17.37792873-17.37792873-17.37792873-45.67577212 0-63.05370086 17.37792873-17.37792873 45.67577212-17.37792873 63.05370085 0l19.49146059 19.49146059c17.37792873 17.37792873 17.37792873 45.67577212 0 63.05370086-8.57154593 8.68896436-19.96113434 13.03344654-31.4681412 13.03344654zM79.31305843 417.47815795H51.71972565c-24.65787184 0-44.61900618-19.96113434-44.61900619-44.61900619s19.96113434-44.61900618 44.61900619-44.61900619h27.47591433c24.65787184 0 44.61900618 19.96113434 44.6190062 44.61900619s-19.84371591 44.61900618-44.50158775 44.61900619zM600.41608331 205.18562325c-11.38958843 0-22.89659528-4.34448218-31.58555964-13.03344655-17.37792873-17.37792873-17.37792873-45.67577212 0-63.05370084l19.49146059-19.49146061c17.37792873-17.37792873 45.67577212-17.37792873 63.05370085 0 17.37792873 17.37792873 17.37792873 45.67577212 0 63.05370085l-19.49146059 19.4914606c-8.68896436 8.68896436-20.07855279 13.03344654-31.46814121 13.03344655zM630.24036639 774.89988119h-116.24425296c-6.9276878 0-12.56377279-5.63608499-12.56377279-12.5637728 0-6.9276878 5.63608499-12.56377279 12.56377279-12.56377279h116.24425296c6.9276878 0 12.56377279 5.63608499 12.5637728 12.56377279 0 6.9276878-5.51866654 12.56377279-12.5637728 12.5637728zM572.11823991 833.02200768c-6.9276878 0-12.56377279-5.63608499-12.56377279-12.56377281v-116.24425295c0-6.9276878 5.63608499-12.56377279 12.56377279-12.5637728s12.56377279 5.63608499 12.56377281 12.5637728v116.24425295c0 6.9276878-5.63608499 12.56377279-12.56377281 12.56377281zM531.02178685 818.22728457c-3.1702978 0-6.45801406-1.17418437-8.92380123-3.63997156-4.93157437-4.93157437-4.93157437-12.79860968 0-17.73018404l82.19290612-82.19290613c4.93157437-4.93157437 12.79860968-4.93157437 17.73018404 0 4.93157437 4.93157437 4.93157437 12.79860968 0 17.73018404l-82.19290614 82.19290613c-2.34836874 2.34836874-5.63608499 3.63997156-8.80638279 3.63997156zM613.21469299 818.22728457c-3.1702978 0-6.45801406-1.17418437-8.92380125-3.63997156l-82.19290612-82.19290613c-4.93157437-4.93157437-4.93157437-12.79860968 0-17.73018404 4.93157437-4.93157437 12.79860968-4.93157437 17.73018402 0l82.19290614 82.19290613c4.93157437 4.93157437 4.93157437 12.79860968 0 17.73018404-2.34836874 2.34836874-5.51866654 3.63997156-8.80638279 3.63997156zM551.21775807 941.28180688h-116.24425296c-6.9276878 0-12.56377279-5.63608499-12.5637728-12.56377279s5.63608499-12.56377279 12.5637728-12.56377279h116.24425296c6.9276878 0 12.56377279 5.63608499 12.56377279 12.56377279s-5.63608499 12.56377279-12.56377279 12.56377279zM493.09563159 999.5213518c-6.9276878 0-12.56377279-5.63608499-12.5637728-12.56377279v-116.24425296c0-6.9276878 5.63608499-12.56377279 12.5637728-12.56377279 6.9276878 0 12.56377279 5.63608499 12.56377279 12.56377279v116.24425296c0 6.9276878-5.63608499 12.56377279-12.56377279 12.56377279zM451.99917851 984.60921026c-3.1702978 0-6.45801406-1.17418437-8.92380122-3.63997155-4.93157437-4.93157437-4.93157437-12.79860968 0-17.73018404l82.19290613-82.19290614c4.93157437-4.93157437 12.79860968-4.93157437 17.73018403 0 4.93157437 4.93157437 4.93157437 12.79860968 0 17.73018405l-82.19290612 82.19290613c-2.46578718 2.46578718-5.63608499 3.63997156-8.80638282 3.63997155zM534.19208465 984.60921026c-3.1702978 0-6.45801406-1.17418437-8.92380123-3.63997155l-82.19290613-82.19290613c-4.93157437-4.93157437-4.93157437-12.79860968 0-17.73018405 4.93157437-4.93157437 12.79860968-4.93157437 17.73018404 0l82.19290612 82.19290614c4.93157437 4.93157437 4.93157437 12.79860968 0 17.73018404-2.34836874 2.46578718-5.63608499 3.63997156-8.8063828 3.63997155zM480.06218505 588.90907646c-19.49146059 0-37.33906307-12.9160281-42.97514807-32.52490714-4.69673749-16.79083654-15.26439685-31.35072277-29.5894462-41.21387152-20.4308081-13.8553756-25.71463778-41.56612681-11.85926218-61.9969349 13.8553756-20.4308081 41.56612681-25.71463778 61.99693491-11.85926218 31.82039652 21.60499247 55.06924712 53.77764429 65.4020696 90.8818705 6.69285093 23.71852434-7.16252468 48.37639619-30.88104902 55.06924711-3.99222687 1.05676594-8.10187218 1.64385812-12.09409904 1.64385813z" /></svg>