<?xml version="1.0" standalone="no"?><!DOCTYPE svg PUBLIC "-//W3C//DTD SVG 1.1//EN" "http://www.w3.org/Graphics/SVG/1.1/DTD/svg11.dtd"><svg class="icon" width="200px" height="200.00px" viewBox="0 0 1024 1024" version="1.1" xmlns="http://www.w3.org/2000/svg"><path d="M155.72665392 454.03894306c-1.70140089-12.02323295-2.60881471-24.27331934-2.6088147-36.52340575 0-67.82918209 26.42842715-131.57500205 74.29450548-179.44108037 47.97950506-47.97950506 111.61189829-74.29450548 179.4410804-74.29450547 86.77144532 0 166.62386034 43.66928948 213.6959516 116.71610096 4.42364231 6.80560356 8.50700444 13.95148728 12.13665966 21.09737101l-76.6764667 39.3590739c-2.49538796-4.7639225-5.10420267-9.41441825-8.05329754-13.95148731-31.07892289-48.31978523-83.82235045-77.13017361-141.10284702-77.1301736-92.4427816 0-167.53127417 75.20191926-167.53127418 167.53127417 0 8.16672426 0.56713363 16.2200218 1.70140089 24.27331934l-85.29689789 12.36351312zM383.94122646 128.27738624c-23.81961243 0-43.10215583-19.2825434-43.10215587-43.10215583V57.27225584c0-23.81961243 19.2825434-43.10215583 43.10215587-43.10215586s43.10215583 19.2825434 43.10215584 43.10215586v27.90297457c0 23.81961243-19.2825434 43.10215583-43.10215584 43.10215583zM179.43283964 200.53021065c-11.00239241 0-22.11821156-4.19678886-30.51178928-12.59036657l-19.73625031-19.73625031c-16.78715543-16.78715543-16.78715543-44.12299637 0-60.91015181 16.78715543-16.78715543 44.12299637-16.78715543 60.91015182 0l19.7362503 19.7362503c16.78715543 16.78715543 16.78715543 44.12299637 0 60.91015182-8.39357772 8.39357772-19.39597012 12.59036659-30.39836253 12.59036657zM73.94598454 404.01775694h-27.90297457c-23.81961243 0-43.10215583-19.2825434-43.10215585-43.10215583s19.2825434-43.10215583 43.10215585-43.10215587h27.90297457c23.81961243 0 43.10215583 19.2825434 43.10215584 43.10215587s-19.2825434 43.10215583-43.10215584 43.10215583zM601.26683329 189.18753806c-11.00239241 0-22.11821156-4.19678886-30.51178927-12.59036658-16.78715543-16.78715543-16.78715543-44.12299637 0-60.91015181l19.73625031-19.73625031c16.78715543-16.78715543 44.12299637-16.78715543 60.91015182 0s16.78715543 44.12299637 0 60.91015182l-19.73625033 19.7362503c-8.280151 8.39357772-19.2825434 12.59036659-30.39836253 12.59036658zM437.25178763 1011.64472763c-6.80560356 0-13.72463383-1.58797418-20.18995722-5.10420267-20.9839443-11.22924587-28.9238151-37.31739281-17.80799598-58.30133712l20.30338397-38.1113799c11.22924587-20.9839443 37.31739281-28.9238151 58.30133711-17.80799597 20.9839443 11.22924587 28.9238151 37.31739281 17.80799597 58.30133711l-20.30338395 38.11137992c-7.71301738 14.51862092-22.68534519 22.91219863-38.1113799 22.91219863zM522.32183206 865.55110466c-6.80560356 0-13.72463383-1.58797418-20.18995723-5.10420267-20.9839443-11.22924587-28.9238151-37.31739281-17.80799595-58.30133713l20.30338394-38.11137988c11.22924587-20.9839443 37.31739281-28.9238151 58.30133711-17.80799597 20.9839443 11.22924587 28.9238151 37.31739281 17.80799598 58.30133711l-20.30338394 38.11137991c-7.71301738 14.63204763-22.68534519 22.91219863-38.11137991 22.91219863zM461.1848268 563.26888011c-18.82883651 0-36.06969883-12.47693982-41.51418169-31.41920308-4.87734921-17.46771577-15.87974163-32.66689707-30.85206945-42.76187566-19.73625031-13.38435366-24.84045298-40.15306097-11.45609931-59.88931128s40.15306097-24.84045298 59.88931128-11.45609931c31.75948326 21.55107792 55.01196207 53.76426809 65.44722085 90.85480743 6.46532338 22.91219863-6.91903028 46.73181106-29.83122891 53.19713448-3.85650868 0.9074138-7.82644409 1.47454744-11.68295277 1.47454742zM925.21356249 360.121614c-60.79672509-60.68329837-141.4431272-94.1441825-227.30715873-94.14418249-62.27127252 0-122.6142907 17.80799598-174.67715789 51.72258701-37.54424628 24.38674606-69.30372954 56.14622932-93.69047559 93.23676871-33.57431087-15.31260799-70.0977166-23.25247881-107.52853617-23.25247883-69.53058299 0-134.97780382 27.1089875-184.20500289 76.33618654-49.22719903 49.22719903-76.33618654 114.56099317-76.33618653 184.20500289 0 53.76426809 16.2200218 105.37342836 47.07209124 149.26957128 29.83122892 42.53502222 71.23198387 74.8616391 119.55176912 93.57704886 27.67612112 11.68295277 56.82678968 17.69456925 86.88487205 17.69456925h15.99316835l45.37069036-86.20431168h-61.36385871c-18.60198305 0-36.63683247-3.62965524-53.65084136-11.00239243l-1.58797417-0.68056035c-67.03519501-25.74786678-112.06560519-91.0816609-112.06560519-162.65392493 0-96.18586357 78.26444088-174.33687772 174.33687773-174.33687772 35.61599193 0 69.98428989 10.77553896 99.36181188 31.19234961l41.9678886 29.26409527 21.66450464-46.39153088c38.56508681-82.57465647 122.16058381-135.88521763 212.90196453-135.88521762 129.76017445 0 235.24702954 105.60028182 235.24702953 235.24702951 0 115.35498025-82.68808319 212.7885378-196.45508927 231.73080104l-2.04168106 0.34028017c-7.25931045 1.47454744-27.78954786 3.06252158-40.83362134 3.0625216h-13.61120711l-45.37069035 86.2043117h58.98189746c11.34267259 0 40.03963425-1.13426728 57.84763022-4.65049576 73.84079857-12.47693982 141.4431272-50.8151732 190.4434728-107.86881635 49.79433269-57.96105694 77.24360034-132.1421357 77.24360035-208.70517565 0-85.86403151-33.46088414-166.62386034-94.1441825-227.30715875z" /></svg>