<?xml version="1.0" standalone="no"?><!DOCTYPE svg PUBLIC "-//W3C//DTD SVG 1.1//EN" "http://www.w3.org/Graphics/SVG/1.1/DTD/svg11.dtd"><svg class="icon" width="200px" height="200.00px" viewBox="0 0 1024 1024" version="1.1" xmlns="http://www.w3.org/2000/svg"><path d="M999.53777778 453.29066667c-14.67733333-34.47466667-35.72622222-65.536-62.57777778-92.04622222-26.73777778-26.51022222-57.91288889-47.33155555-92.61511111-61.89511112-34.58844445-14.56355555-71.22488889-22.18666667-108.99911111-22.64177778-3.75466667-14.22222222-8.53333333-28.33066667-14.336-41.984-15.47377778-36.18133333-37.54666667-68.72177778-65.64977778-96.59733333-28.10311111-27.87555555-60.75733333-49.72088889-97.16622222-64.96711111-37.66044445-15.81511111-77.71022222-23.77955555-118.784-23.77955556s-81.12355555 7.96444445-118.784 23.77955556c-36.40888889 15.24622222-69.06311111 37.09155555-97.16622223 64.96711111-28.10311111 27.87555555-50.176 60.416-65.64977777 96.59733333-16.04266667 37.54666667-24.12088889 77.48266667-24.12088889 118.55644445 0 7.85066667 0.34133333 15.70133333 0.91022222 23.552-25.82755555 13.88088889-49.26577778 32.08533333-69.29066666 54.272-42.43911111 46.76266667-65.76355555 107.17866667-65.76355556 169.984 0 34.36088889 6.82666667 67.92533333 20.36622222 99.44177778 12.97066667 30.26488889 31.51644445 57.57155555 55.06844444 80.896 23.552 23.32444445 50.85866667 41.64266667 81.35111112 54.49955555 17.86311111 7.50933333 36.40888889 12.97066667 55.40977778 16.27022222l43.4631111-82.71644444c-93.184-0.34133333-169.30133333-76.00355555-169.30133333-168.39111111 0-85.90222222 65.76355555-157.12711111 149.73155556-167.13955555-10.01244445-24.91733333-15.70133333-52.11022222-15.70133333-80.66844445 0-120.14933333 98.19022222-217.42933333 219.36355555-217.42933333S658.77333333 233.24444445 658.77333333 353.28c0 7.96444445-0.45511111 15.92888889-1.36533333 23.66577778 22.98311111-8.76088889 47.78666667-13.76711111 73.84177778-13.76711111 113.20888889 0 204.91377778 90.90844445 204.91377777 203.20711111 0 105.472-81.00977778 192.05688889-184.66133333 202.18311111-6.03022222 0.68266667-12.06044445 1.024-18.20444444 1.024h-5.68888889l-45.51111111 86.47111111h51.2c8.76088889 0 17.74933333-0.45511111 26.96533333-1.47911111 71.45244445-7.05422222 137.55733333-39.936 186.14044444-92.84266667 49.26577778-53.47555555 76.34488889-122.88 76.3448889-195.35644444-0.11377778-39.13955555-7.96444445-77.25511111-23.21066667-113.09511111zM511.08977778 976.32711111c-6.82666667 0-13.76711111-1.59288889-20.25244445-5.12-21.04888889-11.264-29.01333333-37.43288889-17.86311111-58.48177778l22.18666667-41.64266666c11.264-21.04888889 37.43288889-29.01333333 58.48177778-17.86311112 21.04888889 11.264 29.01333333 37.43288889 17.86311111 58.48177778l-22.18666667 41.64266667c-7.85066667 14.67733333-22.75555555 22.98311111-38.22933333 22.98311111zM605.52533333 811.008c-6.82666667 0-13.76711111-1.59288889-20.25244444-5.12-21.04888889-11.264-29.01333333-37.43288889-17.86311111-58.48177778l22.18666667-41.64266667c11.264-21.04888889 37.43288889-29.01333333 58.48177777-17.8631111 21.04888889 11.264 29.01333333 37.43288889 17.86311111 58.48177777l-22.18666666 41.64266667c-7.85066667 14.67733333-22.75555555 22.98311111-38.22933334 22.98311111zM300.032 976.32711111c-6.82666667 0-13.76711111-1.59288889-20.25244445-5.12-21.04888889-11.264-29.01333333-37.43288889-17.8631111-58.48177778l22.18666666-41.64266666c11.264-21.04888889 37.43288889-29.01333333 58.48177778-17.86311112 21.04888889 11.264 29.01333333 37.43288889 17.86311111 58.48177778l-22.18666667 41.64266667c-7.85066667 14.67733333-22.75555555 22.98311111-38.22933333 22.98311111zM394.46755555 811.008c-6.82666667 0-13.76711111-1.59288889-20.25244444-5.12-21.04888889-11.264-29.01333333-37.43288889-17.86311111-58.48177778l22.18666667-41.64266667c11.264-21.04888889 37.43288889-29.01333333 58.48177778-17.8631111 21.04888889 11.264 29.01333333 37.43288889 17.8631111 58.48177777l-22.18666666 41.64266667c-7.85066667 14.67733333-22.75555555 22.98311111-38.22933334 22.98311111zM611.10044445 410.73777778c-12.288 0-24.576-5.23377778-33.10933334-15.36-15.36-18.20444445-13.08444445-45.51111111 5.12-60.87111111 43.91822222-36.97777778 99.66933333-57.344 157.24088889-57.344 23.89333333 0 43.23555555 19.34222222 43.23555555 43.23555555s-19.34222222 43.23555555-43.23555555 43.23555556c-37.09155555 0-73.15911111 13.19822222-101.48977778 36.97777777-8.07822222 6.82666667-17.97688889 10.12622222-27.76177777 10.12622223z" /></svg>