<?xml version="1.0" standalone="no"?><!DOCTYPE svg PUBLIC "-//W3C//DTD SVG 1.1//EN" "http://www.w3.org/Graphics/SVG/1.1/DTD/svg11.dtd"><svg class="icon" width="200px" height="200.00px" viewBox="0 0 1024 1024" version="1.1" xmlns="http://www.w3.org/2000/svg"><path d="M765.50347112 686.61589399l256.84108908 256.84108909-66.41186742 66.41186852L701.67480858 755.63445072A421.06251665 421.06251665 0 0 1 425.03696985 858.75132275c-233.45133747 0-422.7063744-189.25503693-422.7063744-422.7063744S191.58563239 13.33857395 425.03696985 13.33857395s422.7063744 189.25503693 422.7063744 422.7063744c0 93.79384738-30.52879335 180.44865412-82.23987313 250.57094564zM753.80859476 436.04494835c0-181.57587113-147.19575268-328.7716249-328.77162491-328.7716249S96.26534495 254.46907722 96.26534495 436.04494835s147.19575268 328.7716249 328.7716249 328.77162491 328.7716249-147.19575268 328.77162491-328.77162491z m-140.90212481-46.96737529v93.9347506H237.16746975v-93.9347506h375.7390002z" /></svg>