<?xml version="1.0" standalone="no"?><!DOCTYPE svg PUBLIC "-//W3C//DTD SVG 1.1//EN" "http://www.w3.org/Graphics/SVG/1.1/DTD/svg11.dtd"><svg class="icon" width="200px" height="200.00px" viewBox="0 0 1024 1024" version="1.1" xmlns="http://www.w3.org/2000/svg"><path d="M472.62927727 483.29726668v138.7005291h-92.46702012v-138.7005291h-138.70052911v-92.46702012h138.70052911v-138.7005291h92.46702012v138.7005291h138.70052909v92.46702012h-138.70052909z m288.91320212 200.42226456l252.82794706 252.82794707-65.37418199 65.37418306L698.7111397 751.659673A414.48341483 414.48341483 0 0 1 426.3957672 853.16534392c-229.80366032 0-416.1015873-186.29792698-416.1015873-416.1015873S196.59210688 20.96216932 426.3957672 20.96216932s416.1015873 186.29792698 416.1015873 416.1015873c0 92.32831851-30.05178095 177.6291439-80.95487511 246.65577462zM750.03033547 437.06375662c0-178.73874814-144.89581904-323.63456826-323.63456827-323.63456826S102.76119894 258.32500848 102.76119894 437.06375662s144.89581904 323.63456826 323.63456826 323.63456827 323.63456826-144.89581904 323.63456827-323.63456827z" /></svg>